<?xml version="1.0" encoding="utf-8"?>
<!-- Generator: Adobe Illustrator 18.0.0, SVG Export Plug-In . SVG Version: 6.00 Build 0)  -->
<!DOCTYPE svg PUBLIC "-//W3C//DTD SVG 1.1//EN" "http://www.w3.org/Graphics/SVG/1.1/DTD/svg11.dtd">
<svg version="1.1" id="Layer_1" xmlns="http://www.w3.org/2000/svg" xmlns:xlink="http://www.w3.org/1999/xlink" x="0px" y="0px"
	 viewBox="0 0 25.6 25.6" enable-background="new 0 0 25.6 25.6" xml:space="preserve">
<g>
	<path fill-rule="evenodd" clip-rule="evenodd" fill="#0D6BB5" d="M12.8,0C5.7,0,0,5.7,0,12.8c0,7.1,5.7,12.8,12.8,12.8
		c7.1,0,12.8-5.7,12.8-12.8C25.6,5.7,19.9,0,12.8,0L12.8,0z M12.8,23.2c-5.7,0-10.4-4.7-10.4-10.4c0-5.7,4.7-10.4,10.4-10.4
		c5.7,0,10.4,4.7,10.4,10.4C23.2,18.5,18.5,23.2,12.8,23.2L12.8,23.2z M17.2,9.6c-0.4,0-0.7,0.2-0.9,0.4l0,0l-3.5,3.8L9.3,10l0,0
		C9.1,9.8,8.8,9.6,8.4,9.6c-0.7,0-1.2,0.5-1.2,1.2c0,0.3,0.1,0.6,0.3,0.8h0l4.4,4.8c0.2,0.3,0.6,0.4,0.9,0.4s0.7-0.1,0.9-0.4
		l4.4-4.8h0c0.2-0.2,0.3-0.5,0.3-0.8C18.4,10.1,17.9,9.6,17.2,9.6L17.2,9.6z M17.2,9.6"/>
</g>
</svg>
