<?xml version="1.0" encoding="utf-8"?>
<!-- Generator: Adobe Illustrator 18.0.0, SVG Export Plug-In . SVG Version: 6.00 Build 0)  -->
<!DOCTYPE svg PUBLIC "-//W3C//DTD SVG 1.1//EN" "http://www.w3.org/Graphics/SVG/1.1/DTD/svg11.dtd">
<svg version="1.1" id="Layer_1" xmlns="http://www.w3.org/2000/svg" xmlns:xlink="http://www.w3.org/1999/xlink" x="0px" y="0px"
	 viewBox="0 0 519 639" enable-background="new 0 0 519 639" xml:space="preserve">
<linearGradient id="SVGID_1_" gradientUnits="userSpaceOnUse" x1="10.9119" y1="251.9948" x2="509.0339" y2="251.9948">
	<stop  offset="0" style="stop-color:#F2F2F2"/>
	<stop  offset="1" style="stop-color:#FFFFFF"/>
</linearGradient>
<path fill="url(#SVGID_1_)" d="M11.2,492.4l483.4-277.6c9-5.2,14.4-13.9,14.4-23.2V11.6L25.3,292.1c-9,5.2-14.4,13.9-14.4,23.2
	L11.2,492.4z"/>
<polygon fill="#F2F2F2" points="185.9,404.2 21.3,498.6 246,628.1 246,439.1 "/>
<linearGradient id="SVGID_2_" gradientUnits="userSpaceOnUse" x1="256.7916" y1="467.4759" x2="509" y2="467.4759">
	<stop  offset="0" style="stop-color:#F2F2F2"/>
	<stop  offset="1" style="stop-color:#FFFFFF"/>
</linearGradient>
<path fill="url(#SVGID_2_)" d="M257,445v5.1l0.3-5.1l-0.5,189.1l0.2,0.2v0l237.2-136c9-5.2,14.8-13.9,14.8-23.2V300.6L257,445z"/>
</svg>
