<?xml version="1.0" standalone="no"?>
<!DOCTYPE svg PUBLIC "-//W3C//DTD SVG 1.1//EN" "http://www.w3.org/Graphics/SVG/1.1/DTD/svg11.dtd" >
<svg>
<metadata>
Created by FontForge 20090914 at Thu Feb 23 17:37:06 2012
 By ffonts
8 PinMatrix - Copryright (c) Michel Bujardet 1994 - All rights reserved - Match Software, 8205 Santa Monica Blvd 1-205 West Hollywood CA 90046-5912 (818) 784-3737
</metadata>
<defs>
<font id="8PinMatrix" horiz-adv-x="775" >
  <font-face 
    font-family="8Pin Matrix"
    font-weight="400"
    font-stretch="normal"
    units-per-em="1000"
    panose-1="0 0 4 0 0 0 0 0 0 0"
    ascent="800"
    descent="-200"
    x-height="587"
    cap-height="799"
    bbox="-595 -113 1344 1004"
    underline-thickness="20"
    underline-position="-123"
    unicode-range="U+0020-U+F001"
  />
<missing-glyph horiz-adv-x="500" 
d="M63 0v800h375v-800h-375zM125 63h250v675h-250v-675z" />
    <glyph glyph-name=".notdef" horiz-adv-x="500" 
d="M63 0v800h375v-800h-375zM125 63h250v675h-250v-675z" />
    <glyph glyph-name=".null" horiz-adv-x="0" 
 />
    <glyph glyph-name="nonmarkingreturn" horiz-adv-x="500" 
 />
    <glyph glyph-name="space" unicode=" " horiz-adv-x="500" 
 />
    <glyph glyph-name="exclam" unicode="!" horiz-adv-x="290" 
d="M168 733q-12 -13 -27 -13q-16 0 -28 13t-12 28q0 14 12.5 26t25.5 12v0q24 0 36 -22q12 -24 -7 -44zM168 631q-12 -13 -27 -13q-16 0 -28 13t-12 28q0 14 12.5 26t25.5 12v0q24 0 36 -22q12 -24 -7 -44zM169 529q-12 -13 -27 -13q-16 0 -28 13t-12 28q0 14 12.5 26
t25.5 12v0q24 0 36 -22q12 -24 -7 -44zM168 427q-12 -13 -27 -13q-16 0 -28 13t-12 28q0 14 12.5 26t25.5 12v0q24 0 36 -22q12 -24 -7 -44zM168 324q-12 -13 -27 -13q-16 0 -28 13t-12 29q0 13 12 25t26 12v0q23 0 35 -23q13 -23 -6 -43zM168 221q-12 -13 -27 -13
q-16 0 -28 13t-12 28q0 14 12.5 26t25.5 12v0q24 0 36 -22q12 -24 -7 -44zM168 118q-12 -13 -27 -13q-16 0 -28 13t-12 28q0 14 12.5 26t25.5 12v0q24 0 36 -22q12 -24 -7 -44zM168 -88q-12 -13 -27 -13q-16 0 -28 13t-12 28q0 14 12.5 26t25.5 12v0q24 0 36 -22
q12 -24 -7 -44z" />
    <glyph glyph-name="quotedbl" unicode="&#x22;" horiz-adv-x="395" 
d="M66 733q-12 -13 -27 -13q-16 0 -28 13t-12 28q0 14 12.5 26t25.5 12v0q24 0 36 -22q12 -24 -7 -44zM270 732q-12 -13 -27 -13q-16 0 -28 13t-12 28q0 14 12.5 26t25.5 12v0q24 0 36 -22q12 -24 -7 -44zM66 631q-12 -13 -27 -13q-16 0 -28 13t-12 28q0 14 12.5 26t25.5 12
v0q24 0 36 -22q12 -24 -7 -44zM270 630q-12 -13 -27 -13q-16 0 -28 13t-12 28q0 14 12.5 26t25.5 12v0q24 0 36 -22q12 -24 -7 -44zM67 529q-12 -13 -27 -13q-16 0 -28 13t-12 28q0 14 12.5 26t25.5 12v0q24 0 36 -22q12 -24 -7 -44zM271 528q-12 -13 -27 -13q-16 0 -28 13
t-12 28q0 14 12.5 26t25.5 12v0q24 0 36 -22q12 -24 -7 -44z" />
    <glyph glyph-name="numbersign" unicode="#" horiz-adv-x="960" 
d="M474 732q-12 -13 -27 -13q-16 0 -28 13t-12 28q0 14 12.5 26t25.5 12v0q24 0 36 -22q12 -24 -7 -44zM270 732q-12 -13 -27 -13q-16 0 -28 13t-12 28q0 14 12.5 26t25.5 12v0q24 0 36 -22q12 -24 -7 -44zM474 630q-12 -13 -27 -13q-16 0 -28 13t-12 28q0 14 12.5 26
t25.5 12v0q24 0 36 -22q12 -24 -7 -44zM270 630q-12 -13 -27 -13q-16 0 -28 13t-12 28q0 14 12.5 26t25.5 12v0q24 0 36 -22q12 -24 -7 -44zM169 529q-12 -13 -27 -13q-16 0 -28 13t-12 28q0 14 12.5 26t25.5 12v0q24 0 36 -22q12 -24 -7 -44zM67 529q-12 -13 -27 -13
q-16 0 -28 13t-12 28q0 14 12.5 26t25.5 12v0q24 0 36 -22q12 -24 -7 -44zM577 528q-12 -13 -27 -13q-16 0 -28 13t-12 28q0 14 12.5 26t25.5 12v0q24 0 36 -22q12 -24 -7 -44zM475 528q-12 -13 -27 -13q-16 0 -28 13t-12 28q0 14 12.5 26t25.5 12v0q24 0 36 -22
q12 -24 -7 -44zM373 528q-12 -13 -27 -13q-16 0 -28 13t-12 28q0 14 12.5 26t25.5 12v0q24 0 36 -22q12 -24 -7 -44zM271 528q-12 -13 -27 -13q-16 0 -28 13t-12 28q0 14 12.5 26t25.5 12v0q24 0 36 -22q12 -24 -7 -44zM679 527q-12 -13 -27 -13q-16 0 -28 13t-12 28
q0 14 12.5 26t25.5 12v0q24 0 36 -22q12 -24 -7 -44zM474 426q-12 -13 -27 -13q-16 0 -28 13t-12 28q0 14 12.5 26t25.5 12v0q24 0 36 -22q12 -24 -7 -44zM270 426q-12 -13 -27 -13q-16 0 -28 13t-12 28q0 14 12.5 26t25.5 12v0q24 0 36 -22q12 -24 -7 -44zM168 324
q-12 -13 -27 -13q-16 0 -28 13t-12 29q0 13 12 25t26 12v0q23 0 35 -23q13 -23 -6 -43zM66 324q-12 -13 -27 -13q-16 0 -28 13t-12 29q0 13 12 25t26 12v0q23 0 35 -23q13 -23 -6 -43zM576 323q-12 -13 -27 -13q-16 0 -28 13t-12 29q0 13 12 25t26 12v0q23 0 35 -23
q13 -23 -6 -43zM474 323q-12 -13 -27 -13q-16 0 -28 13t-12 29q0 13 12 25t26 12v0q23 0 35 -23q13 -23 -6 -43zM372 323q-12 -13 -27 -13q-16 0 -28 13t-12 29q0 13 12 25t26 12v0q23 0 35 -23q13 -23 -6 -43zM270 323q-12 -13 -27 -13q-16 0 -28 13t-12 29q0 13 12 25
t26 12v0q23 0 35 -23q13 -23 -6 -43zM678 322q-12 -13 -27 -13q-16 0 -28 13t-12 29q0 13 12 25t26 12v0q23 0 35 -23q13 -23 -6 -43zM474 220q-12 -13 -27 -13q-16 0 -28 13t-12 28q0 14 12.5 26t25.5 12v0q24 0 36 -22q12 -24 -7 -44zM270 220q-12 -13 -27 -13
q-16 0 -28 13t-12 28q0 14 12.5 26t25.5 12v0q24 0 36 -22q12 -24 -7 -44zM474 117q-12 -13 -27 -13q-16 0 -28 13t-12 28q0 14 12.5 26t25.5 12v0q24 0 36 -22q12 -24 -7 -44zM270 117q-12 -13 -27 -13q-16 0 -28 13t-12 28q0 14 12.5 26t25.5 12v0q24 0 36 -22
q12 -24 -7 -44z" />
    <glyph glyph-name="dollar" unicode="$" 
d="M372 772q11 -12 11 -26v0q0 -24 -24 -36t-43 8q-11 12 -11 26v0q0 25 23 36q25 13 44 -8zM376 670q11 -12 11 -26v0q0 -24 -24 -36t-43 8q-11 12 -11 26v0q0 25 23 36q25 13 44 -8zM484 667q11 -12 11 -26v0q0 -24 -24 -36t-43 8q-11 12 -11 26v0q0 25 23 36q25 13 44 -8
zM586 666q11 -12 11 -26v0q0 -24 -24 -36t-43 8q-11 12 -11 26v0q0 25 23 36q25 13 44 -8zM270 662q11 -12 11 -26v0q0 -24 -24 -36t-43 8q-11 12 -11 26v0q0 25 23 36q25 13 44 -8zM168 662q11 -12 11 -26v0q0 -24 -24 -36t-43 8q-11 12 -11 26v0q0 25 23 36q25 13 44 -8z
M376 567q11 -12 11 -26v0q0 -24 -24 -36t-43 8q-11 12 -11 26v0q0 25 23 36q25 13 44 -8zM683 563q11 -12 11 -26v0q0 -24 -24 -36t-43 8q-11 12 -11 26v0q0 25 23 36q25 13 44 -8zM66 555q11 -12 11 -26v0q0 -24 -24 -36t-43 8q-11 12 -11 26v0q0 25 23 36q25 13 44 -8z
M372 463q11 -12 11 -26v0q0 -24 -23 -36t-43 8q-12 12 -12 27v0q0 24 23 36q25 12 44 -9zM66 452q11 -12 11 -26v0q0 -24 -24 -36t-43 8q-11 12 -11 26v0q0 25 23 36q25 13 44 -8zM474 368q11 -12 11 -26v0q0 -24 -23 -36t-43 8q-12 12 -12 27v0q0 24 23 36q25 12 44 -9z
M376 365q11 -12 11 -26v0q0 -24 -24 -36t-43 8q-11 12 -11 26v0q0 25 23 36q25 13 44 -8zM265 363q11 -12 11 -26v0q0 -24 -23 -36t-43 8q-12 12 -12 27v0q0 24 23 36q25 12 44 -9zM163 363q11 -12 11 -26v0q0 -24 -23 -36t-43 8q-12 12 -12 27v0q0 24 23 36q25 12 44 -9z
M576 359q11 -12 11 -26v0q0 -24 -24 -36t-43 8q-11 12 -11 26v0q0 25 23 36q25 13 44 -8zM376 262q11 -12 11 -26v0q0 -24 -24 -36t-43 8q-11 12 -11 26v0q0 25 23 36q25 13 44 -8zM677 257q11 -12 11 -26v0q0 -24 -24 -36t-43 8q-11 12 -11 26v0q0 25 23 36q25 13 44 -8z
M371 157q11 -12 11 -26v0q0 -24 -24 -36t-43 8q-11 12 -11 26v0q0 25 23 36q25 13 44 -8zM66 157q11 -12 11 -26v0q0 -24 -24 -36t-43 8q-11 12 -11 26v0q0 25 23 36q25 13 44 -8zM678 155q11 -12 11 -26v0q0 -24 -24 -36t-43 8q-11 12 -11 26v0q0 25 23 36q25 13 44 -8z
M474 54q11 -12 11 -26v0q0 -24 -24 -36t-43 8q-11 12 -11 26v0q0 25 23 36q25 13 44 -8zM372 54q11 -12 11 -26v0q0 -24 -24 -36t-43 8q-11 12 -11 26v0q0 25 23 36q25 13 44 -8zM270 54q11 -12 11 -26v0q0 -24 -24 -36t-43 8q-11 12 -11 26v0q0 25 23 36q25 13 44 -8z
M168 54q11 -12 11 -26v0q0 -24 -24 -36t-43 8q-11 12 -11 26v0q0 25 23 36q25 13 44 -8zM576 53q11 -12 11 -26v0q0 -24 -24 -36t-43 8q-11 12 -11 26v0q0 25 23 36q25 13 44 -8z" />
    <glyph glyph-name="percent" unicode="%" 
d="M168 631q-12 -13 -27 -13q-16 0 -28 13t-12 28q0 14 12.5 26t25.5 12v0q24 0 36 -22q12 -24 -7 -44zM678 629q-12 -13 -27 -13q-16 0 -28 13t-12 28q0 14 12.5 26t25.5 12v0q24 0 36 -22q12 -24 -7 -44zM67 529q-12 -13 -27 -13q-16 0 -28 13t-12 28q0 14 12.5 26
t25.5 12v0q24 0 36 -22q12 -24 -7 -44zM577 528q-12 -13 -27 -13q-16 0 -28 13t-12 28q0 14 12.5 26t25.5 12v0q24 0 36 -22q12 -24 -7 -44zM271 528q-12 -13 -27 -13q-16 0 -28 13t-12 28q0 14 12.5 26t25.5 12v0q24 0 36 -22q12 -24 -7 -44zM168 427q-12 -13 -27 -13
q-16 0 -28 13t-12 28q0 14 12.5 26t25.5 12v0q24 0 36 -22q12 -24 -7 -44zM474 426q-12 -13 -27 -13q-16 0 -28 13t-12 28q0 14 12.5 26t25.5 12v0q24 0 36 -22q12 -24 -7 -44zM372 323q-12 -13 -27 -13q-16 0 -28 13t-12 29q0 13 12 25t26 12v0q23 0 35 -23q13 -23 -6 -43z
M576 220q-12 -13 -27 -13q-16 0 -28 13t-12 28q0 14 12.5 26t25.5 12v0q24 0 36 -22q12 -24 -7 -44zM270 220q-12 -13 -27 -13q-16 0 -28 13t-12 28q0 14 12.5 26t25.5 12v0q24 0 36 -22q12 -24 -7 -44zM168 118q-12 -13 -27 -13q-16 0 -28 13t-12 28q0 14 12.5 26t25.5 12
v0q24 0 36 -22q12 -24 -7 -44zM474 117q-12 -13 -27 -13q-16 0 -28 13t-12 28q0 14 12.5 26t25.5 12v0q24 0 36 -22q12 -24 -7 -44zM678 116q-12 -13 -27 -13q-16 0 -28 13t-12 28q0 14 12.5 26t25.5 12v0q24 0 36 -22q12 -24 -7 -44zM66 15q-12 -13 -27 -13q-16 0 -28 13
t-12 28q0 14 12.5 26t25.5 12v0q24 0 36 -22q12 -24 -7 -44zM576 14q-12 -13 -27 -13q-16 0 -28 13t-12 28q0 14 12.5 26t25.5 12v0q24 0 36 -22q12 -24 -7 -44z" />
    <glyph glyph-name="ampersand" unicode="&#x26;" 
d="M168 733q-12 -13 -27 -13q-16 0 -28 13t-12 28q0 14 12.5 26t25.5 12v0q24 0 36 -22q12 -24 -7 -44zM474 732q-12 -13 -27 -13q-16 0 -28 13t-12 28q0 14 12.5 26t25.5 12v0q24 0 36 -22q12 -24 -7 -44zM372 732q-12 -13 -27 -13q-16 0 -28 13t-12 28q0 14 12.5 26
t25.5 12v0q24 0 36 -22q12 -24 -7 -44zM270 732q-12 -13 -27 -13q-16 0 -28 13t-12 28q0 14 12.5 26t25.5 12v0q24 0 36 -22q12 -24 -7 -44zM66 631q-12 -13 -27 -13q-16 0 -28 13t-12 28q0 14 12.5 26t25.5 12v0q24 0 36 -22q12 -24 -7 -44zM576 630q-12 -13 -27 -13
q-16 0 -28 13t-12 28q0 14 12.5 26t25.5 12v0q24 0 36 -22q12 -24 -7 -44zM67 529q-12 -13 -27 -13q-16 0 -28 13t-12 28q0 14 12.5 26t25.5 12v0q24 0 36 -22q12 -24 -7 -44zM577 528q-12 -13 -27 -13q-16 0 -28 13t-12 28q0 14 12.5 26t25.5 12v0q24 0 36 -22
q12 -24 -7 -44zM168 427q-12 -13 -27 -13q-16 0 -28 13t-12 28q0 14 12.5 26t25.5 12v0q24 0 36 -22q12 -24 -7 -44zM474 426q-12 -13 -27 -13q-16 0 -28 13t-12 28q0 14 12.5 26t25.5 12v0q24 0 36 -22q12 -24 -7 -44zM372 426q-12 -13 -27 -13q-16 0 -28 13t-12 28
q0 14 12.5 26t25.5 12v0q24 0 36 -22q12 -24 -7 -44zM168 324q-12 -13 -27 -13q-16 0 -28 13t-12 29q0 13 12 25t26 12v0q23 0 35 -23q13 -23 -6 -43zM576 323q-12 -13 -27 -13q-16 0 -28 13t-12 29q0 13 12 25t26 12v0q23 0 35 -23q13 -23 -6 -43zM270 323q-12 -13 -27 -13
q-16 0 -28 13t-12 29q0 13 12 25t26 12v0q23 0 35 -23q13 -23 -6 -43zM678 322q-12 -13 -27 -13q-16 0 -28 13t-12 29q0 13 12 25t26 12v0q23 0 35 -23q13 -23 -6 -43zM474 220q-12 -13 -27 -13q-16 0 -28 13t-12 28q0 14 12.5 26t25.5 12v0q24 0 36 -22q12 -24 -7 -44z
M372 220q-12 -13 -27 -13q-16 0 -28 13t-12 28q0 14 12.5 26t25.5 12v0q24 0 36 -22q12 -24 -7 -44zM66 221q-10 -14 -26 -14q-15 0 -28.5 13.5t-13.5 30.5q0 11 10.5 22t23.5 11v0q22 0 35 -22q14 -22 -1 -41zM66 118q-12 -13 -27 -13q-16 0 -28 13t-12 28q0 14 12.5 26
t25.5 12v0q24 0 36 -22q12 -24 -7 -44zM474 117q-12 -13 -27 -13q-16 0 -28 13t-12 28q0 14 12.5 26t25.5 12v0q24 0 36 -22q12 -24 -7 -44zM168 15q-12 -13 -27 -13q-16 0 -28 13t-12 28q0 14 12.5 26t25.5 12v0q24 0 36 -22q12 -24 -7 -44zM576 14q-12 -13 -27 -13
q-16 0 -28 13t-12 28q0 14 12.5 26t25.5 12v0q24 0 36 -22q12 -24 -7 -44zM372 14q-12 -13 -27 -13q-16 0 -28 13t-12 28q0 14 12.5 26t25.5 12v0q24 0 36 -22q12 -24 -7 -44zM270 14q-12 -13 -27 -13q-16 0 -28 13t-12 28q0 14 12.5 26t25.5 12v0q24 0 36 -22
q12 -24 -7 -44zM678 13q-12 -13 -27 -13q-16 0 -28 13t-12 28q0 14 12.5 26t25.5 12v0q24 0 36 -22q12 -24 -7 -44z" />
    <glyph glyph-name="quotesingle" unicode="'" horiz-adv-x="165" 
d="M66 733q-12 -13 -27 -13q-16 0 -28 13t-12 28q0 14 12.5 26t25.5 12v0q24 0 36 -22q12 -24 -7 -44zM66 631q-12 -13 -27 -13q-16 0 -28 13t-12 28q0 14 12.5 26t25.5 12v0q24 0 36 -22q12 -24 -7 -44z" />
    <glyph glyph-name="parenleft" unicode="(" horiz-adv-x="370" 
d="M270 732q-12 -13 -27 -13q-16 0 -28 13t-12 28q0 14 12.5 26t25.5 12v0q24 0 36 -22q12 -24 -7 -44zM168 631q-12 -13 -27 -13q-16 0 -28 13t-12 28q0 14 12.5 26t25.5 12v0q24 0 36 -22q12 -24 -7 -44zM67 529q-12 -13 -27 -13q-16 0 -28 13t-12 28q0 14 12.5 26
t25.5 12v0q24 0 36 -22q12 -24 -7 -44zM66 427q-12 -13 -27 -13q-16 0 -28 13t-12 28q0 14 12.5 26t25.5 12v0q24 0 36 -22q12 -24 -7 -44zM66 324q-12 -13 -27 -13q-16 0 -28 13t-12 29q0 13 12 25t26 12v0q23 0 35 -23q13 -23 -6 -43zM66 221q-12 -13 -27 -13
q-16 0 -28 13t-12 28q0 14 12.5 26t25.5 12v0q24 0 36 -22q12 -24 -7 -44zM168 118q-12 -13 -27 -13q-16 0 -28 13t-12 28q0 14 12.5 26t25.5 12v0q24 0 36 -22q12 -24 -7 -44zM270 14q-12 -13 -27 -13q-16 0 -28 13t-12 28q0 14 12.5 26t25.5 12v0q24 0 36 -22
q12 -24 -7 -44z" />
    <glyph glyph-name="parenright" unicode=")" horiz-adv-x="370" 
d="M84 732q-12 -13 -27 -13q-16 0 -28 12.5t-12 28.5q0 13 12 25.5t26 12.5v0q23 0 36 -22q12 -23 -7 -44zM186 631q-12 -13 -27 -13q-16 0 -28 12.5t-12 28.5q0 13 12 25.5t26 12.5v0q23 0 36 -22q12 -23 -7 -44zM287 529q-12 -13 -27 -13q-16 0 -28 12.5t-12 28.5
q0 13 12 25.5t26 12.5v0q23 0 36 -22q12 -23 -7 -44zM288 427q-12 -13 -27 -13q-16 0 -28 12.5t-12 28.5q0 13 12 25.5t26 12.5v0q23 0 36 -22q12 -23 -7 -44zM288 324q-12 -13 -27 -13q-16 0 -28 12.5t-12 27.5q0 14 12.5 26.5t26.5 12.5v0q23 0 35 -23t-7 -43zM288 221
q-12 -13 -27 -13q-16 0 -28 12.5t-12 28.5q0 13 12 25.5t26 12.5v0q23 0 36 -22q12 -23 -7 -44zM186 118q-12 -13 -27 -13q-16 0 -28 12.5t-12 28.5q0 13 12 25.5t26 12.5v0q23 0 36 -22q12 -23 -7 -44zM84 14q-12 -13 -27 -13q-16 0 -28 12.5t-12 28.5q0 13 12 25.5
t26 12.5v0q23 0 36 -22q12 -23 -7 -44z" />
    <glyph glyph-name="asterisk" unicode="*" horiz-adv-x="590" 
d="M98 592q-12 -13 -27 -13q-16 0 -28 13t-12 28q0 14 12.5 26t25.5 12v0q24 0 36 -22q12 -24 -7 -44zM506 591q-12 -13 -27 -13q-16 0 -28 13t-12 28q0 14 12.5 26t25.5 12v0q24 0 36 -22q12 -24 -7 -44zM302 591q-12 -13 -27 -13q-16 0 -28 13t-12 28q0 14 12.5 26
t25.5 12v0q24 0 36 -22q12 -24 -7 -44zM404 488q-12 -13 -27 -13q-16 0 -28 13t-12 29q0 13 12 25t26 12v0q23 0 35 -23q13 -23 -6 -43zM302 488q-12 -13 -27 -13q-16 0 -28 13t-12 29q0 13 12 25t26 12v0q23 0 35 -23q13 -23 -6 -43zM200 488q-12 -13 -27 -13q-16 0 -28 13
t-12 29q0 13 12 25t26 12v0q23 0 35 -23q13 -23 -6 -43zM98 386q-12 -13 -27 -13q-16 0 -28 13t-12 28q0 14 12.5 26t25.5 12v0q24 0 36 -22q12 -24 -7 -44zM506 385q-12 -13 -27 -13q-16 0 -28 13t-12 28q0 14 12.5 26t25.5 12v0q24 0 36 -22q12 -24 -7 -44zM404 385
q-12 -13 -27 -13q-16 0 -28 13t-12 28q0 14 12.5 26t25.5 12v0q24 0 36 -22q12 -24 -7 -44zM200 385q-12 -13 -27 -13q-16 0 -28 13t-12 28q0 14 12.5 26t25.5 12v0q24 0 36 -22q12 -24 -7 -44zM404 282q-12 -13 -27 -13q-16 0 -28 13t-12 28q0 14 12.5 26t25.5 12v0
q24 0 36 -22q12 -24 -7 -44zM302 282q-12 -13 -27 -13q-16 0 -28 13t-12 28q0 14 12.5 26t25.5 12v0q24 0 36 -22q12 -24 -7 -44zM200 282q-12 -13 -27 -13q-16 0 -28 13t-12 28q0 14 12.5 26t25.5 12v0q24 0 36 -22q12 -24 -7 -44zM98 180q-12 -13 -27 -13q-16 0 -28 13
t-12 28q0 14 12.5 26t25.5 12v0q24 0 36 -22q12 -24 -7 -44zM506 179q-12 -13 -27 -13q-16 0 -28 13t-12 28q0 14 12.5 26t25.5 12v0q24 0 36 -22q12 -24 -7 -44zM302 179q-12 -13 -27 -13q-16 0 -28 13t-12 28q0 14 12.5 26t25.5 12v0q24 0 36 -22q12 -24 -7 -44z" />
    <glyph glyph-name="plus" unicode="+" horiz-adv-x="595" 
d="M299 492q-12 -11 -26 -11q-16 0 -28 12.5t-12 27.5q0 14 12.5 26t25.5 12v0q25 0 36 -23q13 -25 -8 -44zM299 390q-12 -11 -26 -11q-16 0 -28 12.5t-12 27.5q0 14 12.5 26t25.5 12v0q25 0 36 -23q13 -25 -8 -44zM198 285q-12 -13 -27 -13q-16 0 -28 13t-12 28
q0 14 12.5 26t25.5 12v0q24 0 36 -22q12 -24 -7 -44zM96 285q-12 -13 -27 -13q-16 0 -28 13t-12 28q0 14 12.5 26t25.5 12v0q24 0 36 -22q12 -24 -7 -44zM504 284q-12 -13 -27 -13q-16 0 -28 13t-12 28q0 14 12.5 26t25.5 12v0q24 0 36 -22q12 -24 -7 -44zM402 284
q-12 -13 -27 -13q-16 0 -28 13t-12 28q0 14 12.5 26t25.5 12v0q24 0 36 -22q12 -24 -7 -44zM300 284q-12 -13 -27 -13q-16 0 -28 13t-12 28q0 14 12.5 26t25.5 12v0q24 0 36 -22q12 -24 -7 -44zM298 186q-12 -11 -26 -11q-16 0 -28 12.5t-12 27.5q0 14 12.5 26t25.5 12v0
q25 0 36 -23q13 -25 -8 -44zM298 84q-12 -11 -26 -11q-16 0 -28 12.5t-12 27.5q0 14 12.5 26t25.5 12v0q25 0 36 -23q13 -25 -8 -44z" />
    <glyph glyph-name="comma" unicode="," horiz-adv-x="255" 
d="M195 15q-12 -13 -27 -13q-16 0 -28 13t-12 28q0 14 12.5 26t25.5 12v0q24 0 36 -22q12 -24 -7 -44zM93 -87q-12 -13 -27 -13q-16 0 -28 13t-12 28q0 14 12.5 26t25.5 12v0q24 0 36 -22q12 -24 -7 -44z" />
    <glyph glyph-name="hyphen" unicode="-" horiz-adv-x="595" 
d="M198 285q-12 -13 -27 -13q-16 0 -28 13t-12 28q0 14 12.5 26t25.5 12v0q24 0 36 -22q12 -24 -7 -44zM96 285q-12 -13 -27 -13q-16 0 -28 13t-12 28q0 14 12.5 26t25.5 12v0q24 0 36 -22q12 -24 -7 -44zM504 284q-12 -13 -27 -13q-16 0 -28 13t-12 28q0 14 12.5 26
t25.5 12v0q24 0 36 -22q12 -24 -7 -44zM402 284q-12 -13 -27 -13q-16 0 -28 13t-12 28q0 14 12.5 26t25.5 12v0q24 0 36 -22q12 -24 -7 -44zM300 284q-12 -13 -27 -13q-16 0 -28 13t-12 28q0 14 12.5 26t25.5 12v0q24 0 36 -22q12 -24 -7 -44z" />
    <glyph glyph-name="period" unicode="." horiz-adv-x="150" 
d="M93 -87q-12 -13 -27 -13q-16 0 -28 13t-12 28q0 14 12.5 26t25.5 12v0q24 0 36 -22q12 -24 -7 -44z" />
    <glyph glyph-name="slash" unicode="/" 
d="M678 629q-12 -13 -27 -13q-16 0 -28 13t-12 28q0 14 12.5 26t25.5 12v0q24 0 36 -22q12 -24 -7 -44zM577 528q-12 -13 -27 -13q-16 0 -28 13t-12 28q0 14 12.5 26t25.5 12v0q24 0 36 -22q12 -24 -7 -44zM474 426q-12 -13 -27 -13q-16 0 -28 13t-12 28q0 14 12.5 26
t25.5 12v0q24 0 36 -22q12 -24 -7 -44zM372 323q-12 -13 -27 -13q-16 0 -28 13t-12 29q0 13 12 25t26 12v0q23 0 35 -23q13 -23 -6 -43zM270 220q-12 -13 -27 -13q-16 0 -28 13t-12 28q0 14 12.5 26t25.5 12v0q24 0 36 -22q12 -24 -7 -44zM168 118q-12 -13 -27 -13
q-16 0 -28 13t-12 28q0 14 12.5 26t25.5 12v0q24 0 36 -22q12 -24 -7 -44zM66 15q-12 -13 -27 -13q-16 0 -28 13t-12 28q0 14 12.5 26t25.5 12v0q24 0 36 -22q12 -24 -7 -44z" />
    <glyph glyph-name="zero" unicode="0" horiz-adv-x="760" 
d="M168 733q-12 -13 -27 -13q-16 0 -28 13t-12 28q0 14 12.5 26t25.5 12v0q24 0 36 -22q12 -24 -7 -44zM576 732q-12 -13 -27 -13q-16 0 -28 13t-12 28q0 14 12.5 26t25.5 12v0q24 0 36 -22q12 -24 -7 -44zM474 732q-12 -13 -27 -13q-16 0 -28 13t-12 28q0 14 12.5 26
t25.5 12v0q24 0 36 -22q12 -24 -7 -44zM372 732q-12 -13 -27 -13q-16 0 -28 13t-12 28q0 14 12.5 26t25.5 12v0q24 0 36 -22q12 -24 -7 -44zM270 732q-12 -13 -27 -13q-16 0 -28 13t-12 28q0 14 12.5 26t25.5 12v0q24 0 36 -22q12 -24 -7 -44zM66 631q-12 -13 -27 -13
q-16 0 -28 13t-12 28q0 14 12.5 26t25.5 12v0q24 0 36 -22q12 -24 -7 -44zM678 629q-12 -13 -27 -13q-16 0 -28 13t-12 28q0 14 12.5 26t25.5 12v0q24 0 36 -22q12 -24 -7 -44zM67 529q-12 -13 -27 -13q-16 0 -28 13t-12 28q0 14 12.5 26t25.5 12v0q24 0 36 -22
q12 -24 -7 -44zM577 528q-12 -13 -27 -13q-16 0 -28 13t-12 28q0 14 12.5 26t25.5 12v0q24 0 36 -22q12 -24 -7 -44zM679 527q-12 -13 -27 -13q-16 0 -28 13t-12 28q0 14 12.5 26t25.5 12v0q24 0 36 -22q12 -24 -7 -44zM66 427q-12 -13 -27 -13q-16 0 -28 13t-12 28
q0 14 12.5 26t25.5 12v0q24 0 36 -22q12 -24 -7 -44zM474 426q-12 -13 -27 -13q-16 0 -28 13t-12 28q0 14 12.5 26t25.5 12v0q24 0 36 -22q12 -24 -7 -44zM678 425q-12 -13 -27 -13q-16 0 -28 13t-12 28q0 14 12.5 26t25.5 12v0q24 0 36 -22q12 -24 -7 -44zM66 324
q-12 -13 -27 -13q-16 0 -28 13t-12 29q0 13 12 25t26 12v0q23 0 35 -23q13 -23 -6 -43zM372 323q-12 -13 -27 -13q-16 0 -28 13t-12 29q0 13 12 25t26 12v0q23 0 35 -23q13 -23 -6 -43zM678 322q-12 -13 -27 -13q-16 0 -28 13t-12 29q0 13 12 25t26 12v0q23 0 35 -23
q13 -23 -6 -43zM66 221q-12 -13 -27 -13q-16 0 -28 13t-12 28q0 14 12.5 26t25.5 12v0q24 0 36 -22q12 -24 -7 -44zM270 220q-12 -13 -27 -13q-16 0 -28 13t-12 28q0 14 12.5 26t25.5 12v0q24 0 36 -22q12 -24 -7 -44zM678 219q-12 -13 -27 -13q-16 0 -28 13t-12 28
q0 14 12.5 26t25.5 12v0q24 0 36 -22q12 -24 -7 -44zM168 118q-12 -13 -27 -13q-16 0 -28 13t-12 28q0 14 12.5 26t25.5 12v0q24 0 36 -22q12 -24 -7 -44zM66 118q-12 -13 -27 -13q-16 0 -28 13t-12 28q0 14 12.5 26t25.5 12v0q24 0 36 -22q12 -24 -7 -44zM678 116
q-12 -13 -27 -13q-16 0 -28 13t-12 28q0 14 12.5 26t25.5 12v0q24 0 36 -22q12 -24 -7 -44zM168 15q-12 -13 -27 -13q-16 0 -28 13t-12 28q0 14 12.5 26t25.5 12v0q24 0 36 -22q12 -24 -7 -44zM576 14q-12 -13 -27 -13q-16 0 -28 13t-12 28q0 14 12.5 26t25.5 12v0
q24 0 36 -22q12 -24 -7 -44zM474 14q-12 -13 -27 -13q-16 0 -28 13t-12 28q0 14 12.5 26t25.5 12v0q24 0 36 -22q12 -24 -7 -44zM372 14q-12 -13 -27 -13q-16 0 -28 13t-12 28q0 14 12.5 26t25.5 12v0q24 0 36 -22q12 -24 -7 -44zM270 14q-12 -13 -27 -13q-16 0 -28 13
t-12 28q0 14 12.5 26t25.5 12v0q24 0 36 -22q12 -24 -7 -44z" />
    <glyph glyph-name="one" unicode="1" horiz-adv-x="390" 
d="M93 743q-12 -13 -27 -13q-16 0 -28 13t-12 28q0 14 12.5 26t25.5 12v0q24 0 36 -22q12 -24 -7 -44zM195 742q-12 -13 -27 -13q-16 0 -28 13t-12 28q0 14 12.5 26t25.5 12v0q24 0 36 -22q12 -24 -7 -44zM195 640q-12 -13 -27 -13q-16 0 -28 13t-12 28q0 14 12.5 26
t25.5 12v0q24 0 36 -22q12 -24 -7 -44zM196 538q-12 -13 -27 -13q-16 0 -28 13t-12 28q0 14 12.5 26t25.5 12v0q24 0 36 -22q12 -24 -7 -44zM195 436q-12 -13 -27 -13q-16 0 -28 13t-12 28q0 14 12.5 26t25.5 12v0q24 0 36 -22q12 -24 -7 -44zM195 333q-12 -13 -27 -13
q-16 0 -28 13t-12 29q0 13 12 25t26 12v0q23 0 35 -23q13 -23 -6 -43zM195 230q-12 -13 -27 -13q-16 0 -28 13t-12 28q0 14 12.5 26t25.5 12v0q24 0 36 -22q12 -24 -7 -44zM195 127q-12 -13 -27 -13q-16 0 -28 13t-12 28q0 14 12.5 26t25.5 12v0q24 0 36 -22q12 -24 -7 -44z
M93 25q-12 -13 -27 -13q-16 0 -28 13t-12 28q0 14 12.5 26t25.5 12v0q24 0 36 -22q12 -24 -7 -44zM297 24q-12 -13 -27 -13q-16 0 -28 13t-12 28q0 14 12.5 26t25.5 12v0q24 0 36 -22q12 -24 -7 -44zM195 24q-12 -13 -27 -13q-16 0 -28 13t-12 28q0 14 12.5 26t25.5 12v0
q24 0 36 -22q12 -24 -7 -44z" />
    <glyph glyph-name="two" unicode="2" horiz-adv-x="765" 
d="M168 733q-12 -13 -27 -13q-16 0 -28 13t-12 28q0 14 12.5 26t25.5 12v0q24 0 36 -22q12 -24 -7 -44zM576 732q-12 -13 -27 -13q-16 0 -28 13t-12 28q0 14 12.5 26t25.5 12v0q24 0 36 -22q12 -24 -7 -44zM474 732q-12 -13 -27 -13q-16 0 -28 13t-12 28q0 14 12.5 26
t25.5 12v0q24 0 36 -22q12 -24 -7 -44zM372 732q-12 -13 -27 -13q-16 0 -28 13t-12 28q0 14 12.5 26t25.5 12v0q24 0 36 -22q12 -24 -7 -44zM270 732q-12 -13 -27 -13q-16 0 -28 13t-12 28q0 14 12.5 26t25.5 12v0q24 0 36 -22q12 -24 -7 -44zM66 631q-12 -13 -27 -13
q-16 0 -28 13t-12 28q0 14 12.5 26t25.5 12v0q24 0 36 -22q12 -24 -7 -44zM678 629q-12 -13 -27 -13q-16 0 -28 13t-12 28q0 14 12.5 26t25.5 12v0q24 0 36 -22q12 -24 -7 -44zM67 529q-12 -13 -27 -13q-16 0 -28 13t-12 28q0 14 12.5 26t25.5 12v0q24 0 36 -22
q12 -24 -7 -44zM577 528q-12 -13 -27 -13q-16 0 -28 13t-12 28q0 14 12.5 26t25.5 12v0q24 0 36 -22q12 -24 -7 -44zM474 426q-12 -13 -27 -13q-16 0 -28 13t-12 28q0 14 12.5 26t25.5 12v0q24 0 36 -22q12 -24 -7 -44zM372 323q-12 -13 -27 -13q-16 0 -28 13t-12 29
q0 13 12 25t26 12v0q23 0 35 -23q13 -23 -6 -43zM270 220q-12 -13 -27 -13q-16 0 -28 13t-12 28q0 14 12.5 26t25.5 12v0q24 0 36 -22q12 -24 -7 -44zM168 118q-12 -13 -27 -13q-16 0 -28 13t-12 28q0 14 12.5 26t25.5 12v0q24 0 36 -22q12 -24 -7 -44zM168 15
q-12 -13 -27 -13q-16 0 -28 13t-12 28q0 14 12.5 26t25.5 12v0q24 0 36 -22q12 -24 -7 -44zM66 15q-12 -13 -27 -13q-16 0 -28 13t-12 28q0 14 12.5 26t25.5 12v0q24 0 36 -22q12 -24 -7 -44zM576 14q-12 -13 -27 -13q-16 0 -28 13t-12 28q0 14 12.5 26t25.5 12v0
q24 0 36 -22q12 -24 -7 -44zM474 14q-12 -13 -27 -13q-16 0 -28 13t-12 28q0 14 12.5 26t25.5 12v0q24 0 36 -22q12 -24 -7 -44zM372 14q-12 -13 -27 -13q-16 0 -28 13t-12 28q0 14 12.5 26t25.5 12v0q24 0 36 -22q12 -24 -7 -44zM270 14q-12 -13 -27 -13q-16 0 -28 13
t-12 28q0 14 12.5 26t25.5 12v0q24 0 36 -22q12 -24 -7 -44zM678 13q-12 -13 -27 -13q-16 0 -28 13t-12 28q0 14 12.5 26t25.5 12v0q24 0 36 -22q12 -24 -7 -44z" />
    <glyph glyph-name="three" unicode="3" horiz-adv-x="765" 
d="M168 733q-12 -13 -27 -13q-16 0 -28 13t-12 28q0 14 12.5 26t25.5 12v0q24 0 36 -22q12 -24 -7 -44zM576 732q-12 -13 -27 -13q-16 0 -28 13t-12 28q0 14 12.5 26t25.5 12v0q24 0 36 -22q12 -24 -7 -44zM474 732q-12 -13 -27 -13q-16 0 -28 13t-12 28q0 14 12.5 26
t25.5 12v0q24 0 36 -22q12 -24 -7 -44zM372 732q-12 -13 -27 -13q-16 0 -28 13t-12 28q0 14 12.5 26t25.5 12v0q24 0 36 -22q12 -24 -7 -44zM270 732q-12 -13 -27 -13q-16 0 -28 13t-12 28q0 14 12.5 26t25.5 12v0q24 0 36 -22q12 -24 -7 -44zM66 631q-12 -13 -27 -13
q-16 0 -28 13t-12 28q0 14 12.5 26t25.5 12v0q24 0 36 -22q12 -24 -7 -44zM678 629q-12 -13 -27 -13q-16 0 -28 13t-12 28q0 14 12.5 26t25.5 12v0q24 0 36 -22q12 -24 -7 -44zM679 527q-12 -13 -27 -13q-16 0 -28 13t-12 28q0 14 12.5 26t25.5 12v0q24 0 36 -22
q12 -24 -7 -44zM678 425q-12 -13 -27 -13q-16 0 -28 13t-12 28q0 14 12.5 26t25.5 12v0q24 0 36 -22q12 -24 -7 -44zM576 323q-12 -13 -27 -13q-16 0 -28 13t-12 29q0 13 12 25t26 12v0q23 0 35 -23q13 -23 -6 -43zM474 323q-12 -13 -27 -13q-16 0 -28 13t-12 29q0 13 12 25
t26 12v0q23 0 35 -23q13 -23 -6 -43zM372 323q-12 -13 -27 -13q-16 0 -28 13t-12 29q0 13 12 25t26 12v0q23 0 35 -23q13 -23 -6 -43zM270 323q-12 -13 -27 -13q-16 0 -28 13t-12 29q0 13 12 25t26 12v0q23 0 35 -23q13 -23 -6 -43zM678 219q-12 -13 -27 -13q-16 0 -28 13
t-12 28q0 14 12.5 26t25.5 12v0q24 0 36 -22q12 -24 -7 -44zM66 118q-12 -13 -27 -13q-16 0 -28 13t-12 28q0 14 12.5 26t25.5 12v0q24 0 36 -22q12 -24 -7 -44zM678 116q-12 -13 -27 -13q-16 0 -28 13t-12 28q0 14 12.5 26t25.5 12v0q24 0 36 -22q12 -24 -7 -44zM168 15
q-12 -13 -27 -13q-16 0 -28 13t-12 28q0 14 12.5 26t25.5 12v0q24 0 36 -22q12 -24 -7 -44zM576 14q-12 -13 -27 -13q-16 0 -28 13t-12 28q0 14 12.5 26t25.5 12v0q24 0 36 -22q12 -24 -7 -44zM474 14q-12 -13 -27 -13q-16 0 -28 13t-12 28q0 14 12.5 26t25.5 12v0
q24 0 36 -22q12 -24 -7 -44zM372 14q-12 -13 -27 -13q-16 0 -28 13t-12 28q0 14 12.5 26t25.5 12v0q24 0 36 -22q12 -24 -7 -44zM270 14q-12 -13 -27 -13q-16 0 -28 13t-12 28q0 14 12.5 26t25.5 12v0q24 0 36 -22q12 -24 -7 -44z" />
    <glyph glyph-name="four" unicode="4" 
d="M576 732q-12 -13 -27 -13q-16 0 -28 13t-12 28q0 14 12.5 26t25.5 12v0q24 0 36 -22q12 -24 -7 -44zM474 630q-12 -13 -27 -13q-16 0 -28 13t-12 28q0 14 12.5 26t25.5 12v0q24 0 36 -22q12 -24 -7 -44zM578 629q-12 -13 -27 -13q-16 0 -28 13t-12 28q0 14 12.5 26
t25.5 12v0q24 0 36 -22q12 -24 -7 -44zM373 528q-12 -13 -27 -13q-16 0 -28 13t-12 28q0 14 12.5 26t25.5 12v0q24 0 36 -22q12 -24 -7 -44zM579 527q-12 -13 -27 -13q-16 0 -28 13t-12 28q0 14 12.5 26t25.5 12v0q24 0 36 -22q12 -24 -7 -44zM270 426q-12 -13 -27 -13
q-16 0 -28 13t-12 28q0 14 12.5 26t25.5 12v0q24 0 36 -22q12 -24 -7 -44zM578 425q-12 -13 -27 -13q-16 0 -28 13t-12 28q0 14 12.5 26t25.5 12v0q24 0 36 -22q12 -24 -7 -44zM168 324q-12 -13 -27 -13q-16 0 -28 13t-12 29q0 13 12 25t26 12v0q23 0 35 -23q13 -23 -6 -43z
M576 323q-12 -13 -27 -13q-16 0 -28 13t-12 29q0 13 12 25t26 12v0q23 0 35 -23q13 -23 -6 -43zM688 222q-12 -13 -27 -13q-16 0 -28 13t-12 29q0 13 12 25t26 12v0q23 0 35 -23q13 -23 -6 -43zM168 221q-12 -13 -27 -13q-16 0 -28 13t-12 28q0 14 12.5 26t25.5 12v0
q24 0 36 -22q12 -24 -7 -44zM66 221q-12 -13 -27 -13q-16 0 -28 13t-12 28q0 14 12.5 26t25.5 12v0q24 0 36 -22q12 -24 -7 -44zM576 220q-12 -13 -27 -13q-16 0 -28 13t-12 28q0 14 12.5 26t25.5 12v0q24 0 36 -22q12 -24 -7 -44zM474 220q-12 -13 -27 -13q-16 0 -28 13
t-12 28q0 14 12.5 26t25.5 12v0q24 0 36 -22q12 -24 -7 -44zM372 220q-12 -13 -27 -13q-16 0 -28 13t-12 28q0 14 12.5 26t25.5 12v0q24 0 36 -22q12 -24 -7 -44zM270 220q-12 -13 -27 -13q-16 0 -28 13t-12 28q0 14 12.5 26t25.5 12v0q24 0 36 -22q12 -24 -7 -44zM569 122
q-12 -13 -27 -13q-16 0 -28 13t-12 28q0 14 12.5 26t25.5 12v0q24 0 36 -22q12 -24 -7 -44zM569 19q-12 -13 -27 -13q-16 0 -28 13t-12 28q0 14 12.5 26t25.5 12v0q24 0 36 -22q12 -24 -7 -44z" />
    <glyph glyph-name="five" unicode="5" horiz-adv-x="755" 
d="M168 733q-12 -13 -27 -13q-16 0 -28 13t-12 28q0 14 12.5 26t25.5 12v0q24 0 36 -22q12 -24 -7 -44zM66 733q-12 -13 -27 -13q-16 0 -28 13t-12 28q0 14 12.5 26t25.5 12v0q24 0 36 -22q12 -24 -7 -44zM576 732q-12 -13 -27 -13q-16 0 -28 13t-12 28q0 14 12.5 26
t25.5 12v0q24 0 36 -22q12 -24 -7 -44zM474 732q-12 -13 -27 -13q-16 0 -28 13t-12 28q0 14 12.5 26t25.5 12v0q24 0 36 -22q12 -24 -7 -44zM372 732q-12 -13 -27 -13q-16 0 -28 13t-12 28q0 14 12.5 26t25.5 12v0q24 0 36 -22q12 -24 -7 -44zM270 732q-12 -13 -27 -13
q-16 0 -28 13t-12 28q0 14 12.5 26t25.5 12v0q24 0 36 -22q12 -24 -7 -44zM678 731q-12 -13 -27 -13q-16 0 -28 13t-12 28q0 14 12.5 26t25.5 12v0q24 0 36 -22q12 -24 -7 -44zM66 631q-12 -13 -27 -13q-16 0 -28 13t-12 28q0 14 12.5 26t25.5 12v0q24 0 36 -22
q12 -24 -7 -44zM67 529q-12 -13 -27 -13q-16 0 -28 13t-12 28q0 14 12.5 26t25.5 12v0q24 0 36 -22q12 -24 -7 -44zM168 427q-12 -13 -27 -13q-16 0 -28 13t-12 28q0 14 12.5 26t25.5 12v0q24 0 36 -22q12 -24 -7 -44zM66 427q-12 -13 -27 -13q-16 0 -28 13t-12 28
q0 14 12.5 26t25.5 12v0q24 0 36 -22q12 -24 -7 -44zM576 426q-12 -13 -27 -13q-16 0 -28 13t-12 28q0 14 12.5 26t25.5 12v0q24 0 36 -22q12 -24 -7 -44zM474 426q-12 -13 -27 -13q-16 0 -28 13t-12 28q0 14 12.5 26t25.5 12v0q24 0 36 -22q12 -24 -7 -44zM372 426
q-12 -13 -27 -13q-16 0 -28 13t-12 28q0 14 12.5 26t25.5 12v0q24 0 36 -22q12 -24 -7 -44zM270 426q-12 -13 -27 -13q-16 0 -28 13t-12 28q0 14 12.5 26t25.5 12v0q24 0 36 -22q12 -24 -7 -44zM678 322q-12 -13 -27 -13q-16 0 -28 13t-12 29q0 13 12 25t26 12v0
q23 0 35 -23q13 -23 -6 -43zM678 219q-12 -13 -27 -13q-16 0 -28 13t-12 28q0 14 12.5 26t25.5 12v0q24 0 36 -22q12 -24 -7 -44zM66 118q-12 -13 -27 -13q-16 0 -28 13t-12 28q0 14 12.5 26t25.5 12v0q24 0 36 -22q12 -24 -7 -44zM678 116q-12 -13 -27 -13q-16 0 -28 13
t-12 28q0 14 12.5 26t25.5 12v0q24 0 36 -22q12 -24 -7 -44zM168 15q-12 -13 -27 -13q-16 0 -28 13t-12 28q0 14 12.5 26t25.5 12v0q24 0 36 -22q12 -24 -7 -44zM576 14q-12 -13 -27 -13q-16 0 -28 13t-12 28q0 14 12.5 26t25.5 12v0q24 0 36 -22q12 -24 -7 -44zM474 14
q-12 -13 -27 -13q-16 0 -28 13t-12 28q0 14 12.5 26t25.5 12v0q24 0 36 -22q12 -24 -7 -44zM372 14q-12 -13 -27 -13q-16 0 -28 13t-12 28q0 14 12.5 26t25.5 12v0q24 0 36 -22q12 -24 -7 -44zM270 14q-12 -13 -27 -13q-16 0 -28 13t-12 28q0 14 12.5 26t25.5 12v0
q24 0 36 -22q12 -24 -7 -44z" />
    <glyph glyph-name="six" unicode="6" 
d="M168 733q-12 -13 -27 -13q-16 0 -28 13t-12 28q0 14 12.5 26t25.5 12v0q24 0 36 -22q12 -24 -7 -44zM576 732q-12 -13 -27 -13q-16 0 -28 13t-12 28q0 14 12.5 26t25.5 12v0q24 0 36 -22q12 -24 -7 -44zM474 732q-12 -13 -27 -13q-16 0 -28 13t-12 28q0 14 12.5 26
t25.5 12v0q24 0 36 -22q12 -24 -7 -44zM372 732q-12 -13 -27 -13q-16 0 -28 13t-12 28q0 14 12.5 26t25.5 12v0q24 0 36 -22q12 -24 -7 -44zM270 732q-12 -13 -27 -13q-16 0 -28 13t-12 28q0 14 12.5 26t25.5 12v0q24 0 36 -22q12 -24 -7 -44zM66 631q-12 -13 -27 -13
q-16 0 -28 13t-12 28q0 14 12.5 26t25.5 12v0q24 0 36 -22q12 -24 -7 -44zM678 629q-12 -13 -27 -13q-16 0 -28 13t-12 28q0 14 12.5 26t25.5 12v0q24 0 36 -22q12 -24 -7 -44zM67 529q-12 -13 -27 -13q-16 0 -28 13t-12 28q0 14 12.5 26t25.5 12v0q24 0 36 -22
q12 -24 -7 -44zM168 427q-12 -13 -27 -13q-16 0 -28 13t-12 28q0 14 12.5 26t25.5 12v0q24 0 36 -22q12 -24 -7 -44zM66 427q-12 -13 -27 -13q-16 0 -28 13t-12 28q0 14 12.5 26t25.5 12v0q24 0 36 -22q12 -24 -7 -44zM576 426q-12 -13 -27 -13q-16 0 -28 13t-12 28
q0 14 12.5 26t25.5 12v0q24 0 36 -22q12 -24 -7 -44zM474 426q-12 -13 -27 -13q-16 0 -28 13t-12 28q0 14 12.5 26t25.5 12v0q24 0 36 -22q12 -24 -7 -44zM372 426q-12 -13 -27 -13q-16 0 -28 13t-12 28q0 14 12.5 26t25.5 12v0q24 0 36 -22q12 -24 -7 -44zM270 426
q-12 -13 -27 -13q-16 0 -28 13t-12 28q0 14 12.5 26t25.5 12v0q24 0 36 -22q12 -24 -7 -44zM66 324q-12 -13 -27 -13q-16 0 -28 13t-12 29q0 13 12 25t26 12v0q23 0 35 -23q13 -23 -6 -43zM678 322q-12 -13 -27 -13q-16 0 -28 13t-12 29q0 13 12 25t26 12v0q23 0 35 -23
q13 -23 -6 -43zM66 221q-12 -13 -27 -13q-16 0 -28 13t-12 28q0 14 12.5 26t25.5 12v0q24 0 36 -22q12 -24 -7 -44zM678 219q-12 -13 -27 -13q-16 0 -28 13t-12 28q0 14 12.5 26t25.5 12v0q24 0 36 -22q12 -24 -7 -44zM66 118q-12 -13 -27 -13q-16 0 -28 13t-12 28
q0 14 12.5 26t25.5 12v0q24 0 36 -22q12 -24 -7 -44zM678 116q-12 -13 -27 -13q-16 0 -28 13t-12 28q0 14 12.5 26t25.5 12v0q24 0 36 -22q12 -24 -7 -44zM168 15q-12 -13 -27 -13q-16 0 -28 13t-12 28q0 14 12.5 26t25.5 12v0q24 0 36 -22q12 -24 -7 -44zM576 14
q-12 -13 -27 -13q-16 0 -28 13t-12 28q0 14 12.5 26t25.5 12v0q24 0 36 -22q12 -24 -7 -44zM474 14q-12 -13 -27 -13q-16 0 -28 13t-12 28q0 14 12.5 26t25.5 12v0q24 0 36 -22q12 -24 -7 -44zM372 14q-12 -13 -27 -13q-16 0 -28 13t-12 28q0 14 12.5 26t25.5 12v0
q24 0 36 -22q12 -24 -7 -44zM270 14q-12 -13 -27 -13q-16 0 -28 13t-12 28q0 14 12.5 26t25.5 12v0q24 0 36 -22q12 -24 -7 -44z" />
    <glyph glyph-name="seven" unicode="7" 
d="M168 733q-12 -13 -27 -13q-16 0 -28 13t-12 28q0 14 12.5 26t25.5 12v0q24 0 36 -22q12 -24 -7 -44zM66 733q-12 -13 -27 -13q-16 0 -28 13t-12 28q0 14 12.5 26t25.5 12v0q24 0 36 -22q12 -24 -7 -44zM576 732q-12 -13 -27 -13q-16 0 -28 13t-12 28q0 14 12.5 26
t25.5 12v0q24 0 36 -22q12 -24 -7 -44zM474 732q-12 -13 -27 -13q-16 0 -28 13t-12 28q0 14 12.5 26t25.5 12v0q24 0 36 -22q12 -24 -7 -44zM372 732q-12 -13 -27 -13q-16 0 -28 13t-12 28q0 14 12.5 26t25.5 12v0q24 0 36 -22q12 -24 -7 -44zM270 732q-12 -13 -27 -13
q-16 0 -28 13t-12 28q0 14 12.5 26t25.5 12v0q24 0 36 -22q12 -24 -7 -44zM678 731q-12 -13 -27 -13q-16 0 -28 13t-12 28q0 14 12.5 26t25.5 12v0q24 0 36 -22q12 -24 -7 -44zM66 631q-12 -13 -27 -13q-16 0 -28 13t-12 28q0 14 12.5 26t25.5 12v0q24 0 36 -22
q12 -24 -7 -44zM678 629q-12 -13 -27 -13q-16 0 -28 13t-12 28q0 14 12.5 26t25.5 12v0q24 0 36 -22q12 -24 -7 -44zM577 528q-12 -13 -27 -13q-16 0 -28 13t-12 28q0 14 12.5 26t25.5 12v0q24 0 36 -22q12 -24 -7 -44zM474 426q-12 -13 -27 -13q-16 0 -28 13t-12 28
q0 14 12.5 26t25.5 12v0q24 0 36 -22q12 -24 -7 -44zM372 323q-12 -13 -27 -13q-16 0 -28 13t-12 29q0 13 12 25t26 12v0q23 0 35 -23q13 -23 -6 -43zM270 220q-12 -13 -27 -13q-16 0 -28 13t-12 28q0 14 12.5 26t25.5 12v0q24 0 36 -22q12 -24 -7 -44zM168 118
q-12 -13 -27 -13q-16 0 -28 13t-12 28q0 14 12.5 26t25.5 12v0q24 0 36 -22q12 -24 -7 -44zM66 15q-12 -13 -27 -13q-16 0 -28 13t-12 28q0 14 12.5 26t25.5 12v0q24 0 36 -22q12 -24 -7 -44z" />
    <glyph glyph-name="eight" unicode="8" 
d="M168 733q-12 -13 -27 -13q-16 0 -28 13t-12 28q0 14 12.5 26t25.5 12v0q24 0 36 -22q12 -24 -7 -44zM576 732q-12 -13 -27 -13q-16 0 -28 13t-12 28q0 14 12.5 26t25.5 12v0q24 0 36 -22q12 -24 -7 -44zM474 732q-12 -13 -27 -13q-16 0 -28 13t-12 28q0 14 12.5 26
t25.5 12v0q24 0 36 -22q12 -24 -7 -44zM372 732q-12 -13 -27 -13q-16 0 -28 13t-12 28q0 14 12.5 26t25.5 12v0q24 0 36 -22q12 -24 -7 -44zM270 732q-12 -13 -27 -13q-16 0 -28 13t-12 28q0 14 12.5 26t25.5 12v0q24 0 36 -22q12 -24 -7 -44zM66 631q-12 -13 -27 -13
q-16 0 -28 13t-12 28q0 14 12.5 26t25.5 12v0q24 0 36 -22q12 -24 -7 -44zM678 629q-12 -13 -27 -13q-16 0 -28 13t-12 28q0 14 12.5 26t25.5 12v0q24 0 36 -22q12 -24 -7 -44zM67 529q-12 -13 -27 -13q-16 0 -28 13t-12 28q0 14 12.5 26t25.5 12v0q24 0 36 -22
q12 -24 -7 -44zM679 527q-12 -13 -27 -13q-16 0 -28 13t-12 28q0 14 12.5 26t25.5 12v0q24 0 36 -22q12 -24 -7 -44zM168 427q-12 -13 -27 -13q-16 0 -28 13t-12 28q0 14 12.5 26t25.5 12v0q24 0 36 -22q12 -24 -7 -44zM576 426q-12 -13 -27 -13q-16 0 -28 13t-12 28
q0 14 12.5 26t25.5 12v0q24 0 36 -22q12 -24 -7 -44zM474 426q-12 -13 -27 -13q-16 0 -28 13t-12 28q0 14 12.5 26t25.5 12v0q24 0 36 -22q12 -24 -7 -44zM372 426q-12 -13 -27 -13q-16 0 -28 13t-12 28q0 14 12.5 26t25.5 12v0q24 0 36 -22q12 -24 -7 -44zM270 426
q-12 -13 -27 -13q-16 0 -28 13t-12 28q0 14 12.5 26t25.5 12v0q24 0 36 -22q12 -24 -7 -44zM66 324q-12 -13 -27 -13q-16 0 -28 13t-12 29q0 13 12 25t26 12v0q23 0 35 -23q13 -23 -6 -43zM678 322q-12 -13 -27 -13q-16 0 -28 13t-12 29q0 13 12 25t26 12v0q23 0 35 -23
q13 -23 -6 -43zM66 221q-12 -13 -27 -13q-16 0 -28 13t-12 28q0 14 12.5 26t25.5 12v0q24 0 36 -22q12 -24 -7 -44zM678 219q-12 -13 -27 -13q-16 0 -28 13t-12 28q0 14 12.5 26t25.5 12v0q24 0 36 -22q12 -24 -7 -44zM66 118q-12 -13 -27 -13q-16 0 -28 13t-12 28
q0 14 12.5 26t25.5 12v0q24 0 36 -22q12 -24 -7 -44zM678 116q-12 -13 -27 -13q-16 0 -28 13t-12 28q0 14 12.5 26t25.5 12v0q24 0 36 -22q12 -24 -7 -44zM168 15q-12 -13 -27 -13q-16 0 -28 13t-12 28q0 14 12.5 26t25.5 12v0q24 0 36 -22q12 -24 -7 -44zM576 14
q-12 -13 -27 -13q-16 0 -28 13t-12 28q0 14 12.5 26t25.5 12v0q24 0 36 -22q12 -24 -7 -44zM474 14q-12 -13 -27 -13q-16 0 -28 13t-12 28q0 14 12.5 26t25.5 12v0q24 0 36 -22q12 -24 -7 -44zM372 14q-12 -13 -27 -13q-16 0 -28 13t-12 28q0 14 12.5 26t25.5 12v0
q24 0 36 -22q12 -24 -7 -44zM270 14q-12 -13 -27 -13q-16 0 -28 13t-12 28q0 14 12.5 26t25.5 12v0q24 0 36 -22q12 -24 -7 -44z" />
    <glyph glyph-name="nine" unicode="9" 
d="M499 792q11 -12 11 -26v0q0 -24 -24 -36t-43 8q-11 12 -11 26v0q0 25 23 36q25 13 44 -8zM397 792q11 -12 11 -26v0q0 -24 -24 -36t-43 8q-11 12 -11 26v0q0 25 23 36q25 13 44 -8zM295 792q11 -12 11 -26v0q0 -24 -24 -36t-43 8q-11 12 -11 26v0q0 25 23 36q25 13 44 -8
zM193 792q11 -12 11 -26v0q0 -24 -24 -36t-43 8q-11 12 -11 26v0q0 25 23 36q25 13 44 -8zM601 791q11 -12 11 -26v0q0 -24 -24 -36t-43 8q-11 12 -11 26v0q0 25 23 36q25 13 44 -8zM91 690q11 -12 11 -26v0q0 -24 -24 -36t-43 8q-11 12 -11 26v0q0 25 23 36q25 13 44 -8z
M703 688q11 -12 11 -26v0q0 -24 -24 -36t-43 8q-11 12 -11 26v0q0 25 23 36q25 13 44 -8zM91 587q11 -12 11 -26v0q0 -24 -24 -36t-43 8q-11 12 -11 26v0q0 25 23 36q25 13 44 -8zM703 585q11 -12 11 -26v0q0 -24 -24 -36t-43 8q-11 12 -11 26v0q0 25 23 36q25 13 44 -8z
M91 484q11 -12 11 -26v0q0 -24 -23 -36t-43 8q-12 12 -12 27v0q0 24 23 36q25 12 44 -9zM703 482q11 -12 11 -26v0q0 -24 -23 -36t-43 8q-12 12 -12 27v0q0 24 23 36q25 12 44 -9zM499 380q11 -12 11 -26v0q0 -24 -24 -36t-43 8q-11 12 -11 26v0q0 25 23 36q25 13 44 -8z
M397 380q11 -12 11 -26v0q0 -24 -24 -36t-43 8q-11 12 -11 26v0q0 25 23 36q25 13 44 -8zM295 380q11 -12 11 -26v0q0 -24 -24 -36t-43 8q-11 12 -11 26v0q0 25 23 36q25 13 44 -8zM193 380q11 -12 11 -26v0q0 -24 -24 -36t-43 8q-11 12 -11 26v0q0 25 23 36q25 13 44 -8z
M703 379q11 -12 11 -26v0q0 -24 -24 -36t-43 8q-11 12 -11 26v0q0 25 23 36q25 13 44 -8zM601 379q11 -12 11 -26v0q0 -24 -24 -36t-43 8q-11 12 -11 26v0q0 25 23 36q25 13 44 -8zM702 277q11 -12 11 -26v0q0 -24 -24 -36t-43 8q-11 12 -11 26v0q0 25 23 36q25 13 44 -8z
M91 177q11 -12 11 -26v0q0 -24 -24 -36t-43 8q-11 12 -11 26v0q0 25 23 36q25 13 44 -8zM703 175q11 -12 11 -26v0q0 -24 -24 -36t-43 8q-11 12 -11 26v0q0 25 23 36q25 13 44 -8zM499 74q11 -12 11 -26v0q0 -24 -24 -36t-43 8q-11 12 -11 26v0q0 25 23 36q25 13 44 -8z
M397 74q11 -12 11 -26v0q0 -24 -24 -36t-43 8q-11 12 -11 26v0q0 25 23 36q25 13 44 -8zM295 74q11 -12 11 -26v0q0 -24 -24 -36t-43 8q-11 12 -11 26v0q0 25 23 36q25 13 44 -8zM193 74q11 -12 11 -26v0q0 -24 -24 -36t-43 8q-11 12 -11 26v0q0 25 23 36q25 13 44 -8z
M601 73q11 -12 11 -26v0q0 -24 -24 -36t-43 8q-11 12 -11 26v0q0 25 23 36q25 13 44 -8z" />
    <glyph glyph-name="colon" unicode=":" horiz-adv-x="160" 
d="M66 427q-12 -13 -27 -13q-16 0 -28 13t-12 28q0 14 12.5 26t25.5 12v0q24 0 36 -22q12 -24 -7 -44zM66 15q-12 -13 -27 -13q-16 0 -28 13t-12 28q0 14 12.5 26t25.5 12v0q24 0 36 -22q12 -24 -7 -44z" />
    <glyph glyph-name="semicolon" unicode=";" horiz-adv-x="255" 
d="M195 425q-12 -13 -27 -13q-16 0 -28 13t-12 28q0 14 12.5 26t25.5 12v0q24 0 36 -22q12 -24 -7 -44zM195 15q-12 -13 -27 -13q-16 0 -28 13t-12 28q0 14 12.5 26t25.5 12v0q24 0 36 -22q12 -24 -7 -44zM93 -87q-12 -13 -27 -13q-16 0 -28 13t-12 28q0 14 12.5 26t25.5 12
v0q24 0 36 -22q12 -24 -7 -44z" />
    <glyph glyph-name="less" unicode="&#x3c;" horiz-adv-x="445" 
d="M380 629q-12 -13 -27 -13q-16 0 -28 13t-12 28q0 14 12.5 26t25.5 12v0q24 0 36 -22q12 -24 -7 -44zM267 528q-12 -13 -27 -13q-16 0 -28 13t-12 28q0 14 12.5 26t25.5 12v0q24 0 36 -22q12 -24 -7 -44zM176 426q-12 -13 -27 -13q-16 0 -28 13t-12 28q0 14 12.5 26
t25.5 12v0q24 0 36 -22q12 -24 -7 -44zM74 323q-12 -13 -27 -13q-16 0 -28 13t-12 29q0 13 12 25t26 12v0q23 0 35 -23q13 -23 -6 -43zM176 220q-12 -13 -27 -13q-16 0 -28 13t-12 28q0 14 12.5 26t25.5 12v0q24 0 36 -22q12 -24 -7 -44zM278 117q-12 -13 -27 -13
q-16 0 -28 13t-12 28q0 14 12.5 26t25.5 12v0q24 0 36 -22q12 -24 -7 -44zM380 13q-12 -13 -27 -13q-16 0 -28 13t-12 28q0 14 12.5 26t25.5 12v0q24 0 36 -22q12 -24 -7 -44z" />
    <glyph glyph-name="equal" unicode="=" horiz-adv-x="595" 
d="M198 361q-12 -13 -27 -13q-16 0 -28 13t-12 28q0 14 12.5 26t25.5 12v0q24 0 36 -22q12 -24 -7 -44zM96 361q-12 -13 -27 -13q-16 0 -28 13t-12 28q0 14 12.5 26t25.5 12v0q24 0 36 -22q12 -24 -7 -44zM504 360q-12 -13 -27 -13q-16 0 -28 13t-12 28q0 14 12.5 26
t25.5 12v0q24 0 36 -22q12 -24 -7 -44zM402 360q-12 -13 -27 -13q-16 0 -28 13t-12 28q0 14 12.5 26t25.5 12v0q24 0 36 -22q12 -24 -7 -44zM300 360q-12 -13 -27 -13q-16 0 -28 13t-12 28q0 14 12.5 26t25.5 12v0q24 0 36 -22q12 -24 -7 -44zM198 155q-12 -13 -27 -13
q-16 0 -28 13t-12 28q0 14 12.5 26t25.5 12v0q24 0 36 -22q12 -24 -7 -44zM96 155q-12 -13 -27 -13q-16 0 -28 13t-12 28q0 14 12.5 26t25.5 12v0q24 0 36 -22q12 -24 -7 -44zM504 154q-12 -13 -27 -13q-16 0 -28 13t-12 28q0 14 12.5 26t25.5 12v0q24 0 36 -22
q12 -24 -7 -44zM402 154q-12 -13 -27 -13q-16 0 -28 13t-12 28q0 14 12.5 26t25.5 12v0q24 0 36 -22q12 -24 -7 -44zM300 154q-12 -13 -27 -13q-16 0 -28 13t-12 28q0 14 12.5 26t25.5 12v0q24 0 36 -22q12 -24 -7 -44z" />
    <glyph glyph-name="greater" unicode="&#x3e;" horiz-adv-x="460" 
d="M84 634q-12 -13 -27 -13q-16 0 -28 12.5t-12 28.5q0 13 12 25.5t26 12.5v0q23 0 36 -22q12 -23 -7 -44zM197 533q-12 -13 -27 -13q-16 0 -28 12.5t-12 28.5q0 13 12 25.5t26 12.5v0q23 0 36 -22q12 -23 -7 -44zM288 431q-12 -13 -27 -13q-16 0 -28 12.5t-12 28.5
q0 13 12 25.5t26 12.5v0q23 0 36 -22q12 -23 -7 -44zM390 328q-12 -13 -27 -13q-16 0 -28 12.5t-12 27.5q0 14 12.5 26.5t26.5 12.5v0q23 0 35 -23t-7 -43zM288 225q-12 -13 -27 -13q-16 0 -28 12.5t-12 28.5q0 13 12 25.5t26 12.5v0q23 0 36 -22q12 -23 -7 -44zM186 122
q-12 -13 -27 -13q-16 0 -28 12.5t-12 28.5q0 13 12 25.5t26 12.5v0q23 0 36 -22q12 -23 -7 -44zM84 18q-12 -13 -27 -13q-16 0 -28 12.5t-12 28.5q0 13 12 25.5t26 12.5v0q23 0 36 -22q12 -23 -7 -44z" />
    <glyph glyph-name="question" unicode="?" 
d="M168 733q-12 -13 -27 -13q-16 0 -28 13t-12 28q0 14 12.5 26t25.5 12v0q24 0 36 -22q12 -24 -7 -44zM576 732q-12 -13 -27 -13q-16 0 -28 13t-12 28q0 14 12.5 26t25.5 12v0q24 0 36 -22q12 -24 -7 -44zM474 732q-12 -13 -27 -13q-16 0 -28 13t-12 28q0 14 12.5 26
t25.5 12v0q24 0 36 -22q12 -24 -7 -44zM372 732q-12 -13 -27 -13q-16 0 -28 13t-12 28q0 14 12.5 26t25.5 12v0q24 0 36 -22q12 -24 -7 -44zM270 732q-12 -13 -27 -13q-16 0 -28 13t-12 28q0 14 12.5 26t25.5 12v0q24 0 36 -22q12 -24 -7 -44zM66 631q-12 -13 -27 -13
q-16 0 -28 13t-12 28q0 14 12.5 26t25.5 12v0q24 0 36 -22q12 -24 -7 -44zM678 629q-12 -13 -27 -13q-16 0 -28 13t-12 28q0 14 12.5 26t25.5 12v0q24 0 36 -22q12 -24 -7 -44zM679 527q-12 -13 -27 -13q-16 0 -28 13t-12 28q0 14 12.5 26t25.5 12v0q24 0 36 -22
q12 -24 -7 -44zM576 426q-12 -13 -27 -13q-16 0 -28 13t-12 28q0 14 12.5 26t25.5 12v0q24 0 36 -22q12 -24 -7 -44zM474 323q-12 -13 -27 -13q-16 0 -28 13t-12 29q0 13 12 25t26 12v0q23 0 35 -23q13 -23 -6 -43zM372 220q-12 -13 -27 -13q-16 0 -28 13t-12 28
q0 14 12.5 26t25.5 12v0q24 0 36 -22q12 -24 -7 -44zM372 117q-12 -13 -27 -13q-16 0 -28 13t-12 28q0 14 12.5 26t25.5 12v0q24 0 36 -22q12 -24 -7 -44zM377 -86q-12 -13 -27 -13q-16 0 -28 13t-12 28q0 14 12.5 26t25.5 12v0q24 0 36 -22q12 -24 -7 -44z" />
    <glyph glyph-name="at" unicode="@" 
d="M168 733q-12 -13 -27 -13q-16 0 -28 13t-12 28q0 14 12.5 26t25.5 12v0q24 0 36 -22q12 -24 -7 -44zM474 732q-12 -13 -27 -13q-16 0 -28 13t-12 28q0 14 12.5 26t25.5 12v0q24 0 36 -22q12 -24 -7 -44zM372 732q-12 -13 -27 -13q-16 0 -28 13t-12 28q0 14 12.5 26
t25.5 12v0q24 0 36 -22q12 -24 -7 -44zM270 732q-12 -13 -27 -13q-16 0 -28 13t-12 28q0 14 12.5 26t25.5 12v0q24 0 36 -22q12 -24 -7 -44zM66 631q-12 -13 -27 -13q-16 0 -28 13t-12 28q0 14 12.5 26t25.5 12v0q24 0 36 -22q12 -24 -7 -44zM474 630q-12 -13 -27 -13
q-16 0 -28 13t-12 28q0 14 12.5 26t25.5 12v0q24 0 36 -22q12 -24 -7 -44zM678 629q-12 -13 -27 -13q-16 0 -28 13t-12 28q0 14 12.5 26t25.5 12v0q24 0 36 -22q12 -24 -7 -44zM67 529q-12 -13 -27 -13q-16 0 -28 13t-12 28q0 14 12.5 26t25.5 12v0q24 0 36 -22
q12 -24 -7 -44zM475 528q-12 -13 -27 -13q-16 0 -28 13t-12 28q0 14 12.5 26t25.5 12v0q24 0 36 -22q12 -24 -7 -44zM373 528q-12 -13 -27 -13q-16 0 -28 13t-12 28q0 14 12.5 26t25.5 12v0q24 0 36 -22q12 -24 -7 -44zM679 527q-12 -13 -27 -13q-16 0 -28 13t-12 28
q0 14 12.5 26t25.5 12v0q24 0 36 -22q12 -24 -7 -44zM66 427q-12 -13 -27 -13q-16 0 -28 13t-12 28q0 14 12.5 26t25.5 12v0q24 0 36 -22q12 -24 -7 -44zM474 426q-12 -13 -27 -13q-16 0 -28 13t-12 28q0 14 12.5 26t25.5 12v0q24 0 36 -22q12 -24 -7 -44zM270 426
q-12 -13 -27 -13q-16 0 -28 13t-12 28q0 14 12.5 26t25.5 12v0q24 0 36 -22q12 -24 -7 -44zM678 425q-12 -13 -27 -13q-16 0 -28 13t-12 28q0 14 12.5 26t25.5 12v0q24 0 36 -22q12 -24 -7 -44zM66 324q-12 -13 -27 -13q-16 0 -28 13t-12 29q0 13 12 25t26 12v0q23 0 35 -23
q13 -23 -6 -43zM474 323q-12 -13 -27 -13q-16 0 -28 13t-12 29q0 13 12 25t26 12v0q23 0 35 -23q13 -23 -6 -43zM270 323q-12 -13 -27 -13q-16 0 -28 13t-12 29q0 13 12 25t26 12v0q23 0 35 -23q13 -23 -6 -43zM678 322q-12 -13 -27 -13q-16 0 -28 13t-12 29q0 13 12 25
t26 12v0q23 0 35 -23q13 -23 -6 -43zM66 221q-12 -13 -27 -13q-16 0 -28 13t-12 28q0 14 12.5 26t25.5 12v0q24 0 36 -22q12 -24 -7 -44zM474 220q-12 -13 -27 -13q-16 0 -28 13t-12 28q0 14 12.5 26t25.5 12v0q24 0 36 -22q12 -24 -7 -44zM372 220q-12 -13 -27 -13
q-16 0 -28 13t-12 28q0 14 12.5 26t25.5 12v0q24 0 36 -22q12 -24 -7 -44zM678 219q-12 -13 -27 -13q-16 0 -28 13t-12 28q0 14 12.5 26t25.5 12v0q24 0 36 -22q12 -24 -7 -44zM66 118q-12 -13 -27 -13q-16 0 -28 13t-12 28q0 14 12.5 26t25.5 12v0q24 0 36 -22
q12 -24 -7 -44zM678 116q-12 -13 -27 -13q-16 0 -28 13t-12 28q0 14 12.5 26t25.5 12v0q24 0 36 -22q12 -24 -7 -44zM168 15q-12 -13 -27 -13q-16 0 -28 13t-12 28q0 14 12.5 26t25.5 12v0q24 0 36 -22q12 -24 -7 -44zM576 14q-12 -13 -27 -13q-16 0 -28 13t-12 28
q0 14 12.5 26t25.5 12v0q24 0 36 -22q12 -24 -7 -44zM474 14q-12 -13 -27 -13q-16 0 -28 13t-12 28q0 14 12.5 26t25.5 12v0q24 0 36 -22q12 -24 -7 -44zM372 14q-12 -13 -27 -13q-16 0 -28 13t-12 28q0 14 12.5 26t25.5 12v0q24 0 36 -22q12 -24 -7 -44zM270 14
q-12 -13 -27 -13q-16 0 -28 13t-12 28q0 14 12.5 26t25.5 12v0q24 0 36 -22q12 -24 -7 -44z" />
    <glyph glyph-name="A" unicode="A" 
d="M168 733q-12 -13 -27 -13q-16 0 -28 13t-12 28q0 14 12.5 26t25.5 12v0q24 0 36 -22q12 -24 -7 -44zM576 732q-12 -13 -27 -13q-16 0 -28 13t-12 28q0 14 12.5 26t25.5 12v0q24 0 36 -22q12 -24 -7 -44zM474 732q-12 -13 -27 -13q-16 0 -28 13t-12 28q0 14 12.5 26
t25.5 12v0q24 0 36 -22q12 -24 -7 -44zM372 732q-12 -13 -27 -13q-16 0 -28 13t-12 28q0 14 12.5 26t25.5 12v0q24 0 36 -22q12 -24 -7 -44zM270 732q-12 -13 -27 -13q-16 0 -28 13t-12 28q0 14 12.5 26t25.5 12v0q24 0 36 -22q12 -24 -7 -44zM66 631q-12 -13 -27 -13
q-16 0 -28 13t-12 28q0 14 12.5 26t25.5 12v0q24 0 36 -22q12 -24 -7 -44zM678 629q-12 -13 -27 -13q-16 0 -28 13t-12 28q0 14 12.5 26t25.5 12v0q24 0 36 -22q12 -24 -7 -44zM67 529q-12 -13 -27 -13q-16 0 -28 13t-12 28q0 14 12.5 26t25.5 12v0q24 0 36 -22
q12 -24 -7 -44zM679 527q-12 -13 -27 -13q-16 0 -28 13t-12 28q0 14 12.5 26t25.5 12v0q24 0 36 -22q12 -24 -7 -44zM66 427q-12 -13 -27 -13q-16 0 -28 13t-12 28q0 14 12.5 26t25.5 12v0q24 0 36 -22q12 -24 -7 -44zM678 425q-12 -13 -27 -13q-16 0 -28 13t-12 28
q0 14 12.5 26t25.5 12v0q24 0 36 -22q12 -24 -7 -44zM168 324q-12 -13 -27 -13q-16 0 -28 13t-12 29q0 13 12 25t26 12v0q23 0 35 -23q13 -23 -6 -43zM66 324q-12 -13 -27 -13q-16 0 -28 13t-12 29q0 13 12 25t26 12v0q23 0 35 -23q13 -23 -6 -43zM576 323q-12 -13 -27 -13
q-16 0 -28 13t-12 29q0 13 12 25t26 12v0q23 0 35 -23q13 -23 -6 -43zM474 323q-12 -13 -27 -13q-16 0 -28 13t-12 29q0 13 12 25t26 12v0q23 0 35 -23q13 -23 -6 -43zM372 323q-12 -13 -27 -13q-16 0 -28 13t-12 29q0 13 12 25t26 12v0q23 0 35 -23q13 -23 -6 -43zM270 323
q-12 -13 -27 -13q-16 0 -28 13t-12 29q0 13 12 25t26 12v0q23 0 35 -23q13 -23 -6 -43zM678 322q-12 -13 -27 -13q-16 0 -28 13t-12 29q0 13 12 25t26 12v0q23 0 35 -23q13 -23 -6 -43zM66 221q-12 -13 -27 -13q-16 0 -28 13t-12 28q0 14 12.5 26t25.5 12v0q24 0 36 -22
q12 -24 -7 -44zM678 219q-12 -13 -27 -13q-16 0 -28 13t-12 28q0 14 12.5 26t25.5 12v0q24 0 36 -22q12 -24 -7 -44zM66 118q-12 -13 -27 -13q-16 0 -28 13t-12 28q0 14 12.5 26t25.5 12v0q24 0 36 -22q12 -24 -7 -44zM678 116q-12 -13 -27 -13q-16 0 -28 13t-12 28
q0 14 12.5 26t25.5 12v0q24 0 36 -22q12 -24 -7 -44zM66 15q-12 -13 -27 -13q-16 0 -28 13t-12 28q0 14 12.5 26t25.5 12v0q24 0 36 -22q12 -24 -7 -44zM678 13q-12 -13 -27 -13q-16 0 -28 13t-12 28q0 14 12.5 26t25.5 12v0q24 0 36 -22q12 -24 -7 -44z" />
    <glyph glyph-name="B" unicode="B" 
d="M168 733q-12 -13 -27 -13q-16 0 -28 13t-12 28q0 14 12.5 26t25.5 12v0q24 0 36 -22q12 -24 -7 -44zM66 733q-12 -13 -27 -13q-16 0 -28 13t-12 28q0 14 12.5 26t25.5 12v0q24 0 36 -22q12 -24 -7 -44zM576 732q-12 -13 -27 -13q-16 0 -28 13t-12 28q0 14 12.5 26
t25.5 12v0q24 0 36 -22q12 -24 -7 -44zM474 732q-12 -13 -27 -13q-16 0 -28 13t-12 28q0 14 12.5 26t25.5 12v0q24 0 36 -22q12 -24 -7 -44zM372 732q-12 -13 -27 -13q-16 0 -28 13t-12 28q0 14 12.5 26t25.5 12v0q24 0 36 -22q12 -24 -7 -44zM270 732q-12 -13 -27 -13
q-16 0 -28 13t-12 28q0 14 12.5 26t25.5 12v0q24 0 36 -22q12 -24 -7 -44zM66 631q-12 -13 -27 -13q-16 0 -28 13t-12 28q0 14 12.5 26t25.5 12v0q24 0 36 -22q12 -24 -7 -44zM678 629q-12 -13 -27 -13q-16 0 -28 13t-12 28q0 14 12.5 26t25.5 12v0q24 0 36 -22
q12 -24 -7 -44zM67 529q-12 -13 -27 -13q-16 0 -28 13t-12 28q0 14 12.5 26t25.5 12v0q24 0 36 -22q12 -24 -7 -44zM679 527q-12 -13 -27 -13q-16 0 -28 13t-12 28q0 14 12.5 26t25.5 12v0q24 0 36 -22q12 -24 -7 -44zM168 427q-12 -13 -27 -13q-16 0 -28 13t-12 28
q0 14 12.5 26t25.5 12v0q24 0 36 -22q12 -24 -7 -44zM66 427q-12 -13 -27 -13q-16 0 -28 13t-12 28q0 14 12.5 26t25.5 12v0q24 0 36 -22q12 -24 -7 -44zM576 426q-12 -13 -27 -13q-16 0 -28 13t-12 28q0 14 12.5 26t25.5 12v0q24 0 36 -22q12 -24 -7 -44zM474 426
q-12 -13 -27 -13q-16 0 -28 13t-12 28q0 14 12.5 26t25.5 12v0q24 0 36 -22q12 -24 -7 -44zM372 426q-12 -13 -27 -13q-16 0 -28 13t-12 28q0 14 12.5 26t25.5 12v0q24 0 36 -22q12 -24 -7 -44zM270 426q-12 -13 -27 -13q-16 0 -28 13t-12 28q0 14 12.5 26t25.5 12v0
q24 0 36 -22q12 -24 -7 -44zM66 324q-12 -13 -27 -13q-16 0 -28 13t-12 29q0 13 12 25t26 12v0q23 0 35 -23q13 -23 -6 -43zM678 322q-12 -13 -27 -13q-16 0 -28 13t-12 29q0 13 12 25t26 12v0q23 0 35 -23q13 -23 -6 -43zM66 221q-12 -13 -27 -13q-16 0 -28 13t-12 28
q0 14 12.5 26t25.5 12v0q24 0 36 -22q12 -24 -7 -44zM678 219q-12 -13 -27 -13q-16 0 -28 13t-12 28q0 14 12.5 26t25.5 12v0q24 0 36 -22q12 -24 -7 -44zM66 118q-12 -13 -27 -13q-16 0 -28 13t-12 28q0 14 12.5 26t25.5 12v0q24 0 36 -22q12 -24 -7 -44zM678 116
q-12 -13 -27 -13q-16 0 -28 13t-12 28q0 14 12.5 26t25.5 12v0q24 0 36 -22q12 -24 -7 -44zM168 15q-12 -13 -27 -13q-16 0 -28 13t-12 28q0 14 12.5 26t25.5 12v0q24 0 36 -22q12 -24 -7 -44zM66 15q-12 -13 -27 -13q-16 0 -28 13t-12 28q0 14 12.5 26t25.5 12v0
q24 0 36 -22q12 -24 -7 -44zM576 14q-12 -13 -27 -13q-16 0 -28 13t-12 28q0 14 12.5 26t25.5 12v0q24 0 36 -22q12 -24 -7 -44zM474 14q-12 -13 -27 -13q-16 0 -28 13t-12 28q0 14 12.5 26t25.5 12v0q24 0 36 -22q12 -24 -7 -44zM372 14q-12 -13 -27 -13q-16 0 -28 13
t-12 28q0 14 12.5 26t25.5 12v0q24 0 36 -22q12 -24 -7 -44zM270 14q-12 -13 -27 -13q-16 0 -28 13t-12 28q0 14 12.5 26t25.5 12v0q24 0 36 -22q12 -24 -7 -44z" />
    <glyph glyph-name="C" unicode="C" 
d="M168 733q-12 -13 -27 -13q-16 0 -28 13t-12 28q0 14 12.5 26t25.5 12v0q24 0 36 -22q12 -24 -7 -44zM576 732q-12 -13 -27 -13q-16 0 -28 13t-12 28q0 14 12.5 26t25.5 12v0q24 0 36 -22q12 -24 -7 -44zM474 732q-12 -13 -27 -13q-16 0 -28 13t-12 28q0 14 12.5 26
t25.5 12v0q24 0 36 -22q12 -24 -7 -44zM372 732q-12 -13 -27 -13q-16 0 -28 13t-12 28q0 14 12.5 26t25.5 12v0q24 0 36 -22q12 -24 -7 -44zM270 732q-12 -13 -27 -13q-16 0 -28 13t-12 28q0 14 12.5 26t25.5 12v0q24 0 36 -22q12 -24 -7 -44zM66 631q-12 -13 -27 -13
q-16 0 -28 13t-12 28q0 14 12.5 26t25.5 12v0q24 0 36 -22q12 -24 -7 -44zM678 629q-12 -13 -27 -13q-16 0 -28 13t-12 28q0 14 12.5 26t25.5 12v0q24 0 36 -22q12 -24 -7 -44zM67 529q-12 -13 -27 -13q-16 0 -28 13t-12 28q0 14 12.5 26t25.5 12v0q24 0 36 -22
q12 -24 -7 -44zM66 427q-12 -13 -27 -13q-16 0 -28 13t-12 28q0 14 12.5 26t25.5 12v0q24 0 36 -22q12 -24 -7 -44zM66 324q-12 -13 -27 -13q-16 0 -28 13t-12 29q0 13 12 25t26 12v0q23 0 35 -23q13 -23 -6 -43zM66 221q-12 -13 -27 -13q-16 0 -28 13t-12 28q0 14 12.5 26
t25.5 12v0q24 0 36 -22q12 -24 -7 -44zM66 118q-12 -13 -27 -13q-16 0 -28 13t-12 28q0 14 12.5 26t25.5 12v0q24 0 36 -22q12 -24 -7 -44zM678 116q-12 -13 -27 -13q-16 0 -28 13t-12 28q0 14 12.5 26t25.5 12v0q24 0 36 -22q12 -24 -7 -44zM168 15q-12 -13 -27 -13
q-16 0 -28 13t-12 28q0 14 12.5 26t25.5 12v0q24 0 36 -22q12 -24 -7 -44zM576 14q-12 -13 -27 -13q-16 0 -28 13t-12 28q0 14 12.5 26t25.5 12v0q24 0 36 -22q12 -24 -7 -44zM474 14q-12 -13 -27 -13q-16 0 -28 13t-12 28q0 14 12.5 26t25.5 12v0q24 0 36 -22
q12 -24 -7 -44zM372 14q-12 -13 -27 -13q-16 0 -28 13t-12 28q0 14 12.5 26t25.5 12v0q24 0 36 -22q12 -24 -7 -44zM270 14q-12 -13 -27 -13q-16 0 -28 13t-12 28q0 14 12.5 26t25.5 12v0q24 0 36 -22q12 -24 -7 -44z" />
    <glyph glyph-name="D" unicode="D" 
d="M168 733q-12 -13 -27 -13q-16 0 -28 13t-12 28q0 14 12.5 26t25.5 12v0q24 0 36 -22q12 -24 -7 -44zM66 733q-12 -13 -27 -13q-16 0 -28 13t-12 28q0 14 12.5 26t25.5 12v0q24 0 36 -22q12 -24 -7 -44zM576 732q-12 -13 -27 -13q-16 0 -28 13t-12 28q0 14 12.5 26
t25.5 12v0q24 0 36 -22q12 -24 -7 -44zM474 732q-12 -13 -27 -13q-16 0 -28 13t-12 28q0 14 12.5 26t25.5 12v0q24 0 36 -22q12 -24 -7 -44zM372 732q-12 -13 -27 -13q-16 0 -28 13t-12 28q0 14 12.5 26t25.5 12v0q24 0 36 -22q12 -24 -7 -44zM270 732q-12 -13 -27 -13
q-16 0 -28 13t-12 28q0 14 12.5 26t25.5 12v0q24 0 36 -22q12 -24 -7 -44zM66 631q-12 -13 -27 -13q-16 0 -28 13t-12 28q0 14 12.5 26t25.5 12v0q24 0 36 -22q12 -24 -7 -44zM678 629q-12 -13 -27 -13q-16 0 -28 13t-12 28q0 14 12.5 26t25.5 12v0q24 0 36 -22
q12 -24 -7 -44zM67 529q-12 -13 -27 -13q-16 0 -28 13t-12 28q0 14 12.5 26t25.5 12v0q24 0 36 -22q12 -24 -7 -44zM679 527q-12 -13 -27 -13q-16 0 -28 13t-12 28q0 14 12.5 26t25.5 12v0q24 0 36 -22q12 -24 -7 -44zM66 427q-12 -13 -27 -13q-16 0 -28 13t-12 28
q0 14 12.5 26t25.5 12v0q24 0 36 -22q12 -24 -7 -44zM678 425q-12 -13 -27 -13q-16 0 -28 13t-12 28q0 14 12.5 26t25.5 12v0q24 0 36 -22q12 -24 -7 -44zM66 324q-12 -13 -27 -13q-16 0 -28 13t-12 29q0 13 12 25t26 12v0q23 0 35 -23q13 -23 -6 -43zM678 322
q-12 -13 -27 -13q-16 0 -28 13t-12 29q0 13 12 25t26 12v0q23 0 35 -23q13 -23 -6 -43zM66 221q-12 -13 -27 -13q-16 0 -28 13t-12 28q0 14 12.5 26t25.5 12v0q24 0 36 -22q12 -24 -7 -44zM678 219q-12 -13 -27 -13q-16 0 -28 13t-12 28q0 14 12.5 26t25.5 12v0q24 0 36 -22
q12 -24 -7 -44zM66 118q-12 -13 -27 -13q-16 0 -28 13t-12 28q0 14 12.5 26t25.5 12v0q24 0 36 -22q12 -24 -7 -44zM678 116q-12 -13 -27 -13q-16 0 -28 13t-12 28q0 14 12.5 26t25.5 12v0q24 0 36 -22q12 -24 -7 -44zM168 15q-12 -13 -27 -13q-16 0 -28 13t-12 28
q0 14 12.5 26t25.5 12v0q24 0 36 -22q12 -24 -7 -44zM66 15q-12 -13 -27 -13q-16 0 -28 13t-12 28q0 14 12.5 26t25.5 12v0q24 0 36 -22q12 -24 -7 -44zM576 14q-12 -13 -27 -13q-16 0 -28 13t-12 28q0 14 12.5 26t25.5 12v0q24 0 36 -22q12 -24 -7 -44zM474 14
q-12 -13 -27 -13q-16 0 -28 13t-12 28q0 14 12.5 26t25.5 12v0q24 0 36 -22q12 -24 -7 -44zM372 14q-12 -13 -27 -13q-16 0 -28 13t-12 28q0 14 12.5 26t25.5 12v0q24 0 36 -22q12 -24 -7 -44zM270 14q-12 -13 -27 -13q-16 0 -28 13t-12 28q0 14 12.5 26t25.5 12v0
q24 0 36 -22q12 -24 -7 -44z" />
    <glyph glyph-name="E" unicode="E" 
d="M168 733q-12 -13 -27 -13q-16 0 -28 13t-12 28q0 14 12.5 26t25.5 12v0q24 0 36 -22q12 -24 -7 -44zM66 733q-12 -13 -27 -13q-16 0 -28 13t-12 28q0 14 12.5 26t25.5 12v0q24 0 36 -22q12 -24 -7 -44zM576 732q-12 -13 -27 -13q-16 0 -28 13t-12 28q0 14 12.5 26
t25.5 12v0q24 0 36 -22q12 -24 -7 -44zM474 732q-12 -13 -27 -13q-16 0 -28 13t-12 28q0 14 12.5 26t25.5 12v0q24 0 36 -22q12 -24 -7 -44zM372 732q-12 -13 -27 -13q-16 0 -28 13t-12 28q0 14 12.5 26t25.5 12v0q24 0 36 -22q12 -24 -7 -44zM270 732q-12 -13 -27 -13
q-16 0 -28 13t-12 28q0 14 12.5 26t25.5 12v0q24 0 36 -22q12 -24 -7 -44zM678 731q-12 -13 -27 -13q-16 0 -28 13t-12 28q0 14 12.5 26t25.5 12v0q24 0 36 -22q12 -24 -7 -44zM66 631q-12 -13 -27 -13q-16 0 -28 13t-12 28q0 14 12.5 26t25.5 12v0q24 0 36 -22
q12 -24 -7 -44zM678 629q-12 -13 -27 -13q-16 0 -28 13t-12 28q0 14 12.5 26t25.5 12v0q24 0 36 -22q12 -24 -7 -44zM67 529q-12 -13 -27 -13q-16 0 -28 13t-12 28q0 14 12.5 26t25.5 12v0q24 0 36 -22q12 -24 -7 -44zM168 427q-12 -13 -27 -13q-16 0 -28 13t-12 28
q0 14 12.5 26t25.5 12v0q24 0 36 -22q12 -24 -7 -44zM66 427q-12 -13 -27 -13q-16 0 -28 13t-12 28q0 14 12.5 26t25.5 12v0q24 0 36 -22q12 -24 -7 -44zM474 426q-12 -13 -27 -13q-16 0 -28 13t-12 28q0 14 12.5 26t25.5 12v0q24 0 36 -22q12 -24 -7 -44zM372 426
q-12 -13 -27 -13q-16 0 -28 13t-12 28q0 14 12.5 26t25.5 12v0q24 0 36 -22q12 -24 -7 -44zM270 426q-12 -13 -27 -13q-16 0 -28 13t-12 28q0 14 12.5 26t25.5 12v0q24 0 36 -22q12 -24 -7 -44zM66 324q-12 -13 -27 -13q-16 0 -28 13t-12 29q0 13 12 25t26 12v0q23 0 35 -23
q13 -23 -6 -43zM66 221q-12 -13 -27 -13q-16 0 -28 13t-12 28q0 14 12.5 26t25.5 12v0q24 0 36 -22q12 -24 -7 -44zM66 118q-12 -13 -27 -13q-16 0 -28 13t-12 28q0 14 12.5 26t25.5 12v0q24 0 36 -22q12 -24 -7 -44zM678 116q-12 -13 -27 -13q-16 0 -28 13t-12 28
q0 14 12.5 26t25.5 12v0q24 0 36 -22q12 -24 -7 -44zM168 15q-12 -13 -27 -13q-16 0 -28 13t-12 28q0 14 12.5 26t25.5 12v0q24 0 36 -22q12 -24 -7 -44zM66 15q-12 -13 -27 -13q-16 0 -28 13t-12 28q0 14 12.5 26t25.5 12v0q24 0 36 -22q12 -24 -7 -44zM576 14
q-12 -13 -27 -13q-16 0 -28 13t-12 28q0 14 12.5 26t25.5 12v0q24 0 36 -22q12 -24 -7 -44zM474 14q-12 -13 -27 -13q-16 0 -28 13t-12 28q0 14 12.5 26t25.5 12v0q24 0 36 -22q12 -24 -7 -44zM372 14q-12 -13 -27 -13q-16 0 -28 13t-12 28q0 14 12.5 26t25.5 12v0
q24 0 36 -22q12 -24 -7 -44zM270 14q-12 -13 -27 -13q-16 0 -28 13t-12 28q0 14 12.5 26t25.5 12v0q24 0 36 -22q12 -24 -7 -44zM678 13q-12 -13 -27 -13q-16 0 -28 13t-12 28q0 14 12.5 26t25.5 12v0q24 0 36 -22q12 -24 -7 -44z" />
    <glyph glyph-name="F" unicode="F" 
d="M168 733q-12 -13 -27 -13q-16 0 -28 13t-12 28q0 14 12.5 26t25.5 12v0q24 0 36 -22q12 -24 -7 -44zM66 733q-12 -13 -27 -13q-16 0 -28 13t-12 28q0 14 12.5 26t25.5 12v0q24 0 36 -22q12 -24 -7 -44zM576 732q-12 -13 -27 -13q-16 0 -28 13t-12 28q0 14 12.5 26
t25.5 12v0q24 0 36 -22q12 -24 -7 -44zM474 732q-12 -13 -27 -13q-16 0 -28 13t-12 28q0 14 12.5 26t25.5 12v0q24 0 36 -22q12 -24 -7 -44zM372 732q-12 -13 -27 -13q-16 0 -28 13t-12 28q0 14 12.5 26t25.5 12v0q24 0 36 -22q12 -24 -7 -44zM270 732q-12 -13 -27 -13
q-16 0 -28 13t-12 28q0 14 12.5 26t25.5 12v0q24 0 36 -22q12 -24 -7 -44zM678 731q-12 -13 -27 -13q-16 0 -28 13t-12 28q0 14 12.5 26t25.5 12v0q24 0 36 -22q12 -24 -7 -44zM66 631q-12 -13 -27 -13q-16 0 -28 13t-12 28q0 14 12.5 26t25.5 12v0q24 0 36 -22
q12 -24 -7 -44zM678 629q-12 -13 -27 -13q-16 0 -28 13t-12 28q0 14 12.5 26t25.5 12v0q24 0 36 -22q12 -24 -7 -44zM67 529q-12 -13 -27 -13q-16 0 -28 13t-12 28q0 14 12.5 26t25.5 12v0q24 0 36 -22q12 -24 -7 -44zM168 427q-12 -13 -27 -13q-16 0 -28 13t-12 28
q0 14 12.5 26t25.5 12v0q24 0 36 -22q12 -24 -7 -44zM66 427q-12 -13 -27 -13q-16 0 -28 13t-12 28q0 14 12.5 26t25.5 12v0q24 0 36 -22q12 -24 -7 -44zM474 426q-12 -13 -27 -13q-16 0 -28 13t-12 28q0 14 12.5 26t25.5 12v0q24 0 36 -22q12 -24 -7 -44zM372 426
q-12 -13 -27 -13q-16 0 -28 13t-12 28q0 14 12.5 26t25.5 12v0q24 0 36 -22q12 -24 -7 -44zM270 426q-12 -13 -27 -13q-16 0 -28 13t-12 28q0 14 12.5 26t25.5 12v0q24 0 36 -22q12 -24 -7 -44zM66 324q-12 -13 -27 -13q-16 0 -28 13t-12 29q0 13 12 25t26 12v0q23 0 35 -23
q13 -23 -6 -43zM66 221q-12 -13 -27 -13q-16 0 -28 13t-12 28q0 14 12.5 26t25.5 12v0q24 0 36 -22q12 -24 -7 -44zM66 118q-12 -13 -27 -13q-16 0 -28 13t-12 28q0 14 12.5 26t25.5 12v0q24 0 36 -22q12 -24 -7 -44zM66 15q-12 -13 -27 -13q-16 0 -28 13t-12 28
q0 14 12.5 26t25.5 12v0q24 0 36 -22q12 -24 -7 -44z" />
    <glyph glyph-name="G" unicode="G" 
d="M168 733q-12 -13 -27 -13q-16 0 -28 13t-12 28q0 14 12.5 26t25.5 12v0q24 0 36 -22q12 -24 -7 -44zM576 732q-12 -13 -27 -13q-16 0 -28 13t-12 28q0 14 12.5 26t25.5 12v0q24 0 36 -22q12 -24 -7 -44zM474 732q-12 -13 -27 -13q-16 0 -28 13t-12 28q0 14 12.5 26
t25.5 12v0q24 0 36 -22q12 -24 -7 -44zM372 732q-12 -13 -27 -13q-16 0 -28 13t-12 28q0 14 12.5 26t25.5 12v0q24 0 36 -22q12 -24 -7 -44zM270 732q-12 -13 -27 -13q-16 0 -28 13t-12 28q0 14 12.5 26t25.5 12v0q24 0 36 -22q12 -24 -7 -44zM66 631q-12 -13 -27 -13
q-16 0 -28 13t-12 28q0 14 12.5 26t25.5 12v0q24 0 36 -22q12 -24 -7 -44zM678 629q-12 -13 -27 -13q-16 0 -28 13t-12 28q0 14 12.5 26t25.5 12v0q24 0 36 -22q12 -24 -7 -44zM67 529q-12 -13 -27 -13q-16 0 -28 13t-12 28q0 14 12.5 26t25.5 12v0q24 0 36 -22
q12 -24 -7 -44zM66 427q-12 -13 -27 -13q-16 0 -28 13t-12 28q0 14 12.5 26t25.5 12v0q24 0 36 -22q12 -24 -7 -44zM66 324q-12 -13 -27 -13q-16 0 -28 13t-12 29q0 13 12 25t26 12v0q23 0 35 -23q13 -23 -6 -43zM576 323q-12 -13 -27 -13q-16 0 -28 13t-12 29q0 13 12 25
t26 12v0q23 0 35 -23q13 -23 -6 -43zM678 322q-12 -13 -27 -13q-16 0 -28 13t-12 29q0 13 12 25t26 12v0q23 0 35 -23q13 -23 -6 -43zM66 221q-12 -13 -27 -13q-16 0 -28 13t-12 28q0 14 12.5 26t25.5 12v0q24 0 36 -22q12 -24 -7 -44zM678 219q-12 -13 -27 -13
q-16 0 -28 13t-12 28q0 14 12.5 26t25.5 12v0q24 0 36 -22q12 -24 -7 -44zM66 118q-12 -13 -27 -13q-16 0 -28 13t-12 28q0 14 12.5 26t25.5 12v0q24 0 36 -22q12 -24 -7 -44zM678 116q-12 -13 -27 -13q-16 0 -28 13t-12 28q0 14 12.5 26t25.5 12v0q24 0 36 -22
q12 -24 -7 -44zM168 15q-12 -13 -27 -13q-16 0 -28 13t-12 28q0 14 12.5 26t25.5 12v0q24 0 36 -22q12 -24 -7 -44zM576 14q-12 -13 -27 -13q-16 0 -28 13t-12 28q0 14 12.5 26t25.5 12v0q24 0 36 -22q12 -24 -7 -44zM474 14q-12 -13 -27 -13q-16 0 -28 13t-12 28
q0 14 12.5 26t25.5 12v0q24 0 36 -22q12 -24 -7 -44zM372 14q-12 -13 -27 -13q-16 0 -28 13t-12 28q0 14 12.5 26t25.5 12v0q24 0 36 -22q12 -24 -7 -44zM270 14q-12 -13 -27 -13q-16 0 -28 13t-12 28q0 14 12.5 26t25.5 12v0q24 0 36 -22q12 -24 -7 -44z" />
    <glyph glyph-name="H" unicode="H" 
d="M66 733q-12 -13 -27 -13q-16 0 -28 13t-12 28q0 14 12.5 26t25.5 12v0q24 0 36 -22q12 -24 -7 -44zM678 731q-12 -13 -27 -13q-16 0 -28 13t-12 28q0 14 12.5 26t25.5 12v0q24 0 36 -22q12 -24 -7 -44zM66 631q-12 -13 -27 -13q-16 0 -28 13t-12 28q0 14 12.5 26t25.5 12
v0q24 0 36 -22q12 -24 -7 -44zM678 629q-12 -13 -27 -13q-16 0 -28 13t-12 28q0 14 12.5 26t25.5 12v0q24 0 36 -22q12 -24 -7 -44zM67 529q-12 -13 -27 -13q-16 0 -28 13t-12 28q0 14 12.5 26t25.5 12v0q24 0 36 -22q12 -24 -7 -44zM679 527q-12 -13 -27 -13q-16 0 -28 13
t-12 28q0 14 12.5 26t25.5 12v0q24 0 36 -22q12 -24 -7 -44zM66 427q-12 -13 -27 -13q-16 0 -28 13t-12 28q0 14 12.5 26t25.5 12v0q24 0 36 -22q12 -24 -7 -44zM678 425q-12 -13 -27 -13q-16 0 -28 13t-12 28q0 14 12.5 26t25.5 12v0q24 0 36 -22q12 -24 -7 -44zM168 324
q-12 -13 -27 -13q-16 0 -28 13t-12 29q0 13 12 25t26 12v0q23 0 35 -23q13 -23 -6 -43zM66 324q-12 -13 -27 -13q-16 0 -28 13t-12 29q0 13 12 25t26 12v0q23 0 35 -23q13 -23 -6 -43zM576 323q-12 -13 -27 -13q-16 0 -28 13t-12 29q0 13 12 25t26 12v0q23 0 35 -23
q13 -23 -6 -43zM474 323q-12 -13 -27 -13q-16 0 -28 13t-12 29q0 13 12 25t26 12v0q23 0 35 -23q13 -23 -6 -43zM372 323q-12 -13 -27 -13q-16 0 -28 13t-12 29q0 13 12 25t26 12v0q23 0 35 -23q13 -23 -6 -43zM270 323q-12 -13 -27 -13q-16 0 -28 13t-12 29q0 13 12 25
t26 12v0q23 0 35 -23q13 -23 -6 -43zM678 322q-12 -13 -27 -13q-16 0 -28 13t-12 29q0 13 12 25t26 12v0q23 0 35 -23q13 -23 -6 -43zM66 221q-12 -13 -27 -13q-16 0 -28 13t-12 28q0 14 12.5 26t25.5 12v0q24 0 36 -22q12 -24 -7 -44zM678 219q-12 -13 -27 -13
q-16 0 -28 13t-12 28q0 14 12.5 26t25.5 12v0q24 0 36 -22q12 -24 -7 -44zM66 118q-12 -13 -27 -13q-16 0 -28 13t-12 28q0 14 12.5 26t25.5 12v0q24 0 36 -22q12 -24 -7 -44zM678 116q-12 -13 -27 -13q-16 0 -28 13t-12 28q0 14 12.5 26t25.5 12v0q24 0 36 -22
q12 -24 -7 -44zM66 15q-12 -13 -27 -13q-16 0 -28 13t-12 28q0 14 12.5 26t25.5 12v0q24 0 36 -22q12 -24 -7 -44zM678 13q-12 -13 -27 -13q-16 0 -28 13t-12 28q0 14 12.5 26t25.5 12v0q24 0 36 -22q12 -24 -7 -44z" />
    <glyph glyph-name="I" unicode="I" horiz-adv-x="360" 
d="M168 733q-12 -13 -27 -13q-16 0 -28 13t-12 28q0 14 12.5 26t25.5 12v0q24 0 36 -22q12 -24 -7 -44zM66 733q-12 -13 -27 -13q-16 0 -28 13t-12 28q0 14 12.5 26t25.5 12v0q24 0 36 -22q12 -24 -7 -44zM270 732q-12 -13 -27 -13q-16 0 -28 13t-12 28q0 14 12.5 26
t25.5 12v0q24 0 36 -22q12 -24 -7 -44zM168 631q-12 -13 -27 -13q-16 0 -28 13t-12 28q0 14 12.5 26t25.5 12v0q24 0 36 -22q12 -24 -7 -44zM169 529q-12 -13 -27 -13q-16 0 -28 13t-12 28q0 14 12.5 26t25.5 12v0q24 0 36 -22q12 -24 -7 -44zM168 427q-12 -13 -27 -13
q-16 0 -28 13t-12 28q0 14 12.5 26t25.5 12v0q24 0 36 -22q12 -24 -7 -44zM168 324q-12 -13 -27 -13q-16 0 -28 13t-12 29q0 13 12 25t26 12v0q23 0 35 -23q13 -23 -6 -43zM168 221q-12 -13 -27 -13q-16 0 -28 13t-12 28q0 14 12.5 26t25.5 12v0q24 0 36 -22q12 -24 -7 -44z
M168 118q-12 -13 -27 -13q-16 0 -28 13t-12 28q0 14 12.5 26t25.5 12v0q24 0 36 -22q12 -24 -7 -44zM168 15q-12 -13 -27 -13q-16 0 -28 13t-12 28q0 14 12.5 26t25.5 12v0q24 0 36 -22q12 -24 -7 -44zM66 15q-12 -13 -27 -13q-16 0 -28 13t-12 28q0 14 12.5 26t25.5 12v0
q24 0 36 -22q12 -24 -7 -44zM270 14q-12 -13 -27 -13q-16 0 -28 13t-12 28q0 14 12.5 26t25.5 12v0q24 0 36 -22q12 -24 -7 -44z" />
    <glyph glyph-name="J" unicode="J" 
d="M678 731q-12 -13 -27 -13q-16 0 -28 13t-12 28q0 14 12.5 26t25.5 12v0q24 0 36 -22q12 -24 -7 -44zM678 629q-12 -13 -27 -13q-16 0 -28 13t-12 28q0 14 12.5 26t25.5 12v0q24 0 36 -22q12 -24 -7 -44zM679 527q-12 -13 -27 -13q-16 0 -28 13t-12 28q0 14 12.5 26
t25.5 12v0q24 0 36 -22q12 -24 -7 -44zM678 425q-12 -13 -27 -13q-16 0 -28 13t-12 28q0 14 12.5 26t25.5 12v0q24 0 36 -22q12 -24 -7 -44zM678 322q-12 -13 -27 -13q-16 0 -28 13t-12 29q0 13 12 25t26 12v0q23 0 35 -23q13 -23 -6 -43zM66 221q-12 -13 -27 -13
q-16 0 -28 13t-12 28q0 14 12.5 26t25.5 12v0q24 0 36 -22q12 -24 -7 -44zM678 219q-12 -13 -27 -13q-16 0 -28 13t-12 28q0 14 12.5 26t25.5 12v0q24 0 36 -22q12 -24 -7 -44zM66 118q-12 -13 -27 -13q-16 0 -28 13t-12 28q0 14 12.5 26t25.5 12v0q24 0 36 -22
q12 -24 -7 -44zM678 116q-12 -13 -27 -13q-16 0 -28 13t-12 28q0 14 12.5 26t25.5 12v0q24 0 36 -22q12 -24 -7 -44zM168 15q-12 -13 -27 -13q-16 0 -28 13t-12 28q0 14 12.5 26t25.5 12v0q24 0 36 -22q12 -24 -7 -44zM576 14q-12 -13 -27 -13q-16 0 -28 13t-12 28
q0 14 12.5 26t25.5 12v0q24 0 36 -22q12 -24 -7 -44zM474 14q-12 -13 -27 -13q-16 0 -28 13t-12 28q0 14 12.5 26t25.5 12v0q24 0 36 -22q12 -24 -7 -44zM372 14q-12 -13 -27 -13q-16 0 -28 13t-12 28q0 14 12.5 26t25.5 12v0q24 0 36 -22q12 -24 -7 -44zM270 14
q-12 -13 -27 -13q-16 0 -28 13t-12 28q0 14 12.5 26t25.5 12v0q24 0 36 -22q12 -24 -7 -44z" />
    <glyph glyph-name="K" unicode="K" 
d="M66 733q-12 -13 -27 -13q-16 0 -28 13t-12 28q0 14 12.5 26t25.5 12v0q24 0 36 -22q12 -24 -7 -44zM678 731q-12 -13 -27 -13q-16 0 -28 13t-12 28q0 14 12.5 26t25.5 12v0q24 0 36 -22q12 -24 -7 -44zM66 631q-12 -13 -27 -13q-16 0 -28 13t-12 28q0 14 12.5 26t25.5 12
v0q24 0 36 -22q12 -24 -7 -44zM576 630q-12 -13 -27 -13q-16 0 -28 13t-12 28q0 14 12.5 26t25.5 12v0q24 0 36 -22q12 -24 -7 -44zM67 529q-12 -13 -27 -13q-16 0 -28 13t-12 28q0 14 12.5 26t25.5 12v0q24 0 36 -22q12 -24 -7 -44zM475 528q-12 -13 -27 -13q-16 0 -28 13
t-12 28q0 14 12.5 26t25.5 12v0q24 0 36 -22q12 -24 -7 -44zM168 427q-12 -13 -27 -13q-16 0 -28 13t-12 28q0 14 12.5 26t25.5 12v0q24 0 36 -22q12 -24 -7 -44zM66 427q-12 -13 -27 -13q-16 0 -28 13t-12 28q0 14 12.5 26t25.5 12v0q24 0 36 -22q12 -24 -7 -44zM372 426
q-12 -13 -27 -13q-16 0 -28 13t-12 28q0 14 12.5 26t25.5 12v0q24 0 36 -22q12 -24 -7 -44zM270 426q-12 -13 -27 -13q-16 0 -28 13t-12 28q0 14 12.5 26t25.5 12v0q24 0 36 -22q12 -24 -7 -44zM66 324q-12 -13 -27 -13q-16 0 -28 13t-12 29q0 13 12 25t26 12v0q23 0 35 -23
q13 -23 -6 -43zM372 323q-12 -13 -27 -13q-16 0 -28 13t-12 29q0 13 12 25t26 12v0q23 0 35 -23q13 -23 -6 -43zM66 221q-12 -13 -27 -13q-16 0 -28 13t-12 28q0 14 12.5 26t25.5 12v0q24 0 36 -22q12 -24 -7 -44zM474 220q-12 -13 -27 -13q-16 0 -28 13t-12 28
q0 14 12.5 26t25.5 12v0q24 0 36 -22q12 -24 -7 -44zM66 118q-12 -13 -27 -13q-16 0 -28 13t-12 28q0 14 12.5 26t25.5 12v0q24 0 36 -22q12 -24 -7 -44zM576 117q-12 -13 -27 -13q-16 0 -28 13t-12 28q0 14 12.5 26t25.5 12v0q24 0 36 -22q12 -24 -7 -44zM66 15
q-12 -13 -27 -13q-16 0 -28 13t-12 28q0 14 12.5 26t25.5 12v0q24 0 36 -22q12 -24 -7 -44zM678 13q-12 -13 -27 -13q-16 0 -28 13t-12 28q0 14 12.5 26t25.5 12v0q24 0 36 -22q12 -24 -7 -44z" />
    <glyph glyph-name="L" unicode="L" 
d="M168 733q-12 -13 -27 -13q-16 0 -28 13t-12 28q0 14 12.5 26t25.5 12v0q24 0 36 -22q12 -24 -7 -44zM66 733q-12 -13 -27 -13q-16 0 -28 13t-12 28q0 14 12.5 26t25.5 12v0q24 0 36 -22q12 -24 -7 -44zM270 732q-12 -13 -27 -13q-16 0 -28 13t-12 28q0 14 12.5 26
t25.5 12v0q24 0 36 -22q12 -24 -7 -44zM168 631q-12 -13 -27 -13q-16 0 -28 13t-12 28q0 14 12.5 26t25.5 12v0q24 0 36 -22q12 -24 -7 -44zM169 529q-12 -13 -27 -13q-16 0 -28 13t-12 28q0 14 12.5 26t25.5 12v0q24 0 36 -22q12 -24 -7 -44zM168 427q-12 -13 -27 -13
q-16 0 -28 13t-12 28q0 14 12.5 26t25.5 12v0q24 0 36 -22q12 -24 -7 -44zM168 324q-12 -13 -27 -13q-16 0 -28 13t-12 29q0 13 12 25t26 12v0q23 0 35 -23q13 -23 -6 -43zM168 221q-12 -13 -27 -13q-16 0 -28 13t-12 28q0 14 12.5 26t25.5 12v0q24 0 36 -22q12 -24 -7 -44z
M168 118q-12 -13 -27 -13q-16 0 -28 13t-12 28q0 14 12.5 26t25.5 12v0q24 0 36 -22q12 -24 -7 -44zM168 15q-12 -13 -27 -13q-16 0 -28 13t-12 28q0 14 12.5 26t25.5 12v0q24 0 36 -22q12 -24 -7 -44zM66 15q-12 -13 -27 -13q-16 0 -28 13t-12 28q0 14 12.5 26t25.5 12v0
q24 0 36 -22q12 -24 -7 -44zM576 14q-12 -13 -27 -13q-16 0 -28 13t-12 28q0 14 12.5 26t25.5 12v0q24 0 36 -22q12 -24 -7 -44zM474 14q-12 -13 -27 -13q-16 0 -28 13t-12 28q0 14 12.5 26t25.5 12v0q24 0 36 -22q12 -24 -7 -44zM372 14q-12 -13 -27 -13q-16 0 -28 13
t-12 28q0 14 12.5 26t25.5 12v0q24 0 36 -22q12 -24 -7 -44zM270 14q-12 -13 -27 -13q-16 0 -28 13t-12 28q0 14 12.5 26t25.5 12v0q24 0 36 -22q12 -24 -7 -44zM678 13q-12 -13 -27 -13q-16 0 -28 13t-12 28q0 14 12.5 26t25.5 12v0q24 0 36 -22q12 -24 -7 -44z" />
    <glyph glyph-name="M" unicode="M" 
d="M66 733q-12 -13 -27 -13q-16 0 -28 13t-12 28q0 14 12.5 26t25.5 12v0q24 0 36 -22q12 -24 -7 -44zM678 731q-12 -13 -27 -13q-16 0 -28 13t-12 28q0 14 12.5 26t25.5 12v0q24 0 36 -22q12 -24 -7 -44zM168 631q-12 -13 -27 -13q-16 0 -28 13t-12 28q0 14 12.5 26
t25.5 12v0q24 0 36 -22q12 -24 -7 -44zM66 631q-12 -13 -27 -13q-16 0 -28 13t-12 28q0 14 12.5 26t25.5 12v0q24 0 36 -22q12 -24 -7 -44zM576 630q-12 -13 -27 -13q-16 0 -28 13t-12 28q0 14 12.5 26t25.5 12v0q24 0 36 -22q12 -24 -7 -44zM678 629q-12 -13 -27 -13
q-16 0 -28 13t-12 28q0 14 12.5 26t25.5 12v0q24 0 36 -22q12 -24 -7 -44zM67 529q-12 -13 -27 -13q-16 0 -28 13t-12 28q0 14 12.5 26t25.5 12v0q24 0 36 -22q12 -24 -7 -44zM475 528q-12 -13 -27 -13q-16 0 -28 13t-12 28q0 14 12.5 26t25.5 12v0q24 0 36 -22
q12 -24 -7 -44zM271 528q-12 -13 -27 -13q-16 0 -28 13t-12 28q0 14 12.5 26t25.5 12v0q24 0 36 -22q12 -24 -7 -44zM679 527q-12 -13 -27 -13q-16 0 -28 13t-12 28q0 14 12.5 26t25.5 12v0q24 0 36 -22q12 -24 -7 -44zM66 427q-12 -13 -27 -13q-16 0 -28 13t-12 28
q0 14 12.5 26t25.5 12v0q24 0 36 -22q12 -24 -7 -44zM372 426q-12 -13 -27 -13q-16 0 -28 13t-12 28q0 14 12.5 26t25.5 12v0q24 0 36 -22q12 -24 -7 -44zM678 425q-12 -13 -27 -13q-16 0 -28 13t-12 28q0 14 12.5 26t25.5 12v0q24 0 36 -22q12 -24 -7 -44zM66 324
q-12 -13 -27 -13q-16 0 -28 13t-12 29q0 13 12 25t26 12v0q23 0 35 -23q13 -23 -6 -43zM678 322q-12 -13 -27 -13q-16 0 -28 13t-12 29q0 13 12 25t26 12v0q23 0 35 -23q13 -23 -6 -43zM66 221q-12 -13 -27 -13q-16 0 -28 13t-12 28q0 14 12.5 26t25.5 12v0q24 0 36 -22
q12 -24 -7 -44zM678 219q-12 -13 -27 -13q-16 0 -28 13t-12 28q0 14 12.5 26t25.5 12v0q24 0 36 -22q12 -24 -7 -44zM66 118q-12 -13 -27 -13q-16 0 -28 13t-12 28q0 14 12.5 26t25.5 12v0q24 0 36 -22q12 -24 -7 -44zM678 116q-12 -13 -27 -13q-16 0 -28 13t-12 28
q0 14 12.5 26t25.5 12v0q24 0 36 -22q12 -24 -7 -44zM66 15q-12 -13 -27 -13q-16 0 -28 13t-12 28q0 14 12.5 26t25.5 12v0q24 0 36 -22q12 -24 -7 -44zM678 13q-12 -13 -27 -13q-16 0 -28 13t-12 28q0 14 12.5 26t25.5 12v0q24 0 36 -22q12 -24 -7 -44z" />
    <glyph glyph-name="N" unicode="N" 
d="M66 733q-12 -13 -27 -13q-16 0 -28 13t-12 28q0 14 12.5 26t25.5 12v0q24 0 36 -22q12 -24 -7 -44zM678 731q-12 -13 -27 -13q-16 0 -28 13t-12 28q0 14 12.5 26t25.5 12v0q24 0 36 -22q12 -24 -7 -44zM168 631q-12 -13 -27 -13q-16 0 -28 13t-12 28q0 14 12.5 26
t25.5 12v0q24 0 36 -22q12 -24 -7 -44zM66 631q-12 -13 -27 -13q-16 0 -28 13t-12 28q0 14 12.5 26t25.5 12v0q24 0 36 -22q12 -24 -7 -44zM678 629q-12 -13 -27 -13q-16 0 -28 13t-12 28q0 14 12.5 26t25.5 12v0q24 0 36 -22q12 -24 -7 -44zM67 529q-12 -13 -27 -13
q-16 0 -28 13t-12 28q0 14 12.5 26t25.5 12v0q24 0 36 -22q12 -24 -7 -44zM271 528q-12 -13 -27 -13q-16 0 -28 13t-12 28q0 14 12.5 26t25.5 12v0q24 0 36 -22q12 -24 -7 -44zM679 527q-12 -13 -27 -13q-16 0 -28 13t-12 28q0 14 12.5 26t25.5 12v0q24 0 36 -22
q12 -24 -7 -44zM66 427q-12 -13 -27 -13q-16 0 -28 13t-12 28q0 14 12.5 26t25.5 12v0q24 0 36 -22q12 -24 -7 -44zM372 426q-12 -13 -27 -13q-16 0 -28 13t-12 28q0 14 12.5 26t25.5 12v0q24 0 36 -22q12 -24 -7 -44zM678 425q-12 -13 -27 -13q-16 0 -28 13t-12 28
q0 14 12.5 26t25.5 12v0q24 0 36 -22q12 -24 -7 -44zM66 324q-12 -13 -27 -13q-16 0 -28 13t-12 29q0 13 12 25t26 12v0q23 0 35 -23q13 -23 -6 -43zM474 323q-12 -13 -27 -13q-16 0 -28 13t-12 29q0 13 12 25t26 12v0q23 0 35 -23q13 -23 -6 -43zM678 322q-12 -13 -27 -13
q-16 0 -28 13t-12 29q0 13 12 25t26 12v0q23 0 35 -23q13 -23 -6 -43zM66 221q-12 -13 -27 -13q-16 0 -28 13t-12 28q0 14 12.5 26t25.5 12v0q24 0 36 -22q12 -24 -7 -44zM576 220q-12 -13 -27 -13q-16 0 -28 13t-12 28q0 14 12.5 26t25.5 12v0q24 0 36 -22q12 -24 -7 -44z
M678 219q-12 -13 -27 -13q-16 0 -28 13t-12 28q0 14 12.5 26t25.5 12v0q24 0 36 -22q12 -24 -7 -44zM66 118q-12 -13 -27 -13q-16 0 -28 13t-12 28q0 14 12.5 26t25.5 12v0q24 0 36 -22q12 -24 -7 -44zM678 116q-12 -13 -27 -13q-16 0 -28 13t-12 28q0 14 12.5 26t25.5 12v0
q24 0 36 -22q12 -24 -7 -44zM66 15q-12 -13 -27 -13q-16 0 -28 13t-12 28q0 14 12.5 26t25.5 12v0q24 0 36 -22q12 -24 -7 -44zM678 13q-12 -13 -27 -13q-16 0 -28 13t-12 28q0 14 12.5 26t25.5 12v0q24 0 36 -22q12 -24 -7 -44z" />
    <glyph glyph-name="O" unicode="O" 
d="M168 733q-12 -13 -27 -13q-16 0 -28 13t-12 28q0 14 12.5 26t25.5 12v0q24 0 36 -22q12 -24 -7 -44zM576 732q-12 -13 -27 -13q-16 0 -28 13t-12 28q0 14 12.5 26t25.5 12v0q24 0 36 -22q12 -24 -7 -44zM474 732q-12 -13 -27 -13q-16 0 -28 13t-12 28q0 14 12.5 26
t25.5 12v0q24 0 36 -22q12 -24 -7 -44zM372 732q-12 -13 -27 -13q-16 0 -28 13t-12 28q0 14 12.5 26t25.5 12v0q24 0 36 -22q12 -24 -7 -44zM270 732q-12 -13 -27 -13q-16 0 -28 13t-12 28q0 14 12.5 26t25.5 12v0q24 0 36 -22q12 -24 -7 -44zM66 631q-12 -13 -27 -13
q-16 0 -28 13t-12 28q0 14 12.5 26t25.5 12v0q24 0 36 -22q12 -24 -7 -44zM678 629q-12 -13 -27 -13q-16 0 -28 13t-12 28q0 14 12.5 26t25.5 12v0q24 0 36 -22q12 -24 -7 -44zM67 529q-12 -13 -27 -13q-16 0 -28 13t-12 28q0 14 12.5 26t25.5 12v0q24 0 36 -22
q12 -24 -7 -44zM679 527q-12 -13 -27 -13q-16 0 -28 13t-12 28q0 14 12.5 26t25.5 12v0q24 0 36 -22q12 -24 -7 -44zM66 427q-12 -13 -27 -13q-16 0 -28 13t-12 28q0 14 12.5 26t25.5 12v0q24 0 36 -22q12 -24 -7 -44zM678 425q-12 -13 -27 -13q-16 0 -28 13t-12 28
q0 14 12.5 26t25.5 12v0q24 0 36 -22q12 -24 -7 -44zM66 324q-12 -13 -27 -13q-16 0 -28 13t-12 29q0 13 12 25t26 12v0q23 0 35 -23q13 -23 -6 -43zM678 322q-12 -13 -27 -13q-16 0 -28 13t-12 29q0 13 12 25t26 12v0q23 0 35 -23q13 -23 -6 -43zM66 221q-12 -13 -27 -13
q-16 0 -28 13t-12 28q0 14 12.5 26t25.5 12v0q24 0 36 -22q12 -24 -7 -44zM678 219q-12 -13 -27 -13q-16 0 -28 13t-12 28q0 14 12.5 26t25.5 12v0q24 0 36 -22q12 -24 -7 -44zM66 118q-12 -13 -27 -13q-16 0 -28 13t-12 28q0 14 12.5 26t25.5 12v0q24 0 36 -22
q12 -24 -7 -44zM678 116q-12 -13 -27 -13q-16 0 -28 13t-12 28q0 14 12.5 26t25.5 12v0q24 0 36 -22q12 -24 -7 -44zM168 15q-12 -13 -27 -13q-16 0 -28 13t-12 28q0 14 12.5 26t25.5 12v0q24 0 36 -22q12 -24 -7 -44zM576 14q-12 -13 -27 -13q-16 0 -28 13t-12 28
q0 14 12.5 26t25.5 12v0q24 0 36 -22q12 -24 -7 -44zM474 14q-12 -13 -27 -13q-16 0 -28 13t-12 28q0 14 12.5 26t25.5 12v0q24 0 36 -22q12 -24 -7 -44zM372 14q-12 -13 -27 -13q-16 0 -28 13t-12 28q0 14 12.5 26t25.5 12v0q24 0 36 -22q12 -24 -7 -44zM270 14
q-12 -13 -27 -13q-16 0 -28 13t-12 28q0 14 12.5 26t25.5 12v0q24 0 36 -22q12 -24 -7 -44z" />
    <glyph glyph-name="P" unicode="P" 
d="M168 733q-12 -13 -27 -13q-16 0 -28 13t-12 28q0 14 12.5 26t25.5 12v0q24 0 36 -22q12 -24 -7 -44zM576 732q-12 -13 -27 -13q-16 0 -28 13t-12 28q0 14 12.5 26t25.5 12v0q24 0 36 -22q12 -24 -7 -44zM474 732q-12 -13 -27 -13q-16 0 -28 13t-12 28q0 14 12.5 26
t25.5 12v0q24 0 36 -22q12 -24 -7 -44zM372 732q-12 -13 -27 -13q-16 0 -28 13t-12 28q0 14 12.5 26t25.5 12v0q24 0 36 -22q12 -24 -7 -44zM270 732q-12 -13 -27 -13q-16 0 -28 13t-12 28q0 14 12.5 26t25.5 12v0q24 0 36 -22q12 -24 -7 -44zM71 730q-12 -13 -27 -13
q-16 0 -28 13t-12 28q0 14 12.5 26t25.5 12v0q24 0 36 -22q12 -24 -7 -44zM168 631q-12 -13 -27 -13q-16 0 -28 13t-12 28q0 14 12.5 26t25.5 12v0q24 0 36 -22q12 -24 -7 -44zM678 629q-12 -13 -27 -13q-16 0 -28 13t-12 28q0 14 12.5 26t25.5 12v0q24 0 36 -22
q12 -24 -7 -44zM169 529q-12 -13 -27 -13q-16 0 -28 13t-12 28q0 14 12.5 26t25.5 12v0q24 0 36 -22q12 -24 -7 -44zM679 527q-12 -13 -27 -13q-16 0 -28 13t-12 28q0 14 12.5 26t25.5 12v0q24 0 36 -22q12 -24 -7 -44zM168 427q-12 -13 -27 -13q-16 0 -28 13t-12 28
q0 14 12.5 26t25.5 12v0q24 0 36 -22q12 -24 -7 -44zM576 426q-12 -13 -27 -13q-16 0 -28 13t-12 28q0 14 12.5 26t25.5 12v0q24 0 36 -22q12 -24 -7 -44zM474 426q-12 -13 -27 -13q-16 0 -28 13t-12 28q0 14 12.5 26t25.5 12v0q24 0 36 -22q12 -24 -7 -44zM372 426
q-12 -13 -27 -13q-16 0 -28 13t-12 28q0 14 12.5 26t25.5 12v0q24 0 36 -22q12 -24 -7 -44zM270 426q-12 -13 -27 -13q-16 0 -28 13t-12 28q0 14 12.5 26t25.5 12v0q24 0 36 -22q12 -24 -7 -44zM168 324q-12 -13 -27 -13q-16 0 -28 13t-12 29q0 13 12 25t26 12v0
q23 0 35 -23q13 -23 -6 -43zM168 221q-12 -13 -27 -13q-16 0 -28 13t-12 28q0 14 12.5 26t25.5 12v0q24 0 36 -22q12 -24 -7 -44zM168 118q-12 -13 -27 -13q-16 0 -28 13t-12 28q0 14 12.5 26t25.5 12v0q24 0 36 -22q12 -24 -7 -44zM168 15q-12 -13 -27 -13q-16 0 -28 13
t-12 28q0 14 12.5 26t25.5 12v0q24 0 36 -22q12 -24 -7 -44zM66 15q-12 -13 -27 -13q-16 0 -28 13t-12 28q0 14 12.5 26t25.5 12v0q24 0 36 -22q12 -24 -7 -44zM270 14q-12 -13 -27 -13q-16 0 -28 13t-12 28q0 14 12.5 26t25.5 12v0q24 0 36 -22q12 -24 -7 -44z" />
    <glyph glyph-name="Q" unicode="Q" 
d="M168 733q-12 -13 -27 -13q-16 0 -28 13t-12 28q0 14 12.5 26t25.5 12v0q24 0 36 -22q12 -24 -7 -44zM576 732q-12 -13 -27 -13q-16 0 -28 13t-12 28q0 14 12.5 26t25.5 12v0q24 0 36 -22q12 -24 -7 -44zM474 732q-12 -13 -27 -13q-16 0 -28 13t-12 28q0 14 12.5 26
t25.5 12v0q24 0 36 -22q12 -24 -7 -44zM372 732q-12 -13 -27 -13q-16 0 -28 13t-12 28q0 14 12.5 26t25.5 12v0q24 0 36 -22q12 -24 -7 -44zM270 732q-12 -13 -27 -13q-16 0 -28 13t-12 28q0 14 12.5 26t25.5 12v0q24 0 36 -22q12 -24 -7 -44zM66 631q-12 -13 -27 -13
q-16 0 -28 13t-12 28q0 14 12.5 26t25.5 12v0q24 0 36 -22q12 -24 -7 -44zM678 629q-12 -13 -27 -13q-16 0 -28 13t-12 28q0 14 12.5 26t25.5 12v0q24 0 36 -22q12 -24 -7 -44zM67 529q-12 -13 -27 -13q-16 0 -28 13t-12 28q0 14 12.5 26t25.5 12v0q24 0 36 -22
q12 -24 -7 -44zM679 527q-12 -13 -27 -13q-16 0 -28 13t-12 28q0 14 12.5 26t25.5 12v0q24 0 36 -22q12 -24 -7 -44zM66 427q-12 -13 -27 -13q-16 0 -28 13t-12 28q0 14 12.5 26t25.5 12v0q24 0 36 -22q12 -24 -7 -44zM678 425q-12 -13 -27 -13q-16 0 -28 13t-12 28
q0 14 12.5 26t25.5 12v0q24 0 36 -22q12 -24 -7 -44zM66 324q-12 -13 -27 -13q-16 0 -28 13t-12 29q0 13 12 25t26 12v0q23 0 35 -23q13 -23 -6 -43zM678 322q-12 -13 -27 -13q-16 0 -28 13t-12 29q0 13 12 25t26 12v0q23 0 35 -23q13 -23 -6 -43zM66 221q-12 -13 -27 -13
q-16 0 -28 13t-12 28q0 14 12.5 26t25.5 12v0q24 0 36 -22q12 -24 -7 -44zM678 219q-12 -13 -27 -13q-16 0 -28 13t-12 28q0 14 12.5 26t25.5 12v0q24 0 36 -22q12 -24 -7 -44zM66 118q-12 -13 -27 -13q-16 0 -28 13t-12 28q0 14 12.5 26t25.5 12v0q24 0 36 -22
q12 -24 -7 -44zM474 117q-12 -13 -27 -13q-16 0 -28 13t-12 28q0 14 12.5 26t25.5 12v0q24 0 36 -22q12 -24 -7 -44zM678 116q-12 -13 -27 -13q-16 0 -28 13t-12 28q0 14 12.5 26t25.5 12v0q24 0 36 -22q12 -24 -7 -44zM168 15q-12 -13 -27 -13q-16 0 -28 13t-12 28
q0 14 12.5 26t25.5 12v0q24 0 36 -22q12 -24 -7 -44zM576 14q-12 -13 -27 -13q-16 0 -28 13t-12 28q0 14 12.5 26t25.5 12v0q24 0 36 -22q12 -24 -7 -44zM474 14q-12 -13 -27 -13q-16 0 -28 13t-12 28q0 14 12.5 26t25.5 12v0q24 0 36 -22q12 -24 -7 -44zM372 14
q-12 -13 -27 -13q-16 0 -28 13t-12 28q0 14 12.5 26t25.5 12v0q24 0 36 -22q12 -24 -7 -44zM270 14q-12 -13 -27 -13q-16 0 -28 13t-12 28q0 14 12.5 26t25.5 12v0q24 0 36 -22q12 -24 -7 -44zM578 -97q-12 -13 -27 -13q-16 0 -28 13t-12 28q0 14 12.5 26t25.5 12v0
q24 0 36 -22q12 -24 -7 -44z" />
    <glyph glyph-name="R" unicode="R" 
d="M168 733q-12 -13 -27 -13q-16 0 -28 13t-12 28q0 14 12.5 26t25.5 12v0q24 0 36 -22q12 -24 -7 -44zM66 733q-12 -13 -27 -13q-16 0 -28 13t-12 28q0 14 12.5 26t25.5 12v0q24 0 36 -22q12 -24 -7 -44zM576 732q-12 -13 -27 -13q-16 0 -28 13t-12 28q0 14 12.5 26
t25.5 12v0q24 0 36 -22q12 -24 -7 -44zM474 732q-12 -13 -27 -13q-16 0 -28 13t-12 28q0 14 12.5 26t25.5 12v0q24 0 36 -22q12 -24 -7 -44zM372 732q-12 -13 -27 -13q-16 0 -28 13t-12 28q0 14 12.5 26t25.5 12v0q24 0 36 -22q12 -24 -7 -44zM270 732q-12 -13 -27 -13
q-16 0 -28 13t-12 28q0 14 12.5 26t25.5 12v0q24 0 36 -22q12 -24 -7 -44zM168 631q-12 -13 -27 -13q-16 0 -28 13t-12 28q0 14 12.5 26t25.5 12v0q24 0 36 -22q12 -24 -7 -44zM678 629q-12 -13 -27 -13q-16 0 -28 13t-12 28q0 14 12.5 26t25.5 12v0q24 0 36 -22
q12 -24 -7 -44zM169 529q-12 -13 -27 -13q-16 0 -28 13t-12 28q0 14 12.5 26t25.5 12v0q24 0 36 -22q12 -24 -7 -44zM679 527q-12 -13 -27 -13q-16 0 -28 13t-12 28q0 14 12.5 26t25.5 12v0q24 0 36 -22q12 -24 -7 -44zM168 427q-12 -13 -27 -13q-16 0 -28 13t-12 28
q0 14 12.5 26t25.5 12v0q24 0 36 -22q12 -24 -7 -44zM576 426q-12 -13 -27 -13q-16 0 -28 13t-12 28q0 14 12.5 26t25.5 12v0q24 0 36 -22q12 -24 -7 -44zM474 426q-12 -13 -27 -13q-16 0 -28 13t-12 28q0 14 12.5 26t25.5 12v0q24 0 36 -22q12 -24 -7 -44zM372 426
q-12 -13 -27 -13q-16 0 -28 13t-12 28q0 14 12.5 26t25.5 12v0q24 0 36 -22q12 -24 -7 -44zM270 426q-12 -13 -27 -13q-16 0 -28 13t-12 28q0 14 12.5 26t25.5 12v0q24 0 36 -22q12 -24 -7 -44zM168 324q-12 -13 -27 -13q-16 0 -28 13t-12 29q0 13 12 25t26 12v0
q23 0 35 -23q13 -23 -6 -43zM372 323q-12 -13 -27 -13q-16 0 -28 13t-12 29q0 13 12 25t26 12v0q23 0 35 -23q13 -23 -6 -43zM168 221q-12 -13 -27 -13q-16 0 -28 13t-12 28q0 14 12.5 26t25.5 12v0q24 0 36 -22q12 -24 -7 -44zM474 220q-12 -13 -27 -13q-16 0 -28 13
t-12 28q0 14 12.5 26t25.5 12v0q24 0 36 -22q12 -24 -7 -44zM168 118q-12 -13 -27 -13q-16 0 -28 13t-12 28q0 14 12.5 26t25.5 12v0q24 0 36 -22q12 -24 -7 -44zM576 117q-12 -13 -27 -13q-16 0 -28 13t-12 28q0 14 12.5 26t25.5 12v0q24 0 36 -22q12 -24 -7 -44zM168 15
q-12 -13 -27 -13q-16 0 -28 13t-12 28q0 14 12.5 26t25.5 12v0q24 0 36 -22q12 -24 -7 -44zM66 15q-12 -13 -27 -13q-16 0 -28 13t-12 28q0 14 12.5 26t25.5 12v0q24 0 36 -22q12 -24 -7 -44zM270 14q-12 -13 -27 -13q-16 0 -28 13t-12 28q0 14 12.5 26t25.5 12v0
q24 0 36 -22q12 -24 -7 -44zM678 13q-12 -13 -27 -13q-16 0 -28 13t-12 28q0 14 12.5 26t25.5 12v0q24 0 36 -22q12 -24 -7 -44z" />
    <glyph glyph-name="S" unicode="S" 
d="M168 733q-12 -13 -27 -13q-16 0 -28 13t-12 28q0 14 12.5 26t25.5 12v0q24 0 36 -22q12 -24 -7 -44zM576 732q-12 -13 -27 -13q-16 0 -28 13t-12 28q0 14 12.5 26t25.5 12v0q24 0 36 -22q12 -24 -7 -44zM474 732q-12 -13 -27 -13q-16 0 -28 13t-12 28q0 14 12.5 26
t25.5 12v0q24 0 36 -22q12 -24 -7 -44zM372 732q-12 -13 -27 -13q-16 0 -28 13t-12 28q0 14 12.5 26t25.5 12v0q24 0 36 -22q12 -24 -7 -44zM270 732q-12 -13 -27 -13q-16 0 -28 13t-12 28q0 14 12.5 26t25.5 12v0q24 0 36 -22q12 -24 -7 -44zM66 631q-12 -13 -27 -13
q-16 0 -28 13t-12 28q0 14 12.5 26t25.5 12v0q24 0 36 -22q12 -24 -7 -44zM678 629q-12 -13 -27 -13q-16 0 -28 13t-12 28q0 14 12.5 26t25.5 12v0q24 0 36 -22q12 -24 -7 -44zM67 529q-12 -13 -27 -13q-16 0 -28 13t-12 28q0 14 12.5 26t25.5 12v0q24 0 36 -22
q12 -24 -7 -44zM168 427q-12 -13 -27 -13q-16 0 -28 13t-12 28q0 14 12.5 26t25.5 12v0q24 0 36 -22q12 -24 -7 -44zM576 323q-12 -13 -27 -13q-16 0 -28 13t-12 29q0 13 12 25t26 12v0q23 0 35 -23q13 -23 -6 -43zM474 323q-12 -13 -27 -13q-16 0 -28 13t-12 29q0 13 12 25
t26 12v0q23 0 35 -23q13 -23 -6 -43zM372 323q-12 -13 -27 -13q-16 0 -28 13t-12 29q0 13 12 25t26 12v0q23 0 35 -23q13 -23 -6 -43zM270 323q-12 -13 -27 -13q-16 0 -28 13t-12 29q0 13 12 25t26 12v0q23 0 35 -23q13 -23 -6 -43zM678 219q-12 -13 -27 -13q-16 0 -28 13
t-12 28q0 14 12.5 26t25.5 12v0q24 0 36 -22q12 -24 -7 -44zM66 118q-12 -13 -27 -13q-16 0 -28 13t-12 28q0 14 12.5 26t25.5 12v0q24 0 36 -22q12 -24 -7 -44zM678 116q-12 -13 -27 -13q-16 0 -28 13t-12 28q0 14 12.5 26t25.5 12v0q24 0 36 -22q12 -24 -7 -44zM168 15
q-12 -13 -27 -13q-16 0 -28 13t-12 28q0 14 12.5 26t25.5 12v0q24 0 36 -22q12 -24 -7 -44zM576 14q-12 -13 -27 -13q-16 0 -28 13t-12 28q0 14 12.5 26t25.5 12v0q24 0 36 -22q12 -24 -7 -44zM474 14q-12 -13 -27 -13q-16 0 -28 13t-12 28q0 14 12.5 26t25.5 12v0
q24 0 36 -22q12 -24 -7 -44zM372 14q-12 -13 -27 -13q-16 0 -28 13t-12 28q0 14 12.5 26t25.5 12v0q24 0 36 -22q12 -24 -7 -44zM270 14q-12 -13 -27 -13q-16 0 -28 13t-12 28q0 14 12.5 26t25.5 12v0q24 0 36 -22q12 -24 -7 -44z" />
    <glyph glyph-name="T" unicode="T" 
d="M168 733q-12 -13 -27 -13q-16 0 -28 13t-12 28q0 14 12.5 26t25.5 12v0q24 0 36 -22q12 -24 -7 -44zM66 733q-12 -13 -27 -13q-16 0 -28 13t-12 28q0 14 12.5 26t25.5 12v0q24 0 36 -22q12 -24 -7 -44zM576 732q-12 -13 -27 -13q-16 0 -28 13t-12 28q0 14 12.5 26
t25.5 12v0q24 0 36 -22q12 -24 -7 -44zM474 732q-12 -13 -27 -13q-16 0 -28 13t-12 28q0 14 12.5 26t25.5 12v0q24 0 36 -22q12 -24 -7 -44zM372 732q-12 -13 -27 -13q-16 0 -28 13t-12 28q0 14 12.5 26t25.5 12v0q24 0 36 -22q12 -24 -7 -44zM270 732q-12 -13 -27 -13
q-16 0 -28 13t-12 28q0 14 12.5 26t25.5 12v0q24 0 36 -22q12 -24 -7 -44zM678 731q-12 -13 -27 -13q-16 0 -28 13t-12 28q0 14 12.5 26t25.5 12v0q24 0 36 -22q12 -24 -7 -44zM66 631q-12 -13 -27 -13q-16 0 -28 13t-12 28q0 14 12.5 26t25.5 12v0q24 0 36 -22
q12 -24 -7 -44zM372 630q-12 -13 -27 -13q-16 0 -28 13t-12 28q0 14 12.5 26t25.5 12v0q24 0 36 -22q12 -24 -7 -44zM678 629q-12 -13 -27 -13q-16 0 -28 13t-12 28q0 14 12.5 26t25.5 12v0q24 0 36 -22q12 -24 -7 -44zM373 528q-12 -13 -27 -13q-16 0 -28 13t-12 28
q0 14 12.5 26t25.5 12v0q24 0 36 -22q12 -24 -7 -44zM372 426q-12 -13 -27 -13q-16 0 -28 13t-12 28q0 14 12.5 26t25.5 12v0q24 0 36 -22q12 -24 -7 -44zM372 323q-12 -13 -27 -13q-16 0 -28 13t-12 29q0 13 12 25t26 12v0q23 0 35 -23q13 -23 -6 -43zM372 220
q-12 -13 -27 -13q-16 0 -28 13t-12 28q0 14 12.5 26t25.5 12v0q24 0 36 -22q12 -24 -7 -44zM372 117q-12 -13 -27 -13q-16 0 -28 13t-12 28q0 14 12.5 26t25.5 12v0q24 0 36 -22q12 -24 -7 -44zM474 14q-12 -13 -27 -13q-16 0 -28 13t-12 28q0 14 12.5 26t25.5 12v0
q24 0 36 -22q12 -24 -7 -44zM372 14q-12 -13 -27 -13q-16 0 -28 13t-12 28q0 14 12.5 26t25.5 12v0q24 0 36 -22q12 -24 -7 -44zM270 14q-12 -13 -27 -13q-16 0 -28 13t-12 28q0 14 12.5 26t25.5 12v0q24 0 36 -22q12 -24 -7 -44z" />
    <glyph glyph-name="U" unicode="U" 
d="M66 733q-12 -13 -27 -13q-16 0 -28 13t-12 28q0 14 12.5 26t25.5 12v0q24 0 36 -22q12 -24 -7 -44zM678 731q-12 -13 -27 -13q-16 0 -28 13t-12 28q0 14 12.5 26t25.5 12v0q24 0 36 -22q12 -24 -7 -44zM66 631q-12 -13 -27 -13q-16 0 -28 13t-12 28q0 14 12.5 26t25.5 12
v0q24 0 36 -22q12 -24 -7 -44zM678 629q-12 -13 -27 -13q-16 0 -28 13t-12 28q0 14 12.5 26t25.5 12v0q24 0 36 -22q12 -24 -7 -44zM67 529q-12 -13 -27 -13q-16 0 -28 13t-12 28q0 14 12.5 26t25.5 12v0q24 0 36 -22q12 -24 -7 -44zM679 527q-12 -13 -27 -13q-16 0 -28 13
t-12 28q0 14 12.5 26t25.5 12v0q24 0 36 -22q12 -24 -7 -44zM66 427q-12 -13 -27 -13q-16 0 -28 13t-12 28q0 14 12.5 26t25.5 12v0q24 0 36 -22q12 -24 -7 -44zM678 425q-12 -13 -27 -13q-16 0 -28 13t-12 28q0 14 12.5 26t25.5 12v0q24 0 36 -22q12 -24 -7 -44zM66 324
q-12 -13 -27 -13q-16 0 -28 13t-12 29q0 13 12 25t26 12v0q23 0 35 -23q13 -23 -6 -43zM678 322q-12 -13 -27 -13q-16 0 -28 13t-12 29q0 13 12 25t26 12v0q23 0 35 -23q13 -23 -6 -43zM66 221q-12 -13 -27 -13q-16 0 -28 13t-12 28q0 14 12.5 26t25.5 12v0q24 0 36 -22
q12 -24 -7 -44zM678 219q-12 -13 -27 -13q-16 0 -28 13t-12 28q0 14 12.5 26t25.5 12v0q24 0 36 -22q12 -24 -7 -44zM66 118q-12 -13 -27 -13q-16 0 -28 13t-12 28q0 14 12.5 26t25.5 12v0q24 0 36 -22q12 -24 -7 -44zM678 116q-12 -13 -27 -13q-16 0 -28 13t-12 28
q0 14 12.5 26t25.5 12v0q24 0 36 -22q12 -24 -7 -44zM168 15q-12 -13 -27 -13q-16 0 -28 13t-12 28q0 14 12.5 26t25.5 12v0q24 0 36 -22q12 -24 -7 -44zM576 14q-12 -13 -27 -13q-16 0 -28 13t-12 28q0 14 12.5 26t25.5 12v0q24 0 36 -22q12 -24 -7 -44zM474 14
q-12 -13 -27 -13q-16 0 -28 13t-12 28q0 14 12.5 26t25.5 12v0q24 0 36 -22q12 -24 -7 -44zM372 14q-12 -13 -27 -13q-16 0 -28 13t-12 28q0 14 12.5 26t25.5 12v0q24 0 36 -22q12 -24 -7 -44zM270 14q-12 -13 -27 -13q-16 0 -28 13t-12 28q0 14 12.5 26t25.5 12v0
q24 0 36 -22q12 -24 -7 -44z" />
    <glyph glyph-name="V" unicode="V" 
d="M66 733q-12 -13 -27 -13q-16 0 -28 13t-12 28q0 14 12.5 26t25.5 12v0q24 0 36 -22q12 -24 -7 -44zM678 731q-12 -13 -27 -13q-16 0 -28 13t-12 28q0 14 12.5 26t25.5 12v0q24 0 36 -22q12 -24 -7 -44zM66 631q-12 -13 -27 -13q-16 0 -28 13t-12 28q0 14 12.5 26t25.5 12
v0q24 0 36 -22q12 -24 -7 -44zM678 629q-12 -13 -27 -13q-16 0 -28 13t-12 28q0 14 12.5 26t25.5 12v0q24 0 36 -22q12 -24 -7 -44zM67 529q-12 -13 -27 -13q-16 0 -28 13t-12 28q0 14 12.5 26t25.5 12v0q24 0 36 -22q12 -24 -7 -44zM679 527q-12 -13 -27 -13q-16 0 -28 13
t-12 28q0 14 12.5 26t25.5 12v0q24 0 36 -22q12 -24 -7 -44zM66 427q-12 -13 -27 -13q-16 0 -28 13t-12 28q0 14 12.5 26t25.5 12v0q24 0 36 -22q12 -24 -7 -44zM678 425q-12 -13 -27 -13q-16 0 -28 13t-12 28q0 14 12.5 26t25.5 12v0q24 0 36 -22q12 -24 -7 -44zM66 324
q-12 -13 -27 -13q-16 0 -28 13t-12 29q0 13 12 25t26 12v0q23 0 35 -23q13 -23 -6 -43zM678 322q-12 -13 -27 -13q-16 0 -28 13t-12 29q0 13 12 25t26 12v0q23 0 35 -23q13 -23 -6 -43zM168 221q-12 -13 -27 -13q-16 0 -28 13t-12 28q0 14 12.5 26t25.5 12v0q24 0 36 -22
q12 -24 -7 -44zM576 220q-12 -13 -27 -13q-16 0 -28 13t-12 28q0 14 12.5 26t25.5 12v0q24 0 36 -22q12 -24 -7 -44zM474 117q-12 -13 -27 -13q-16 0 -28 13t-12 28q0 14 12.5 26t25.5 12v0q24 0 36 -22q12 -24 -7 -44zM270 117q-12 -13 -27 -13q-16 0 -28 13t-12 28
q0 14 12.5 26t25.5 12v0q24 0 36 -22q12 -24 -7 -44zM372 14q-12 -13 -27 -13q-16 0 -28 13t-12 28q0 14 12.5 26t25.5 12v0q24 0 36 -22q12 -24 -7 -44z" />
    <glyph glyph-name="W" unicode="W" 
d="M66 733q-12 -13 -27 -13q-16 0 -28 13t-12 28q0 14 12.5 26t25.5 12v0q24 0 36 -22q12 -24 -7 -44zM678 731q-12 -13 -27 -13q-16 0 -28 13t-12 28q0 14 12.5 26t25.5 12v0q24 0 36 -22q12 -24 -7 -44zM66 631q-12 -13 -27 -13q-16 0 -28 13t-12 28q0 14 12.5 26t25.5 12
v0q24 0 36 -22q12 -24 -7 -44zM678 629q-12 -13 -27 -13q-16 0 -28 13t-12 28q0 14 12.5 26t25.5 12v0q24 0 36 -22q12 -24 -7 -44zM67 529q-12 -13 -27 -13q-16 0 -28 13t-12 28q0 14 12.5 26t25.5 12v0q24 0 36 -22q12 -24 -7 -44zM679 527q-12 -13 -27 -13q-16 0 -28 13
t-12 28q0 14 12.5 26t25.5 12v0q24 0 36 -22q12 -24 -7 -44zM66 427q-12 -13 -27 -13q-16 0 -28 13t-12 28q0 14 12.5 26t25.5 12v0q24 0 36 -22q12 -24 -7 -44zM678 425q-12 -13 -27 -13q-16 0 -28 13t-12 28q0 14 12.5 26t25.5 12v0q24 0 36 -22q12 -24 -7 -44zM66 324
q-12 -13 -27 -13q-16 0 -28 13t-12 29q0 13 12 25t26 12v0q23 0 35 -23q13 -23 -6 -43zM678 322q-12 -13 -27 -13q-16 0 -28 13t-12 29q0 13 12 25t26 12v0q23 0 35 -23q13 -23 -6 -43zM66 221q-12 -13 -27 -13q-16 0 -28 13t-12 28q0 14 12.5 26t25.5 12v0q24 0 36 -22
q12 -24 -7 -44zM474 220q-12 -13 -27 -13q-16 0 -28 13t-12 28q0 14 12.5 26t25.5 12v0q24 0 36 -22q12 -24 -7 -44zM270 220q-12 -13 -27 -13q-16 0 -28 13t-12 28q0 14 12.5 26t25.5 12v0q24 0 36 -22q12 -24 -7 -44zM678 219q-12 -13 -27 -13q-16 0 -28 13t-12 28
q0 14 12.5 26t25.5 12v0q24 0 36 -22q12 -24 -7 -44zM168 118q-12 -13 -27 -13q-16 0 -28 13t-12 28q0 14 12.5 26t25.5 12v0q24 0 36 -22q12 -24 -7 -44zM576 117q-12 -13 -27 -13q-16 0 -28 13t-12 28q0 14 12.5 26t25.5 12v0q24 0 36 -22q12 -24 -7 -44zM474 117
q-12 -13 -27 -13q-16 0 -28 13t-12 28q0 14 12.5 26t25.5 12v0q24 0 36 -22q12 -24 -7 -44zM270 117q-12 -13 -27 -13q-16 0 -28 13t-12 28q0 14 12.5 26t25.5 12v0q24 0 36 -22q12 -24 -7 -44zM372 109q-12 -13 -27 -13q-16 0 -28 13t-12 28q0 14 12.5 26t25.5 12v0
q24 0 36 -22q12 -24 -7 -44zM474 14q-12 -13 -27 -13q-16 0 -28 13t-12 28q0 14 12.5 26t25.5 12v0q24 0 36 -22q12 -24 -7 -44zM270 14q-12 -13 -27 -13q-16 0 -28 13t-12 28q0 14 12.5 26t25.5 12v0q24 0 36 -22q12 -24 -7 -44z" />
    <glyph glyph-name="X" unicode="X" 
d="M66 733q-12 -13 -27 -13q-16 0 -28 13t-12 28q0 14 12.5 26t25.5 12v0q24 0 36 -22q12 -24 -7 -44zM678 731q-12 -13 -27 -13q-16 0 -28 13t-12 28q0 14 12.5 26t25.5 12v0q24 0 36 -22q12 -24 -7 -44zM168 631q-12 -13 -27 -13q-16 0 -28 13t-12 28q0 14 12.5 26
t25.5 12v0q24 0 36 -22q12 -24 -7 -44zM576 630q-12 -13 -27 -13q-16 0 -28 13t-12 28q0 14 12.5 26t25.5 12v0q24 0 36 -22q12 -24 -7 -44zM475 528q-12 -13 -27 -13q-16 0 -28 13t-12 28q0 14 12.5 26t25.5 12v0q24 0 36 -22q12 -24 -7 -44zM271 528q-12 -13 -27 -13
q-16 0 -28 13t-12 28q0 14 12.5 26t25.5 12v0q24 0 36 -22q12 -24 -7 -44zM372 426q-12 -13 -27 -13q-16 0 -28 13t-12 28q0 14 12.5 26t25.5 12v0q24 0 36 -22q12 -24 -7 -44zM372 323q-12 -13 -27 -13q-16 0 -28 13t-12 29q0 13 12 25t26 12v0q23 0 35 -23q13 -23 -6 -43z
M474 220q-12 -13 -27 -13q-16 0 -28 13t-12 28q0 14 12.5 26t25.5 12v0q24 0 36 -22q12 -24 -7 -44zM270 220q-12 -13 -27 -13q-16 0 -28 13t-12 28q0 14 12.5 26t25.5 12v0q24 0 36 -22q12 -24 -7 -44zM168 118q-12 -13 -27 -13q-16 0 -28 13t-12 28q0 14 12.5 26t25.5 12
v0q24 0 36 -22q12 -24 -7 -44zM576 117q-12 -13 -27 -13q-16 0 -28 13t-12 28q0 14 12.5 26t25.5 12v0q24 0 36 -22q12 -24 -7 -44zM66 15q-12 -13 -27 -13q-16 0 -28 13t-12 28q0 14 12.5 26t25.5 12v0q24 0 36 -22q12 -24 -7 -44zM678 13q-12 -13 -27 -13q-16 0 -28 13
t-12 28q0 14 12.5 26t25.5 12v0q24 0 36 -22q12 -24 -7 -44z" />
    <glyph glyph-name="Y" unicode="Y" 
d="M61 728q-12 -13 -27 -13q-16 0 -28 13t-12 28q0 14 12.5 26t25.5 12v0q24 0 36 -22q12 -24 -7 -44zM673 726q-12 -13 -27 -13q-16 0 -28 13t-12 28q0 14 12.5 26t25.5 12v0q24 0 36 -22q12 -24 -7 -44zM61 623q-12 -13 -27 -13q-16 0 -28 13t-12 28q0 14 12.5 26t25.5 12
v0q24 0 36 -22q12 -24 -7 -44zM673 621q-12 -13 -27 -13q-16 0 -28 13t-12 28q0 14 12.5 26t25.5 12v0q24 0 36 -22q12 -24 -7 -44zM163 521q-12 -13 -27 -13q-16 0 -28 13t-12 28q0 14 12.5 26t25.5 12v0q24 0 36 -22q12 -24 -7 -44zM571 520q-12 -13 -27 -13q-16 0 -28 13
t-12 28q0 14 12.5 26t25.5 12v0q24 0 36 -22q12 -24 -7 -44zM470 418q-12 -13 -27 -13q-16 0 -28 13t-12 28q0 14 12.5 26t25.5 12v0q24 0 36 -22q12 -24 -7 -44zM266 418q-12 -13 -27 -13q-16 0 -28 13t-12 28q0 14 12.5 26t25.5 12v0q24 0 36 -22q12 -24 -7 -44zM372 323
q-12 -13 -27 -13q-16 0 -28 13t-12 29q0 13 12 25t26 12v0q23 0 35 -23q13 -23 -6 -43zM372 220q-12 -13 -27 -13q-16 0 -28 13t-12 28q0 14 12.5 26t25.5 12v0q24 0 36 -22q12 -24 -7 -44zM372 117q-12 -13 -27 -13q-16 0 -28 13t-12 28q0 14 12.5 26t25.5 12v0
q24 0 36 -22q12 -24 -7 -44zM372 14q-12 -13 -27 -13q-16 0 -28 13t-12 28q0 14 12.5 26t25.5 12v0q24 0 36 -22q12 -24 -7 -44z" />
    <glyph glyph-name="Z" unicode="Z" 
d="M168 733q-12 -13 -27 -13q-16 0 -28 13t-12 28q0 14 12.5 26t25.5 12v0q24 0 36 -22q12 -24 -7 -44zM66 733q-12 -13 -27 -13q-16 0 -28 13t-12 28q0 14 12.5 26t25.5 12v0q24 0 36 -22q12 -24 -7 -44zM576 732q-12 -13 -27 -13q-16 0 -28 13t-12 28q0 14 12.5 26
t25.5 12v0q24 0 36 -22q12 -24 -7 -44zM474 732q-12 -13 -27 -13q-16 0 -28 13t-12 28q0 14 12.5 26t25.5 12v0q24 0 36 -22q12 -24 -7 -44zM372 732q-12 -13 -27 -13q-16 0 -28 13t-12 28q0 14 12.5 26t25.5 12v0q24 0 36 -22q12 -24 -7 -44zM270 732q-12 -13 -27 -13
q-16 0 -28 13t-12 28q0 14 12.5 26t25.5 12v0q24 0 36 -22q12 -24 -7 -44zM678 731q-12 -13 -27 -13q-16 0 -28 13t-12 28q0 14 12.5 26t25.5 12v0q24 0 36 -22q12 -24 -7 -44zM66 631q-12 -13 -27 -13q-16 0 -28 13t-12 28q0 14 12.5 26t25.5 12v0q24 0 36 -22
q12 -24 -7 -44zM576 630q-12 -13 -27 -13q-16 0 -28 13t-12 28q0 14 12.5 26t25.5 12v0q24 0 36 -22q12 -24 -7 -44zM475 528q-12 -13 -27 -13q-16 0 -28 13t-12 28q0 14 12.5 26t25.5 12v0q24 0 36 -22q12 -24 -7 -44zM372 426q-12 -13 -27 -13q-16 0 -28 13t-12 28
q0 14 12.5 26t25.5 12v0q24 0 36 -22q12 -24 -7 -44zM270 323q-12 -13 -27 -13q-16 0 -28 13t-12 29q0 13 12 25t26 12v0q23 0 35 -23q13 -23 -6 -43zM168 221q-12 -13 -27 -13q-16 0 -28 13t-12 28q0 14 12.5 26t25.5 12v0q24 0 36 -22q12 -24 -7 -44zM66 118
q-12 -13 -27 -13q-16 0 -28 13t-12 28q0 14 12.5 26t25.5 12v0q24 0 36 -22q12 -24 -7 -44zM678 116q-12 -13 -27 -13q-16 0 -28 13t-12 28q0 14 12.5 26t25.5 12v0q24 0 36 -22q12 -24 -7 -44zM168 15q-12 -13 -27 -13q-16 0 -28 13t-12 28q0 14 12.5 26t25.5 12v0
q24 0 36 -22q12 -24 -7 -44zM66 15q-12 -13 -27 -13q-16 0 -28 13t-12 28q0 14 12.5 26t25.5 12v0q24 0 36 -22q12 -24 -7 -44zM576 14q-12 -13 -27 -13q-16 0 -28 13t-12 28q0 14 12.5 26t25.5 12v0q24 0 36 -22q12 -24 -7 -44zM474 14q-12 -13 -27 -13q-16 0 -28 13
t-12 28q0 14 12.5 26t25.5 12v0q24 0 36 -22q12 -24 -7 -44zM372 14q-12 -13 -27 -13q-16 0 -28 13t-12 28q0 14 12.5 26t25.5 12v0q24 0 36 -22q12 -24 -7 -44zM270 14q-12 -13 -27 -13q-16 0 -28 13t-12 28q0 14 12.5 26t25.5 12v0q24 0 36 -22q12 -24 -7 -44zM678 13
q-12 -13 -27 -13q-16 0 -28 13t-12 28q0 14 12.5 26t25.5 12v0q24 0 36 -22q12 -24 -7 -44z" />
    <glyph glyph-name="bracketleft" unicode="[" horiz-adv-x="365" 
d="M168 733q-12 -13 -27 -13q-16 0 -28 13t-12 28q0 14 12.5 26t25.5 12v0q24 0 36 -22q12 -24 -7 -44zM66 733q-12 -13 -27 -13q-16 0 -28 13t-12 28q0 14 12.5 26t25.5 12v0q24 0 36 -22q12 -24 -7 -44zM270 732q-12 -13 -27 -13q-16 0 -28 13t-12 28q0 14 12.5 26
t25.5 12v0q24 0 36 -22q12 -24 -7 -44zM66 631q-12 -13 -27 -13q-16 0 -28 13t-12 28q0 14 12.5 26t25.5 12v0q24 0 36 -22q12 -24 -7 -44zM67 529q-12 -13 -27 -13q-16 0 -28 13t-12 28q0 14 12.5 26t25.5 12v0q24 0 36 -22q12 -24 -7 -44zM66 427q-12 -13 -27 -13
q-16 0 -28 13t-12 28q0 14 12.5 26t25.5 12v0q24 0 36 -22q12 -24 -7 -44zM66 324q-12 -13 -27 -13q-16 0 -28 13t-12 29q0 13 12 25t26 12v0q23 0 35 -23q13 -23 -6 -43zM66 221q-12 -13 -27 -13q-16 0 -28 13t-12 28q0 14 12.5 26t25.5 12v0q24 0 36 -22q12 -24 -7 -44z
M66 118q-12 -13 -27 -13q-16 0 -28 13t-12 28q0 14 12.5 26t25.5 12v0q24 0 36 -22q12 -24 -7 -44zM168 15q-12 -13 -27 -13q-16 0 -28 13t-12 28q0 14 12.5 26t25.5 12v0q24 0 36 -22q12 -24 -7 -44zM66 15q-12 -13 -27 -13q-16 0 -28 13t-12 28q0 14 12.5 26t25.5 12v0
q24 0 36 -22q12 -24 -7 -44zM270 14q-12 -13 -27 -13q-16 0 -28 13t-12 28q0 14 12.5 26t25.5 12v0q24 0 36 -22q12 -24 -7 -44z" />
    <glyph glyph-name="backslash" unicode="\" 
d="M66 629q-12 -13 -27 -13q-16 0 -28 12.5t-12 28.5q0 13 12 25.5t26 12.5v0q23 0 36 -22q12 -23 -7 -44zM167 528q-12 -13 -27 -13q-16 0 -28 12.5t-12 28.5q0 13 12 25.5t26 12.5v0q23 0 36 -22q12 -23 -7 -44zM270 426q-12 -13 -27 -13q-16 0 -28 12.5t-12 28.5
q0 13 12 25.5t26 12.5v0q23 0 36 -22q12 -23 -7 -44zM372 323q-12 -13 -27 -13q-16 0 -28 12.5t-12 27.5q0 14 12.5 26.5t26.5 12.5v0q23 0 35 -23t-7 -43zM474 220q-12 -13 -27 -13q-16 0 -28 12.5t-12 28.5q0 13 12 25.5t26 12.5v0q23 0 36 -22q12 -23 -7 -44zM576 118
q-12 -13 -27 -13q-16 0 -28 12.5t-12 28.5q0 13 12 25.5t26 12.5v0q23 0 36 -22q12 -23 -7 -44zM678 15q-12 -13 -27 -13q-16 0 -28 12.5t-12 28.5q0 13 12 25.5t26 12.5v0q23 0 36 -22q12 -23 -7 -44z" />
    <glyph glyph-name="bracketright" unicode="]" horiz-adv-x="365" 
d="M283 728q-12 -13 -27 -13q-16 0 -28 12.5t-12 28.5q0 13 12 25.5t26 12.5v0q23 0 36 -22q12 -23 -7 -44zM181 728q-12 -13 -27 -13q-16 0 -28 12.5t-12 28.5q0 13 12 25.5t26 12.5v0q23 0 36 -22q12 -23 -7 -44zM79 727q-12 -13 -27 -13q-16 0 -28 12.5t-12 28.5
q0 13 12 25.5t26 12.5v0q23 0 36 -22q12 -23 -7 -44zM283 626q-12 -13 -27 -13q-16 0 -28 12.5t-12 28.5q0 13 12 25.5t26 12.5v0q23 0 36 -22q12 -23 -7 -44zM282 524q-12 -13 -27 -13q-16 0 -28 12.5t-12 28.5q0 13 12 25.5t26 12.5v0q23 0 36 -22q12 -23 -7 -44zM283 422
q-12 -13 -27 -13q-16 0 -28 12.5t-12 28.5q0 13 12 25.5t26 12.5v0q23 0 36 -22q12 -23 -7 -44zM283 319q-12 -13 -27 -13q-16 0 -28 12.5t-12 27.5q0 14 12.5 26.5t26.5 12.5v0q23 0 35 -23t-7 -43zM283 216q-12 -13 -27 -13q-16 0 -28 12.5t-12 28.5q0 13 12 25.5t26 12.5
v0q23 0 36 -22q12 -23 -7 -44zM283 113q-12 -13 -27 -13q-16 0 -28 12.5t-12 28.5q0 13 12 25.5t26 12.5v0q23 0 36 -22q12 -23 -7 -44zM283 10q-12 -13 -27 -13q-16 0 -28 12.5t-12 28.5q0 13 12 25.5t26 12.5v0q23 0 36 -22q12 -23 -7 -44zM181 10q-12 -13 -27 -13
q-16 0 -28 12.5t-12 28.5q0 13 12 25.5t26 12.5v0q23 0 36 -22q12 -23 -7 -44zM79 9q-12 -13 -27 -13q-16 0 -28 12.5t-12 28.5q0 13 12 25.5t26 12.5v0q23 0 36 -22q12 -23 -7 -44z" />
    <glyph glyph-name="asciicircum" unicode="^" horiz-adv-x="25" 
d="M-325 747q-12 -13 -27 -13q-16 0 -28 13t-12 28q0 14 12.5 26t25.5 12v0q24 0 36 -22q12 -24 -7 -44zM-427 646q-12 -13 -27 -13q-16 0 -28 13t-12 28q0 14 12.5 26t25.5 12v0q24 0 36 -22q12 -24 -7 -44zM-223 645q-12 -13 -27 -13q-16 0 -28 13t-12 28q0 14 12.5 26
t25.5 12v0q24 0 36 -22q12 -24 -7 -44zM-528 544q-12 -13 -27 -13q-16 0 -28 13t-12 28q0 14 12.5 26t25.5 12v0q24 0 36 -22q12 -24 -7 -44zM-120 543q-12 -13 -27 -13q-16 0 -28 13t-12 28q0 14 12.5 26t25.5 12v0q24 0 36 -22q12 -24 -7 -44z" />
    <glyph glyph-name="underscore" unicode="_" horiz-adv-x="700" 
d="M178 -95q-12 -13 -27 -13q-16 0 -28 13t-12 28q0 14 12.5 26t25.5 12v0q24 0 36 -22q12 -24 -7 -44zM76 -95q-12 -13 -27 -13q-16 0 -28 13t-12 28q0 14 12.5 26t25.5 12v0q24 0 36 -22q12 -24 -7 -44zM586 -96q-12 -13 -27 -13q-16 0 -28 13t-12 28q0 14 12.5 26
t25.5 12v0q24 0 36 -22q12 -24 -7 -44zM484 -96q-12 -13 -27 -13q-16 0 -28 13t-12 28q0 14 12.5 26t25.5 12v0q24 0 36 -22q12 -24 -7 -44zM382 -96q-12 -13 -27 -13q-16 0 -28 13t-12 28q0 14 12.5 26t25.5 12v0q24 0 36 -22q12 -24 -7 -44zM280 -96q-12 -13 -27 -13
q-16 0 -28 13t-12 28q0 14 12.5 26t25.5 12v0q24 0 36 -22q12 -24 -7 -44zM688 -97q-12 -13 -27 -13q-16 0 -28 13t-12 28q0 14 12.5 26t25.5 12v0q24 0 36 -22q12 -24 -7 -44z" />
    <glyph glyph-name="grave" unicode="`" horiz-adv-x="25" 
d="M-319 738q-12 -13 -27 -13q-16 0 -28 13t-12 28q0 14 12.5 26t25.5 12v0q24 0 36 -22q12 -24 -7 -44zM-217 636q-12 -13 -27 -13q-16 0 -28 13t-12 28q0 14 12.5 26t25.5 12v0q24 0 36 -22q12 -24 -7 -44zM-114 533q-12 -13 -27 -13q-16 0 -28 13t-12 28q0 14 12.5 26
t25.5 12v0q24 0 36 -22q12 -24 -7 -44z" />
    <glyph glyph-name="a" unicode="a" 
d="M169 529q-12 -13 -27 -13q-16 0 -28 13t-12 28q0 14 12.5 26t25.5 12v0q24 0 36 -22q12 -24 -7 -44zM577 528q-12 -13 -27 -13q-16 0 -28 13t-12 28q0 14 12.5 26t25.5 12v0q24 0 36 -22q12 -24 -7 -44zM373 528q-12 -13 -27 -13q-16 0 -28 13t-12 28q0 14 12.5 26
t25.5 12v0q24 0 36 -22q12 -24 -7 -44zM271 528q-12 -13 -27 -13q-16 0 -28 13t-12 28q0 14 12.5 26t25.5 12v0q24 0 36 -22q12 -24 -7 -44zM470 433q-12 -13 -27 -13q-16 0 -28 13t-12 28q0 14 12.5 26t25.5 12v0q24 0 36 -22q12 -24 -7 -44zM66 427q-12 -13 -27 -13
q-16 0 -28 13t-12 28q0 14 12.5 26t25.5 12v0q24 0 36 -22q12 -24 -7 -44zM576 426q-12 -13 -27 -13q-16 0 -28 13t-12 28q0 14 12.5 26t25.5 12v0q24 0 36 -22q12 -24 -7 -44zM66 324q-12 -13 -27 -13q-16 0 -28 13t-12 29q0 13 12 25t26 12v0q23 0 35 -23q13 -23 -6 -43z
M576 323q-12 -13 -27 -13q-16 0 -28 13t-12 29q0 13 12 25t26 12v0q23 0 35 -23q13 -23 -6 -43zM66 221q-12 -13 -27 -13q-16 0 -28 13t-12 28q0 14 12.5 26t25.5 12v0q24 0 36 -22q12 -24 -7 -44zM576 220q-12 -13 -27 -13q-16 0 -28 13t-12 28q0 14 12.5 26t25.5 12v0
q24 0 36 -22q12 -24 -7 -44zM66 118q-12 -13 -27 -13q-16 0 -28 13t-12 28q0 14 12.5 26t25.5 12v0q24 0 36 -22q12 -24 -7 -44zM576 117q-12 -13 -27 -13q-16 0 -28 13t-12 28q0 14 12.5 26t25.5 12v0q24 0 36 -22q12 -24 -7 -44zM464 114q-12 -13 -27 -13q-16 0 -28 13
t-12 28q0 14 12.5 26t25.5 12v0q24 0 36 -22q12 -24 -7 -44zM168 15q-12 -13 -27 -13q-16 0 -28 13t-12 28q0 14 12.5 26t25.5 12v0q24 0 36 -22q12 -24 -7 -44zM576 14q-12 -13 -27 -13q-16 0 -28 13t-12 28q0 14 12.5 26t25.5 12v0q24 0 36 -22q12 -24 -7 -44zM372 14
q-12 -13 -27 -13q-16 0 -28 13t-12 28q0 14 12.5 26t25.5 12v0q24 0 36 -22q12 -24 -7 -44zM270 14q-12 -13 -27 -13q-16 0 -28 13t-12 28q0 14 12.5 26t25.5 12v0q24 0 36 -22q12 -24 -7 -44zM678 13q-12 -13 -27 -13q-16 0 -28 13t-12 28q0 14 12.5 26t25.5 12v0
q24 0 36 -22q12 -24 -7 -44z" />
    <glyph glyph-name="b" unicode="b" 
d="M168 733q-12 -13 -27 -13q-16 0 -28 13t-12 28q0 14 12.5 26t25.5 12v0q24 0 36 -22q12 -24 -7 -44zM66 733q-12 -13 -27 -13q-16 0 -28 13t-12 28q0 14 12.5 26t25.5 12v0q24 0 36 -22q12 -24 -7 -44zM168 631q-12 -13 -27 -13q-16 0 -28 13t-12 28q0 14 12.5 26
t25.5 12v0q24 0 36 -22q12 -24 -7 -44zM169 529q-12 -13 -27 -13q-16 0 -28 13t-12 28q0 14 12.5 26t25.5 12v0q24 0 36 -22q12 -24 -7 -44zM577 528q-12 -13 -27 -13q-16 0 -28 13t-12 28q0 14 12.5 26t25.5 12v0q24 0 36 -22q12 -24 -7 -44zM475 528q-12 -13 -27 -13
q-16 0 -28 13t-12 28q0 14 12.5 26t25.5 12v0q24 0 36 -22q12 -24 -7 -44zM373 528q-12 -13 -27 -13q-16 0 -28 13t-12 28q0 14 12.5 26t25.5 12v0q24 0 36 -22q12 -24 -7 -44zM168 427q-12 -13 -27 -13q-16 0 -28 13t-12 28q0 14 12.5 26t25.5 12v0q24 0 36 -22
q12 -24 -7 -44zM678 425q-12 -13 -27 -13q-16 0 -28 13t-12 28q0 14 12.5 26t25.5 12v0q24 0 36 -22q12 -24 -7 -44zM281 423q-12 -13 -27 -13q-16 0 -28 13t-12 28q0 14 12.5 26t25.5 12v0q24 0 36 -22q12 -24 -7 -44zM168 324q-12 -13 -27 -13q-16 0 -28 13t-12 29
q0 13 12 25t26 12v0q23 0 35 -23q13 -23 -6 -43zM678 322q-12 -13 -27 -13q-16 0 -28 13t-12 29q0 13 12 25t26 12v0q23 0 35 -23q13 -23 -6 -43zM168 221q-12 -13 -27 -13q-16 0 -28 13t-12 28q0 14 12.5 26t25.5 12v0q24 0 36 -22q12 -24 -7 -44zM678 219q-12 -13 -27 -13
q-16 0 -28 13t-12 28q0 14 12.5 26t25.5 12v0q24 0 36 -22q12 -24 -7 -44zM168 118q-12 -13 -27 -13q-16 0 -28 13t-12 28q0 14 12.5 26t25.5 12v0q24 0 36 -22q12 -24 -7 -44zM678 116q-12 -13 -27 -13q-16 0 -28 13t-12 28q0 14 12.5 26t25.5 12v0q24 0 36 -22
q12 -24 -7 -44zM275 114q-12 -13 -27 -13q-16 0 -28 13t-12 28q0 14 12.5 26t25.5 12v0q24 0 36 -22q12 -24 -7 -44zM168 15q-12 -13 -27 -13q-16 0 -28 13t-12 28q0 14 12.5 26t25.5 12v0q24 0 36 -22q12 -24 -7 -44zM66 15q-12 -13 -27 -13q-16 0 -28 13t-12 28
q0 14 12.5 26t25.5 12v0q24 0 36 -22q12 -24 -7 -44zM576 14q-12 -13 -27 -13q-16 0 -28 13t-12 28q0 14 12.5 26t25.5 12v0q24 0 36 -22q12 -24 -7 -44zM474 14q-12 -13 -27 -13q-16 0 -28 13t-12 28q0 14 12.5 26t25.5 12v0q24 0 36 -22q12 -24 -7 -44zM372 14
q-12 -13 -27 -13q-16 0 -28 13t-12 28q0 14 12.5 26t25.5 12v0q24 0 36 -22q12 -24 -7 -44z" />
    <glyph glyph-name="c" unicode="c" 
d="M169 529q-12 -13 -27 -13q-16 0 -28 13t-12 28q0 14 12.5 26t25.5 12v0q24 0 36 -22q12 -24 -7 -44zM577 528q-12 -13 -27 -13q-16 0 -28 13t-12 28q0 14 12.5 26t25.5 12v0q24 0 36 -22q12 -24 -7 -44zM475 528q-12 -13 -27 -13q-16 0 -28 13t-12 28q0 14 12.5 26
t25.5 12v0q24 0 36 -22q12 -24 -7 -44zM373 528q-12 -13 -27 -13q-16 0 -28 13t-12 28q0 14 12.5 26t25.5 12v0q24 0 36 -22q12 -24 -7 -44zM271 528q-12 -13 -27 -13q-16 0 -28 13t-12 28q0 14 12.5 26t25.5 12v0q24 0 36 -22q12 -24 -7 -44zM66 427q-12 -13 -27 -13
q-16 0 -28 13t-12 28q0 14 12.5 26t25.5 12v0q24 0 36 -22q12 -24 -7 -44zM678 425q-12 -13 -27 -13q-16 0 -28 13t-12 28q0 14 12.5 26t25.5 12v0q24 0 36 -22q12 -24 -7 -44zM66 324q-12 -13 -27 -13q-16 0 -28 13t-12 29q0 13 12 25t26 12v0q23 0 35 -23q13 -23 -6 -43z
M66 221q-12 -13 -27 -13q-16 0 -28 13t-12 28q0 14 12.5 26t25.5 12v0q24 0 36 -22q12 -24 -7 -44zM66 118q-12 -13 -27 -13q-16 0 -28 13t-12 28q0 14 12.5 26t25.5 12v0q24 0 36 -22q12 -24 -7 -44zM678 116q-12 -13 -27 -13q-16 0 -28 13t-12 28q0 14 12.5 26t25.5 12v0
q24 0 36 -22q12 -24 -7 -44zM168 15q-12 -13 -27 -13q-16 0 -28 13t-12 28q0 14 12.5 26t25.5 12v0q24 0 36 -22q12 -24 -7 -44zM576 14q-12 -13 -27 -13q-16 0 -28 13t-12 28q0 14 12.5 26t25.5 12v0q24 0 36 -22q12 -24 -7 -44zM474 14q-12 -13 -27 -13q-16 0 -28 13
t-12 28q0 14 12.5 26t25.5 12v0q24 0 36 -22q12 -24 -7 -44zM372 14q-12 -13 -27 -13q-16 0 -28 13t-12 28q0 14 12.5 26t25.5 12v0q24 0 36 -22q12 -24 -7 -44zM270 14q-12 -13 -27 -13q-16 0 -28 13t-12 28q0 14 12.5 26t25.5 12v0q24 0 36 -22q12 -24 -7 -44z" />
    <glyph glyph-name="d" unicode="d" 
d="M576 732q-12 -13 -27 -13q-16 0 -28 13t-12 28q0 14 12.5 26t25.5 12v0q24 0 36 -22q12 -24 -7 -44zM678 731q-12 -13 -27 -13q-16 0 -28 13t-12 28q0 14 12.5 26t25.5 12v0q24 0 36 -22q12 -24 -7 -44zM576 630q-12 -13 -27 -13q-16 0 -28 13t-12 28q0 14 12.5 26
t25.5 12v0q24 0 36 -22q12 -24 -7 -44zM169 529q-12 -13 -27 -13q-16 0 -28 13t-12 28q0 14 12.5 26t25.5 12v0q24 0 36 -22q12 -24 -7 -44zM577 528q-12 -13 -27 -13q-16 0 -28 13t-12 28q0 14 12.5 26t25.5 12v0q24 0 36 -22q12 -24 -7 -44zM373 528q-12 -13 -27 -13
q-16 0 -28 13t-12 28q0 14 12.5 26t25.5 12v0q24 0 36 -22q12 -24 -7 -44zM271 528q-12 -13 -27 -13q-16 0 -28 13t-12 28q0 14 12.5 26t25.5 12v0q24 0 36 -22q12 -24 -7 -44zM465 428q-12 -13 -27 -13q-16 0 -28 13t-12 28q0 14 12.5 26t25.5 12v0q24 0 36 -22
q12 -24 -7 -44zM66 427q-12 -13 -27 -13q-16 0 -28 13t-12 28q0 14 12.5 26t25.5 12v0q24 0 36 -22q12 -24 -7 -44zM576 426q-12 -13 -27 -13q-16 0 -28 13t-12 28q0 14 12.5 26t25.5 12v0q24 0 36 -22q12 -24 -7 -44zM66 324q-12 -13 -27 -13q-16 0 -28 13t-12 29
q0 13 12 25t26 12v0q23 0 35 -23q13 -23 -6 -43zM576 323q-12 -13 -27 -13q-16 0 -28 13t-12 29q0 13 12 25t26 12v0q23 0 35 -23q13 -23 -6 -43zM66 221q-12 -13 -27 -13q-16 0 -28 13t-12 28q0 14 12.5 26t25.5 12v0q24 0 36 -22q12 -24 -7 -44zM576 220q-12 -13 -27 -13
q-16 0 -28 13t-12 28q0 14 12.5 26t25.5 12v0q24 0 36 -22q12 -24 -7 -44zM66 118q-12 -13 -27 -13q-16 0 -28 13t-12 28q0 14 12.5 26t25.5 12v0q24 0 36 -22q12 -24 -7 -44zM576 117q-12 -13 -27 -13q-16 0 -28 13t-12 28q0 14 12.5 26t25.5 12v0q24 0 36 -22
q12 -24 -7 -44zM464 114q-12 -13 -27 -13q-16 0 -28 13t-12 28q0 14 12.5 26t25.5 12v0q24 0 36 -22q12 -24 -7 -44zM168 15q-12 -13 -27 -13q-16 0 -28 13t-12 28q0 14 12.5 26t25.5 12v0q24 0 36 -22q12 -24 -7 -44zM576 14q-12 -13 -27 -13q-16 0 -28 13t-12 28
q0 14 12.5 26t25.5 12v0q24 0 36 -22q12 -24 -7 -44zM372 14q-12 -13 -27 -13q-16 0 -28 13t-12 28q0 14 12.5 26t25.5 12v0q24 0 36 -22q12 -24 -7 -44zM270 14q-12 -13 -27 -13q-16 0 -28 13t-12 28q0 14 12.5 26t25.5 12v0q24 0 36 -22q12 -24 -7 -44zM678 13
q-12 -13 -27 -13q-16 0 -28 13t-12 28q0 14 12.5 26t25.5 12v0q24 0 36 -22q12 -24 -7 -44z" />
    <glyph glyph-name="e" unicode="e" 
d="M169 529q-12 -13 -27 -13q-16 0 -28 13t-12 28q0 14 12.5 26t25.5 12v0q24 0 36 -22q12 -24 -7 -44zM577 528q-12 -13 -27 -13q-16 0 -28 13t-12 28q0 14 12.5 26t25.5 12v0q24 0 36 -22q12 -24 -7 -44zM475 528q-12 -13 -27 -13q-16 0 -28 13t-12 28q0 14 12.5 26
t25.5 12v0q24 0 36 -22q12 -24 -7 -44zM373 528q-12 -13 -27 -13q-16 0 -28 13t-12 28q0 14 12.5 26t25.5 12v0q24 0 36 -22q12 -24 -7 -44zM271 528q-12 -13 -27 -13q-16 0 -28 13t-12 28q0 14 12.5 26t25.5 12v0q24 0 36 -22q12 -24 -7 -44zM66 427q-12 -13 -27 -13
q-16 0 -28 13t-12 28q0 14 12.5 26t25.5 12v0q24 0 36 -22q12 -24 -7 -44zM678 425q-12 -13 -27 -13q-16 0 -28 13t-12 28q0 14 12.5 26t25.5 12v0q24 0 36 -22q12 -24 -7 -44zM168 324q-12 -13 -27 -13q-16 0 -28 13t-12 29q0 13 12 25t26 12v0q23 0 35 -23q13 -23 -6 -43z
M66 324q-12 -13 -27 -13q-16 0 -28 13t-12 29q0 13 12 25t26 12v0q23 0 35 -23q13 -23 -6 -43zM576 323q-12 -13 -27 -13q-16 0 -28 13t-12 29q0 13 12 25t26 12v0q23 0 35 -23q13 -23 -6 -43zM474 323q-12 -13 -27 -13q-16 0 -28 13t-12 29q0 13 12 25t26 12v0q23 0 35 -23
q13 -23 -6 -43zM372 323q-12 -13 -27 -13q-16 0 -28 13t-12 29q0 13 12 25t26 12v0q23 0 35 -23q13 -23 -6 -43zM270 323q-12 -13 -27 -13q-16 0 -28 13t-12 29q0 13 12 25t26 12v0q23 0 35 -23q13 -23 -6 -43zM678 322q-12 -13 -27 -13q-16 0 -28 13t-12 29q0 13 12 25
t26 12v0q23 0 35 -23q13 -23 -6 -43zM66 221q-12 -13 -27 -13q-16 0 -28 13t-12 28q0 14 12.5 26t25.5 12v0q24 0 36 -22q12 -24 -7 -44zM66 118q-12 -13 -27 -13q-16 0 -28 13t-12 28q0 14 12.5 26t25.5 12v0q24 0 36 -22q12 -24 -7 -44zM678 116q-12 -13 -27 -13
q-16 0 -28 13t-12 28q0 14 12.5 26t25.5 12v0q24 0 36 -22q12 -24 -7 -44zM168 15q-12 -13 -27 -13q-16 0 -28 13t-12 28q0 14 12.5 26t25.5 12v0q24 0 36 -22q12 -24 -7 -44zM576 14q-12 -13 -27 -13q-16 0 -28 13t-12 28q0 14 12.5 26t25.5 12v0q24 0 36 -22
q12 -24 -7 -44zM474 14q-12 -13 -27 -13q-16 0 -28 13t-12 28q0 14 12.5 26t25.5 12v0q24 0 36 -22q12 -24 -7 -44zM372 14q-12 -13 -27 -13q-16 0 -28 13t-12 28q0 14 12.5 26t25.5 12v0q24 0 36 -22q12 -24 -7 -44zM270 14q-12 -13 -27 -13q-16 0 -28 13t-12 28
q0 14 12.5 26t25.5 12v0q24 0 36 -22q12 -24 -7 -44z" />
    <glyph glyph-name="f" unicode="f" 
d="M576 732q-12 -13 -27 -13q-16 0 -28 13t-12 28q0 14 12.5 26t25.5 12v0q24 0 36 -22q12 -24 -7 -44zM474 732q-12 -13 -27 -13q-16 0 -28 13t-12 28q0 14 12.5 26t25.5 12v0q24 0 36 -22q12 -24 -7 -44zM372 732q-12 -13 -27 -13q-16 0 -28 13t-12 28q0 14 12.5 26
t25.5 12v0q24 0 36 -22q12 -24 -7 -44zM270 732q-12 -13 -27 -13q-16 0 -28 13t-12 28q0 14 12.5 26t25.5 12v0q24 0 36 -22q12 -24 -7 -44zM673 644q-12 -13 -27 -13q-16 0 -28 13t-12 28q0 14 12.5 26t25.5 12v0q24 0 36 -22q12 -24 -7 -44zM168 631q-12 -13 -27 -13
q-16 0 -28 13t-12 28q0 14 12.5 26t25.5 12v0q24 0 36 -22q12 -24 -7 -44zM169 529q-12 -13 -27 -13q-16 0 -28 13t-12 28q0 14 12.5 26t25.5 12v0q24 0 36 -22q12 -24 -7 -44zM168 427q-12 -13 -27 -13q-16 0 -28 13t-12 28q0 14 12.5 26t25.5 12v0q24 0 36 -22
q12 -24 -7 -44zM474 423q-12 -13 -27 -13q-16 0 -28 13t-12 29q0 13 12 25t26 12v0q23 0 35 -23q13 -23 -6 -43zM372 423q-12 -13 -27 -13q-16 0 -28 13t-12 29q0 13 12 25t26 12v0q23 0 35 -23q13 -23 -6 -43zM270 423q-12 -13 -27 -13q-16 0 -28 13t-12 29q0 13 12 25
t26 12v0q23 0 35 -23q13 -23 -6 -43zM168 324q-12 -13 -27 -13q-16 0 -28 13t-12 29q0 13 12 25t26 12v0q23 0 35 -23q13 -23 -6 -43zM168 221q-12 -13 -27 -13q-16 0 -28 13t-12 28q0 14 12.5 26t25.5 12v0q24 0 36 -22q12 -24 -7 -44zM168 118q-12 -13 -27 -13
q-16 0 -28 13t-12 28q0 14 12.5 26t25.5 12v0q24 0 36 -22q12 -24 -7 -44zM168 15q-12 -13 -27 -13q-16 0 -28 13t-12 28q0 14 12.5 26t25.5 12v0q24 0 36 -22q12 -24 -7 -44zM66 15q-12 -13 -27 -13q-16 0 -28 13t-12 28q0 14 12.5 26t25.5 12v0q24 0 36 -22q12 -24 -7 -44
zM270 14q-12 -13 -27 -13q-16 0 -28 13t-12 28q0 14 12.5 26t25.5 12v0q24 0 36 -22q12 -24 -7 -44z" />
    <glyph glyph-name="g" unicode="g" 
d="M169 529q-12 -13 -27 -13q-16 0 -28 13t-12 28q0 14 12.5 26t25.5 12v0q24 0 36 -22q12 -24 -7 -44zM475 528q-12 -13 -27 -13q-16 0 -28 13t-12 28q0 14 12.5 26t25.5 12v0q24 0 36 -22q12 -24 -7 -44zM373 528q-12 -13 -27 -13q-16 0 -28 13t-12 28q0 14 12.5 26
t25.5 12v0q24 0 36 -22q12 -24 -7 -44zM271 528q-12 -13 -27 -13q-16 0 -28 13t-12 28q0 14 12.5 26t25.5 12v0q24 0 36 -22q12 -24 -7 -44zM679 527q-12 -13 -27 -13q-16 0 -28 13t-12 28q0 14 12.5 26t25.5 12v0q24 0 36 -22q12 -24 -7 -44zM66 427q-12 -13 -27 -13
q-16 0 -28 13t-12 28q0 14 12.5 26t25.5 12v0q24 0 36 -22q12 -24 -7 -44zM576 426q-12 -13 -27 -13q-16 0 -28 13t-12 28q0 14 12.5 26t25.5 12v0q24 0 36 -22q12 -24 -7 -44zM678 425q-12 -13 -27 -13q-16 0 -28 13t-12 28q0 14 12.5 26t25.5 12v0q24 0 36 -22
q12 -24 -7 -44zM66 324q-12 -13 -27 -13q-16 0 -28 13t-12 29q0 13 12 25t26 12v0q23 0 35 -23q13 -23 -6 -43zM678 322q-12 -13 -27 -13q-16 0 -28 13t-12 29q0 13 12 25t26 12v0q23 0 35 -23q13 -23 -6 -43zM168 221q-12 -13 -27 -13q-16 0 -28 13t-12 28q0 14 12.5 26
t25.5 12v0q24 0 36 -22q12 -24 -7 -44zM576 220q-12 -13 -27 -13q-16 0 -28 13t-12 28q0 14 12.5 26t25.5 12v0q24 0 36 -22q12 -24 -7 -44zM474 220q-12 -13 -27 -13q-16 0 -28 13t-12 28q0 14 12.5 26t25.5 12v0q24 0 36 -22q12 -24 -7 -44zM372 220q-12 -13 -27 -13
q-16 0 -28 13t-12 28q0 14 12.5 26t25.5 12v0q24 0 36 -22q12 -24 -7 -44zM270 220q-12 -13 -27 -13q-16 0 -28 13t-12 28q0 14 12.5 26t25.5 12v0q24 0 36 -22q12 -24 -7 -44zM678 219q-12 -13 -27 -13q-16 0 -28 13t-12 28q0 14 12.5 26t25.5 12v0q24 0 36 -22
q12 -24 -7 -44zM678 116q-12 -13 -27 -13q-16 0 -28 13t-12 28q0 14 12.5 26t25.5 12v0q24 0 36 -22q12 -24 -7 -44zM66 15q-12 -13 -27 -13q-16 0 -28 13t-12 28q0 14 12.5 26t25.5 12v0q24 0 36 -22q12 -24 -7 -44zM678 13q-12 -13 -27 -13q-16 0 -28 13t-12 28
q0 14 12.5 26t25.5 12v0q24 0 36 -22q12 -24 -7 -44zM168 -92q-12 -13 -27 -13q-16 0 -28 13t-12 28q0 14 12.5 26t25.5 12v0q24 0 36 -22q12 -24 -7 -44zM576 -93q-12 -13 -27 -13q-16 0 -28 13t-12 28q0 14 12.5 26t25.5 12v0q24 0 36 -22q12 -24 -7 -44zM474 -93
q-12 -13 -27 -13q-16 0 -28 13t-12 28q0 14 12.5 26t25.5 12v0q24 0 36 -22q12 -24 -7 -44zM372 -93q-12 -13 -27 -13q-16 0 -28 13t-12 28q0 14 12.5 26t25.5 12v0q24 0 36 -22q12 -24 -7 -44zM270 -93q-12 -13 -27 -13q-16 0 -28 13t-12 28q0 14 12.5 26t25.5 12v0
q24 0 36 -22q12 -24 -7 -44z" />
    <glyph glyph-name="h" unicode="h" 
d="M168 733q-12 -13 -27 -13q-16 0 -28 13t-12 28q0 14 12.5 26t25.5 12v0q24 0 36 -22q12 -24 -7 -44zM66 733q-12 -13 -27 -13q-16 0 -28 13t-12 28q0 14 12.5 26t25.5 12v0q24 0 36 -22q12 -24 -7 -44zM270 732q-12 -13 -27 -13q-16 0 -28 13t-12 28q0 14 12.5 26
t25.5 12v0q24 0 36 -22q12 -24 -7 -44zM168 631q-12 -13 -27 -13q-16 0 -28 13t-12 28q0 14 12.5 26t25.5 12v0q24 0 36 -22q12 -24 -7 -44zM169 529q-12 -13 -27 -13q-16 0 -28 13t-12 28q0 14 12.5 26t25.5 12v0q24 0 36 -22q12 -24 -7 -44zM577 528q-12 -13 -27 -13
q-16 0 -28 13t-12 28q0 14 12.5 26t25.5 12v0q24 0 36 -22q12 -24 -7 -44zM475 528q-12 -13 -27 -13q-16 0 -28 13t-12 28q0 14 12.5 26t25.5 12v0q24 0 36 -22q12 -24 -7 -44zM373 528q-12 -13 -27 -13q-16 0 -28 13t-12 28q0 14 12.5 26t25.5 12v0q24 0 36 -22
q12 -24 -7 -44zM168 427q-12 -13 -27 -13q-16 0 -28 13t-12 28q0 14 12.5 26t25.5 12v0q24 0 36 -22q12 -24 -7 -44zM270 426q-12 -13 -27 -13q-16 0 -28 13t-12 28q0 14 12.5 26t25.5 12v0q24 0 36 -22q12 -24 -7 -44zM678 425q-12 -13 -27 -13q-16 0 -28 13t-12 28
q0 14 12.5 26t25.5 12v0q24 0 36 -22q12 -24 -7 -44zM168 324q-12 -13 -27 -13q-16 0 -28 13t-12 29q0 13 12 25t26 12v0q23 0 35 -23q13 -23 -6 -43zM678 322q-12 -13 -27 -13q-16 0 -28 13t-12 29q0 13 12 25t26 12v0q23 0 35 -23q13 -23 -6 -43zM168 221q-12 -13 -27 -13
q-16 0 -28 13t-12 28q0 14 12.5 26t25.5 12v0q24 0 36 -22q12 -24 -7 -44zM678 219q-12 -13 -27 -13q-16 0 -28 13t-12 28q0 14 12.5 26t25.5 12v0q24 0 36 -22q12 -24 -7 -44zM168 118q-12 -13 -27 -13q-16 0 -28 13t-12 28q0 14 12.5 26t25.5 12v0q24 0 36 -22
q12 -24 -7 -44zM678 116q-12 -13 -27 -13q-16 0 -28 13t-12 28q0 14 12.5 26t25.5 12v0q24 0 36 -22q12 -24 -7 -44zM168 15q-12 -13 -27 -13q-16 0 -28 13t-12 28q0 14 12.5 26t25.5 12v0q24 0 36 -22q12 -24 -7 -44zM66 15q-12 -13 -27 -13q-16 0 -28 13t-12 28
q0 14 12.5 26t25.5 12v0q24 0 36 -22q12 -24 -7 -44zM270 14q-12 -13 -27 -13q-16 0 -28 13t-12 28q0 14 12.5 26t25.5 12v0q24 0 36 -22q12 -24 -7 -44zM678 13q-12 -13 -27 -13q-16 0 -28 13t-12 28q0 14 12.5 26t25.5 12v0q24 0 36 -22q12 -24 -7 -44z" />
    <glyph glyph-name="i" unicode="i" horiz-adv-x="360" 
d="M168 733q-12 -13 -27 -13q-16 0 -28 13t-12 28q0 14 12.5 26t25.5 12v0q24 0 36 -22q12 -24 -7 -44zM169 529q-12 -13 -27 -13q-16 0 -28 13t-12 28q0 14 12.5 26t25.5 12v0q24 0 36 -22q12 -24 -7 -44zM67 529q-12 -13 -27 -13q-16 0 -28 13t-12 28q0 14 12.5 26
t25.5 12v0q24 0 36 -22q12 -24 -7 -44zM271 528q-12 -13 -27 -13q-16 0 -28 13t-12 28q0 14 12.5 26t25.5 12v0q24 0 36 -22q12 -24 -7 -44zM168 427q-12 -13 -27 -13q-16 0 -28 13t-12 28q0 14 12.5 26t25.5 12v0q24 0 36 -22q12 -24 -7 -44zM168 324q-12 -13 -27 -13
q-16 0 -28 13t-12 29q0 13 12 25t26 12v0q23 0 35 -23q13 -23 -6 -43zM168 221q-12 -13 -27 -13q-16 0 -28 13t-12 28q0 14 12.5 26t25.5 12v0q24 0 36 -22q12 -24 -7 -44zM168 118q-12 -13 -27 -13q-16 0 -28 13t-12 28q0 14 12.5 26t25.5 12v0q24 0 36 -22q12 -24 -7 -44z
M168 15q-12 -13 -27 -13q-16 0 -28 13t-12 28q0 14 12.5 26t25.5 12v0q24 0 36 -22q12 -24 -7 -44zM66 15q-12 -13 -27 -13q-16 0 -28 13t-12 28q0 14 12.5 26t25.5 12v0q24 0 36 -22q12 -24 -7 -44zM270 14q-12 -13 -27 -13q-16 0 -28 13t-12 28q0 14 12.5 26t25.5 12v0
q24 0 36 -22q12 -24 -7 -44z" />
    <glyph glyph-name="j" unicode="j" 
d="M568 714q-12 -13 -27 -13q-16 0 -28 13t-12 28q0 14 12.5 26t25.5 12v0q24 0 36 -22q12 -24 -7 -44zM577 528q-12 -13 -27 -13q-16 0 -28 13t-12 28q0 14 12.5 26t25.5 12v0q24 0 36 -22q12 -24 -7 -44zM475 528q-12 -13 -27 -13q-16 0 -28 13t-12 28q0 14 12.5 26
t25.5 12v0q24 0 36 -22q12 -24 -7 -44zM679 527q-12 -13 -27 -13q-16 0 -28 13t-12 28q0 14 12.5 26t25.5 12v0q24 0 36 -22q12 -24 -7 -44zM576 426q-12 -13 -27 -13q-16 0 -28 13t-12 28q0 14 12.5 26t25.5 12v0q24 0 36 -22q12 -24 -7 -44zM576 323q-12 -13 -27 -13
q-16 0 -28 13t-12 29q0 13 12 25t26 12v0q23 0 35 -23q13 -23 -6 -43zM576 220q-12 -13 -27 -13q-16 0 -28 13t-12 28q0 14 12.5 26t25.5 12v0q24 0 36 -22q12 -24 -7 -44zM576 117q-12 -13 -27 -13q-16 0 -28 13t-12 28q0 14 12.5 26t25.5 12v0q24 0 36 -22q12 -24 -7 -44z
M66 15q-12 -13 -27 -13q-16 0 -28 13t-12 28q0 14 12.5 26t25.5 12v0q24 0 36 -22q12 -24 -7 -44zM576 14q-12 -13 -27 -13q-16 0 -28 13t-12 28q0 14 12.5 26t25.5 12v0q24 0 36 -22q12 -24 -7 -44zM168 -97q-12 -13 -27 -13q-16 0 -28 13t-12 28q0 14 12.5 26t25.5 12v0
q24 0 36 -22q12 -24 -7 -44zM474 -98q-12 -13 -27 -13q-16 0 -28 13t-12 28q0 14 12.5 26t25.5 12v0q24 0 36 -22q12 -24 -7 -44zM372 -98q-12 -13 -27 -13q-16 0 -28 13t-12 28q0 14 12.5 26t25.5 12v0q24 0 36 -22q12 -24 -7 -44zM270 -98q-12 -13 -27 -13q-16 0 -28 13
t-12 28q0 14 12.5 26t25.5 12v0q24 0 36 -22q12 -24 -7 -44z" />
    <glyph glyph-name="k" unicode="k" horiz-adv-x="655" 
d="M168 733q-12 -13 -27 -13q-16 0 -28 13t-12 28q0 14 12.5 26t25.5 12v0q24 0 36 -22q12 -24 -7 -44zM66 733q-12 -13 -27 -13q-16 0 -28 13t-12 28q0 14 12.5 26t25.5 12v0q24 0 36 -22q12 -24 -7 -44zM270 732q-12 -13 -27 -13q-16 0 -28 13t-12 28q0 14 12.5 26
t25.5 12v0q24 0 36 -22q12 -24 -7 -44zM168 631q-12 -13 -27 -13q-16 0 -28 13t-12 28q0 14 12.5 26t25.5 12v0q24 0 36 -22q12 -24 -7 -44zM576 630q-12 -13 -27 -13q-16 0 -28 13t-12 28q0 14 12.5 26t25.5 12v0q24 0 36 -22q12 -24 -7 -44zM169 529q-12 -13 -27 -13
q-16 0 -28 13t-12 28q0 14 12.5 26t25.5 12v0q24 0 36 -22q12 -24 -7 -44zM475 528q-12 -13 -27 -13q-16 0 -28 13t-12 28q0 14 12.5 26t25.5 12v0q24 0 36 -22q12 -24 -7 -44zM270 426q11 11 11 27t-11 27v-54zM168 427q-12 -13 -27 -13q-16 0 -28 13t-12 28q0 14 12.5 26
t25.5 12v0q24 0 36 -22q12 -24 -7 -44zM372 426q-12 -13 -27 -13q-16 0 -28 13t-12 28q0 14 12.5 26t25.5 12v0q24 0 36 -22q12 -24 -7 -44zM168 324q-12 -13 -27 -13q-16 0 -28 13t-12 29q0 13 12 25t26 12v0q23 0 35 -23q13 -23 -6 -43zM270 323q-12 -13 -27 -13
q-16 0 -28 13t-12 29q0 13 12 25t26 12v0q23 0 35 -23q13 -23 -6 -43zM168 221q-12 -13 -27 -13q-16 0 -28 13t-12 28q0 14 12.5 26t25.5 12v0q24 0 36 -22q12 -24 -7 -44zM372 220q-12 -13 -27 -13q-16 0 -28 13t-12 28q0 14 12.5 26t25.5 12v0q24 0 36 -22q12 -24 -7 -44z
M168 118q-12 -13 -27 -13q-16 0 -28 13t-12 28q0 14 12.5 26t25.5 12v0q24 0 36 -22q12 -24 -7 -44zM474 117q-12 -13 -27 -13q-16 0 -28 13t-12 28q0 14 12.5 26t25.5 12v0q24 0 36 -22q12 -24 -7 -44zM168 15q-12 -13 -27 -13q-16 0 -28 13t-12 28q0 14 12.5 26t25.5 12v0
q24 0 36 -22q12 -24 -7 -44zM66 15q-12 -13 -27 -13q-16 0 -28 13t-12 28q0 14 12.5 26t25.5 12v0q24 0 36 -22q12 -24 -7 -44zM576 14q-12 -13 -27 -13q-16 0 -28 13t-12 28q0 14 12.5 26t25.5 12v0q24 0 36 -22q12 -24 -7 -44zM270 14q-12 -13 -27 -13q-16 0 -28 13
t-12 28q0 14 12.5 26t25.5 12v0q24 0 36 -22q12 -24 -7 -44z" />
    <glyph glyph-name="l" unicode="l" horiz-adv-x="335" 
d="M168 733q-12 -13 -27 -13q-16 0 -28 13t-12 28q0 14 12.5 26t25.5 12v0q24 0 36 -22q12 -24 -7 -44zM66 733q-12 -13 -27 -13q-16 0 -28 13t-12 28q0 14 12.5 26t25.5 12v0q24 0 36 -22q12 -24 -7 -44zM168 631q-12 -13 -27 -13q-16 0 -28 13t-12 28q0 14 12.5 26
t25.5 12v0q24 0 36 -22q12 -24 -7 -44zM169 529q-12 -13 -27 -13q-16 0 -28 13t-12 28q0 14 12.5 26t25.5 12v0q24 0 36 -22q12 -24 -7 -44zM168 427q-12 -13 -27 -13q-16 0 -28 13t-12 28q0 14 12.5 26t25.5 12v0q24 0 36 -22q12 -24 -7 -44zM168 324q-12 -13 -27 -13
q-16 0 -28 13t-12 29q0 13 12 25t26 12v0q23 0 35 -23q13 -23 -6 -43zM168 221q-12 -13 -27 -13q-16 0 -28 13t-12 28q0 14 12.5 26t25.5 12v0q24 0 36 -22q12 -24 -7 -44zM168 118q-12 -13 -27 -13q-16 0 -28 13t-12 28q0 14 12.5 26t25.5 12v0q24 0 36 -22q12 -24 -7 -44z
M168 15q-12 -13 -27 -13q-16 0 -28 13t-12 28q0 14 12.5 26t25.5 12v0q24 0 36 -22q12 -24 -7 -44zM66 15q-12 -13 -27 -13q-16 0 -28 13t-12 28q0 14 12.5 26t25.5 12v0q24 0 36 -22q12 -24 -7 -44zM270 14q-12 -13 -27 -13q-16 0 -28 13t-12 28q0 14 12.5 26t25.5 12v0
q24 0 36 -22q12 -24 -7 -44z" />
    <glyph glyph-name="m" unicode="m" 
d="M487 533q-12 -13 -27 -13q-16 0 -28 13t-12 28q0 14 12.5 26t25.5 12v0q24 0 36 -22q12 -24 -7 -44zM283 533q-12 -13 -27 -13q-16 0 -28 13t-12 28q0 14 12.5 26t25.5 12v0q24 0 36 -22q12 -24 -7 -44zM67 529q-12 -13 -27 -13q-16 0 -28 13t-12 28q0 14 12.5 26
t25.5 12v0q24 0 36 -22q12 -24 -7 -44zM384 431q-12 -13 -27 -13q-16 0 -28 13t-12 28q0 14 12.5 26t25.5 12v0q24 0 36 -22q12 -24 -7 -44zM588 430q-12 -13 -27 -13q-16 0 -28 13t-12 28q0 14 12.5 26t25.5 12v0q24 0 36 -22q12 -24 -7 -44zM168 427q-12 -13 -27 -13
q-16 0 -28 13t-12 28q0 14 12.5 26t25.5 12v0q24 0 36 -22q12 -24 -7 -44zM384 328q-12 -13 -27 -13q-16 0 -28 13t-12 29q0 13 12 25t26 12v0q23 0 35 -23q13 -23 -6 -43zM588 327q-12 -13 -27 -13q-16 0 -28 13t-12 29q0 13 12 25t26 12v0q23 0 35 -23q13 -23 -6 -43z
M168 324q-12 -13 -27 -13q-16 0 -28 13t-12 29q0 13 12 25t26 12v0q23 0 35 -23q13 -23 -6 -43zM384 225q-12 -13 -27 -13q-16 0 -28 13t-12 28q0 14 12.5 26t25.5 12v0q24 0 36 -22q12 -24 -7 -44zM588 224q-12 -13 -27 -13q-16 0 -28 13t-12 28q0 14 12.5 26t25.5 12v0
q24 0 36 -22q12 -24 -7 -44zM168 221q-12 -13 -27 -13q-16 0 -28 13t-12 28q0 14 12.5 26t25.5 12v0q24 0 36 -22q12 -24 -7 -44zM384 122q-12 -13 -27 -13q-16 0 -28 13t-12 28q0 14 12.5 26t25.5 12v0q24 0 36 -22q12 -24 -7 -44zM588 121q-12 -13 -27 -13q-16 0 -28 13
t-12 28q0 14 12.5 26t25.5 12v0q24 0 36 -22q12 -24 -7 -44zM168 118q-12 -13 -27 -13q-16 0 -28 13t-12 28q0 14 12.5 26t25.5 12v0q24 0 36 -22q12 -24 -7 -44zM384 19q-12 -13 -27 -13q-16 0 -28 13t-12 28q0 14 12.5 26t25.5 12v0q24 0 36 -22q12 -24 -7 -44zM588 18
q-12 -13 -27 -13q-16 0 -28 13t-12 28q0 14 12.5 26t25.5 12v0q24 0 36 -22q12 -24 -7 -44zM168 15q-12 -13 -27 -13q-16 0 -28 13t-12 28q0 14 12.5 26t25.5 12v0q24 0 36 -22q12 -24 -7 -44zM66 15q-12 -13 -27 -13q-16 0 -28 13t-12 28q0 14 12.5 26t25.5 12v0
q24 0 36 -22q12 -24 -7 -44zM684 14q-12 -13 -27 -13q-16 0 -28 13t-12 28q0 14 12.5 26t25.5 12v0q24 0 36 -22q12 -24 -7 -44z" />
    <glyph glyph-name="n" unicode="n" 
d="M169 529q-12 -13 -27 -13q-16 0 -28 13t-12 28q0 14 12.5 26t25.5 12v0q24 0 36 -22q12 -24 -7 -44zM67 529q-12 -13 -27 -13q-16 0 -28 13t-12 28q0 14 12.5 26t25.5 12v0q24 0 36 -22q12 -24 -7 -44zM475 528q-12 -13 -27 -13q-16 0 -28 13t-12 28q0 14 12.5 26
t25.5 12v0q24 0 36 -22q12 -24 -7 -44zM373 528q-12 -13 -27 -13q-16 0 -28 13t-12 28q0 14 12.5 26t25.5 12v0q24 0 36 -22q12 -24 -7 -44zM168 427q-12 -13 -27 -13q-16 0 -28 13t-12 28q0 14 12.5 26t25.5 12v0q24 0 36 -22q12 -24 -7 -44zM576 426q-12 -13 -27 -13
q-16 0 -28 13t-12 28q0 14 12.5 26t25.5 12v0q24 0 36 -22q12 -24 -7 -44zM270 426q-12 -13 -27 -13q-16 0 -28 13t-12 28q0 14 12.5 26t25.5 12v0q24 0 36 -22q12 -24 -7 -44zM168 324q-12 -13 -27 -13q-16 0 -28 13t-12 29q0 13 12 25t26 12v0q23 0 35 -23q13 -23 -6 -43z
M576 323q-12 -13 -27 -13q-16 0 -28 13t-12 29q0 13 12 25t26 12v0q23 0 35 -23q13 -23 -6 -43zM168 221q-12 -13 -27 -13q-16 0 -28 13t-12 28q0 14 12.5 26t25.5 12v0q24 0 36 -22q12 -24 -7 -44zM576 220q-12 -13 -27 -13q-16 0 -28 13t-12 28q0 14 12.5 26t25.5 12v0
q24 0 36 -22q12 -24 -7 -44zM168 118q-12 -13 -27 -13q-16 0 -28 13t-12 28q0 14 12.5 26t25.5 12v0q24 0 36 -22q12 -24 -7 -44zM576 117q-12 -13 -27 -13q-16 0 -28 13t-12 28q0 14 12.5 26t25.5 12v0q24 0 36 -22q12 -24 -7 -44zM168 15q-12 -13 -27 -13q-16 0 -28 13
t-12 28q0 14 12.5 26t25.5 12v0q24 0 36 -22q12 -24 -7 -44zM66 15q-12 -13 -27 -13q-16 0 -28 13t-12 28q0 14 12.5 26t25.5 12v0q24 0 36 -22q12 -24 -7 -44zM576 14q-12 -13 -27 -13q-16 0 -28 13t-12 28q0 14 12.5 26t25.5 12v0q24 0 36 -22q12 -24 -7 -44zM270 14
q-12 -13 -27 -13q-16 0 -28 13t-12 28q0 14 12.5 26t25.5 12v0q24 0 36 -22q12 -24 -7 -44zM678 13q-12 -13 -27 -13q-16 0 -28 13t-12 28q0 14 12.5 26t25.5 12v0q24 0 36 -22q12 -24 -7 -44z" />
    <glyph glyph-name="o" unicode="o" horiz-adv-x="665" 
d="M168 521q-12 -13 -27 -13q-16 0 -28 13t-12 28q0 14 12.5 26t25.5 12v0q24 0 36 -22q12 -24 -7 -44zM474 520q-12 -13 -27 -13q-16 0 -28 13t-12 28q0 14 12.5 26t25.5 12v0q24 0 36 -22q12 -24 -7 -44zM372 520q-12 -13 -27 -13q-16 0 -28 13t-12 28q0 14 12.5 26
t25.5 12v0q24 0 36 -22q12 -24 -7 -44zM270 520q-12 -13 -27 -13q-16 0 -28 13t-12 28q0 14 12.5 26t25.5 12v0q24 0 36 -22q12 -24 -7 -44zM66 427q-12 -13 -27 -13q-16 0 -28 13t-12 28q0 14 12.5 26t25.5 12v0q24 0 36 -22q12 -24 -7 -44zM576 426q-12 -13 -27 -13
q-16 0 -28 13t-12 28q0 14 12.5 26t25.5 12v0q24 0 36 -22q12 -24 -7 -44zM66 324q-12 -13 -27 -13q-16 0 -28 13t-12 29q0 13 12 25t26 12v0q23 0 35 -23q13 -23 -6 -43zM576 323q-12 -13 -27 -13q-16 0 -28 13t-12 29q0 13 12 25t26 12v0q23 0 35 -23q13 -23 -6 -43z
M66 221q-12 -13 -27 -13q-16 0 -28 13t-12 28q0 14 12.5 26t25.5 12v0q24 0 36 -22q12 -24 -7 -44zM576 220q-12 -13 -27 -13q-16 0 -28 13t-12 28q0 14 12.5 26t25.5 12v0q24 0 36 -22q12 -24 -7 -44zM66 118q-12 -13 -27 -13q-16 0 -28 13t-12 28q0 14 12.5 26t25.5 12v0
q24 0 36 -22q12 -24 -7 -44zM576 117q-12 -13 -27 -13q-16 0 -28 13t-12 28q0 14 12.5 26t25.5 12v0q24 0 36 -22q12 -24 -7 -44zM168 15q-12 -13 -27 -13q-16 0 -28 13t-12 28q0 14 12.5 26t25.5 12v0q24 0 36 -22q12 -24 -7 -44zM474 14q-12 -13 -27 -13q-16 0 -28 13
t-12 28q0 14 12.5 26t25.5 12v0q24 0 36 -22q12 -24 -7 -44zM372 14q-12 -13 -27 -13q-16 0 -28 13t-12 28q0 14 12.5 26t25.5 12v0q24 0 36 -22q12 -24 -7 -44zM270 14q-12 -13 -27 -13q-16 0 -28 13t-12 28q0 14 12.5 26t25.5 12v0q24 0 36 -22q12 -24 -7 -44z" />
    <glyph glyph-name="p" unicode="p" horiz-adv-x="665" 
d="M169 529q-12 -13 -27 -13q-16 0 -28 13t-12 28q0 14 12.5 26t25.5 12v0q24 0 36 -22q12 -24 -7 -44zM67 529q-12 -13 -27 -13q-16 0 -28 13t-12 28q0 14 12.5 26t25.5 12v0q24 0 36 -22q12 -24 -7 -44zM475 528q-12 -13 -27 -13q-16 0 -28 13t-12 28q0 14 12.5 26
t25.5 12v0q24 0 36 -22q12 -24 -7 -44zM373 528q-12 -13 -27 -13q-16 0 -28 13t-12 28q0 14 12.5 26t25.5 12v0q24 0 36 -22q12 -24 -7 -44zM281 438q-12 -13 -27 -13q-16 0 -28 13t-12 28q0 14 12.5 26t25.5 12v0q24 0 36 -22q12 -24 -7 -44zM168 427q-12 -13 -27 -13
q-16 0 -28 13t-12 28q0 14 12.5 26t25.5 12v0q24 0 36 -22q12 -24 -7 -44zM576 426q-12 -13 -27 -13q-16 0 -28 13t-12 28q0 14 12.5 26t25.5 12v0q24 0 36 -22q12 -24 -7 -44zM168 324q-12 -13 -27 -13q-16 0 -28 13t-12 29q0 13 12 25t26 12v0q23 0 35 -23q13 -23 -6 -43z
M576 323q-12 -13 -27 -13q-16 0 -28 13t-12 29q0 13 12 25t26 12v0q23 0 35 -23q13 -23 -6 -43zM168 221q-12 -13 -27 -13q-16 0 -28 13t-12 28q0 14 12.5 26t25.5 12v0q24 0 36 -22q12 -24 -7 -44zM576 220q-12 -13 -27 -13q-16 0 -28 13t-12 28q0 14 12.5 26t25.5 12v0
q24 0 36 -22q12 -24 -7 -44zM168 118q-12 -13 -27 -13q-16 0 -28 13t-12 28q0 14 12.5 26t25.5 12v0q24 0 36 -22q12 -24 -7 -44zM474 117q-12 -13 -27 -13q-16 0 -28 13t-12 28q0 14 12.5 26t25.5 12v0q24 0 36 -22q12 -24 -7 -44zM372 117q-12 -13 -27 -13q-16 0 -28 13
t-12 28q0 14 12.5 26t25.5 12v0q24 0 36 -22q12 -24 -7 -44zM270 117q-12 -13 -27 -13q-16 0 -28 13t-12 28q0 14 12.5 26t25.5 12v0q24 0 36 -22q12 -24 -7 -44zM168 15q-12 -13 -27 -13q-16 0 -28 13t-12 28q0 14 12.5 26t25.5 12v0q24 0 36 -22q12 -24 -7 -44zM163 -92
q-12 -13 -27 -13q-16 0 -28 13t-12 28q0 14 12.5 26t25.5 12v0q24 0 36 -22q12 -24 -7 -44zM61 -92q-12 -13 -27 -13q-16 0 -28 13t-12 28q0 14 12.5 26t25.5 12v0q24 0 36 -22q12 -24 -7 -44zM265 -93q-12 -13 -27 -13q-16 0 -28 13t-12 28q0 14 12.5 26t25.5 12v0
q24 0 36 -22q12 -24 -7 -44z" />
    <glyph glyph-name="q" unicode="q" horiz-adv-x="665" 
d="M595 524q-12 -13 -27 -13q-16 0 -28 12.5t-12 28.5q0 13 12 25.5t26 12.5v0q23 0 36 -22q12 -23 -7 -44zM493 524q-12 -13 -27 -13q-16 0 -28 12.5t-12 28.5q0 13 12 25.5t26 12.5v0q23 0 36 -22q12 -23 -7 -44zM289 523q-12 -13 -27 -13q-16 0 -28 12.5t-12 28.5
q0 13 12 25.5t26 12.5v0q23 0 36 -22q12 -23 -7 -44zM187 523q-12 -13 -27 -13q-16 0 -28 12.5t-12 28.5q0 13 12 25.5t26 12.5v0q23 0 36 -22q12 -23 -7 -44zM396 423q-12 -13 -27 -13q-16 0 -28 12.5t-12 28.5q0 13 12 25.5t26 12.5v0q23 0 36 -22q12 -23 -7 -44zM494 422
q-12 -13 -27 -13q-16 0 -28 12.5t-12 28.5q0 13 12 25.5t26 12.5v0q23 0 36 -22q12 -23 -7 -44zM86 421q-12 -13 -27 -13q-16 0 -28 12.5t-12 28.5q0 13 12 25.5t26 12.5v0q23 0 36 -22q12 -23 -7 -44zM494 319q-12 -13 -27 -13q-16 0 -28 12.5t-12 27.5q0 14 12.5 26.5
t26.5 12.5v0q23 0 35 -23t-7 -43zM86 318q-12 -13 -27 -13q-16 0 -28 12.5t-12 27.5q0 14 12.5 26.5t26.5 12.5v0q23 0 35 -23t-7 -43zM494 216q-12 -13 -27 -13q-16 0 -28 12.5t-12 28.5q0 13 12 25.5t26 12.5v0q23 0 36 -22q12 -23 -7 -44zM86 215q-12 -13 -27 -13
q-16 0 -28 12.5t-12 28.5q0 13 12 25.5t26 12.5v0q23 0 36 -22q12 -23 -7 -44zM494 113q-12 -13 -27 -13q-16 0 -28 12.5t-12 28.5q0 13 12 25.5t26 12.5v0q23 0 36 -22q12 -23 -7 -44zM392 112q-12 -13 -27 -13q-16 0 -28 12.5t-12 28.5q0 13 12 25.5t26 12.5v0
q23 0 36 -22q12 -23 -7 -44zM290 112q-12 -13 -27 -13q-16 0 -28 12.5t-12 28.5q0 13 12 25.5t26 12.5v0q23 0 36 -22q12 -23 -7 -44zM188 112q-12 -13 -27 -13q-16 0 -28 12.5t-12 28.5q0 13 12 25.5t26 12.5v0q23 0 36 -22q12 -23 -7 -44zM494 10q-12 -13 -27 -13
q-16 0 -28 12.5t-12 28.5q0 13 12 25.5t26 12.5v0q23 0 36 -22q12 -23 -7 -44zM601 -97q-12 -13 -27 -13q-16 0 -28 12.5t-12 28.5q0 13 12 25.5t26 12.5v0q23 0 36 -22q12 -23 -7 -44zM499 -97q-12 -13 -27 -13q-16 0 -28 12.5t-12 28.5q0 13 12 25.5t26 12.5v0
q23 0 36 -22q12 -23 -7 -44zM397 -98q-12 -13 -27 -13q-16 0 -28 12.5t-12 28.5q0 13 12 25.5t26 12.5v0q23 0 36 -22q12 -23 -7 -44z" />
    <glyph glyph-name="r" unicode="r" horiz-adv-x="645" 
d="M168 521q-12 -13 -27 -13q-16 0 -28 13t-12 28q0 14 12.5 26t25.5 12v0q24 0 36 -22q12 -24 -7 -44zM66 521q-12 -13 -27 -13q-16 0 -28 13t-12 28q0 14 12.5 26t25.5 12v0q24 0 36 -22q12 -24 -7 -44zM474 520q-12 -13 -27 -13q-16 0 -28 13t-12 28q0 14 12.5 26
t25.5 12v0q24 0 36 -22q12 -24 -7 -44zM372 520q-12 -13 -27 -13q-16 0 -28 13t-12 28q0 14 12.5 26t25.5 12v0q24 0 36 -22q12 -24 -7 -44zM169 419q-12 -13 -27 -13q-16 0 -28 13t-12 28q0 14 12.5 26t25.5 12v0q24 0 36 -22q12 -24 -7 -44zM577 418q-12 -13 -27 -13
q-16 0 -28 13t-12 28q0 14 12.5 26t25.5 12v0q24 0 36 -22q12 -24 -7 -44zM271 418q-12 -13 -27 -13q-16 0 -28 13t-12 28q0 14 12.5 26t25.5 12v0q24 0 36 -22q12 -24 -7 -44zM168 317q-12 -13 -27 -13q-16 0 -28 13t-12 28q0 14 12.5 26t25.5 12v0q24 0 36 -22
q12 -24 -7 -44zM168 221q-12 -13 -27 -13q-16 0 -28 13t-12 28q0 14 12.5 26t25.5 12v0q24 0 36 -22q12 -24 -7 -44zM168 118q-12 -13 -27 -13q-16 0 -28 13t-12 28q0 14 12.5 26t25.5 12v0q24 0 36 -22q12 -24 -7 -44zM168 15q-12 -13 -27 -13q-16 0 -28 13t-12 28
q0 14 12.5 26t25.5 12v0q24 0 36 -22q12 -24 -7 -44zM66 15q-12 -13 -27 -13q-16 0 -28 13t-12 28q0 14 12.5 26t25.5 12v0q24 0 36 -22q12 -24 -7 -44zM270 14q-12 -13 -27 -13q-16 0 -28 13t-12 28q0 14 12.5 26t25.5 12v0q24 0 36 -22q12 -24 -7 -44z" />
    <glyph glyph-name="s" unicode="s" horiz-adv-x="660" 
d="M169 529q-12 -13 -27 -13q-16 0 -28 13t-12 28q0 14 12.5 26t25.5 12v0q24 0 36 -22q12 -24 -7 -44zM475 528q-12 -13 -27 -13q-16 0 -28 13t-12 28q0 14 12.5 26t25.5 12v0q24 0 36 -22q12 -24 -7 -44zM373 528q-12 -13 -27 -13q-16 0 -28 13t-12 28q0 14 12.5 26
t25.5 12v0q24 0 36 -22q12 -24 -7 -44zM271 528q-12 -13 -27 -13q-16 0 -28 13t-12 28q0 14 12.5 26t25.5 12v0q24 0 36 -22q12 -24 -7 -44zM66 427q-12 -13 -27 -13q-16 0 -28 13t-12 28q0 14 12.5 26t25.5 12v0q24 0 36 -22q12 -24 -7 -44zM576 426q-12 -13 -27 -13
q-16 0 -28 13t-12 28q0 14 12.5 26t25.5 12v0q24 0 36 -22q12 -24 -7 -44zM168 324q-12 -13 -27 -13q-16 0 -28 13t-12 29q0 13 12 25t26 12v0q23 0 35 -23q13 -23 -6 -43zM372 323q-12 -13 -27 -13q-16 0 -28 13t-12 29q0 13 12 25t26 12v0q23 0 35 -23q13 -23 -6 -43z
M270 323q-12 -13 -27 -13q-16 0 -28 13t-12 29q0 13 12 25t26 12v0q23 0 35 -23q13 -23 -6 -43zM474 220q-12 -13 -27 -13q-16 0 -28 13t-12 28q0 14 12.5 26t25.5 12v0q24 0 36 -22q12 -24 -7 -44zM66 118q-12 -13 -27 -13q-16 0 -28 13t-12 28q0 14 12.5 26t25.5 12v0
q24 0 36 -22q12 -24 -7 -44zM576 117q-12 -13 -27 -13q-16 0 -28 13t-12 28q0 14 12.5 26t25.5 12v0q24 0 36 -22q12 -24 -7 -44zM168 15q-12 -13 -27 -13q-16 0 -28 13t-12 28q0 14 12.5 26t25.5 12v0q24 0 36 -22q12 -24 -7 -44zM474 14q-12 -13 -27 -13q-16 0 -28 13
t-12 28q0 14 12.5 26t25.5 12v0q24 0 36 -22q12 -24 -7 -44zM372 14q-12 -13 -27 -13q-16 0 -28 13t-12 28q0 14 12.5 26t25.5 12v0q24 0 36 -22q12 -24 -7 -44zM270 14q-12 -13 -27 -13q-16 0 -28 13t-12 28q0 14 12.5 26t25.5 12v0q24 0 36 -22q12 -24 -7 -44z" />
    <glyph glyph-name="t" unicode="t" horiz-adv-x="650" 
d="M168 733q-12 -13 -27 -13q-16 0 -28 13t-12 28q0 14 12.5 26t25.5 12v0q24 0 36 -22q12 -24 -7 -44zM66 733q-12 -13 -27 -13q-16 0 -28 13t-12 28q0 14 12.5 26t25.5 12v0q24 0 36 -22q12 -24 -7 -44zM168 631q-12 -13 -27 -13q-16 0 -28 13t-12 28q0 14 12.5 26
t25.5 12v0q24 0 36 -22q12 -24 -7 -44zM376 543q-12 -13 -27 -13q-16 0 -28 13t-12 28q0 14 12.5 26t25.5 12v0q24 0 36 -22q12 -24 -7 -44zM67 539q-12 -13 -27 -13q-16 0 -28 13t-12 28q0 14 12.5 26t25.5 12v0q24 0 36 -22q12 -24 -7 -44zM271 538q-12 -13 -27 -13
q-16 0 -28 13t-12 28q0 14 12.5 26t25.5 12v0q24 0 36 -22q12 -24 -7 -44zM169 529q-12 -13 -27 -13q-16 0 -28 13t-12 28q0 14 12.5 26t25.5 12v0q24 0 36 -22q12 -24 -7 -44zM168 427q-12 -13 -27 -13q-16 0 -28 13t-12 28q0 14 12.5 26t25.5 12v0q24 0 36 -22
q12 -24 -7 -44zM168 324q-12 -13 -27 -13q-16 0 -28 13t-12 29q0 13 12 25t26 12v0q23 0 35 -23q13 -23 -6 -43zM168 221q-12 -13 -27 -13q-16 0 -28 13t-12 28q0 14 12.5 26t25.5 12v0q24 0 36 -22q12 -24 -7 -44zM168 118q-12 -13 -27 -13q-16 0 -28 13t-12 28
q0 14 12.5 26t25.5 12v0q24 0 36 -22q12 -24 -7 -44zM576 117q-12 -13 -27 -13q-16 0 -28 13t-12 28q0 14 12.5 26t25.5 12v0q24 0 36 -22q12 -24 -7 -44zM474 14q-12 -13 -27 -13q-16 0 -28 13t-12 28q0 14 12.5 26t25.5 12v0q24 0 36 -22q12 -24 -7 -44zM372 14
q-12 -13 -27 -13q-16 0 -28 13t-12 28q0 14 12.5 26t25.5 12v0q24 0 36 -22q12 -24 -7 -44zM270 14q-12 -13 -27 -13q-16 0 -28 13t-12 28q0 14 12.5 26t25.5 12v0q24 0 36 -22q12 -24 -7 -44z" />
    <glyph glyph-name="u" unicode="u" horiz-adv-x="760" 
d="M67 529q-12 -13 -27 -13q-16 0 -28 13t-12 28q0 14 12.5 26t25.5 12v0q24 0 36 -22q12 -24 -7 -44zM577 528q-12 -13 -27 -13q-16 0 -28 13t-12 28q0 14 12.5 26t25.5 12v0q24 0 36 -22q12 -24 -7 -44zM66 427q-12 -13 -27 -13q-16 0 -28 13t-12 28q0 14 12.5 26t25.5 12
v0q24 0 36 -22q12 -24 -7 -44zM576 426q-12 -13 -27 -13q-16 0 -28 13t-12 28q0 14 12.5 26t25.5 12v0q24 0 36 -22q12 -24 -7 -44zM66 324q-12 -13 -27 -13q-16 0 -28 13t-12 29q0 13 12 25t26 12v0q23 0 35 -23q13 -23 -6 -43zM576 323q-12 -13 -27 -13q-16 0 -28 13
t-12 29q0 13 12 25t26 12v0q23 0 35 -23q13 -23 -6 -43zM66 221q-12 -13 -27 -13q-16 0 -28 13t-12 28q0 14 12.5 26t25.5 12v0q24 0 36 -22q12 -24 -7 -44zM576 220q-12 -13 -27 -13q-16 0 -28 13t-12 28q0 14 12.5 26t25.5 12v0q24 0 36 -22q12 -24 -7 -44zM66 118
q-12 -13 -27 -13q-16 0 -28 13t-12 28q0 14 12.5 26t25.5 12v0q24 0 36 -22q12 -24 -7 -44zM576 117q-12 -13 -27 -13q-16 0 -28 13t-12 28q0 14 12.5 26t25.5 12v0q24 0 36 -22q12 -24 -7 -44zM474 117q-12 -13 -27 -13q-16 0 -28 13t-12 28q0 14 12.5 26t25.5 12v0
q24 0 36 -22q12 -24 -7 -44zM168 15q-12 -13 -27 -13q-16 0 -28 13t-12 28q0 14 12.5 26t25.5 12v0q24 0 36 -22q12 -24 -7 -44zM576 14q-12 -13 -27 -13q-16 0 -28 13t-12 28q0 14 12.5 26t25.5 12v0q24 0 36 -22q12 -24 -7 -44zM372 14q-12 -13 -27 -13q-16 0 -28 13
t-12 28q0 14 12.5 26t25.5 12v0q24 0 36 -22q12 -24 -7 -44zM270 14q-12 -13 -27 -13q-16 0 -28 13t-12 28q0 14 12.5 26t25.5 12v0q24 0 36 -22q12 -24 -7 -44zM678 13q-12 -13 -27 -13q-16 0 -28 13t-12 28q0 14 12.5 26t25.5 12v0q24 0 36 -22q12 -24 -7 -44z" />
    <glyph glyph-name="v" unicode="v" horiz-adv-x="560" 
d="M67 529q-12 -13 -27 -13q-16 0 -28 13t-12 28q0 14 12.5 26t25.5 12v0q24 0 36 -22q12 -24 -7 -44zM475 528q-12 -13 -27 -13q-16 0 -28 13t-12 28q0 14 12.5 26t25.5 12v0q24 0 36 -22q12 -24 -7 -44zM66 427q-12 -13 -27 -13q-16 0 -28 13t-12 28q0 14 12.5 26t25.5 12
v0q24 0 36 -22q12 -24 -7 -44zM474 426q-12 -13 -27 -13q-16 0 -28 13t-12 28q0 14 12.5 26t25.5 12v0q24 0 36 -22q12 -24 -7 -44zM66 324q-12 -13 -27 -13q-16 0 -28 13t-12 29q0 13 12 25t26 12v0q23 0 35 -23q13 -23 -6 -43zM474 323q-12 -13 -27 -13q-16 0 -28 13
t-12 29q0 13 12 25t26 12v0q23 0 35 -23q13 -23 -6 -43zM66 221q-12 -13 -27 -13q-16 0 -28 13t-12 28q0 14 12.5 26t25.5 12v0q24 0 36 -22q12 -24 -7 -44zM474 220q-12 -13 -27 -13q-16 0 -28 13t-12 28q0 14 12.5 26t25.5 12v0q24 0 36 -22q12 -24 -7 -44zM168 118
q-12 -13 -27 -13q-16 0 -28 13t-12 28q0 14 12.5 26t25.5 12v0q24 0 36 -22q12 -24 -7 -44zM372 117q-12 -13 -27 -13q-16 0 -28 13t-12 28q0 14 12.5 26t25.5 12v0q24 0 36 -22q12 -24 -7 -44zM270 14q-12 -13 -27 -13q-16 0 -28 13t-12 28q0 14 12.5 26t25.5 12v0
q24 0 36 -22q12 -24 -7 -44z" />
    <glyph glyph-name="w" unicode="w" 
d="M67 529q-12 -13 -27 -13q-16 0 -28 13t-12 28q0 14 12.5 26t25.5 12v0q24 0 36 -22q12 -24 -7 -44zM679 527q-12 -13 -27 -13q-16 0 -28 13t-12 28q0 14 12.5 26t25.5 12v0q24 0 36 -22q12 -24 -7 -44zM66 427q-12 -13 -27 -13q-16 0 -28 13t-12 28q0 14 12.5 26t25.5 12
v0q24 0 36 -22q12 -24 -7 -44zM678 425q-12 -13 -27 -13q-16 0 -28 13t-12 28q0 14 12.5 26t25.5 12v0q24 0 36 -22q12 -24 -7 -44zM66 324q-12 -13 -27 -13q-16 0 -28 13t-12 29q0 13 12 25t26 12v0q23 0 35 -23q13 -23 -6 -43zM678 322q-12 -13 -27 -13q-16 0 -28 13
t-12 29q0 13 12 25t26 12v0q23 0 35 -23q13 -23 -6 -43zM66 221q-12 -13 -27 -13q-16 0 -28 13t-12 28q0 14 12.5 26t25.5 12v0q24 0 36 -22q12 -24 -7 -44zM372 220q-12 -13 -27 -13q-16 0 -28 13t-12 28q0 14 12.5 26t25.5 12v0q24 0 36 -22q12 -24 -7 -44zM678 219
q-12 -13 -27 -13q-16 0 -28 13t-12 28q0 14 12.5 26t25.5 12v0q24 0 36 -22q12 -24 -7 -44zM66 118q-12 -13 -27 -13q-16 0 -28 13t-12 28q0 14 12.5 26t25.5 12v0q24 0 36 -22q12 -24 -7 -44zM474 117q-12 -13 -27 -13q-16 0 -28 13t-12 28q0 14 12.5 26t25.5 12v0
q24 0 36 -22q12 -24 -7 -44zM372 117q-12 -13 -27 -13q-16 0 -28 13t-12 28q0 14 12.5 26t25.5 12v0q24 0 36 -22q12 -24 -7 -44zM270 117q-12 -13 -27 -13q-16 0 -28 13t-12 28q0 14 12.5 26t25.5 12v0q24 0 36 -22q12 -24 -7 -44zM678 116q-12 -13 -27 -13q-16 0 -28 13
t-12 28q0 14 12.5 26t25.5 12v0q24 0 36 -22q12 -24 -7 -44zM168 15q-12 -13 -27 -13q-16 0 -28 13t-12 28q0 14 12.5 26t25.5 12v0q24 0 36 -22q12 -24 -7 -44zM576 14q-12 -13 -27 -13q-16 0 -28 13t-12 28q0 14 12.5 26t25.5 12v0q24 0 36 -22q12 -24 -7 -44zM372 14
q-12 -13 -27 -13q-16 0 -28 13t-12 28q0 14 12.5 26t25.5 12v0q24 0 36 -22q12 -24 -7 -44z" />
    <glyph glyph-name="x" unicode="x" horiz-adv-x="545" 
d="M67 529q-12 -13 -27 -13q-16 0 -28 13t-12 28q0 14 12.5 26t25.5 12v0q24 0 36 -22q12 -24 -7 -44zM475 528q-12 -13 -27 -13q-16 0 -28 13t-12 28q0 14 12.5 26t25.5 12v0q24 0 36 -22q12 -24 -7 -44zM168 427q-12 -13 -27 -13q-16 0 -28 13t-12 28q0 14 12.5 26
t25.5 12v0q24 0 36 -22q12 -24 -7 -44zM372 426q-12 -13 -27 -13q-16 0 -28 13t-12 28q0 14 12.5 26t25.5 12v0q24 0 36 -22q12 -24 -7 -44zM270 323q-12 -13 -27 -13q-16 0 -28 13t-12 29q0 13 12 25t26 12v0q23 0 35 -23q13 -23 -6 -43zM270 220q-12 -13 -27 -13
q-16 0 -28 13t-12 28q0 14 12.5 26t25.5 12v0q24 0 36 -22q12 -24 -7 -44zM168 118q-12 -13 -27 -13q-16 0 -28 13t-12 28q0 14 12.5 26t25.5 12v0q24 0 36 -22q12 -24 -7 -44zM372 117q-12 -13 -27 -13q-16 0 -28 13t-12 28q0 14 12.5 26t25.5 12v0q24 0 36 -22
q12 -24 -7 -44zM66 15q-12 -13 -27 -13q-16 0 -28 13t-12 28q0 14 12.5 26t25.5 12v0q24 0 36 -22q12 -24 -7 -44zM474 14q-12 -13 -27 -13q-16 0 -28 13t-12 28q0 14 12.5 26t25.5 12v0q24 0 36 -22q12 -24 -7 -44z" />
    <glyph glyph-name="y" unicode="y" 
d="M64 529q-12 -13 -27 -13q-16 0 -28 13t-12 28q0 14 12.5 26t25.5 12v0q24 0 36 -22q12 -24 -7 -44zM679 527q-12 -13 -27 -13q-16 0 -28 13t-12 28q0 14 12.5 26t25.5 12v0q24 0 36 -22q12 -24 -7 -44zM578 525q-12 -13 -27 -13q-16 0 -28 13t-12 28q0 14 12.5 26
t25.5 12v0q24 0 36 -22q12 -24 -7 -44zM66 427q-12 -13 -27 -13q-16 0 -28 13t-12 28q0 14 12.5 26t25.5 12v0q24 0 36 -22q12 -24 -7 -44zM578 422q-12 -13 -27 -13q-16 0 -28 13t-12 29q0 13 12 25t26 12v0q23 0 35 -23q13 -23 -6 -43zM66 324q-12 -13 -27 -13
q-16 0 -28 13t-12 29q0 13 12 25t26 12v0q23 0 35 -23q13 -23 -6 -43zM578 319q-12 -13 -27 -13q-16 0 -28 13t-12 28q0 14 12.5 26t25.5 12v0q24 0 36 -22q12 -24 -7 -44zM168 221q-12 -13 -27 -13q-16 0 -28 13t-12 28q0 14 12.5 26t25.5 12v0q24 0 36 -22q12 -24 -7 -44z
M576 220q-12 -13 -27 -13q-16 0 -28 13t-12 28q0 14 12.5 26t25.5 12v0q24 0 36 -22q12 -24 -7 -44zM474 220q-12 -13 -27 -13q-16 0 -28 13t-12 28q0 14 12.5 26t25.5 12v0q24 0 36 -22q12 -24 -7 -44zM372 220q-12 -13 -27 -13q-16 0 -28 13t-12 28q0 14 12.5 26t25.5 12
v0q24 0 36 -22q12 -24 -7 -44zM270 220q-12 -13 -27 -13q-16 0 -28 13t-12 28q0 14 12.5 26t25.5 12v0q24 0 36 -22q12 -24 -7 -44zM573 116q-12 -13 -27 -13q-16 0 -28 13t-12 28q0 14 12.5 26t25.5 12v0q24 0 36 -22q12 -24 -7 -44zM66 15q-12 -13 -27 -13q-16 0 -28 13
t-12 28q0 14 12.5 26t25.5 12v0q24 0 36 -22q12 -24 -7 -44zM573 13q-12 -13 -27 -13q-16 0 -28 13t-12 28q0 14 12.5 26t25.5 12v0q24 0 36 -22q12 -24 -7 -44zM168 -92q-12 -13 -27 -13q-16 0 -28 13t-12 28q0 14 12.5 26t25.5 12v0q24 0 36 -22q12 -24 -7 -44zM474 -93
q-12 -13 -27 -13q-16 0 -28 13t-12 28q0 14 12.5 26t25.5 12v0q24 0 36 -22q12 -24 -7 -44zM372 -93q-12 -13 -27 -13q-16 0 -28 13t-12 28q0 14 12.5 26t25.5 12v0q24 0 36 -22q12 -24 -7 -44zM270 -93q-12 -13 -27 -13q-16 0 -28 13t-12 28q0 14 12.5 26t25.5 12v0
q24 0 36 -22q12 -24 -7 -44z" />
    <glyph glyph-name="z" unicode="z" horiz-adv-x="555" 
d="M169 529q-12 -13 -27 -13q-16 0 -28 13t-12 28q0 14 12.5 26t25.5 12v0q24 0 36 -22q12 -24 -7 -44zM67 529q-12 -13 -27 -13q-16 0 -28 13t-12 28q0 14 12.5 26t25.5 12v0q24 0 36 -22q12 -24 -7 -44zM475 528q-12 -13 -27 -13q-16 0 -28 13t-12 28q0 14 12.5 26
t25.5 12v0q24 0 36 -22q12 -24 -7 -44zM373 528q-12 -13 -27 -13q-16 0 -28 13t-12 28q0 14 12.5 26t25.5 12v0q24 0 36 -22q12 -24 -7 -44zM271 528q-12 -13 -27 -13q-16 0 -28 13t-12 28q0 14 12.5 26t25.5 12v0q24 0 36 -22q12 -24 -7 -44zM66 427q-12 -13 -27 -13
q-16 0 -28 13t-12 28q0 14 12.5 26t25.5 12v0q24 0 36 -22q12 -24 -7 -44zM474 426q-12 -13 -27 -13q-16 0 -28 13t-12 28q0 14 12.5 26t25.5 12v0q24 0 36 -22q12 -24 -7 -44zM372 323q-12 -13 -27 -13q-16 0 -28 13t-12 29q0 13 12 25t26 12v0q23 0 35 -23q13 -23 -6 -43z
M270 220q-12 -13 -27 -13q-16 0 -28 13t-12 28q0 14 12.5 26t25.5 12v0q24 0 36 -22q12 -24 -7 -44zM168 118q-12 -13 -27 -13q-16 0 -28 13t-12 28q0 14 12.5 26t25.5 12v0q24 0 36 -22q12 -24 -7 -44zM474 117q-12 -13 -27 -13q-16 0 -28 13t-12 28q0 14 12.5 26t25.5 12
v0q24 0 36 -22q12 -24 -7 -44zM168 15q-12 -13 -27 -13q-16 0 -28 13t-12 28q0 14 12.5 26t25.5 12v0q24 0 36 -22q12 -24 -7 -44zM66 15q-12 -13 -27 -13q-16 0 -28 13t-12 28q0 14 12.5 26t25.5 12v0q24 0 36 -22q12 -24 -7 -44zM474 14q-12 -13 -27 -13q-16 0 -28 13
t-12 28q0 14 12.5 26t25.5 12v0q24 0 36 -22q12 -24 -7 -44zM372 14q-12 -13 -27 -13q-16 0 -28 13t-12 28q0 14 12.5 26t25.5 12v0q24 0 36 -22q12 -24 -7 -44zM270 14q-12 -13 -27 -13q-16 0 -28 13t-12 28q0 14 12.5 26t25.5 12v0q24 0 36 -22q12 -24 -7 -44z" />
    <glyph glyph-name="braceleft" unicode="{" horiz-adv-x="465" 
d="M372 732q-12 -13 -27 -13q-16 0 -28 13t-12 28q0 14 12.5 26t25.5 12v0q24 0 36 -22q12 -24 -7 -44zM270 732q-12 -13 -27 -13q-16 0 -28 13t-12 28q0 14 12.5 26t25.5 12v0q24 0 36 -22q12 -24 -7 -44zM168 631q-12 -13 -27 -13q-16 0 -28 13t-12 28q0 14 12.5 26
t25.5 12v0q24 0 36 -22q12 -24 -7 -44zM169 529q-12 -13 -27 -13q-16 0 -28 13t-12 28q0 14 12.5 26t25.5 12v0q24 0 36 -22q12 -24 -7 -44zM168 427q-12 -13 -27 -13q-16 0 -28 13t-12 28q0 14 12.5 26t25.5 12v0q24 0 36 -22q12 -24 -7 -44zM66 324q-12 -13 -27 -13
q-16 0 -28 13t-12 29q0 13 12 25t26 12v0q23 0 35 -23q13 -23 -6 -43zM168 221q-12 -13 -27 -13q-16 0 -28 13t-12 28q0 14 12.5 26t25.5 12v0q24 0 36 -22q12 -24 -7 -44zM168 118q-12 -13 -27 -13q-16 0 -28 13t-12 28q0 14 12.5 26t25.5 12v0q24 0 36 -22q12 -24 -7 -44z
M168 15q-12 -13 -27 -13q-16 0 -28 13t-12 28q0 14 12.5 26t25.5 12v0q24 0 36 -22q12 -24 -7 -44zM372 -98q-12 -13 -27 -13q-16 0 -28 13t-12 28q0 14 12.5 26t25.5 12v0q24 0 36 -22q12 -24 -7 -44zM270 -98q-12 -13 -27 -13q-16 0 -28 13t-12 28q0 14 12.5 26t25.5 12v0
q24 0 36 -22q12 -24 -7 -44z" />
    <glyph glyph-name="bar" unicode="|" horiz-adv-x="170" 
d="M66 733q-12 -13 -27 -13q-16 0 -28 13t-12 28q0 14 12.5 26t25.5 12v0q24 0 36 -22q12 -24 -7 -44zM66 631q-12 -13 -27 -13q-16 0 -28 13t-12 28q0 14 12.5 26t25.5 12v0q24 0 36 -22q12 -24 -7 -44zM67 529q-12 -13 -27 -13q-16 0 -28 13t-12 28q0 14 12.5 26t25.5 12
v0q24 0 36 -22q12 -24 -7 -44zM66 427q-12 -13 -27 -13q-16 0 -28 13t-12 28q0 14 12.5 26t25.5 12v0q24 0 36 -22q12 -24 -7 -44zM66 324q-12 -13 -27 -13q-16 0 -28 13t-12 29q0 13 12 25t26 12v0q23 0 35 -23q13 -23 -6 -43zM66 221q-12 -13 -27 -13q-16 0 -28 13t-12 28
q0 14 12.5 26t25.5 12v0q24 0 36 -22q12 -24 -7 -44zM66 118q-12 -13 -27 -13q-16 0 -28 13t-12 28q0 14 12.5 26t25.5 12v0q24 0 36 -22q12 -24 -7 -44zM66 15q-12 -13 -27 -13q-16 0 -28 13t-12 28q0 14 12.5 26t25.5 12v0q24 0 36 -22q12 -24 -7 -44zM66 -100
q-12 -13 -27 -13q-16 0 -28 13t-12 28q0 14 12.5 26t25.5 12v0q24 0 36 -22q12 -24 -7 -44z" />
    <glyph glyph-name="braceright" unicode="}" horiz-adv-x="465" 
d="M193 737q-12 -13 -27 -13q-16 0 -28 12.5t-12 28.5q0 13 12 25.5t26 12.5v0q23 0 36 -22q12 -23 -7 -44zM91 737q-12 -13 -27 -13q-16 0 -28 12.5t-12 28.5q0 13 12 25.5t26 12.5v0q23 0 36 -22q12 -23 -7 -44zM295 636q-12 -13 -27 -13q-16 0 -28 12.5t-12 28.5
q0 13 12 25.5t26 12.5v0q23 0 36 -22q12 -23 -7 -44zM294 534q-12 -13 -27 -13q-16 0 -28 12.5t-12 28.5q0 13 12 25.5t26 12.5v0q23 0 36 -22q12 -23 -7 -44zM295 432q-12 -13 -27 -13q-16 0 -28 12.5t-12 28.5q0 13 12 25.5t26 12.5v0q23 0 36 -22q12 -23 -7 -44zM397 329
q-12 -13 -27 -13q-16 0 -28 12.5t-12 27.5q0 14 12.5 26.5t26.5 12.5v0q23 0 35 -23t-7 -43zM295 226q-12 -13 -27 -13q-16 0 -28 12.5t-12 28.5q0 13 12 25.5t26 12.5v0q23 0 36 -22q12 -23 -7 -44zM295 123q-12 -13 -27 -13q-16 0 -28 12.5t-12 28.5q0 13 12 25.5t26 12.5
v0q23 0 36 -22q12 -23 -7 -44zM295 20q-12 -13 -27 -13q-16 0 -28 12.5t-12 28.5q0 13 12 25.5t26 12.5v0q23 0 36 -22q12 -23 -7 -44zM193 -93q-12 -13 -27 -13q-16 0 -28 12.5t-12 28.5q0 13 12 25.5t26 12.5v0q23 0 36 -22q12 -23 -7 -44zM91 -93q-12 -13 -27 -13
q-16 0 -28 12.5t-12 28.5q0 13 12 25.5t26 12.5v0q23 0 36 -22q12 -23 -7 -44z" />
    <glyph glyph-name="asciitilde" unicode="~" horiz-adv-x="455" 
d="M168 733q-12 -13 -27 -13q-16 0 -28 13t-12 28q0 14 12.5 26t25.5 12v0q24 0 36 -22q12 -24 -7 -44zM372 732q-12 -13 -27 -13q-16 0 -28 13t-12 28q0 14 12.5 26t25.5 12v0q24 0 36 -22q12 -24 -7 -44zM66 631q-12 -13 -27 -13q-16 0 -28 13t-12 28q0 14 12.5 26
t25.5 12v0q24 0 36 -22q12 -24 -7 -44zM270 630q-12 -13 -27 -13q-16 0 -28 13t-12 28q0 14 12.5 26t25.5 12v0q24 0 36 -22q12 -24 -7 -44z" />
    <glyph glyph-name="Adieresis" unicode="&#xc4;" 
d="M266 823q-12 -13 -27 -13q-16 0 -28 13t-12 28q0 14 12.5 26t25.5 12v0q24 0 36 -22q12 -24 -7 -44zM487 822q-12 -13 -27 -13q-16 0 -28 13t-12 28q0 14 12.5 26t25.5 12v0q24 0 36 -22q12 -24 -7 -44zM168 623q-12 -13 -27 -13q-16 0 -28 13t-12 28q0 14 12.5 26
t25.5 12v0q24 0 36 -22q12 -24 -7 -44zM576 622q-12 -13 -27 -13q-16 0 -28 13t-12 28q0 14 12.5 26t25.5 12v0q24 0 36 -22q12 -24 -7 -44zM474 622q-12 -13 -27 -13q-16 0 -28 13t-12 28q0 14 12.5 26t25.5 12v0q24 0 36 -22q12 -24 -7 -44zM372 622q-12 -13 -27 -13
q-16 0 -28 13t-12 28q0 14 12.5 26t25.5 12v0q24 0 36 -22q12 -24 -7 -44zM270 622q-12 -13 -27 -13q-16 0 -28 13t-12 28q0 14 12.5 26t25.5 12v0q24 0 36 -22q12 -24 -7 -44zM66 521q-12 -13 -27 -13q-16 0 -28 13t-12 28q0 14 12.5 26t25.5 12v0q24 0 36 -22
q12 -24 -7 -44zM678 519q-12 -13 -27 -13q-16 0 -28 13t-12 28q0 14 12.5 26t25.5 12v0q24 0 36 -22q12 -24 -7 -44zM66 427q-12 -13 -27 -13q-16 0 -28 13t-12 28q0 14 12.5 26t25.5 12v0q24 0 36 -22q12 -24 -7 -44zM678 425q-12 -13 -27 -13q-16 0 -28 13t-12 28
q0 14 12.5 26t25.5 12v0q24 0 36 -22q12 -24 -7 -44zM168 324q-12 -13 -27 -13q-16 0 -28 13t-12 29q0 13 12 25t26 12v0q23 0 35 -23q13 -23 -6 -43zM66 324q-12 -13 -27 -13q-16 0 -28 13t-12 29q0 13 12 25t26 12v0q23 0 35 -23q13 -23 -6 -43zM576 323q-12 -13 -27 -13
q-16 0 -28 13t-12 29q0 13 12 25t26 12v0q23 0 35 -23q13 -23 -6 -43zM474 323q-12 -13 -27 -13q-16 0 -28 13t-12 29q0 13 12 25t26 12v0q23 0 35 -23q13 -23 -6 -43zM372 323q-12 -13 -27 -13q-16 0 -28 13t-12 29q0 13 12 25t26 12v0q23 0 35 -23q13 -23 -6 -43zM270 323
q-12 -13 -27 -13q-16 0 -28 13t-12 29q0 13 12 25t26 12v0q23 0 35 -23q13 -23 -6 -43zM678 322q-12 -13 -27 -13q-16 0 -28 13t-12 29q0 13 12 25t26 12v0q23 0 35 -23q13 -23 -6 -43zM66 221q-12 -13 -27 -13q-16 0 -28 13t-12 28q0 14 12.5 26t25.5 12v0q24 0 36 -22
q12 -24 -7 -44zM678 219q-12 -13 -27 -13q-16 0 -28 13t-12 28q0 14 12.5 26t25.5 12v0q24 0 36 -22q12 -24 -7 -44zM66 118q-12 -13 -27 -13q-16 0 -28 13t-12 28q0 14 12.5 26t25.5 12v0q24 0 36 -22q12 -24 -7 -44zM678 116q-12 -13 -27 -13q-16 0 -28 13t-12 28
q0 14 12.5 26t25.5 12v0q24 0 36 -22q12 -24 -7 -44zM66 15q-12 -13 -27 -13q-16 0 -28 13t-12 28q0 14 12.5 26t25.5 12v0q24 0 36 -22q12 -24 -7 -44zM678 13q-12 -13 -27 -13q-16 0 -28 13t-12 28q0 14 12.5 26t25.5 12v0q24 0 36 -22q12 -24 -7 -44z" />
    <glyph glyph-name="Aring" unicode="&#xc5;" 
d="M393 818q-12 -13 -27 -13q-16 0 -28 13t-12 28q0 14 12.5 26t25.5 12v0q24 0 36 -22q12 -24 -7 -44zM488 728q-12 -13 -27 -13q-16 0 -28 13t-12 28q0 14 12.5 26t25.5 12v0q24 0 36 -22q12 -24 -7 -44zM291 716q-12 -13 -27 -13q-16 0 -28 13t-12 28q0 14 12.5 26
t25.5 12v0q24 0 36 -22q12 -24 -7 -44zM386 626q-12 -13 -27 -13q-16 0 -28 13t-12 28q0 14 12.5 26t25.5 12v0q24 0 36 -22q12 -24 -7 -44zM173 523q-12 -13 -27 -13q-16 0 -28 13t-12 28q0 14 12.5 26t25.5 12v0q24 0 36 -22q12 -24 -7 -44zM581 522q-12 -13 -27 -13
q-16 0 -28 13t-12 28q0 14 12.5 26t25.5 12v0q24 0 36 -22q12 -24 -7 -44zM479 522q-12 -13 -27 -13q-16 0 -28 13t-12 28q0 14 12.5 26t25.5 12v0q24 0 36 -22q12 -24 -7 -44zM377 522q-12 -13 -27 -13q-16 0 -28 13t-12 28q0 14 12.5 26t25.5 12v0q24 0 36 -22
q12 -24 -7 -44zM275 522q-12 -13 -27 -13q-16 0 -28 13t-12 28q0 14 12.5 26t25.5 12v0q24 0 36 -22q12 -24 -7 -44zM71 421q-12 -13 -27 -13q-16 0 -28 13t-12 28q0 14 12.5 26t25.5 12v0q24 0 36 -22q12 -24 -7 -44zM683 419q-12 -13 -27 -13q-16 0 -28 13t-12 28
q0 14 12.5 26t25.5 12v0q24 0 36 -22q12 -24 -7 -44zM168 324q-12 -13 -27 -13q-16 0 -28 13t-12 29q0 13 12 25t26 12v0q23 0 35 -23q13 -23 -6 -43zM66 324q-12 -13 -27 -13q-16 0 -28 13t-12 29q0 13 12 25t26 12v0q23 0 35 -23q13 -23 -6 -43zM576 323q-12 -13 -27 -13
q-16 0 -28 13t-12 29q0 13 12 25t26 12v0q23 0 35 -23q13 -23 -6 -43zM474 323q-12 -13 -27 -13q-16 0 -28 13t-12 29q0 13 12 25t26 12v0q23 0 35 -23q13 -23 -6 -43zM372 323q-12 -13 -27 -13q-16 0 -28 13t-12 29q0 13 12 25t26 12v0q23 0 35 -23q13 -23 -6 -43zM270 323
q-12 -13 -27 -13q-16 0 -28 13t-12 29q0 13 12 25t26 12v0q23 0 35 -23q13 -23 -6 -43zM678 322q-12 -13 -27 -13q-16 0 -28 13t-12 29q0 13 12 25t26 12v0q23 0 35 -23q13 -23 -6 -43zM66 221q-12 -13 -27 -13q-16 0 -28 13t-12 28q0 14 12.5 26t25.5 12v0q24 0 36 -22
q12 -24 -7 -44zM678 219q-12 -13 -27 -13q-16 0 -28 13t-12 28q0 14 12.5 26t25.5 12v0q24 0 36 -22q12 -24 -7 -44zM66 118q-12 -13 -27 -13q-16 0 -28 13t-12 28q0 14 12.5 26t25.5 12v0q24 0 36 -22q12 -24 -7 -44zM678 116q-12 -13 -27 -13q-16 0 -28 13t-12 28
q0 14 12.5 26t25.5 12v0q24 0 36 -22q12 -24 -7 -44zM66 15q-12 -13 -27 -13q-16 0 -28 13t-12 28q0 14 12.5 26t25.5 12v0q24 0 36 -22q12 -24 -7 -44zM678 13q-12 -13 -27 -13q-16 0 -28 13t-12 28q0 14 12.5 26t25.5 12v0q24 0 36 -22q12 -24 -7 -44z" />
    <glyph glyph-name="Ccedilla" unicode="&#xc7;" 
d="M168 733q-12 -13 -27 -13q-16 0 -28 13t-12 28q0 14 12.5 26t25.5 12v0q24 0 36 -22q12 -24 -7 -44zM576 732q-12 -13 -27 -13q-16 0 -28 13t-12 28q0 14 12.5 26t25.5 12v0q24 0 36 -22q12 -24 -7 -44zM474 732q-12 -13 -27 -13q-16 0 -28 13t-12 28q0 14 12.5 26
t25.5 12v0q24 0 36 -22q12 -24 -7 -44zM372 732q-12 -13 -27 -13q-16 0 -28 13t-12 28q0 14 12.5 26t25.5 12v0q24 0 36 -22q12 -24 -7 -44zM270 732q-12 -13 -27 -13q-16 0 -28 13t-12 28q0 14 12.5 26t25.5 12v0q24 0 36 -22q12 -24 -7 -44zM66 631q-12 -13 -27 -13
q-16 0 -28 13t-12 28q0 14 12.5 26t25.5 12v0q24 0 36 -22q12 -24 -7 -44zM678 629q-12 -13 -27 -13q-16 0 -28 13t-12 28q0 14 12.5 26t25.5 12v0q24 0 36 -22q12 -24 -7 -44zM67 529q-12 -13 -27 -13q-16 0 -28 13t-12 28q0 14 12.5 26t25.5 12v0q24 0 36 -22
q12 -24 -7 -44zM66 427q-12 -13 -27 -13q-16 0 -28 13t-12 28q0 14 12.5 26t25.5 12v0q24 0 36 -22q12 -24 -7 -44zM66 324q-12 -13 -27 -13q-16 0 -28 13t-12 29q0 13 12 25t26 12v0q23 0 35 -23q13 -23 -6 -43zM66 221q-12 -13 -27 -13q-16 0 -28 13t-12 28q0 14 12.5 26
t25.5 12v0q24 0 36 -22q12 -24 -7 -44zM66 118q-12 -13 -27 -13q-16 0 -28 13t-12 28q0 14 12.5 26t25.5 12v0q24 0 36 -22q12 -24 -7 -44zM678 116q-12 -13 -27 -13q-16 0 -28 13t-12 28q0 14 12.5 26t25.5 12v0q24 0 36 -22q12 -24 -7 -44zM168 15q-12 -13 -27 -13
q-16 0 -28 13t-12 28q0 14 12.5 26t25.5 12v0q24 0 36 -22q12 -24 -7 -44zM576 14q-12 -13 -27 -13q-16 0 -28 13t-12 28q0 14 12.5 26t25.5 12v0q24 0 36 -22q12 -24 -7 -44zM474 14q-12 -13 -27 -13q-16 0 -28 13t-12 28q0 14 12.5 26t25.5 12v0q24 0 36 -22
q12 -24 -7 -44zM372 14q-12 -13 -27 -13q-16 0 -28 13t-12 28q0 14 12.5 26t25.5 12v0q24 0 36 -22q12 -24 -7 -44zM270 14q-12 -13 -27 -13q-16 0 -28 13t-12 28q0 14 12.5 26t25.5 12v0q24 0 36 -22q12 -24 -7 -44zM373 -89q-12 -13 -27 -13q-16 0 -28 13t-12 28
q0 14 12.5 26t25.5 12v0q24 0 36 -22q12 -24 -7 -44z" />
    <glyph glyph-name="Eacute" unicode="&#xc9;" 
d="M468 821q-12 -13 -27 -13q-16 0 -28 13t-12 28q0 14 12.5 26t25.5 12v0q24 0 36 -22q12 -24 -7 -44zM373 726q-12 -13 -27 -13q-16 0 -28 13t-12 28q0 14 12.5 26t25.5 12v0q24 0 36 -22q12 -24 -7 -44zM173 633q-12 -13 -27 -13q-16 0 -28 13t-12 28q0 14 12.5 26
t25.5 12v0q24 0 36 -22q12 -24 -7 -44zM71 633q-12 -13 -27 -13q-16 0 -28 13t-12 28q0 14 12.5 26t25.5 12v0q24 0 36 -22q12 -24 -7 -44zM581 632q-12 -13 -27 -13q-16 0 -28 13t-12 28q0 14 12.5 26t25.5 12v0q24 0 36 -22q12 -24 -7 -44zM479 632q-12 -13 -27 -13
q-16 0 -28 13t-12 28q0 14 12.5 26t25.5 12v0q24 0 36 -22q12 -24 -7 -44zM377 632q-12 -13 -27 -13q-16 0 -28 13t-12 28q0 14 12.5 26t25.5 12v0q24 0 36 -22q12 -24 -7 -44zM275 632q-12 -13 -27 -13q-16 0 -28 13t-12 28q0 14 12.5 26t25.5 12v0q24 0 36 -22
q12 -24 -7 -44zM683 631q-12 -13 -27 -13q-16 0 -28 13t-12 28q0 14 12.5 26t25.5 12v0q24 0 36 -22q12 -24 -7 -44zM71 531q-12 -13 -27 -13q-16 0 -28 13t-12 28q0 14 12.5 26t25.5 12v0q24 0 36 -22q12 -24 -7 -44zM683 529q-12 -13 -27 -13q-16 0 -28 13t-12 28
q0 14 12.5 26t25.5 12v0q24 0 36 -22q12 -24 -7 -44zM72 429q-12 -13 -27 -13q-16 0 -28 13t-12 28q0 14 12.5 26t25.5 12v0q24 0 36 -22q12 -24 -7 -44zM173 327q-12 -13 -27 -13q-16 0 -28 13t-12 28q0 14 12.5 26t25.5 12v0q24 0 36 -22q12 -24 -7 -44zM71 327
q-12 -13 -27 -13q-16 0 -28 13t-12 28q0 14 12.5 26t25.5 12v0q24 0 36 -22q12 -24 -7 -44zM479 326q-12 -13 -27 -13q-16 0 -28 13t-12 28q0 14 12.5 26t25.5 12v0q24 0 36 -22q12 -24 -7 -44zM377 326q-12 -13 -27 -13q-16 0 -28 13t-12 28q0 14 12.5 26t25.5 12v0
q24 0 36 -22q12 -24 -7 -44zM275 326q-12 -13 -27 -13q-16 0 -28 13t-12 28q0 14 12.5 26t25.5 12v0q24 0 36 -22q12 -24 -7 -44zM71 224q-12 -13 -27 -13q-16 0 -28 13t-12 29q0 13 12 25t26 12v0q23 0 35 -23q13 -23 -6 -43zM66 118q-12 -13 -27 -13q-16 0 -28 13t-12 28
q0 14 12.5 26t25.5 12v0q24 0 36 -22q12 -24 -7 -44zM718 76q-12 -13 -27 -13q-16 0 -28 13t-12 28q0 14 12.5 26t25.5 12v0q24 0 36 -22q12 -24 -7 -44zM168 15q-12 -13 -27 -13q-16 0 -28 13t-12 28q0 14 12.5 26t25.5 12v0q24 0 36 -22q12 -24 -7 -44zM66 15
q-12 -13 -27 -13q-16 0 -28 13t-12 28q0 14 12.5 26t25.5 12v0q24 0 36 -22q12 -24 -7 -44zM576 14q-12 -13 -27 -13q-16 0 -28 13t-12 28q0 14 12.5 26t25.5 12v0q24 0 36 -22q12 -24 -7 -44zM474 14q-12 -13 -27 -13q-16 0 -28 13t-12 28q0 14 12.5 26t25.5 12v0
q24 0 36 -22q12 -24 -7 -44zM372 14q-12 -13 -27 -13q-16 0 -28 13t-12 28q0 14 12.5 26t25.5 12v0q24 0 36 -22q12 -24 -7 -44zM270 14q-12 -13 -27 -13q-16 0 -28 13t-12 28q0 14 12.5 26t25.5 12v0q24 0 36 -22q12 -24 -7 -44zM678 13q-12 -13 -27 -13q-16 0 -28 13
t-12 28q0 14 12.5 26t25.5 12v0q24 0 36 -22q12 -24 -7 -44z" />
    <glyph glyph-name="Ntilde" unicode="&#xd1;" 
d="M373 818q-12 -13 -27 -13q-16 0 -28 13t-12 28q0 14 12.5 26t25.5 12v0q24 0 36 -22q12 -24 -7 -44zM577 817q-12 -13 -27 -13q-16 0 -28 13t-12 28q0 14 12.5 26t25.5 12v0q24 0 36 -22q12 -24 -7 -44zM271 716q-12 -13 -27 -13q-16 0 -28 13t-12 28q0 14 12.5 26
t25.5 12v0q24 0 36 -22q12 -24 -7 -44zM475 715q-12 -13 -27 -13q-16 0 -28 13t-12 28q0 14 12.5 26t25.5 12v0q24 0 36 -22q12 -24 -7 -44zM71 638q-12 -13 -27 -13q-16 0 -28 13t-12 28q0 14 12.5 26t25.5 12v0q24 0 36 -22q12 -24 -7 -44zM683 636q-12 -13 -27 -13
q-16 0 -28 13t-12 28q0 14 12.5 26t25.5 12v0q24 0 36 -22q12 -24 -7 -44zM173 536q-12 -13 -27 -13q-16 0 -28 13t-12 28q0 14 12.5 26t25.5 12v0q24 0 36 -22q12 -24 -7 -44zM71 536q-12 -13 -27 -13q-16 0 -28 13t-12 28q0 14 12.5 26t25.5 12v0q24 0 36 -22
q12 -24 -7 -44zM683 534q-12 -13 -27 -13q-16 0 -28 13t-12 28q0 14 12.5 26t25.5 12v0q24 0 36 -22q12 -24 -7 -44zM72 434q-12 -13 -27 -13q-16 0 -28 13t-12 28q0 14 12.5 26t25.5 12v0q24 0 36 -22q12 -24 -7 -44zM276 433q-12 -13 -27 -13q-16 0 -28 13t-12 28
q0 14 12.5 26t25.5 12v0q24 0 36 -22q12 -24 -7 -44zM684 432q-12 -13 -27 -13q-16 0 -28 13t-12 28q0 14 12.5 26t25.5 12v0q24 0 36 -22q12 -24 -7 -44zM71 332q-12 -13 -27 -13q-16 0 -28 13t-12 28q0 14 12.5 26t25.5 12v0q24 0 36 -22q12 -24 -7 -44zM377 331
q-12 -13 -27 -13q-16 0 -28 13t-12 28q0 14 12.5 26t25.5 12v0q24 0 36 -22q12 -24 -7 -44zM683 330q-12 -13 -27 -13q-16 0 -28 13t-12 28q0 14 12.5 26t25.5 12v0q24 0 36 -22q12 -24 -7 -44zM71 229q-12 -13 -27 -13q-16 0 -28 13t-12 29q0 13 12 25t26 12v0q23 0 35 -23
q13 -23 -6 -43zM479 228q-12 -13 -27 -13q-16 0 -28 13t-12 29q0 13 12 25t26 12v0q23 0 35 -23q13 -23 -6 -43zM683 227q-12 -13 -27 -13q-16 0 -28 13t-12 29q0 13 12 25t26 12v0q23 0 35 -23q13 -23 -6 -43zM71 126q-12 -13 -27 -13q-16 0 -28 13t-12 28q0 14 12.5 26
t25.5 12v0q24 0 36 -22q12 -24 -7 -44zM581 125q-12 -13 -27 -13q-16 0 -28 13t-12 28q0 14 12.5 26t25.5 12v0q24 0 36 -22q12 -24 -7 -44zM683 124q-12 -13 -27 -13q-16 0 -28 13t-12 28q0 14 12.5 26t25.5 12v0q24 0 36 -22q12 -24 -7 -44zM71 23q-12 -13 -27 -13
q-16 0 -28 13t-12 28q0 14 12.5 26t25.5 12v0q24 0 36 -22q12 -24 -7 -44zM683 21q-12 -13 -27 -13q-16 0 -28 13t-12 28q0 14 12.5 26t25.5 12v0q24 0 36 -22q12 -24 -7 -44z" />
    <glyph glyph-name="Odieresis" unicode="&#xd6;" 
d="M479 822q-12 -13 -27 -13q-16 0 -28 13t-12 28q0 14 12.5 26t25.5 12v0q24 0 36 -22q12 -24 -7 -44zM275 822q-12 -13 -27 -13q-16 0 -28 13t-12 28q0 14 12.5 26t25.5 12v0q24 0 36 -22q12 -24 -7 -44zM163 633q-12 -13 -27 -13q-16 0 -28 13t-12 28q0 14 12.5 26
t25.5 12v0q24 0 36 -22q12 -24 -7 -44zM571 632q-12 -13 -27 -13q-16 0 -28 13t-12 28q0 14 12.5 26t25.5 12v0q24 0 36 -22q12 -24 -7 -44zM469 632q-12 -13 -27 -13q-16 0 -28 13t-12 28q0 14 12.5 26t25.5 12v0q24 0 36 -22q12 -24 -7 -44zM367 632q-12 -13 -27 -13
q-16 0 -28 13t-12 28q0 14 12.5 26t25.5 12v0q24 0 36 -22q12 -24 -7 -44zM265 632q-12 -13 -27 -13q-16 0 -28 13t-12 28q0 14 12.5 26t25.5 12v0q24 0 36 -22q12 -24 -7 -44zM61 531q-12 -13 -27 -13q-16 0 -28 13t-12 28q0 14 12.5 26t25.5 12v0q24 0 36 -22
q12 -24 -7 -44zM673 529q-12 -13 -27 -13q-16 0 -28 13t-12 28q0 14 12.5 26t25.5 12v0q24 0 36 -22q12 -24 -7 -44zM66 427q-12 -13 -27 -13q-16 0 -28 13t-12 28q0 14 12.5 26t25.5 12v0q24 0 36 -22q12 -24 -7 -44zM678 425q-12 -13 -27 -13q-16 0 -28 13t-12 28
q0 14 12.5 26t25.5 12v0q24 0 36 -22q12 -24 -7 -44zM66 324q-12 -13 -27 -13q-16 0 -28 13t-12 29q0 13 12 25t26 12v0q23 0 35 -23q13 -23 -6 -43zM678 322q-12 -13 -27 -13q-16 0 -28 13t-12 29q0 13 12 25t26 12v0q23 0 35 -23q13 -23 -6 -43zM66 221q-12 -13 -27 -13
q-16 0 -28 13t-12 28q0 14 12.5 26t25.5 12v0q24 0 36 -22q12 -24 -7 -44zM678 219q-12 -13 -27 -13q-16 0 -28 13t-12 28q0 14 12.5 26t25.5 12v0q24 0 36 -22q12 -24 -7 -44zM66 118q-12 -13 -27 -13q-16 0 -28 13t-12 28q0 14 12.5 26t25.5 12v0q24 0 36 -22
q12 -24 -7 -44zM678 116q-12 -13 -27 -13q-16 0 -28 13t-12 28q0 14 12.5 26t25.5 12v0q24 0 36 -22q12 -24 -7 -44zM168 15q-12 -13 -27 -13q-16 0 -28 13t-12 28q0 14 12.5 26t25.5 12v0q24 0 36 -22q12 -24 -7 -44zM576 14q-12 -13 -27 -13q-16 0 -28 13t-12 28
q0 14 12.5 26t25.5 12v0q24 0 36 -22q12 -24 -7 -44zM474 14q-12 -13 -27 -13q-16 0 -28 13t-12 28q0 14 12.5 26t25.5 12v0q24 0 36 -22q12 -24 -7 -44zM372 14q-12 -13 -27 -13q-16 0 -28 13t-12 28q0 14 12.5 26t25.5 12v0q24 0 36 -22q12 -24 -7 -44zM270 14
q-12 -13 -27 -13q-16 0 -28 13t-12 28q0 14 12.5 26t25.5 12v0q24 0 36 -22q12 -24 -7 -44z" />
    <glyph glyph-name="Udieresis" unicode="&#xdc;" 
d="M484 814q-12 -13 -27 -13q-16 0 -28 13t-12 28q0 14 12.5 26t25.5 12v0q24 0 36 -22q12 -24 -7 -44zM280 814q-12 -13 -27 -13q-16 0 -28 13t-12 28q0 14 12.5 26t25.5 12v0q24 0 36 -22q12 -24 -7 -44zM66 733q-12 -13 -27 -13q-16 0 -28 13t-12 28q0 14 12.5 26
t25.5 12v0q24 0 36 -22q12 -24 -7 -44zM678 731q-12 -13 -27 -13q-16 0 -28 13t-12 28q0 14 12.5 26t25.5 12v0q24 0 36 -22q12 -24 -7 -44zM66 631q-12 -13 -27 -13q-16 0 -28 13t-12 28q0 14 12.5 26t25.5 12v0q24 0 36 -22q12 -24 -7 -44zM678 629q-12 -13 -27 -13
q-16 0 -28 13t-12 28q0 14 12.5 26t25.5 12v0q24 0 36 -22q12 -24 -7 -44zM67 529q-12 -13 -27 -13q-16 0 -28 13t-12 28q0 14 12.5 26t25.5 12v0q24 0 36 -22q12 -24 -7 -44zM679 527q-12 -13 -27 -13q-16 0 -28 13t-12 28q0 14 12.5 26t25.5 12v0q24 0 36 -22
q12 -24 -7 -44zM66 427q-12 -13 -27 -13q-16 0 -28 13t-12 28q0 14 12.5 26t25.5 12v0q24 0 36 -22q12 -24 -7 -44zM678 425q-12 -13 -27 -13q-16 0 -28 13t-12 28q0 14 12.5 26t25.5 12v0q24 0 36 -22q12 -24 -7 -44zM66 324q-12 -13 -27 -13q-16 0 -28 13t-12 29
q0 13 12 25t26 12v0q23 0 35 -23q13 -23 -6 -43zM678 322q-12 -13 -27 -13q-16 0 -28 13t-12 29q0 13 12 25t26 12v0q23 0 35 -23q13 -23 -6 -43zM66 221q-12 -13 -27 -13q-16 0 -28 13t-12 28q0 14 12.5 26t25.5 12v0q24 0 36 -22q12 -24 -7 -44zM678 219q-12 -13 -27 -13
q-16 0 -28 13t-12 28q0 14 12.5 26t25.5 12v0q24 0 36 -22q12 -24 -7 -44zM66 118q-12 -13 -27 -13q-16 0 -28 13t-12 28q0 14 12.5 26t25.5 12v0q24 0 36 -22q12 -24 -7 -44zM678 116q-12 -13 -27 -13q-16 0 -28 13t-12 28q0 14 12.5 26t25.5 12v0q24 0 36 -22
q12 -24 -7 -44zM168 15q-12 -13 -27 -13q-16 0 -28 13t-12 28q0 14 12.5 26t25.5 12v0q24 0 36 -22q12 -24 -7 -44zM576 14q-12 -13 -27 -13q-16 0 -28 13t-12 28q0 14 12.5 26t25.5 12v0q24 0 36 -22q12 -24 -7 -44zM474 14q-12 -13 -27 -13q-16 0 -28 13t-12 28
q0 14 12.5 26t25.5 12v0q24 0 36 -22q12 -24 -7 -44zM372 14q-12 -13 -27 -13q-16 0 -28 13t-12 28q0 14 12.5 26t25.5 12v0q24 0 36 -22q12 -24 -7 -44zM270 14q-12 -13 -27 -13q-16 0 -28 13t-12 28q0 14 12.5 26t25.5 12v0q24 0 36 -22q12 -24 -7 -44z" />
    <glyph glyph-name="aacute" unicode="&#xe1;" 
d="M374 729q-12 -13 -27 -13q-16 0 -28 13t-12 28q0 14 12.5 26t25.5 12v0q24 0 36 -22q12 -24 -7 -44zM271 627q-12 -13 -27 -13q-16 0 -28 13t-12 28q0 14 12.5 26t25.5 12v0q24 0 36 -22q12 -24 -7 -44zM169 529q-12 -13 -27 -13q-16 0 -28 13t-12 28q0 14 12.5 26
t25.5 12v0q24 0 36 -22q12 -24 -7 -44zM577 528q-12 -13 -27 -13q-16 0 -28 13t-12 28q0 14 12.5 26t25.5 12v0q24 0 36 -22q12 -24 -7 -44zM373 528q-12 -13 -27 -13q-16 0 -28 13t-12 28q0 14 12.5 26t25.5 12v0q24 0 36 -22q12 -24 -7 -44zM271 528q-12 -13 -27 -13
q-16 0 -28 13t-12 28q0 14 12.5 26t25.5 12v0q24 0 36 -22q12 -24 -7 -44zM470 433q-12 -13 -27 -13q-16 0 -28 13t-12 28q0 14 12.5 26t25.5 12v0q24 0 36 -22q12 -24 -7 -44zM66 427q-12 -13 -27 -13q-16 0 -28 13t-12 28q0 14 12.5 26t25.5 12v0q24 0 36 -22
q12 -24 -7 -44zM576 426q-12 -13 -27 -13q-16 0 -28 13t-12 28q0 14 12.5 26t25.5 12v0q24 0 36 -22q12 -24 -7 -44zM66 324q-12 -13 -27 -13q-16 0 -28 13t-12 29q0 13 12 25t26 12v0q23 0 35 -23q13 -23 -6 -43zM576 323q-12 -13 -27 -13q-16 0 -28 13t-12 29q0 13 12 25
t26 12v0q23 0 35 -23q13 -23 -6 -43zM66 221q-12 -13 -27 -13q-16 0 -28 13t-12 28q0 14 12.5 26t25.5 12v0q24 0 36 -22q12 -24 -7 -44zM576 220q-12 -13 -27 -13q-16 0 -28 13t-12 28q0 14 12.5 26t25.5 12v0q24 0 36 -22q12 -24 -7 -44zM66 118q-12 -13 -27 -13
q-16 0 -28 13t-12 28q0 14 12.5 26t25.5 12v0q24 0 36 -22q12 -24 -7 -44zM576 117q-12 -13 -27 -13q-16 0 -28 13t-12 28q0 14 12.5 26t25.5 12v0q24 0 36 -22q12 -24 -7 -44zM464 114q-12 -13 -27 -13q-16 0 -28 13t-12 28q0 14 12.5 26t25.5 12v0q24 0 36 -22
q12 -24 -7 -44zM168 15q-12 -13 -27 -13q-16 0 -28 13t-12 28q0 14 12.5 26t25.5 12v0q24 0 36 -22q12 -24 -7 -44zM576 14q-12 -13 -27 -13q-16 0 -28 13t-12 28q0 14 12.5 26t25.5 12v0q24 0 36 -22q12 -24 -7 -44zM372 14q-12 -13 -27 -13q-16 0 -28 13t-12 28
q0 14 12.5 26t25.5 12v0q24 0 36 -22q12 -24 -7 -44zM270 14q-12 -13 -27 -13q-16 0 -28 13t-12 28q0 14 12.5 26t25.5 12v0q24 0 36 -22q12 -24 -7 -44zM678 13q-12 -13 -27 -13q-16 0 -28 13t-12 28q0 14 12.5 26t25.5 12v0q24 0 36 -22q12 -24 -7 -44z" />
    <glyph glyph-name="agrave" unicode="&#xe0;" 
d="M173 728q-12 -13 -27 -13q-16 0 -28 13t-12 28q0 14 12.5 26t25.5 12v0q24 0 36 -22q12 -24 -7 -44zM270 633q-12 -13 -27 -13q-16 0 -28 13t-12 28q0 14 12.5 26t25.5 12v0q24 0 36 -22q12 -24 -7 -44zM169 529q-12 -13 -27 -13q-16 0 -28 13t-12 28q0 14 12.5 26
t25.5 12v0q24 0 36 -22q12 -24 -7 -44zM577 528q-12 -13 -27 -13q-16 0 -28 13t-12 28q0 14 12.5 26t25.5 12v0q24 0 36 -22q12 -24 -7 -44zM373 528q-12 -13 -27 -13q-16 0 -28 13t-12 28q0 14 12.5 26t25.5 12v0q24 0 36 -22q12 -24 -7 -44zM271 528q-12 -13 -27 -13
q-16 0 -28 13t-12 28q0 14 12.5 26t25.5 12v0q24 0 36 -22q12 -24 -7 -44zM470 433q-12 -13 -27 -13q-16 0 -28 13t-12 28q0 14 12.5 26t25.5 12v0q24 0 36 -22q12 -24 -7 -44zM66 427q-12 -13 -27 -13q-16 0 -28 13t-12 28q0 14 12.5 26t25.5 12v0q24 0 36 -22
q12 -24 -7 -44zM576 426q-12 -13 -27 -13q-16 0 -28 13t-12 28q0 14 12.5 26t25.5 12v0q24 0 36 -22q12 -24 -7 -44zM66 324q-12 -13 -27 -13q-16 0 -28 13t-12 29q0 13 12 25t26 12v0q23 0 35 -23q13 -23 -6 -43zM576 323q-12 -13 -27 -13q-16 0 -28 13t-12 29q0 13 12 25
t26 12v0q23 0 35 -23q13 -23 -6 -43zM66 221q-12 -13 -27 -13q-16 0 -28 13t-12 28q0 14 12.5 26t25.5 12v0q24 0 36 -22q12 -24 -7 -44zM576 220q-12 -13 -27 -13q-16 0 -28 13t-12 28q0 14 12.5 26t25.5 12v0q24 0 36 -22q12 -24 -7 -44zM66 118q-12 -13 -27 -13
q-16 0 -28 13t-12 28q0 14 12.5 26t25.5 12v0q24 0 36 -22q12 -24 -7 -44zM576 117q-12 -13 -27 -13q-16 0 -28 13t-12 28q0 14 12.5 26t25.5 12v0q24 0 36 -22q12 -24 -7 -44zM464 114q-12 -13 -27 -13q-16 0 -28 13t-12 28q0 14 12.5 26t25.5 12v0q24 0 36 -22
q12 -24 -7 -44zM168 15q-12 -13 -27 -13q-16 0 -28 13t-12 28q0 14 12.5 26t25.5 12v0q24 0 36 -22q12 -24 -7 -44zM576 14q-12 -13 -27 -13q-16 0 -28 13t-12 28q0 14 12.5 26t25.5 12v0q24 0 36 -22q12 -24 -7 -44zM372 14q-12 -13 -27 -13q-16 0 -28 13t-12 28
q0 14 12.5 26t25.5 12v0q24 0 36 -22q12 -24 -7 -44zM270 14q-12 -13 -27 -13q-16 0 -28 13t-12 28q0 14 12.5 26t25.5 12v0q24 0 36 -22q12 -24 -7 -44zM678 13q-12 -13 -27 -13q-16 0 -28 13t-12 28q0 14 12.5 26t25.5 12v0q24 0 36 -22q12 -24 -7 -44z" />
    <glyph glyph-name="acircumflex" unicode="&#xe2;" 
d="M264 734q-12 -13 -27 -13q-16 0 -28 13t-12 28q0 14 12.5 26t25.5 12v0q24 0 36 -22q12 -24 -7 -44zM376 634q-12 -13 -27 -13q-16 0 -28 13t-12 28q0 14 12.5 26t25.5 12v0q24 0 36 -22q12 -24 -7 -44zM172 634q-12 -13 -27 -13q-16 0 -28 13t-12 28q0 14 12.5 26
t25.5 12v0q24 0 36 -22q12 -24 -7 -44zM169 529q-12 -13 -27 -13q-16 0 -28 13t-12 28q0 14 12.5 26t25.5 12v0q24 0 36 -22q12 -24 -7 -44zM577 528q-12 -13 -27 -13q-16 0 -28 13t-12 28q0 14 12.5 26t25.5 12v0q24 0 36 -22q12 -24 -7 -44zM373 528q-12 -13 -27 -13
q-16 0 -28 13t-12 28q0 14 12.5 26t25.5 12v0q24 0 36 -22q12 -24 -7 -44zM271 528q-12 -13 -27 -13q-16 0 -28 13t-12 28q0 14 12.5 26t25.5 12v0q24 0 36 -22q12 -24 -7 -44zM470 433q-12 -13 -27 -13q-16 0 -28 13t-12 28q0 14 12.5 26t25.5 12v0q24 0 36 -22
q12 -24 -7 -44zM66 427q-12 -13 -27 -13q-16 0 -28 13t-12 28q0 14 12.5 26t25.5 12v0q24 0 36 -22q12 -24 -7 -44zM576 426q-12 -13 -27 -13q-16 0 -28 13t-12 28q0 14 12.5 26t25.5 12v0q24 0 36 -22q12 -24 -7 -44zM66 324q-12 -13 -27 -13q-16 0 -28 13t-12 29
q0 13 12 25t26 12v0q23 0 35 -23q13 -23 -6 -43zM576 323q-12 -13 -27 -13q-16 0 -28 13t-12 29q0 13 12 25t26 12v0q23 0 35 -23q13 -23 -6 -43zM66 221q-12 -13 -27 -13q-16 0 -28 13t-12 28q0 14 12.5 26t25.5 12v0q24 0 36 -22q12 -24 -7 -44zM576 220q-12 -13 -27 -13
q-16 0 -28 13t-12 28q0 14 12.5 26t25.5 12v0q24 0 36 -22q12 -24 -7 -44zM66 118q-12 -13 -27 -13q-16 0 -28 13t-12 28q0 14 12.5 26t25.5 12v0q24 0 36 -22q12 -24 -7 -44zM576 117q-12 -13 -27 -13q-16 0 -28 13t-12 28q0 14 12.5 26t25.5 12v0q24 0 36 -22
q12 -24 -7 -44zM464 114q-12 -13 -27 -13q-16 0 -28 13t-12 28q0 14 12.5 26t25.5 12v0q24 0 36 -22q12 -24 -7 -44zM168 15q-12 -13 -27 -13q-16 0 -28 13t-12 28q0 14 12.5 26t25.5 12v0q24 0 36 -22q12 -24 -7 -44zM576 14q-12 -13 -27 -13q-16 0 -28 13t-12 28
q0 14 12.5 26t25.5 12v0q24 0 36 -22q12 -24 -7 -44zM372 14q-12 -13 -27 -13q-16 0 -28 13t-12 28q0 14 12.5 26t25.5 12v0q24 0 36 -22q12 -24 -7 -44zM270 14q-12 -13 -27 -13q-16 0 -28 13t-12 28q0 14 12.5 26t25.5 12v0q24 0 36 -22q12 -24 -7 -44zM678 13
q-12 -13 -27 -13q-16 0 -28 13t-12 28q0 14 12.5 26t25.5 12v0q24 0 36 -22q12 -24 -7 -44z" />
    <glyph glyph-name="adieresis" unicode="&#xe4;" 
d="M174 729q-12 -13 -27 -13q-16 0 -28 13t-12 28q0 14 12.5 26t25.5 12v0q24 0 36 -22q12 -24 -7 -44zM378 728q-12 -13 -27 -13q-16 0 -28 13t-12 28q0 14 12.5 26t25.5 12v0q24 0 36 -22q12 -24 -7 -44zM169 529q-12 -13 -27 -13q-16 0 -28 13t-12 28q0 14 12.5 26
t25.5 12v0q24 0 36 -22q12 -24 -7 -44zM577 528q-12 -13 -27 -13q-16 0 -28 13t-12 28q0 14 12.5 26t25.5 12v0q24 0 36 -22q12 -24 -7 -44zM373 528q-12 -13 -27 -13q-16 0 -28 13t-12 28q0 14 12.5 26t25.5 12v0q24 0 36 -22q12 -24 -7 -44zM271 528q-12 -13 -27 -13
q-16 0 -28 13t-12 28q0 14 12.5 26t25.5 12v0q24 0 36 -22q12 -24 -7 -44zM470 433q-12 -13 -27 -13q-16 0 -28 13t-12 28q0 14 12.5 26t25.5 12v0q24 0 36 -22q12 -24 -7 -44zM66 427q-12 -13 -27 -13q-16 0 -28 13t-12 28q0 14 12.5 26t25.5 12v0q24 0 36 -22
q12 -24 -7 -44zM576 426q-12 -13 -27 -13q-16 0 -28 13t-12 28q0 14 12.5 26t25.5 12v0q24 0 36 -22q12 -24 -7 -44zM66 324q-12 -13 -27 -13q-16 0 -28 13t-12 29q0 13 12 25t26 12v0q23 0 35 -23q13 -23 -6 -43zM576 323q-12 -13 -27 -13q-16 0 -28 13t-12 29q0 13 12 25
t26 12v0q23 0 35 -23q13 -23 -6 -43zM66 221q-12 -13 -27 -13q-16 0 -28 13t-12 28q0 14 12.5 26t25.5 12v0q24 0 36 -22q12 -24 -7 -44zM576 220q-12 -13 -27 -13q-16 0 -28 13t-12 28q0 14 12.5 26t25.5 12v0q24 0 36 -22q12 -24 -7 -44zM66 118q-12 -13 -27 -13
q-16 0 -28 13t-12 28q0 14 12.5 26t25.5 12v0q24 0 36 -22q12 -24 -7 -44zM576 117q-12 -13 -27 -13q-16 0 -28 13t-12 28q0 14 12.5 26t25.5 12v0q24 0 36 -22q12 -24 -7 -44zM464 114q-12 -13 -27 -13q-16 0 -28 13t-12 28q0 14 12.5 26t25.5 12v0q24 0 36 -22
q12 -24 -7 -44zM168 15q-12 -13 -27 -13q-16 0 -28 13t-12 28q0 14 12.5 26t25.5 12v0q24 0 36 -22q12 -24 -7 -44zM576 14q-12 -13 -27 -13q-16 0 -28 13t-12 28q0 14 12.5 26t25.5 12v0q24 0 36 -22q12 -24 -7 -44zM372 14q-12 -13 -27 -13q-16 0 -28 13t-12 28
q0 14 12.5 26t25.5 12v0q24 0 36 -22q12 -24 -7 -44zM270 14q-12 -13 -27 -13q-16 0 -28 13t-12 28q0 14 12.5 26t25.5 12v0q24 0 36 -22q12 -24 -7 -44zM678 13q-12 -13 -27 -13q-16 0 -28 13t-12 28q0 14 12.5 26t25.5 12v0q24 0 36 -22q12 -24 -7 -44z" />
    <glyph glyph-name="atilde" unicode="&#xe3;" 
d="M273 743q-12 -13 -27 -13q-16 0 -28 13t-12 28q0 14 12.5 26t25.5 12v0q24 0 36 -22q12 -24 -7 -44zM477 742q-12 -13 -27 -13q-16 0 -28 13t-12 28q0 14 12.5 26t25.5 12v0q24 0 36 -22q12 -24 -7 -44zM171 641q-12 -13 -27 -13q-16 0 -28 13t-12 28q0 14 12.5 26
t25.5 12v0q24 0 36 -22q12 -24 -7 -44zM375 640q-12 -13 -27 -13q-16 0 -28 13t-12 28q0 14 12.5 26t25.5 12v0q24 0 36 -22q12 -24 -7 -44zM169 529q-12 -13 -27 -13q-16 0 -28 13t-12 28q0 14 12.5 26t25.5 12v0q24 0 36 -22q12 -24 -7 -44zM577 528q-12 -13 -27 -13
q-16 0 -28 13t-12 28q0 14 12.5 26t25.5 12v0q24 0 36 -22q12 -24 -7 -44zM373 528q-12 -13 -27 -13q-16 0 -28 13t-12 28q0 14 12.5 26t25.5 12v0q24 0 36 -22q12 -24 -7 -44zM271 528q-12 -13 -27 -13q-16 0 -28 13t-12 28q0 14 12.5 26t25.5 12v0q24 0 36 -22
q12 -24 -7 -44zM470 433q-12 -13 -27 -13q-16 0 -28 13t-12 28q0 14 12.5 26t25.5 12v0q24 0 36 -22q12 -24 -7 -44zM66 427q-12 -13 -27 -13q-16 0 -28 13t-12 28q0 14 12.5 26t25.5 12v0q24 0 36 -22q12 -24 -7 -44zM576 426q-12 -13 -27 -13q-16 0 -28 13t-12 28
q0 14 12.5 26t25.5 12v0q24 0 36 -22q12 -24 -7 -44zM66 324q-12 -13 -27 -13q-16 0 -28 13t-12 29q0 13 12 25t26 12v0q23 0 35 -23q13 -23 -6 -43zM576 323q-12 -13 -27 -13q-16 0 -28 13t-12 29q0 13 12 25t26 12v0q23 0 35 -23q13 -23 -6 -43zM66 221q-12 -13 -27 -13
q-16 0 -28 13t-12 28q0 14 12.5 26t25.5 12v0q24 0 36 -22q12 -24 -7 -44zM576 220q-12 -13 -27 -13q-16 0 -28 13t-12 28q0 14 12.5 26t25.5 12v0q24 0 36 -22q12 -24 -7 -44zM66 118q-12 -13 -27 -13q-16 0 -28 13t-12 28q0 14 12.5 26t25.5 12v0q24 0 36 -22
q12 -24 -7 -44zM576 117q-12 -13 -27 -13q-16 0 -28 13t-12 28q0 14 12.5 26t25.5 12v0q24 0 36 -22q12 -24 -7 -44zM464 114q-12 -13 -27 -13q-16 0 -28 13t-12 28q0 14 12.5 26t25.5 12v0q24 0 36 -22q12 -24 -7 -44zM168 15q-12 -13 -27 -13q-16 0 -28 13t-12 28
q0 14 12.5 26t25.5 12v0q24 0 36 -22q12 -24 -7 -44zM576 14q-12 -13 -27 -13q-16 0 -28 13t-12 28q0 14 12.5 26t25.5 12v0q24 0 36 -22q12 -24 -7 -44zM372 14q-12 -13 -27 -13q-16 0 -28 13t-12 28q0 14 12.5 26t25.5 12v0q24 0 36 -22q12 -24 -7 -44zM270 14
q-12 -13 -27 -13q-16 0 -28 13t-12 28q0 14 12.5 26t25.5 12v0q24 0 36 -22q12 -24 -7 -44zM678 13q-12 -13 -27 -13q-16 0 -28 13t-12 28q0 14 12.5 26t25.5 12v0q24 0 36 -22q12 -24 -7 -44z" />
    <glyph glyph-name="aring" unicode="&#xe5;" 
d="M289 834q-12 -13 -27 -13q-16 0 -28 13t-12 28q0 14 12.5 26t25.5 12v0q24 0 36 -22q12 -24 -7 -44zM379 734q-12 -13 -27 -13q-16 0 -28 13t-12 28q0 14 12.5 26t25.5 12v0q24 0 36 -22q12 -24 -7 -44zM186 732q-12 -13 -27 -13q-16 0 -28 13t-12 28q0 14 12.5 26
t25.5 12v0q24 0 36 -22q12 -24 -7 -44zM276 632q-12 -13 -27 -13q-16 0 -28 13t-12 28q0 14 12.5 26t25.5 12v0q24 0 36 -22q12 -24 -7 -44zM169 529q-12 -13 -27 -13q-16 0 -28 13t-12 28q0 14 12.5 26t25.5 12v0q24 0 36 -22q12 -24 -7 -44zM577 528q-12 -13 -27 -13
q-16 0 -28 13t-12 28q0 14 12.5 26t25.5 12v0q24 0 36 -22q12 -24 -7 -44zM373 528q-12 -13 -27 -13q-16 0 -28 13t-12 28q0 14 12.5 26t25.5 12v0q24 0 36 -22q12 -24 -7 -44zM271 528q-12 -13 -27 -13q-16 0 -28 13t-12 28q0 14 12.5 26t25.5 12v0q24 0 36 -22
q12 -24 -7 -44zM470 433q-12 -13 -27 -13q-16 0 -28 13t-12 28q0 14 12.5 26t25.5 12v0q24 0 36 -22q12 -24 -7 -44zM66 427q-12 -13 -27 -13q-16 0 -28 13t-12 28q0 14 12.5 26t25.5 12v0q24 0 36 -22q12 -24 -7 -44zM576 426q-12 -13 -27 -13q-16 0 -28 13t-12 28
q0 14 12.5 26t25.5 12v0q24 0 36 -22q12 -24 -7 -44zM66 324q-12 -13 -27 -13q-16 0 -28 13t-12 29q0 13 12 25t26 12v0q23 0 35 -23q13 -23 -6 -43zM576 323q-12 -13 -27 -13q-16 0 -28 13t-12 29q0 13 12 25t26 12v0q23 0 35 -23q13 -23 -6 -43zM66 221q-12 -13 -27 -13
q-16 0 -28 13t-12 28q0 14 12.5 26t25.5 12v0q24 0 36 -22q12 -24 -7 -44zM576 220q-12 -13 -27 -13q-16 0 -28 13t-12 28q0 14 12.5 26t25.5 12v0q24 0 36 -22q12 -24 -7 -44zM66 118q-12 -13 -27 -13q-16 0 -28 13t-12 28q0 14 12.5 26t25.5 12v0q24 0 36 -22
q12 -24 -7 -44zM576 117q-12 -13 -27 -13q-16 0 -28 13t-12 28q0 14 12.5 26t25.5 12v0q24 0 36 -22q12 -24 -7 -44zM464 114q-12 -13 -27 -13q-16 0 -28 13t-12 28q0 14 12.5 26t25.5 12v0q24 0 36 -22q12 -24 -7 -44zM168 15q-12 -13 -27 -13q-16 0 -28 13t-12 28
q0 14 12.5 26t25.5 12v0q24 0 36 -22q12 -24 -7 -44zM576 14q-12 -13 -27 -13q-16 0 -28 13t-12 28q0 14 12.5 26t25.5 12v0q24 0 36 -22q12 -24 -7 -44zM372 14q-12 -13 -27 -13q-16 0 -28 13t-12 28q0 14 12.5 26t25.5 12v0q24 0 36 -22q12 -24 -7 -44zM270 14
q-12 -13 -27 -13q-16 0 -28 13t-12 28q0 14 12.5 26t25.5 12v0q24 0 36 -22q12 -24 -7 -44zM678 13q-12 -13 -27 -13q-16 0 -28 13t-12 28q0 14 12.5 26t25.5 12v0q24 0 36 -22q12 -24 -7 -44z" />
    <glyph glyph-name="ccedilla" unicode="&#xe7;" 
d="M169 529q-12 -13 -27 -13q-16 0 -28 13t-12 28q0 14 12.5 26t25.5 12v0q24 0 36 -22q12 -24 -7 -44zM577 528q-12 -13 -27 -13q-16 0 -28 13t-12 28q0 14 12.5 26t25.5 12v0q24 0 36 -22q12 -24 -7 -44zM475 528q-12 -13 -27 -13q-16 0 -28 13t-12 28q0 14 12.5 26
t25.5 12v0q24 0 36 -22q12 -24 -7 -44zM373 528q-12 -13 -27 -13q-16 0 -28 13t-12 28q0 14 12.5 26t25.5 12v0q24 0 36 -22q12 -24 -7 -44zM271 528q-12 -13 -27 -13q-16 0 -28 13t-12 28q0 14 12.5 26t25.5 12v0q24 0 36 -22q12 -24 -7 -44zM66 427q-12 -13 -27 -13
q-16 0 -28 13t-12 28q0 14 12.5 26t25.5 12v0q24 0 36 -22q12 -24 -7 -44zM678 425q-12 -13 -27 -13q-16 0 -28 13t-12 28q0 14 12.5 26t25.5 12v0q24 0 36 -22q12 -24 -7 -44zM66 324q-12 -13 -27 -13q-16 0 -28 13t-12 29q0 13 12 25t26 12v0q23 0 35 -23q13 -23 -6 -43z
M66 221q-12 -13 -27 -13q-16 0 -28 13t-12 28q0 14 12.5 26t25.5 12v0q24 0 36 -22q12 -24 -7 -44zM66 118q-12 -13 -27 -13q-16 0 -28 13t-12 28q0 14 12.5 26t25.5 12v0q24 0 36 -22q12 -24 -7 -44zM678 116q-12 -13 -27 -13q-16 0 -28 13t-12 28q0 14 12.5 26t25.5 12v0
q24 0 36 -22q12 -24 -7 -44zM168 15q-12 -13 -27 -13q-16 0 -28 13t-12 28q0 14 12.5 26t25.5 12v0q24 0 36 -22q12 -24 -7 -44zM576 14q-12 -13 -27 -13q-16 0 -28 13t-12 28q0 14 12.5 26t25.5 12v0q24 0 36 -22q12 -24 -7 -44zM474 14q-12 -13 -27 -13q-16 0 -28 13
t-12 28q0 14 12.5 26t25.5 12v0q24 0 36 -22q12 -24 -7 -44zM372 14q-12 -13 -27 -13q-16 0 -28 13t-12 28q0 14 12.5 26t25.5 12v0q24 0 36 -22q12 -24 -7 -44zM270 14q-12 -13 -27 -13q-16 0 -28 13t-12 28q0 14 12.5 26t25.5 12v0q24 0 36 -22q12 -24 -7 -44zM372 -81
q-12 -13 -27 -13q-16 0 -28 13t-12 28q0 14 12.5 26t25.5 12v0q24 0 36 -22q12 -24 -7 -44z" />
    <glyph glyph-name="eacute" unicode="&#xe9;" 
d="M479 739q-12 -13 -27 -13q-16 0 -28 13t-12 28q0 14 12.5 26t25.5 12v0q24 0 36 -22q12 -24 -7 -44zM376 637q-12 -13 -27 -13q-16 0 -28 13t-12 28q0 14 12.5 26t25.5 12v0q24 0 36 -22q12 -24 -7 -44zM169 529q-12 -13 -27 -13q-16 0 -28 13t-12 28q0 14 12.5 26
t25.5 12v0q24 0 36 -22q12 -24 -7 -44zM577 528q-12 -13 -27 -13q-16 0 -28 13t-12 28q0 14 12.5 26t25.5 12v0q24 0 36 -22q12 -24 -7 -44zM475 528q-12 -13 -27 -13q-16 0 -28 13t-12 28q0 14 12.5 26t25.5 12v0q24 0 36 -22q12 -24 -7 -44zM373 528q-12 -13 -27 -13
q-16 0 -28 13t-12 28q0 14 12.5 26t25.5 12v0q24 0 36 -22q12 -24 -7 -44zM271 528q-12 -13 -27 -13q-16 0 -28 13t-12 28q0 14 12.5 26t25.5 12v0q24 0 36 -22q12 -24 -7 -44zM66 427q-12 -13 -27 -13q-16 0 -28 13t-12 28q0 14 12.5 26t25.5 12v0q24 0 36 -22
q12 -24 -7 -44zM678 425q-12 -13 -27 -13q-16 0 -28 13t-12 28q0 14 12.5 26t25.5 12v0q24 0 36 -22q12 -24 -7 -44zM168 324q-12 -13 -27 -13q-16 0 -28 13t-12 29q0 13 12 25t26 12v0q23 0 35 -23q13 -23 -6 -43zM66 324q-12 -13 -27 -13q-16 0 -28 13t-12 29q0 13 12 25
t26 12v0q23 0 35 -23q13 -23 -6 -43zM576 323q-12 -13 -27 -13q-16 0 -28 13t-12 29q0 13 12 25t26 12v0q23 0 35 -23q13 -23 -6 -43zM474 323q-12 -13 -27 -13q-16 0 -28 13t-12 29q0 13 12 25t26 12v0q23 0 35 -23q13 -23 -6 -43zM372 323q-12 -13 -27 -13q-16 0 -28 13
t-12 29q0 13 12 25t26 12v0q23 0 35 -23q13 -23 -6 -43zM270 323q-12 -13 -27 -13q-16 0 -28 13t-12 29q0 13 12 25t26 12v0q23 0 35 -23q13 -23 -6 -43zM678 322q-12 -13 -27 -13q-16 0 -28 13t-12 29q0 13 12 25t26 12v0q23 0 35 -23q13 -23 -6 -43zM66 221
q-12 -13 -27 -13q-16 0 -28 13t-12 28q0 14 12.5 26t25.5 12v0q24 0 36 -22q12 -24 -7 -44zM66 118q-12 -13 -27 -13q-16 0 -28 13t-12 28q0 14 12.5 26t25.5 12v0q24 0 36 -22q12 -24 -7 -44zM678 116q-12 -13 -27 -13q-16 0 -28 13t-12 28q0 14 12.5 26t25.5 12v0
q24 0 36 -22q12 -24 -7 -44zM168 15q-12 -13 -27 -13q-16 0 -28 13t-12 28q0 14 12.5 26t25.5 12v0q24 0 36 -22q12 -24 -7 -44zM576 14q-12 -13 -27 -13q-16 0 -28 13t-12 28q0 14 12.5 26t25.5 12v0q24 0 36 -22q12 -24 -7 -44zM474 14q-12 -13 -27 -13q-16 0 -28 13
t-12 28q0 14 12.5 26t25.5 12v0q24 0 36 -22q12 -24 -7 -44zM372 14q-12 -13 -27 -13q-16 0 -28 13t-12 28q0 14 12.5 26t25.5 12v0q24 0 36 -22q12 -24 -7 -44zM270 14q-12 -13 -27 -13q-16 0 -28 13t-12 28q0 14 12.5 26t25.5 12v0q24 0 36 -22q12 -24 -7 -44z" />
    <glyph glyph-name="egrave" unicode="&#xe8;" 
d="M272 728q-12 -13 -27 -13q-16 0 -28 13t-12 28q0 14 12.5 26t25.5 12v0q24 0 36 -22q12 -24 -7 -44zM373 625q-12 -13 -27 -13q-16 0 -28 13t-12 28q0 14 12.5 26t25.5 12v0q24 0 36 -22q12 -24 -7 -44zM169 529q-12 -13 -27 -13q-16 0 -28 13t-12 28q0 14 12.5 26
t25.5 12v0q24 0 36 -22q12 -24 -7 -44zM577 528q-12 -13 -27 -13q-16 0 -28 13t-12 28q0 14 12.5 26t25.5 12v0q24 0 36 -22q12 -24 -7 -44zM475 528q-12 -13 -27 -13q-16 0 -28 13t-12 28q0 14 12.5 26t25.5 12v0q24 0 36 -22q12 -24 -7 -44zM373 528q-12 -13 -27 -13
q-16 0 -28 13t-12 28q0 14 12.5 26t25.5 12v0q24 0 36 -22q12 -24 -7 -44zM271 528q-12 -13 -27 -13q-16 0 -28 13t-12 28q0 14 12.5 26t25.5 12v0q24 0 36 -22q12 -24 -7 -44zM66 427q-12 -13 -27 -13q-16 0 -28 13t-12 28q0 14 12.5 26t25.5 12v0q24 0 36 -22
q12 -24 -7 -44zM678 425q-12 -13 -27 -13q-16 0 -28 13t-12 28q0 14 12.5 26t25.5 12v0q24 0 36 -22q12 -24 -7 -44zM168 324q-12 -13 -27 -13q-16 0 -28 13t-12 29q0 13 12 25t26 12v0q23 0 35 -23q13 -23 -6 -43zM66 324q-12 -13 -27 -13q-16 0 -28 13t-12 29q0 13 12 25
t26 12v0q23 0 35 -23q13 -23 -6 -43zM576 323q-12 -13 -27 -13q-16 0 -28 13t-12 29q0 13 12 25t26 12v0q23 0 35 -23q13 -23 -6 -43zM474 323q-12 -13 -27 -13q-16 0 -28 13t-12 29q0 13 12 25t26 12v0q23 0 35 -23q13 -23 -6 -43zM372 323q-12 -13 -27 -13q-16 0 -28 13
t-12 29q0 13 12 25t26 12v0q23 0 35 -23q13 -23 -6 -43zM270 323q-12 -13 -27 -13q-16 0 -28 13t-12 29q0 13 12 25t26 12v0q23 0 35 -23q13 -23 -6 -43zM678 322q-12 -13 -27 -13q-16 0 -28 13t-12 29q0 13 12 25t26 12v0q23 0 35 -23q13 -23 -6 -43zM66 221
q-12 -13 -27 -13q-16 0 -28 13t-12 28q0 14 12.5 26t25.5 12v0q24 0 36 -22q12 -24 -7 -44zM66 118q-12 -13 -27 -13q-16 0 -28 13t-12 28q0 14 12.5 26t25.5 12v0q24 0 36 -22q12 -24 -7 -44zM678 116q-12 -13 -27 -13q-16 0 -28 13t-12 28q0 14 12.5 26t25.5 12v0
q24 0 36 -22q12 -24 -7 -44zM168 15q-12 -13 -27 -13q-16 0 -28 13t-12 28q0 14 12.5 26t25.5 12v0q24 0 36 -22q12 -24 -7 -44zM576 14q-12 -13 -27 -13q-16 0 -28 13t-12 28q0 14 12.5 26t25.5 12v0q24 0 36 -22q12 -24 -7 -44zM474 14q-12 -13 -27 -13q-16 0 -28 13
t-12 28q0 14 12.5 26t25.5 12v0q24 0 36 -22q12 -24 -7 -44zM372 14q-12 -13 -27 -13q-16 0 -28 13t-12 28q0 14 12.5 26t25.5 12v0q24 0 36 -22q12 -24 -7 -44zM270 14q-12 -13 -27 -13q-16 0 -28 13t-12 28q0 14 12.5 26t25.5 12v0q24 0 36 -22q12 -24 -7 -44z" />
    <glyph glyph-name="ecircumflex" unicode="&#xea;" 
d="M369 734q-12 -13 -27 -13q-16 0 -28 13t-12 28q0 14 12.5 26t25.5 12v0q24 0 36 -22q12 -24 -7 -44zM465 633q-12 -13 -27 -13q-16 0 -28 13t-12 28q0 14 12.5 26t25.5 12v0q24 0 36 -22q12 -24 -7 -44zM266 632q-12 -13 -27 -13q-16 0 -28 13t-12 28q0 14 12.5 26
t25.5 12v0q24 0 36 -22q12 -24 -7 -44zM169 529q-12 -13 -27 -13q-16 0 -28 13t-12 28q0 14 12.5 26t25.5 12v0q24 0 36 -22q12 -24 -7 -44zM577 528q-12 -13 -27 -13q-16 0 -28 13t-12 28q0 14 12.5 26t25.5 12v0q24 0 36 -22q12 -24 -7 -44zM475 528q-12 -13 -27 -13
q-16 0 -28 13t-12 28q0 14 12.5 26t25.5 12v0q24 0 36 -22q12 -24 -7 -44zM373 528q-12 -13 -27 -13q-16 0 -28 13t-12 28q0 14 12.5 26t25.5 12v0q24 0 36 -22q12 -24 -7 -44zM271 528q-12 -13 -27 -13q-16 0 -28 13t-12 28q0 14 12.5 26t25.5 12v0q24 0 36 -22
q12 -24 -7 -44zM66 427q-12 -13 -27 -13q-16 0 -28 13t-12 28q0 14 12.5 26t25.5 12v0q24 0 36 -22q12 -24 -7 -44zM678 425q-12 -13 -27 -13q-16 0 -28 13t-12 28q0 14 12.5 26t25.5 12v0q24 0 36 -22q12 -24 -7 -44zM168 324q-12 -13 -27 -13q-16 0 -28 13t-12 29
q0 13 12 25t26 12v0q23 0 35 -23q13 -23 -6 -43zM66 324q-12 -13 -27 -13q-16 0 -28 13t-12 29q0 13 12 25t26 12v0q23 0 35 -23q13 -23 -6 -43zM576 323q-12 -13 -27 -13q-16 0 -28 13t-12 29q0 13 12 25t26 12v0q23 0 35 -23q13 -23 -6 -43zM474 323q-12 -13 -27 -13
q-16 0 -28 13t-12 29q0 13 12 25t26 12v0q23 0 35 -23q13 -23 -6 -43zM372 323q-12 -13 -27 -13q-16 0 -28 13t-12 29q0 13 12 25t26 12v0q23 0 35 -23q13 -23 -6 -43zM270 323q-12 -13 -27 -13q-16 0 -28 13t-12 29q0 13 12 25t26 12v0q23 0 35 -23q13 -23 -6 -43zM678 322
q-12 -13 -27 -13q-16 0 -28 13t-12 29q0 13 12 25t26 12v0q23 0 35 -23q13 -23 -6 -43zM66 221q-12 -13 -27 -13q-16 0 -28 13t-12 28q0 14 12.5 26t25.5 12v0q24 0 36 -22q12 -24 -7 -44zM66 118q-12 -13 -27 -13q-16 0 -28 13t-12 28q0 14 12.5 26t25.5 12v0q24 0 36 -22
q12 -24 -7 -44zM678 116q-12 -13 -27 -13q-16 0 -28 13t-12 28q0 14 12.5 26t25.5 12v0q24 0 36 -22q12 -24 -7 -44zM168 15q-12 -13 -27 -13q-16 0 -28 13t-12 28q0 14 12.5 26t25.5 12v0q24 0 36 -22q12 -24 -7 -44zM576 14q-12 -13 -27 -13q-16 0 -28 13t-12 28
q0 14 12.5 26t25.5 12v0q24 0 36 -22q12 -24 -7 -44zM474 14q-12 -13 -27 -13q-16 0 -28 13t-12 28q0 14 12.5 26t25.5 12v0q24 0 36 -22q12 -24 -7 -44zM372 14q-12 -13 -27 -13q-16 0 -28 13t-12 28q0 14 12.5 26t25.5 12v0q24 0 36 -22q12 -24 -7 -44zM270 14
q-12 -13 -27 -13q-16 0 -28 13t-12 28q0 14 12.5 26t25.5 12v0q24 0 36 -22q12 -24 -7 -44z" />
    <glyph glyph-name="edieresis" unicode="&#xeb;" 
d="M485 723q-12 -13 -27 -13q-16 0 -28 13t-12 28q0 14 12.5 26t25.5 12v0q24 0 36 -22q12 -24 -7 -44zM281 723q-12 -13 -27 -13q-16 0 -28 13t-12 28q0 14 12.5 26t25.5 12v0q24 0 36 -22q12 -24 -7 -44zM169 529q-12 -13 -27 -13q-16 0 -28 13t-12 28q0 14 12.5 26
t25.5 12v0q24 0 36 -22q12 -24 -7 -44zM577 528q-12 -13 -27 -13q-16 0 -28 13t-12 28q0 14 12.5 26t25.5 12v0q24 0 36 -22q12 -24 -7 -44zM475 528q-12 -13 -27 -13q-16 0 -28 13t-12 28q0 14 12.5 26t25.5 12v0q24 0 36 -22q12 -24 -7 -44zM373 528q-12 -13 -27 -13
q-16 0 -28 13t-12 28q0 14 12.5 26t25.5 12v0q24 0 36 -22q12 -24 -7 -44zM271 528q-12 -13 -27 -13q-16 0 -28 13t-12 28q0 14 12.5 26t25.5 12v0q24 0 36 -22q12 -24 -7 -44zM66 427q-12 -13 -27 -13q-16 0 -28 13t-12 28q0 14 12.5 26t25.5 12v0q24 0 36 -22
q12 -24 -7 -44zM678 425q-12 -13 -27 -13q-16 0 -28 13t-12 28q0 14 12.5 26t25.5 12v0q24 0 36 -22q12 -24 -7 -44zM168 324q-12 -13 -27 -13q-16 0 -28 13t-12 29q0 13 12 25t26 12v0q23 0 35 -23q13 -23 -6 -43zM66 324q-12 -13 -27 -13q-16 0 -28 13t-12 29q0 13 12 25
t26 12v0q23 0 35 -23q13 -23 -6 -43zM576 323q-12 -13 -27 -13q-16 0 -28 13t-12 29q0 13 12 25t26 12v0q23 0 35 -23q13 -23 -6 -43zM474 323q-12 -13 -27 -13q-16 0 -28 13t-12 29q0 13 12 25t26 12v0q23 0 35 -23q13 -23 -6 -43zM372 323q-12 -13 -27 -13q-16 0 -28 13
t-12 29q0 13 12 25t26 12v0q23 0 35 -23q13 -23 -6 -43zM270 323q-12 -13 -27 -13q-16 0 -28 13t-12 29q0 13 12 25t26 12v0q23 0 35 -23q13 -23 -6 -43zM678 322q-12 -13 -27 -13q-16 0 -28 13t-12 29q0 13 12 25t26 12v0q23 0 35 -23q13 -23 -6 -43zM66 221
q-12 -13 -27 -13q-16 0 -28 13t-12 28q0 14 12.5 26t25.5 12v0q24 0 36 -22q12 -24 -7 -44zM66 118q-12 -13 -27 -13q-16 0 -28 13t-12 28q0 14 12.5 26t25.5 12v0q24 0 36 -22q12 -24 -7 -44zM678 116q-12 -13 -27 -13q-16 0 -28 13t-12 28q0 14 12.5 26t25.5 12v0
q24 0 36 -22q12 -24 -7 -44zM168 15q-12 -13 -27 -13q-16 0 -28 13t-12 28q0 14 12.5 26t25.5 12v0q24 0 36 -22q12 -24 -7 -44zM576 14q-12 -13 -27 -13q-16 0 -28 13t-12 28q0 14 12.5 26t25.5 12v0q24 0 36 -22q12 -24 -7 -44zM474 14q-12 -13 -27 -13q-16 0 -28 13
t-12 28q0 14 12.5 26t25.5 12v0q24 0 36 -22q12 -24 -7 -44zM372 14q-12 -13 -27 -13q-16 0 -28 13t-12 28q0 14 12.5 26t25.5 12v0q24 0 36 -22q12 -24 -7 -44zM270 14q-12 -13 -27 -13q-16 0 -28 13t-12 28q0 14 12.5 26t25.5 12v0q24 0 36 -22q12 -24 -7 -44z" />
    <glyph glyph-name="iacute" unicode="&#xed;" horiz-adv-x="360" 
d="M258 823q-12 -13 -27 -13q-16 0 -28 13t-12 28q0 14 12.5 26t25.5 12v0q24 0 36 -22q12 -24 -7 -44zM168 733q-12 -13 -27 -13q-16 0 -28 13t-12 28q0 14 12.5 26t25.5 12v0q24 0 36 -22q12 -24 -7 -44zM169 529q-12 -13 -27 -13q-16 0 -28 13t-12 28q0 14 12.5 26
t25.5 12v0q24 0 36 -22q12 -24 -7 -44zM67 529q-12 -13 -27 -13q-16 0 -28 13t-12 28q0 14 12.5 26t25.5 12v0q24 0 36 -22q12 -24 -7 -44zM271 528q-12 -13 -27 -13q-16 0 -28 13t-12 28q0 14 12.5 26t25.5 12v0q24 0 36 -22q12 -24 -7 -44zM168 427q-12 -13 -27 -13
q-16 0 -28 13t-12 28q0 14 12.5 26t25.5 12v0q24 0 36 -22q12 -24 -7 -44zM168 324q-12 -13 -27 -13q-16 0 -28 13t-12 29q0 13 12 25t26 12v0q23 0 35 -23q13 -23 -6 -43zM168 221q-12 -13 -27 -13q-16 0 -28 13t-12 28q0 14 12.5 26t25.5 12v0q24 0 36 -22q12 -24 -7 -44z
M168 118q-12 -13 -27 -13q-16 0 -28 13t-12 28q0 14 12.5 26t25.5 12v0q24 0 36 -22q12 -24 -7 -44zM168 15q-12 -13 -27 -13q-16 0 -28 13t-12 28q0 14 12.5 26t25.5 12v0q24 0 36 -22q12 -24 -7 -44zM66 15q-12 -13 -27 -13q-16 0 -28 13t-12 28q0 14 12.5 26t25.5 12v0
q24 0 36 -22q12 -24 -7 -44zM270 14q-12 -13 -27 -13q-16 0 -28 13t-12 28q0 14 12.5 26t25.5 12v0q24 0 36 -22q12 -24 -7 -44z" />
    <glyph glyph-name="igrave" unicode="&#xec;" horiz-adv-x="360" 
d="M93 828q-12 -13 -27 -13q-16 0 -28 13t-12 28q0 14 12.5 26t25.5 12v0q24 0 36 -22q12 -24 -7 -44zM168 733q-12 -13 -27 -13q-16 0 -28 13t-12 28q0 14 12.5 26t25.5 12v0q24 0 36 -22q12 -24 -7 -44zM169 529q-12 -13 -27 -13q-16 0 -28 13t-12 28q0 14 12.5 26
t25.5 12v0q24 0 36 -22q12 -24 -7 -44zM67 529q-12 -13 -27 -13q-16 0 -28 13t-12 28q0 14 12.5 26t25.5 12v0q24 0 36 -22q12 -24 -7 -44zM271 528q-12 -13 -27 -13q-16 0 -28 13t-12 28q0 14 12.5 26t25.5 12v0q24 0 36 -22q12 -24 -7 -44zM168 427q-12 -13 -27 -13
q-16 0 -28 13t-12 28q0 14 12.5 26t25.5 12v0q24 0 36 -22q12 -24 -7 -44zM168 324q-12 -13 -27 -13q-16 0 -28 13t-12 29q0 13 12 25t26 12v0q23 0 35 -23q13 -23 -6 -43zM168 221q-12 -13 -27 -13q-16 0 -28 13t-12 28q0 14 12.5 26t25.5 12v0q24 0 36 -22q12 -24 -7 -44z
M168 118q-12 -13 -27 -13q-16 0 -28 13t-12 28q0 14 12.5 26t25.5 12v0q24 0 36 -22q12 -24 -7 -44zM168 15q-12 -13 -27 -13q-16 0 -28 13t-12 28q0 14 12.5 26t25.5 12v0q24 0 36 -22q12 -24 -7 -44zM66 15q-12 -13 -27 -13q-16 0 -28 13t-12 28q0 14 12.5 26t25.5 12v0
q24 0 36 -22q12 -24 -7 -44zM270 14q-12 -13 -27 -13q-16 0 -28 13t-12 28q0 14 12.5 26t25.5 12v0q24 0 36 -22q12 -24 -7 -44z" />
    <glyph glyph-name="icircumflex" unicode="&#xee;" horiz-adv-x="360" 
d="M173 813q-12 -13 -27 -13q-16 0 -28 13t-12 28q0 14 12.5 26t25.5 12v0q24 0 36 -22q12 -24 -7 -44zM67 724q-12 -13 -27 -13q-16 0 -28 13t-12 28q0 14 12.5 26t25.5 12v0q24 0 36 -22q12 -24 -7 -44zM271 723q-12 -13 -27 -13q-16 0 -28 13t-12 28q0 14 12.5 26
t25.5 12v0q24 0 36 -22q12 -24 -7 -44zM169 529q-12 -13 -27 -13q-16 0 -28 13t-12 28q0 14 12.5 26t25.5 12v0q24 0 36 -22q12 -24 -7 -44zM67 529q-12 -13 -27 -13q-16 0 -28 13t-12 28q0 14 12.5 26t25.5 12v0q24 0 36 -22q12 -24 -7 -44zM271 528q-12 -13 -27 -13
q-16 0 -28 13t-12 28q0 14 12.5 26t25.5 12v0q24 0 36 -22q12 -24 -7 -44zM168 427q-12 -13 -27 -13q-16 0 -28 13t-12 28q0 14 12.5 26t25.5 12v0q24 0 36 -22q12 -24 -7 -44zM168 324q-12 -13 -27 -13q-16 0 -28 13t-12 29q0 13 12 25t26 12v0q23 0 35 -23q13 -23 -6 -43z
M168 221q-12 -13 -27 -13q-16 0 -28 13t-12 28q0 14 12.5 26t25.5 12v0q24 0 36 -22q12 -24 -7 -44zM168 118q-12 -13 -27 -13q-16 0 -28 13t-12 28q0 14 12.5 26t25.5 12v0q24 0 36 -22q12 -24 -7 -44zM168 15q-12 -13 -27 -13q-16 0 -28 13t-12 28q0 14 12.5 26t25.5 12v0
q24 0 36 -22q12 -24 -7 -44zM66 15q-12 -13 -27 -13q-16 0 -28 13t-12 28q0 14 12.5 26t25.5 12v0q24 0 36 -22q12 -24 -7 -44zM270 14q-12 -13 -27 -13q-16 0 -28 13t-12 28q0 14 12.5 26t25.5 12v0q24 0 36 -22q12 -24 -7 -44z" />
    <glyph glyph-name="idieresis" unicode="&#xef;" horiz-adv-x="360" 
d="M73 733q-12 -13 -27 -13q-16 0 -28 13t-12 28q0 14 12.5 26t25.5 12v0q24 0 36 -22q12 -24 -7 -44zM268 728q-12 -13 -27 -13q-16 0 -28 13t-12 28q0 14 12.5 26t25.5 12v0q24 0 36 -22q12 -24 -7 -44zM169 529q-12 -13 -27 -13q-16 0 -28 13t-12 28q0 14 12.5 26
t25.5 12v0q24 0 36 -22q12 -24 -7 -44zM67 529q-12 -13 -27 -13q-16 0 -28 13t-12 28q0 14 12.5 26t25.5 12v0q24 0 36 -22q12 -24 -7 -44zM271 528q-12 -13 -27 -13q-16 0 -28 13t-12 28q0 14 12.5 26t25.5 12v0q24 0 36 -22q12 -24 -7 -44zM168 427q-12 -13 -27 -13
q-16 0 -28 13t-12 28q0 14 12.5 26t25.5 12v0q24 0 36 -22q12 -24 -7 -44zM168 324q-12 -13 -27 -13q-16 0 -28 13t-12 29q0 13 12 25t26 12v0q23 0 35 -23q13 -23 -6 -43zM168 221q-12 -13 -27 -13q-16 0 -28 13t-12 28q0 14 12.5 26t25.5 12v0q24 0 36 -22q12 -24 -7 -44z
M168 118q-12 -13 -27 -13q-16 0 -28 13t-12 28q0 14 12.5 26t25.5 12v0q24 0 36 -22q12 -24 -7 -44zM168 15q-12 -13 -27 -13q-16 0 -28 13t-12 28q0 14 12.5 26t25.5 12v0q24 0 36 -22q12 -24 -7 -44zM66 15q-12 -13 -27 -13q-16 0 -28 13t-12 28q0 14 12.5 26t25.5 12v0
q24 0 36 -22q12 -24 -7 -44zM270 14q-12 -13 -27 -13q-16 0 -28 13t-12 28q0 14 12.5 26t25.5 12v0q24 0 36 -22q12 -24 -7 -44z" />
    <glyph glyph-name="ntilde" unicode="&#xf1;" 
d="M273 738q-12 -13 -27 -13q-16 0 -28 13t-12 28q0 14 12.5 26t25.5 12v0q24 0 36 -22q12 -24 -7 -44zM477 737q-12 -13 -27 -13q-16 0 -28 13t-12 28q0 14 12.5 26t25.5 12v0q24 0 36 -22q12 -24 -7 -44zM171 636q-12 -13 -27 -13q-16 0 -28 13t-12 28q0 14 12.5 26
t25.5 12v0q24 0 36 -22q12 -24 -7 -44zM375 635q-12 -13 -27 -13q-16 0 -28 13t-12 28q0 14 12.5 26t25.5 12v0q24 0 36 -22q12 -24 -7 -44zM169 529q-12 -13 -27 -13q-16 0 -28 13t-12 28q0 14 12.5 26t25.5 12v0q24 0 36 -22q12 -24 -7 -44zM67 529q-12 -13 -27 -13
q-16 0 -28 13t-12 28q0 14 12.5 26t25.5 12v0q24 0 36 -22q12 -24 -7 -44zM475 528q-12 -13 -27 -13q-16 0 -28 13t-12 28q0 14 12.5 26t25.5 12v0q24 0 36 -22q12 -24 -7 -44zM373 528q-12 -13 -27 -13q-16 0 -28 13t-12 28q0 14 12.5 26t25.5 12v0q24 0 36 -22
q12 -24 -7 -44zM168 427q-12 -13 -27 -13q-16 0 -28 13t-12 28q0 14 12.5 26t25.5 12v0q24 0 36 -22q12 -24 -7 -44zM576 426q-12 -13 -27 -13q-16 0 -28 13t-12 28q0 14 12.5 26t25.5 12v0q24 0 36 -22q12 -24 -7 -44zM270 426q-12 -13 -27 -13q-16 0 -28 13t-12 28
q0 14 12.5 26t25.5 12v0q24 0 36 -22q12 -24 -7 -44zM168 324q-12 -13 -27 -13q-16 0 -28 13t-12 29q0 13 12 25t26 12v0q23 0 35 -23q13 -23 -6 -43zM576 323q-12 -13 -27 -13q-16 0 -28 13t-12 29q0 13 12 25t26 12v0q23 0 35 -23q13 -23 -6 -43zM168 221q-12 -13 -27 -13
q-16 0 -28 13t-12 28q0 14 12.5 26t25.5 12v0q24 0 36 -22q12 -24 -7 -44zM576 220q-12 -13 -27 -13q-16 0 -28 13t-12 28q0 14 12.5 26t25.5 12v0q24 0 36 -22q12 -24 -7 -44zM168 118q-12 -13 -27 -13q-16 0 -28 13t-12 28q0 14 12.5 26t25.5 12v0q24 0 36 -22
q12 -24 -7 -44zM576 117q-12 -13 -27 -13q-16 0 -28 13t-12 28q0 14 12.5 26t25.5 12v0q24 0 36 -22q12 -24 -7 -44zM168 15q-12 -13 -27 -13q-16 0 -28 13t-12 28q0 14 12.5 26t25.5 12v0q24 0 36 -22q12 -24 -7 -44zM66 15q-12 -13 -27 -13q-16 0 -28 13t-12 28
q0 14 12.5 26t25.5 12v0q24 0 36 -22q12 -24 -7 -44zM576 14q-12 -13 -27 -13q-16 0 -28 13t-12 28q0 14 12.5 26t25.5 12v0q24 0 36 -22q12 -24 -7 -44zM270 14q-12 -13 -27 -13q-16 0 -28 13t-12 28q0 14 12.5 26t25.5 12v0q24 0 36 -22q12 -24 -7 -44zM678 13
q-12 -13 -27 -13q-16 0 -28 13t-12 28q0 14 12.5 26t25.5 12v0q24 0 36 -22q12 -24 -7 -44z" />
    <glyph glyph-name="oacute" unicode="&#xf3;" horiz-adv-x="665" 
d="M368 716q-12 -13 -27 -13q-16 0 -28 13t-12 28q0 14 12.5 26t25.5 12v0q24 0 36 -22q12 -24 -7 -44zM266 622q-12 -13 -27 -13q-16 0 -28 13t-12 28q0 14 12.5 26t25.5 12v0q24 0 36 -22q12 -24 -7 -44zM168 521q-12 -13 -27 -13q-16 0 -28 13t-12 28q0 14 12.5 26
t25.5 12v0q24 0 36 -22q12 -24 -7 -44zM474 520q-12 -13 -27 -13q-16 0 -28 13t-12 28q0 14 12.5 26t25.5 12v0q24 0 36 -22q12 -24 -7 -44zM372 520q-12 -13 -27 -13q-16 0 -28 13t-12 28q0 14 12.5 26t25.5 12v0q24 0 36 -22q12 -24 -7 -44zM270 520q-12 -13 -27 -13
q-16 0 -28 13t-12 28q0 14 12.5 26t25.5 12v0q24 0 36 -22q12 -24 -7 -44zM66 427q-12 -13 -27 -13q-16 0 -28 13t-12 28q0 14 12.5 26t25.5 12v0q24 0 36 -22q12 -24 -7 -44zM576 426q-12 -13 -27 -13q-16 0 -28 13t-12 28q0 14 12.5 26t25.5 12v0q24 0 36 -22
q12 -24 -7 -44zM66 324q-12 -13 -27 -13q-16 0 -28 13t-12 29q0 13 12 25t26 12v0q23 0 35 -23q13 -23 -6 -43zM576 323q-12 -13 -27 -13q-16 0 -28 13t-12 29q0 13 12 25t26 12v0q23 0 35 -23q13 -23 -6 -43zM66 221q-12 -13 -27 -13q-16 0 -28 13t-12 28q0 14 12.5 26
t25.5 12v0q24 0 36 -22q12 -24 -7 -44zM576 220q-12 -13 -27 -13q-16 0 -28 13t-12 28q0 14 12.5 26t25.5 12v0q24 0 36 -22q12 -24 -7 -44zM66 118q-12 -13 -27 -13q-16 0 -28 13t-12 28q0 14 12.5 26t25.5 12v0q24 0 36 -22q12 -24 -7 -44zM576 117q-12 -13 -27 -13
q-16 0 -28 13t-12 28q0 14 12.5 26t25.5 12v0q24 0 36 -22q12 -24 -7 -44zM168 15q-12 -13 -27 -13q-16 0 -28 13t-12 28q0 14 12.5 26t25.5 12v0q24 0 36 -22q12 -24 -7 -44zM474 14q-12 -13 -27 -13q-16 0 -28 13t-12 28q0 14 12.5 26t25.5 12v0q24 0 36 -22
q12 -24 -7 -44zM372 14q-12 -13 -27 -13q-16 0 -28 13t-12 28q0 14 12.5 26t25.5 12v0q24 0 36 -22q12 -24 -7 -44zM270 14q-12 -13 -27 -13q-16 0 -28 13t-12 28q0 14 12.5 26t25.5 12v0q24 0 36 -22q12 -24 -7 -44z" />
    <glyph glyph-name="ograve" unicode="&#xf2;" horiz-adv-x="665" 
d="M264 715q-12 -13 -27 -13q-16 0 -28 13t-12 28q0 14 12.5 26t25.5 12v0q24 0 36 -22q12 -24 -7 -44zM366 621q-12 -13 -27 -13q-16 0 -28 13t-12 28q0 14 12.5 26t25.5 12v0q24 0 36 -22q12 -24 -7 -44zM168 521q-12 -13 -27 -13q-16 0 -28 13t-12 28q0 14 12.5 26
t25.5 12v0q24 0 36 -22q12 -24 -7 -44zM474 520q-12 -13 -27 -13q-16 0 -28 13t-12 28q0 14 12.5 26t25.5 12v0q24 0 36 -22q12 -24 -7 -44zM372 520q-12 -13 -27 -13q-16 0 -28 13t-12 28q0 14 12.5 26t25.5 12v0q24 0 36 -22q12 -24 -7 -44zM270 520q-12 -13 -27 -13
q-16 0 -28 13t-12 28q0 14 12.5 26t25.5 12v0q24 0 36 -22q12 -24 -7 -44zM66 427q-12 -13 -27 -13q-16 0 -28 13t-12 28q0 14 12.5 26t25.5 12v0q24 0 36 -22q12 -24 -7 -44zM576 426q-12 -13 -27 -13q-16 0 -28 13t-12 28q0 14 12.5 26t25.5 12v0q24 0 36 -22
q12 -24 -7 -44zM66 324q-12 -13 -27 -13q-16 0 -28 13t-12 29q0 13 12 25t26 12v0q23 0 35 -23q13 -23 -6 -43zM576 323q-12 -13 -27 -13q-16 0 -28 13t-12 29q0 13 12 25t26 12v0q23 0 35 -23q13 -23 -6 -43zM66 221q-12 -13 -27 -13q-16 0 -28 13t-12 28q0 14 12.5 26
t25.5 12v0q24 0 36 -22q12 -24 -7 -44zM576 220q-12 -13 -27 -13q-16 0 -28 13t-12 28q0 14 12.5 26t25.5 12v0q24 0 36 -22q12 -24 -7 -44zM66 118q-12 -13 -27 -13q-16 0 -28 13t-12 28q0 14 12.5 26t25.5 12v0q24 0 36 -22q12 -24 -7 -44zM576 117q-12 -13 -27 -13
q-16 0 -28 13t-12 28q0 14 12.5 26t25.5 12v0q24 0 36 -22q12 -24 -7 -44zM168 15q-12 -13 -27 -13q-16 0 -28 13t-12 28q0 14 12.5 26t25.5 12v0q24 0 36 -22q12 -24 -7 -44zM474 14q-12 -13 -27 -13q-16 0 -28 13t-12 28q0 14 12.5 26t25.5 12v0q24 0 36 -22
q12 -24 -7 -44zM372 14q-12 -13 -27 -13q-16 0 -28 13t-12 28q0 14 12.5 26t25.5 12v0q24 0 36 -22q12 -24 -7 -44zM270 14q-12 -13 -27 -13q-16 0 -28 13t-12 28q0 14 12.5 26t25.5 12v0q24 0 36 -22q12 -24 -7 -44z" />
    <glyph glyph-name="ocircumflex" unicode="&#xf4;" horiz-adv-x="665" 
d="M283 726q-12 -13 -27 -13q-16 0 -28 13t-12 28q0 14 12.5 26t25.5 12v0q24 0 36 -22q12 -24 -7 -44zM181 632q-12 -13 -27 -13q-16 0 -28 13t-12 28q0 14 12.5 26t25.5 12v0q24 0 36 -22q12 -24 -7 -44zM368 621q-12 -13 -27 -13q-16 0 -28 13t-12 28q0 14 12.5 26
t25.5 12v0q24 0 36 -22q12 -24 -7 -44zM168 521q-12 -13 -27 -13q-16 0 -28 13t-12 28q0 14 12.5 26t25.5 12v0q24 0 36 -22q12 -24 -7 -44zM474 520q-12 -13 -27 -13q-16 0 -28 13t-12 28q0 14 12.5 26t25.5 12v0q24 0 36 -22q12 -24 -7 -44zM372 520q-12 -13 -27 -13
q-16 0 -28 13t-12 28q0 14 12.5 26t25.5 12v0q24 0 36 -22q12 -24 -7 -44zM270 520q-12 -13 -27 -13q-16 0 -28 13t-12 28q0 14 12.5 26t25.5 12v0q24 0 36 -22q12 -24 -7 -44zM66 427q-12 -13 -27 -13q-16 0 -28 13t-12 28q0 14 12.5 26t25.5 12v0q24 0 36 -22
q12 -24 -7 -44zM576 426q-12 -13 -27 -13q-16 0 -28 13t-12 28q0 14 12.5 26t25.5 12v0q24 0 36 -22q12 -24 -7 -44zM66 324q-12 -13 -27 -13q-16 0 -28 13t-12 29q0 13 12 25t26 12v0q23 0 35 -23q13 -23 -6 -43zM576 323q-12 -13 -27 -13q-16 0 -28 13t-12 29q0 13 12 25
t26 12v0q23 0 35 -23q13 -23 -6 -43zM66 221q-12 -13 -27 -13q-16 0 -28 13t-12 28q0 14 12.5 26t25.5 12v0q24 0 36 -22q12 -24 -7 -44zM576 220q-12 -13 -27 -13q-16 0 -28 13t-12 28q0 14 12.5 26t25.5 12v0q24 0 36 -22q12 -24 -7 -44zM66 118q-12 -13 -27 -13
q-16 0 -28 13t-12 28q0 14 12.5 26t25.5 12v0q24 0 36 -22q12 -24 -7 -44zM576 117q-12 -13 -27 -13q-16 0 -28 13t-12 28q0 14 12.5 26t25.5 12v0q24 0 36 -22q12 -24 -7 -44zM168 15q-12 -13 -27 -13q-16 0 -28 13t-12 28q0 14 12.5 26t25.5 12v0q24 0 36 -22
q12 -24 -7 -44zM474 14q-12 -13 -27 -13q-16 0 -28 13t-12 28q0 14 12.5 26t25.5 12v0q24 0 36 -22q12 -24 -7 -44zM372 14q-12 -13 -27 -13q-16 0 -28 13t-12 28q0 14 12.5 26t25.5 12v0q24 0 36 -22q12 -24 -7 -44zM270 14q-12 -13 -27 -13q-16 0 -28 13t-12 28
q0 14 12.5 26t25.5 12v0q24 0 36 -22q12 -24 -7 -44z" />
    <glyph glyph-name="odieresis" unicode="&#xf6;" horiz-adv-x="665" 
d="M163 716q-12 -13 -27 -13q-16 0 -28 13t-12 28q0 14 12.5 26t25.5 12v0q24 0 36 -22q12 -24 -7 -44zM469 715q-12 -13 -27 -13q-16 0 -28 13t-12 28q0 14 12.5 26t25.5 12v0q24 0 36 -22q12 -24 -7 -44zM168 521q-12 -13 -27 -13q-16 0 -28 13t-12 28q0 14 12.5 26
t25.5 12v0q24 0 36 -22q12 -24 -7 -44zM474 520q-12 -13 -27 -13q-16 0 -28 13t-12 28q0 14 12.5 26t25.5 12v0q24 0 36 -22q12 -24 -7 -44zM372 520q-12 -13 -27 -13q-16 0 -28 13t-12 28q0 14 12.5 26t25.5 12v0q24 0 36 -22q12 -24 -7 -44zM270 520q-12 -13 -27 -13
q-16 0 -28 13t-12 28q0 14 12.5 26t25.5 12v0q24 0 36 -22q12 -24 -7 -44zM66 427q-12 -13 -27 -13q-16 0 -28 13t-12 28q0 14 12.5 26t25.5 12v0q24 0 36 -22q12 -24 -7 -44zM576 426q-12 -13 -27 -13q-16 0 -28 13t-12 28q0 14 12.5 26t25.5 12v0q24 0 36 -22
q12 -24 -7 -44zM66 324q-12 -13 -27 -13q-16 0 -28 13t-12 29q0 13 12 25t26 12v0q23 0 35 -23q13 -23 -6 -43zM576 323q-12 -13 -27 -13q-16 0 -28 13t-12 29q0 13 12 25t26 12v0q23 0 35 -23q13 -23 -6 -43zM66 221q-12 -13 -27 -13q-16 0 -28 13t-12 28q0 14 12.5 26
t25.5 12v0q24 0 36 -22q12 -24 -7 -44zM576 220q-12 -13 -27 -13q-16 0 -28 13t-12 28q0 14 12.5 26t25.5 12v0q24 0 36 -22q12 -24 -7 -44zM66 118q-12 -13 -27 -13q-16 0 -28 13t-12 28q0 14 12.5 26t25.5 12v0q24 0 36 -22q12 -24 -7 -44zM576 117q-12 -13 -27 -13
q-16 0 -28 13t-12 28q0 14 12.5 26t25.5 12v0q24 0 36 -22q12 -24 -7 -44zM168 15q-12 -13 -27 -13q-16 0 -28 13t-12 28q0 14 12.5 26t25.5 12v0q24 0 36 -22q12 -24 -7 -44zM474 14q-12 -13 -27 -13q-16 0 -28 13t-12 28q0 14 12.5 26t25.5 12v0q24 0 36 -22
q12 -24 -7 -44zM372 14q-12 -13 -27 -13q-16 0 -28 13t-12 28q0 14 12.5 26t25.5 12v0q24 0 36 -22q12 -24 -7 -44zM270 14q-12 -13 -27 -13q-16 0 -28 13t-12 28q0 14 12.5 26t25.5 12v0q24 0 36 -22q12 -24 -7 -44z" />
    </font>
</defs>
</svg>
