<?xml version="1.0" encoding="utf-8"?>
<!-- Generator: Adobe Illustrator 18.0.0, SVG Export Plug-In . SVG Version: 6.00 Build 0)  -->
<!DOCTYPE svg PUBLIC "-//W3C//DTD SVG 1.1//EN" "http://www.w3.org/Graphics/SVG/1.1/DTD/svg11.dtd">
<svg version="1.1" id="Layer_1" xmlns="http://www.w3.org/2000/svg" xmlns:xlink="http://www.w3.org/1999/xlink" x="0px" y="0px"
	 viewBox="0 0 20.9 35" enable-background="new 0 0 20.9 35" xml:space="preserve">
<g>
	<path fill="#CCCCCC" d="M20.7,0c-1.3,1.7-2.6,3.2-4,4.8c-1.4,1.5-2.7,3.1-4.2,4.6c-1.4,1.5-2.8,3-4.3,4.4c-0.7,0.7-1.5,1.4-2.2,2.2
		l-2.2,2.2L4,16c1.5,1.5,3,3,4.4,4.5c1.4,1.6,2.9,3.1,4.3,4.7c0.7,0.8,1.4,1.6,2.1,2.4l2.1,2.4c1.3,1.6,2.7,3.3,4,5
		c-1.7-1.3-3.4-2.6-5-4L13.4,29c-0.8-0.7-1.6-1.4-2.4-2.1C9.5,25.5,8,24,6.4,22.5c-1.5-1.5-3-2.9-4.5-4.4L0.8,17l1.1-1l2.3-2.1
		c0.8-0.7,1.5-1.4,2.3-2.1c1.5-1.4,3-2.8,4.6-4.1c1.6-1.3,3.2-2.6,4.8-3.9C17.4,2.5,19,1.2,20.7,0z"/>
</g>
</svg>
