<?xml version="1.0" encoding="utf-8"?>
<!-- Generator: Adobe Illustrator 18.0.0, SVG Export Plug-In . SVG Version: 6.00 Build 0)  -->
<!DOCTYPE svg PUBLIC "-//W3C//DTD SVG 1.1//EN" "http://www.w3.org/Graphics/SVG/1.1/DTD/svg11.dtd">
<svg version="1.1" id="Layer_1" xmlns="http://www.w3.org/2000/svg" xmlns:xlink="http://www.w3.org/1999/xlink" x="0px" y="0px"
	 viewBox="0 0 25.6 25.6" enable-background="new 0 0 25.6 25.6" xml:space="preserve">
<rect x="0" y="0" fill="#FFFFFF" width="25.6" height="25.6"/>
<g>
	<path fill="#2C7DBC" d="M0,12.8c0,7.1,5.7,12.8,12.8,12.8s12.8-5.7,12.8-12.8C25.6,5.7,19.9,0,12.8,0S0,5.7,0,12.8L0,12.8z
		 M23.9,12.8c0,6.1-5,11.1-11.1,11.1s-11.1-5-11.1-11.1c0-6.1,5-11.1,11.1-11.1S23.9,6.7,23.9,12.8L23.9,12.8z M23.9,12.8"/>
	<path fill="#2C7DBC" d="M7,10.1c-0.3,0.3-0.3,0.9,0,1.2l5.2,5.2c0.2,0.2,0.4,0.2,0.6,0.2s0.4-0.1,0.6-0.2l5.2-5.2
		c0.2-0.2,0.2-0.4,0.2-0.6c0-0.2-0.1-0.4-0.2-0.6c-0.3-0.3-0.9-0.3-1.2,0l-4.6,4.6l-4.6-4.6C7.9,9.8,7.4,9.8,7,10.1L7,10.1z M7,10.1
		"/>
</g>
</svg>
