<?xml version="1.0" encoding="utf-8"?>
<!-- Generator: Adobe Illustrator 18.0.0, SVG Export Plug-In . SVG Version: 6.00 Build 0)  -->
<!DOCTYPE svg PUBLIC "-//W3C//DTD SVG 1.1//EN" "http://www.w3.org/Graphics/SVG/1.1/DTD/svg11.dtd">
<svg version="1.1" id="Layer_1" xmlns="http://www.w3.org/2000/svg" xmlns:xlink="http://www.w3.org/1999/xlink" x="0px" y="0px"
	 viewBox="0 0 25.6 25.6" enable-background="new 0 0 25.6 25.6" xml:space="preserve">
<g>
	<path fill="#C7C7C6" d="M12.8,0C5.7,0,0,5.7,0,12.8s5.7,12.8,12.8,12.8c7.1,0,12.8-5.7,12.8-12.8S19.9,0,12.8,0L12.8,0z M12.8,23.9
		c-6.1,0-11.1-5-11.1-11.1s5-11.1,11.1-11.1c6.1,0,11.1,5,11.1,11.1S18.9,23.9,12.8,23.9L12.8,23.9z M12.8,23.9"/>
	<path fill="#C7C7C6" d="M15.5,7c-0.3-0.3-0.9-0.3-1.2,0l-5.2,5.2c-0.2,0.2-0.2,0.4-0.2,0.6s0.1,0.4,0.2,0.6l5.2,5.2
		c0.2,0.2,0.4,0.2,0.6,0.2c0.2,0,0.4-0.1,0.6-0.2c0.3-0.3,0.3-0.9,0-1.2l-4.6-4.6l4.6-4.6C15.8,7.9,15.8,7.4,15.5,7L15.5,7z M15.5,7
		"/>
</g>
</svg>
