<?xml version="1.0" encoding="utf-8"?>
<!-- Generator: Adobe Illustrator 18.0.0, SVG Export Plug-In . SVG Version: 6.00 Build 0)  -->
<!DOCTYPE svg PUBLIC "-//W3C//DTD SVG 1.1//EN" "http://www.w3.org/Graphics/SVG/1.1/DTD/svg11.dtd">
<svg version="1.1" id="Layer_1" xmlns="http://www.w3.org/2000/svg" xmlns:xlink="http://www.w3.org/1999/xlink" x="0px" y="0px"
	 viewBox="0 0 25.6 25.6" enable-background="new 0 0 25.6 25.6" xml:space="preserve">
<g>
	<path fill="#C7C7C6" d="M12.8,0C5.7,0,0,5.7,0,12.8c0,7.1,5.7,12.8,12.8,12.8c7.1,0,12.8-5.7,12.8-12.8C25.7,5.7,19.9,0,12.8,0
		L12.8,0z M12.8,24.9c-6.6,0-12-5.4-12-12c0-6.6,5.4-12,12-12c6.6,0,12,5.4,12,12C24.9,19.5,19.5,24.9,12.8,24.9L12.8,24.9z
		 M12.8,24.9"/>
	<path fill="#C7C7C6" d="M17.7,12.4h-4.4V8h-0.8v4.4H8v0.8h4.4v4.4h0.8v-4.4h4.4V12.4z M17.7,12.4"/>
</g>
</svg>
