<?xml version="1.0" encoding="utf-8"?>
<!-- Generator: Adobe Illustrator 18.0.0, SVG Export Plug-In . SVG Version: 6.00 Build 0)  -->
<!DOCTYPE svg PUBLIC "-//W3C//DTD SVG 1.1//EN" "http://www.w3.org/Graphics/SVG/1.1/DTD/svg11.dtd">
<svg version="1.1" id="Layer_1" xmlns="http://www.w3.org/2000/svg" xmlns:xlink="http://www.w3.org/1999/xlink" x="0px" y="0px"
	 viewBox="0 0 25.6 25.6" enable-background="new 0 0 25.6 25.6" xml:space="preserve">
<g>
	<path fill-rule="evenodd" clip-rule="evenodd" fill="#0D6BB5" d="M25.4,24.2l-6.6-6.5c1.7-1.9,2.8-4.4,2.8-7.1
		C21.5,4.7,16.7,0,10.8,0C4.8,0,0,4.7,0,10.6c0,5.9,4.8,10.6,10.8,10.6c2.6,0,4.9-0.9,6.8-2.4l6.6,6.5c0.3,0.3,0.8,0.3,1.2,0
		C25.7,25,25.7,24.5,25.4,24.2L25.4,24.2z M10.8,19.6c-5,0-9.1-4-9.1-9c0-5,4.1-9,9.1-9c5,0,9.1,4,9.1,9
		C19.9,15.6,15.8,19.6,10.8,19.6L10.8,19.6z M10.8,19.6"/>
</g>
</svg>
