<?xml version="1.0" standalone="no"?>
<!DOCTYPE svg PUBLIC "-//W3C//DTD SVG 1.1//EN" "http://www.w3.org/Graphics/SVG/1.1/DTD/svg11.dtd" >
<svg>
<metadata>
Created by FontForge 20110222 at Tue Aug 25 08:06:52 2015
 By www-data
Typeface (c) The scict.ir Corporation plc. Data (c) The scict.ir Corporation plc/Type Solutions Inc. 2012-2013. All Rights Reserved.Modify  by Hossein Zahedi.
</metadata>
<defs>
<font id="IRNazli-Bold" horiz-adv-x="0" >
  <font-face 
    font-family="IRNazli"
    font-weight="700"
    font-stretch="normal"
    units-per-em="2048"
    panose-1="2 0 5 6 0 0 0 2 0 2"
    ascent="1638"
    descent="-410"
    x-height="786"
    cap-height="1152"
    bbox="-575 -960 2433 1831"
    underline-thickness="60"
    underline-position="-40"
    unicode-range="U+0020-FFFC"
  />
<missing-glyph horiz-adv-x="2048" 
 />
    <glyph glyph-name="afii64184" unicode="&#xfedf;&#xfee0;&#x651;&#x670;&#xfeea;" horiz-adv-x="1685" arabic-form="isolated" 
d="M1041 1432q23 -51 23 -115q0 -129 -62 -129q1 15 1 30q0 83 -34 149zM1225 1057q0 -54 -23 -93q-27 -48 -77 -48q-52 0 -83 26q-51 -74 -106 -74q-85 0 -85 111q0 34 11 68q15 47 41 47q10 0 13 -61q2 -50 44 -50q38 0 47.5 70.5t25.5 70.5q19 0 33.5 -53t52.5 -53
q41 0 41 46q0 19 -10 69l56 36q19 -36 19 -112zM1634 335q0 -201 -108 -290q-73 -60 -178 -60q-181 0 -251 152q-47 -153 -203 -153q-134 0 -204 80q-33 38 -70 135q-29 -53 -83 -115q-18 -7 -77 -7q-103 0 -178 22q-100 29 -100 86q0 95 34 141q69 93 171 159q48 31 157 74
l-12 103l118 96q33 27 38 27q6 0 11 -40q38 -324 59 -385q41 -122 162 -122q95 0 95 125q0 13 -2 33q-13 130 -41 349l188 110q36 -387 58 -474q36 -142 135 -142q88 0 88 129q0 79 -81 474l163 130q12 13 19 13q10 0 15 -26q77 -444 77 -624zM595 289l-33 160
q-195 -70 -226 -142q9 -24 125 -24q62 0 134 6z" />
    <glyph glyph-name="afii62834" unicode="&#xfedf;&#xfe82;" horiz-adv-x="1152" arabic-form="isolated" 
d="M1146 990q2 -6 2 -7q0 -5 -14 -5q-22 0 -68 10q0 -261 -82 -444q-51 -115 -112 -167q68 -113 68 -189q0 -151 -108 -206q-73 -37 -313 -37q-41 0 -75.5 2t-63.5 6l77 243q137 63 247 177q-72 91 -161 186.5t-198 198.5q-22 -70 -27 -73q-4 1 -12 11q-155 202 -155 231
q0 64 48 220q6 19 9 20q2 0 15 -10q94 -71 239 -238t341 -430q78 72 78 245v186q0 71 -30 185l168 164q4 4 8 4q5 0 9 -10q26 -78 53.5 -145.5t56.5 -127.5zM827 180q-15 59 -58 99q-84 -67 -154 -112q33 -9 88 -9q85 0 124 22zM542 1416q0 -47 -103 -102q-109 -58 -214 -58
q-32 0 -85.5 14.5t-73.5 14.5q-18 0 -38.5 -29.5t-34.5 -29.5q-30 0 -30 46q0 30 41 99q44 75 77 75q20 6 110.5 -24t134.5 -30q47 0 117 24t76 24q23 0 23 -24z" />
    <glyph glyph-name="afii62835" unicode="&#xfee0;&#xfe82;" horiz-adv-x="1323" arabic-form="final" 
d="M1323 0h-35q-179 0 -250 134q-25 48 -39.5 125.5t-18.5 186.5q-122 -335 -261 -450q-23 -19 -427 -41q-12 -1 -22.5 -1.5t-18.5 -0.5q-35 0 -35 6q0 8 63 38q91 44 175.5 92.5t149 93.5t103 82t38.5 59q0 42 -104 172q-125 156 -288 266l-11 -85q-28 26 -58 57t-63 69
q-79 89 -79 114q0 89 26 208q4 23 10 23q3 0 20 -10q333 -239 498 -465q113 -155 129 -277q143 173 143 568q0 78 -6 161l151 119q19 14 23 14q6 0 6 -26v-819q0 -156 164 -156h17v-257zM526 1406q0 -47 -103 -102q-109 -58 -214 -58q-32 0 -85.5 14.5t-73.5 14.5
q-18 0 -38.5 -29.5t-34.5 -29.5q-30 0 -30 46q0 30 41 99q44 75 77 75q20 6 110.5 -24t134.5 -30q47 0 117 24t76 24q23 0 23 -24z" />
    <glyph glyph-name="afii62836" unicode="&#xfedf;&#xfe84;" horiz-adv-x="1110" arabic-form="isolated" 
d="M1104 990q2 -6 2 -7q0 -5 -14 -5q-22 0 -68 10q0 -261 -82 -444q-51 -115 -112 -167q68 -113 68 -189q0 -151 -108 -206q-73 -37 -313 -37q-41 0 -75.5 2t-63.5 6l77 243q137 63 247 177q-72 91 -161 186.5t-198 198.5q-22 -70 -27 -73q-4 1 -12 11q-155 202 -155 231
q0 64 48 220q6 19 9 20q2 0 15 -10q94 -71 239 -238t341 -430q78 72 78 245v186q0 71 -30 185l168 164q4 4 8 4q5 0 9 -10q26 -78 53.5 -145.5t56.5 -127.5zM785 180q-15 59 -58 99q-84 -67 -154 -112q33 -9 88 -9q85 0 124 22zM340 1451q1 -4 1.5 -8.5t0.5 -11.5
q0 -25 -5 -49t-9 -29q-140 -36 -351 -129l-1 74q17 9 40.5 21t53.5 28q-12 5 -26 17t-25.5 27.5t-19 32t-7.5 29.5q0 57 69 123q68 65 127 65q15 0 34 -7t35.5 -18.5t28 -24.5t11.5 -25q0 -41 -31 -41q-5 0 -17.5 4t-27.5 9.5t-30 9.5t-25 4q-13 0 -28 -4t-27.5 -11
t-20.5 -16t-8 -19q0 -18 10 -34t25.5 -28.5t34.5 -20t36 -7.5q25 0 62.5 11.5t89.5 27.5z" />
    <glyph glyph-name="afii62837" unicode="&#xfee0;&#xfe84;" horiz-adv-x="1273" arabic-form="final" 
d="M1273 0h-35q-179 0 -250 134q-25 48 -39.5 125.5t-18.5 186.5q-122 -335 -261 -450q-23 -19 -427 -41q-12 -1 -22.5 -1.5t-18.5 -0.5q-35 0 -35 6q0 8 63 38q91 44 175.5 92.5t149 93.5t103 82t38.5 59q0 42 -104 172q-125 156 -288 266l-11 -85q-28 26 -58 57t-63 69
q-79 89 -79 114q0 89 26 208q4 23 10 23q3 0 20 -10q333 -239 498 -465q113 -155 129 -277q143 173 143 568q0 78 -6 161l151 119q19 14 23 14q6 0 6 -26v-819q0 -156 164 -156h17v-257zM330 1399q1 -4 1.5 -8.5t0.5 -11.5q0 -25 -5 -49t-9 -29q-140 -36 -351 -129l-1 74
q17 9 40.5 21t53.5 28q-12 5 -26 17t-25.5 27.5t-19 32t-7.5 29.5q0 57 69 123q68 65 127 65q15 0 34 -7t35.5 -18.5t28 -24.5t11.5 -25q0 -41 -31 -41q-5 0 -17.5 4t-27.5 9.5t-30 9.5t-25 4q-13 0 -28 -4t-27.5 -11t-20.5 -16t-8 -19q0 -18 10 -34t25.5 -28.5t34.5 -20
t36 -7.5q25 0 62.5 11.5t89.5 27.5z" />
    <glyph glyph-name="afii62838" unicode="&#xfedf;&#xfe88;" horiz-adv-x="1110" arabic-form="isolated" 
d="M637 -348q1 -4 1.5 -8.5t0.5 -11.5q0 -25 -5 -49t-9 -29q-140 -36 -351 -129l-1 74q17 9 40.5 21t53.5 28q-12 5 -26 17t-25.5 27.5t-19 32t-7.5 29.5q0 57 69 123q68 65 127 65q15 0 34 -7t35.5 -18.5t28 -24.5t11.5 -25q0 -41 -31 -41q-5 0 -17.5 4t-27.5 9.5t-30 9.5
t-25 4q-13 0 -28 -4t-27.5 -11t-20.5 -16t-8 -19q0 -18 10 -34t25.5 -28.5t34.5 -20t36 -7.5q25 0 62.5 11.5t89.5 27.5zM1104 990q2 -6 2 -7q0 -5 -14 -5q-22 0 -68 10q0 -261 -82 -444q-51 -115 -112 -167q68 -113 68 -189q0 -151 -108 -206q-73 -37 -313 -37
q-41 0 -75.5 2t-63.5 6l77 243q137 63 247 177q-72 91 -161 186.5t-198 198.5q-22 -70 -27 -73q-4 1 -12 11q-155 202 -155 231q0 64 48 220q6 19 9 20q2 0 15 -10q94 -71 239 -238t341 -430q78 72 78 245v186q0 71 -30 185l168 164q4 4 8 4q5 0 9 -10q26 -78 53.5 -145.5
t56.5 -127.5zM785 180q-15 59 -58 99q-84 -67 -154 -112q33 -9 88 -9q85 0 124 22z" />
    <glyph glyph-name="afii62839" unicode="&#xfee0;&#xfe88;" horiz-adv-x="1273" arabic-form="final" 
d="M1273 0h-35q-179 0 -250 134q-25 48 -39.5 125.5t-18.5 186.5q-122 -335 -261 -450q-23 -19 -427 -41q-12 -1 -22.5 -1.5t-18.5 -0.5q-35 0 -35 6q0 8 63 38q91 44 175.5 92.5t149 93.5t103 82t38.5 59q0 42 -104 172q-125 156 -288 266l-11 -85q-28 26 -58 57t-63 69
q-79 89 -79 114q0 89 26 208q4 23 10 23q3 0 20 -10q333 -239 498 -465q113 -155 129 -277q143 173 143 568q0 78 -6 161l151 119q19 14 23 14q6 0 6 -26v-819q0 -156 164 -156h17v-257zM549 -365q1 -4 1.5 -8.5t0.5 -11.5q0 -25 -5 -49t-9 -29q-140 -36 -351 -129l-1 74
q17 9 40.5 21t53.5 28q-12 5 -26 17t-25.5 27.5t-19 32t-7.5 29.5q0 57 69 123q68 65 127 65q15 0 34 -7t35.5 -18.5t28 -24.5t11.5 -25q0 -41 -31 -41q-5 0 -17.5 4t-27.5 9.5t-30 9.5t-25 4q-13 0 -28 -4t-27.5 -11t-20.5 -16t-8 -19q0 -18 10 -34t25.5 -28.5t34.5 -20
t36 -7.5q25 0 62.5 11.5t89.5 27.5z" />
    <glyph glyph-name="afii62840" unicode="&#xfedf;&#xfe8e;" horiz-adv-x="1110" arabic-form="isolated" 
d="M1104 990q2 -6 2 -7q0 -5 -14 -5q-22 0 -68 10q0 -261 -82 -444q-51 -115 -112 -167q68 -113 68 -189q0 -151 -108 -206q-73 -37 -313 -37q-41 0 -75.5 2t-63.5 6l77 243q137 63 247 177q-72 91 -161 186.5t-198 198.5q-22 -70 -27 -73q-4 1 -12 11q-155 202 -155 231
q0 64 48 220q6 19 9 20q2 0 15 -10q94 -71 239 -238t341 -430q78 72 78 245v186q0 71 -30 185l168 164q4 4 8 4q5 0 9 -10q26 -78 53.5 -145.5t56.5 -127.5zM785 180q-15 59 -58 99q-84 -67 -154 -112q33 -9 88 -9q85 0 124 22z" />
    <glyph glyph-name="afii62841" unicode="&#xfee0;&#xfe8e;" horiz-adv-x="1273" arabic-form="final" 
d="M1273 0h-35q-179 0 -250 134q-25 48 -39.5 125.5t-18.5 186.5q-122 -335 -261 -450q-23 -19 -427 -41q-12 -1 -22.5 -1.5t-18.5 -0.5q-35 0 -35 6q0 8 63 38q91 44 175.5 92.5t149 93.5t103 82t38.5 59q0 42 -104 172q-125 156 -288 266l-11 -85q-28 26 -58 57t-63 69
q-79 89 -79 114q0 89 26 208q4 23 10 23q3 0 20 -10q333 -239 498 -465q113 -155 129 -277q143 173 143 568q0 78 -6 161l151 119q19 14 23 14q6 0 6 -26v-819q0 -156 164 -156h17v-257z" />
    <glyph glyph-name="afii57369" unicode="&#x6a4;" horiz-adv-x="849" arabic-form="medial" 
 />
    <glyph glyph-name="afii57371" unicode="&#x6a4;" horiz-adv-x="1691" arabic-form="final" 
 />
    <glyph glyph-name="afii57372" unicode="&#x6a4;" horiz-adv-x="714" arabic-form="initial" 
 />
    <glyph glyph-name="afii62958" unicode="&#x67e;" horiz-adv-x="1693" arabic-form="final" 
d="M1693 0h-48q-91 0 -166 63q-61 51 -82 114q-143 -123 -341 -167q-129 -29 -335 -29q-544 0 -544 369q0 100 48 194q43 85 74 85q38 0 38 -42q0 -12 -12.5 -59.5t-12.5 -75.5q0 -137 154 -186q101 -32 308 -32q386 0 583 146q31 23 86 83q43 47 62 47q35 0 35 -49
q0 -22 -49 -127q31 -77 169 -77h33v-257zM1055 -319l-122 -122l-122 122l122 123zM782 -319l-122 -122l-123 122l123 123zM922 -522l-123 -122l-122 122l122 123z" />
    <glyph glyph-name="afii62956" unicode="&#x67e;" horiz-adv-x="395" arabic-form="initial" 
d="M367 391q0 -89 -20.5 -161t-58.5 -123t-93 -79t-125 -28h-140v257h155q144 0 144 54q0 48 -112 170q-7 6 -7 15t7 17l117 163q9 12 17 12q7 0 13 -7q21 -23 40 -57.5t33 -74t22 -81t8 -77.5zM469 -312l-122 -122l-122 122l122 123zM196 -312l-122 -122l-123 122l123 123z
M336 -515l-123 -122l-122 122l122 123z" />
    <glyph glyph-name="afii52957" unicode="&#x67e;" horiz-adv-x="715" arabic-form="medial" 
d="M715 0h-68q-77 0 -148.5 40.5t-110.5 106.5q-39 -66 -109 -106.5t-147 -40.5h-202v257h162q146 0 202 65q29 33 45 121q12 65 49 65q36 0 47 -65q15 -89 38 -121q45 -65 166 -65h76v-257zM605 -312l-122 -122l-122 122l122 123zM332 -312l-122 -122l-123 122l123 123z
M472 -515l-123 -122l-122 122l122 123z" />
    <glyph glyph-name="afii57459" unicode="&#x6a1;" horiz-adv-x="666" 
d="M635 418q0 -254 -131 -342q-112 -75 -349 -75h-225v257h251q238 0 319 41q36 18 36 62q0 27 -40 23q-129 -12 -179 -12q-199 0 -199 147q0 121 61 240q74 144 188 144q156 0 225 -204q43 -127 43 -281zM484 568q-28 68 -86 105q-43 27 -78 27q-31 0 -57 -21.5t-26 -52.5
q0 -70 136 -70q50 0 111 12z" />
    <glyph glyph-name="afii57374" unicode="&#x6a1;" horiz-adv-x="785" 
d="M785 0h-41q-99 0 -211 43q-88 34 -142 74q-200 -117 -347 -117h-114v257h154q94 0 133 15q-65 90 -65 155q0 99 78 216q90 136 203 136q97 0 154 -95q49 -81 49 -190q0 -144 -74 -222q20 -15 151 -15h72v-257zM530 440q0 40 -42 82.5t-82 42.5q-46 0 -94 -35
q-51 -38 -51 -82q0 -32 50.5 -78.5t83.5 -46.5q28 0 77 33q58 39 58 84z" />
    <glyph glyph-name="afii52258" unicode="&#x6a1;" horiz-adv-x="1682" 
d="M1682 0h-48q-215 0 -371 117q-213 -140 -564 -140q-522 0 -522 373q0 99 52 194q47 85 78 85q38 0 38 -42q0 -10 -15.5 -57t-15.5 -76q0 -155 172 -202q73 -20 250 -20q275 0 353 40q-65 90 -65 155q0 99 78 216q90 136 203 136q97 0 154 -95q49 -81 49 -190
q0 -144 -74 -222q20 -15 151 -15h97v-257zM1402 440q0 40 -42 82.5t-82 42.5q-46 0 -94 -35q-51 -38 -51 -82q0 -32 50.5 -78.5t83.5 -46.5q28 0 77 33q58 39 58 84z" />
    <glyph glyph-name="afii62961" unicode="&#x686;" horiz-adv-x="1374" arabic-form="final" 
d="M1374 0h-116q-171 0 -267 79q-104 86 -104 254q0 37 5 78q-159 -34 -288 -123q-195 -134 -195 -337q0 -344 491 -344q211 0 331 36q9 3 14 3q7 0 9 -5q4 -7 -8 -24q-110 -162 -446 -162q-258 0 -420 91q-203 115 -203 353q0 197 176 354q141 126 361 203q-221 45 -275 45
q-62 0 -121 -56.5t-64 -56.5q-45 0 -45 37q0 32 29 91q48 97 76 131q68 81 166 81q33 0 175 -24q190 -32 285 -42q158 -16 291 1q29 4 29 -3q0 -5 -11 -29l-88 -196q-76 0 -166 -10q0 -116 102 -151q49 -17 171 -17h106v-257zM980 -13l-122 -122l-122 122l122 123zM707 -13
l-122 -122l-123 122l123 123zM847 -216l-123 -122l-122 122l122 123z" />
    <glyph glyph-name="afii62959" unicode="&#x686;" horiz-adv-x="1148" arabic-form="initial" 
d="M1113 467l-129 -185q-129 0 -279 -73q-91 -47 -275 -136q-163 -73 -372 -73h-128v257h155q213 0 345 31q109 26 243 94q-53 20 -159 61q-127 48 -180 48q-59 0 -116.5 -50.5t-68.5 -50.5q-40 0 -40 45q0 30 29 82q110 195 246 195q65 0 309.5 -110.5t373.5 -110.5
q52 0 52 -10q-1 -7 -6 -14zM833 -290l-122 -122l-122 122l122 123zM560 -290l-122 -122l-123 122l123 123zM700 -493l-123 -122l-122 122l122 123z" />
    <glyph glyph-name="afii62960" unicode="&#x686;" horiz-adv-x="1234" arabic-form="medial" 
d="M1234 0h-173q-328 0 -328 308q-333 -308 -678 -308h-125v257h152q181 0 313 47q91 33 282 144q-233 81 -345 81q-59 0 -116.5 -59.5t-68.5 -59.5q-38 0 -38 35q0 38 17 72q116 234 268 234q68 0 284 -70.5t356 -70.5q79 0 79 -7q-1 -2 -7 -16l-85 -183q-111 0 -184 -30
q0 -77 89 -103q49 -14 154 -14h154v-257zM827 -294l-122 -122l-122 122l122 123zM554 -294l-122 -122l-123 122l123 123zM694 -497l-123 -122l-122 122l122 123z" />
    <glyph glyph-name="afii62962" unicode="&#x698;" horiz-adv-x="928" arabic-form="final" 
d="M928 0h-18q-96 0 -150 26q0 -304 -184 -482q-56 -54 -71 -54q-267 0 -399 51q-14 6 -14 10t12 9q180 67 351 195q190 142 190 246q0 20 -14.5 49t-39.5 63t-58 69t-70 67l105 212q4 9 10 9q4 0 12 -9q150 -204 277 -204h61v-257zM231 714l123 122l122 -122l-122 -123z
M504 714l123 122l122 -122l-122 -123zM365 916l123 123l122 -123l-122 -122z" />
    <glyph glyph-name="afii62964" unicode="&#x6a9;" horiz-adv-x="2028" arabic-form="final" 
d="M2028 0h-130q-97 0 -205 91q-63 53 -219 228q-7 -160 -138 -258q-51 -38 -251 -61q-164 -19 -320 -19q-280 0 -400 52q-188 80 -188 317q0 99 52 194q47 85 78 85q38 0 38 -42q0 -10 -15.5 -57t-15.5 -76q0 -160 155 -201q72 -19 349 -19q336 0 455 27q90 20 90 71
q0 65 -123 200q-113 124 -209 184l49 258q419 167 760 278l-52 -228q-177 -56 -565 -193q152 -145 332 -335q136 -144 188 -183q74 -56 154 -56h131v-257z" />
    <glyph glyph-name="afii52305" unicode="&#x6a9;" horiz-adv-x="777" arabic-form="initial" 
d="M826 1241l-42 -227q-160 -52 -530 -183q124 -124 179 -208q77 -118 77 -236q0 -387 -422 -387h-158v257h121q212 0 285 19q58 15 58 56q0 65 -123 200q-113 124 -209 184l49 258q227 91 715 267z" />
    <glyph glyph-name="afii52306" unicode="&#x6a9;" horiz-adv-x="1083" arabic-form="medial" 
d="M1083 0h-154q-97 0 -205 91q-63 53 -219 228q-15 -319 -374 -319h-201v257h167q297 0 297 75q0 73 -123 205q-107 115 -209 179l49 258q419 167 760 278l-52 -228q-177 -56 -565 -193q152 -145 332 -335q136 -144 188 -183q74 -56 154 -56h155v-257z" />
    <glyph glyph-name="afii62967" unicode="&#x6af;" horiz-adv-x="2028" arabic-form="final" 
d="M1808 1314l-22 -107q-294 -61 -646 -171l34 112q244 75 634 166zM2028 0h-130q-97 0 -205 91q-63 53 -219 228q-8 -167 -129 -258q-48 -36 -255 -60q-173 -20 -325 -20q-280 0 -400 52q-188 80 -188 317q0 99 52 194q47 85 78 85q38 0 38 -42q0 -10 -15.5 -57t-15.5 -76
q0 -160 155 -201q72 -19 349 -19q336 0 455 27q90 20 90 71q0 64 -123 185q-105 103 -209 169l49 235q482 145 769 193l-66 -217q-318 -50 -560 -116q155 -130 328 -297q142 -137 189 -171q77 -56 157 -56h131v-257z" />
    <glyph glyph-name="afii62965" unicode="&#x6af;" horiz-adv-x="777" arabic-form="initial" 
d="M798 1304l-21 -108q-337 -82 -608 -164l34 112q270 84 595 160zM838 1106l-60 -216q-280 -44 -516 -113q96 -72 167 -174q81 -117 81 -216q0 -209 -108 -301q-100 -86 -314 -86h-158v257h121q212 0 285 19q58 15 58 56q0 64 -122 184q-103 101 -209 167l43 228
q205 77 732 195z" />
    <glyph glyph-name="afii62966" unicode="&#x6af;" horiz-adv-x="1057" arabic-form="medial" 
d="M839 1314l-22 -107q-394 -97 -646 -171l34 112q244 75 634 166zM1057 0h-128q-97 0 -205 91q-63 53 -219 228q-8 -167 -129 -258q-38 -28 -156 -46q-101 -15 -188 -15h-102v257h102q362 0 362 75q0 64 -123 185q-105 103 -209 169l49 235q482 145 769 193l-66 -217
q-318 -50 -560 -116q155 -130 328 -297q142 -137 189 -171q77 -56 157 -56h129v-257z" />
    <glyph glyph-name="afii52364" unicode="&#x6cc;" horiz-adv-x="1431" arabic-form="final" 
d="M1431 0h-60q-54 0 -161.5 15t-161.5 15q-45 0 -86 -12q-59 -18 -59 -53q0 -21 53 -28q46 -5 137 -16q114 -14 159 -36q58 -28 58 -90q0 -209 -224 -302q-158 -65 -402 -65q-507 0 -507 371q0 101 66 245q63 138 99 138q47 0 47 -42q0 -7 -28 -83t-28 -139
q0 -164 164 -219q101 -34 327 -34q77 0 203 22q152 26 152 61q0 17 -104 25q-140 10 -194 26q-105 30 -105 102q0 110 105 216q138 140 380 140h170v-257z" />
    <glyph glyph-name="afii62882" unicode="&#xfc5e;" arabic-form="isolated" 
d="M169 290q-2 -22 -5 -54t-11 -75q-29 -84 -105 -84q-29 0 -57 14q-50 -90 -109 -90q-73 0 -73 100q0 39 7.5 65t22.5 42q25 26 39 16q-8 -14 -12 -31t-4 -40q0 -43 33 -43q40 0 61 61l27 96l41 23q0 -105 53 -105q41 0 41 33q0 44 1.5 68.5t4.5 32.5q19 40 51 49zM180 500
l-66 12q-42 -69 -121 -107.5t-194 -48.5q14 32 21 66t7 71q0 60 -61 60q-20 0 -44 -8t-50 -25q9 129 133 129q76 0 76 -92q0 -38 -5 -66t-16 -45q29 -6 94 17q77 27 111 67q-119 40 -119 115q0 58 56 117q57 61 114 61q16 0 29.5 -9.5t23.5 -25t15.5 -35t5.5 -40.5
q0 -60 -25 -123q11 -5 26.5 -7.5t35.5 -2.5zM139 661q0 78 -51 78q-15 0 -28 -5t-23.5 -12.5t-16.5 -17t-6 -18.5q0 -41 108 -82q17 29 17 57z" />
    <glyph glyph-name="afii62883" unicode="&#xfc5f;" arabic-form="isolated" 
d="M181 686q-2 -22 -5 -54t-11 -75q-29 -84 -105 -84q-29 0 -57 14q-50 -90 -109 -90q-73 0 -73 100q0 39 7.5 65t22.5 42q25 26 39 16q-8 -14 -12 -31t-4 -40q0 -43 33 -43q40 0 61 61l27 96l41 23q0 -105 53 -105q41 0 41 33q0 44 1.5 68.5t4.5 32.5q19 40 51 49zM170 161
l-368 -171l23 99l368 170zM180 322l-368 -171l23 99l368 170z" />
    <glyph glyph-name="afii62884" unicode="&#xfc60;" arabic-form="isolated" 
d="M169 290q-2 -22 -5 -54t-11 -75q-29 -84 -105 -84q-29 0 -57 14q-50 -90 -109 -90q-73 0 -73 100q0 39 7.5 65t22.5 42q25 26 39 16q-8 -14 -12 -31t-4 -40q0 -43 33 -43q40 0 61 61l27 96l41 23q0 -105 53 -105q41 0 41 33q0 44 1.5 68.5t4.5 32.5q19 40 51 49zM182 498
l-368 -171l23 99l368 170z" />
    <glyph glyph-name="afii62885" unicode="&#xfc61;" arabic-form="isolated" 
d="M169 290q-2 -22 -5 -54t-11 -75q-29 -84 -105 -84q-29 0 -57 14q-50 -90 -109 -90q-73 0 -73 100q0 39 7.5 65t22.5 42q25 26 39 16q-8 -14 -12 -31t-4 -40q0 -43 33 -43q40 0 61 61l27 96l41 23q0 -105 53 -105q41 0 41 33q0 44 1.5 68.5t4.5 32.5q19 40 51 49zM195 569
q-30 -55 -57 -73l-68 24q-95 -123 -274 -123q-53 0 -68 33q25 2 61.5 11.5t86.5 29.5q51 20 86 38.5t55 35.5q-119 55 -119 125q0 54 66 114q69 60 125 60q78 0 78 -109q0 -45 -10.5 -80t-30.5 -61q41 -25 69 -25zM101 690q0 70 -45 70q-12 0 -24.5 -3.5t-24.5 -11.5
q-31 -15 -31 -38q0 -46 109 -93q16 24 16 76z" />
    <glyph glyph-name="afii62886" unicode="&#xfc62;" arabic-form="isolated" 
d="M175 558q-2 -22 -5 -54t-11 -75q-29 -84 -105 -84q-29 0 -57 14q-50 -90 -109 -90q-73 0 -73 100q0 39 7.5 65t22.5 42q25 26 39 16q-8 -14 -12 -31t-4 -40q0 -43 33 -43q40 0 61 61l27 96l41 23q0 -105 53 -105q41 0 41 33q0 44 1.5 68.5t4.5 32.5q19 40 51 49zM191 170
l-368 -171l23 99l368 170z" />
    <glyph glyph-name="afii52399" unicode="&#x621;" horiz-adv-x="751" arabic-form="isolated" 
d="M694 310l-37 -148q-84 -15 -235 -70q-164 -59 -248 -109v93q45 47 134 102q-124 55 -124 134q0 85 102.5 184t188.5 99q50 0 94 -22q54 -27 54 -73q0 -63 -48 -63q-23 0 -67.5 13t-69.5 13q-32 0 -73 -30t-41 -60q0 -27 46 -65q55 -46 123 -46q48 0 201 48z" />
    <glyph glyph-name="afii62753" unicode="&#x622;" horiz-adv-x="581" arabic-form="final" 
d="M590 1509q0 -47 -103 -102q-109 -58 -214 -58q-32 0 -85.5 14.5t-73.5 14.5q-18 0 -38.5 -29.5t-34.5 -29.5q-30 0 -30 46q0 30 41 99q44 75 77 75q20 6 110.5 -24t134.5 -30q47 0 117 24t76 24q23 0 23 -24zM581 0h-91q-59 0 -107 23t-82.5 66t-53.5 105.5t-19 140.5
q0 123 -15 371q-17 280 -33 366q-1 5 -1.5 9.5t-0.5 8.5q0 14 6 20l165 134q30 24 35 24l1 -1q6 -2 6 -28l-2 -841q0 -142 159 -141h33v-257z" />
    <glyph glyph-name="afii62754" unicode="&#x623;" horiz-adv-x="581" arabic-form="final" 
d="M457 1497q1 -4 1.5 -8.5t0.5 -11.5q0 -25 -5 -49t-9 -29q-140 -36 -351 -129l-1 74q17 9 40.5 21t53.5 28q-12 5 -26 17t-25.5 27.5t-19 32t-7.5 29.5q0 57 69 123q68 65 127 65q15 0 34 -7t35.5 -18.5t28 -24.5t11.5 -25q0 -41 -31 -41q-5 0 -17.5 4t-27.5 9.5t-30 9.5
t-25 4q-13 0 -28 -4t-27.5 -11t-20.5 -16t-8 -19q0 -18 10 -34t25.5 -28.5t34.5 -20t36 -7.5q25 0 62.5 11.5t89.5 27.5zM581 0h-91q-59 0 -107 23t-82.5 66t-53.5 105.5t-19 140.5q0 123 -15 371q-17 280 -33 366q-1 5 -1.5 9.5t-0.5 8.5q0 14 6 20l165 134q30 24 35 24
l1 -1q6 -2 6 -28l-2 -841q0 -142 159 -141h33v-257z" />
    <glyph glyph-name="afii62755" unicode="&#x624;" horiz-adv-x="920" arabic-form="final" 
d="M920 0h-147q0 -252 -172 -448q-55 -62 -70 -62q-251 0 -399 51q-15 4 -15 10q0 4 13 9q174 63 347 200q185 146 185 244h-25.5t-41 -0.5t-41 -0.5h-25.5q-138 0 -196 30q-83 42 -83 158q0 106 67 241q81 165 192 165q49 0 92.5 -25t78 -70t58.5 -107.5t35 -137.5h147
v-257zM625 254q-11 28 -30 52.5t-41.5 42.5t-46.5 28t-45 10q-15 0 -30 -6t-27 -16t-19 -23.5t-7 -28.5q0 -70 112 -70q26 0 59 3t75 8zM663 915q1 -4 1.5 -8.5t0.5 -11.5q0 -25 -5 -49t-9 -29q-140 -36 -351 -129l-1 74q17 9 40.5 21t53.5 28q-12 5 -26 17t-25.5 27.5
t-19 32t-7.5 29.5q0 57 69 123q68 65 127 65q15 0 34 -7t35.5 -18.5t28 -24.5t11.5 -25q0 -41 -31 -41q-5 0 -17.5 4t-27.5 9.5t-30 9.5t-25 4q-13 0 -28 -4t-27.5 -11t-20.5 -16t-8 -19q0 -18 10 -34t25.5 -28.5t34.5 -20t36 -7.5q25 0 62.5 11.5t89.5 27.5z" />
    <glyph glyph-name="afii62756" unicode="&#x625;" horiz-adv-x="581" arabic-form="final" 
d="M581 0h-91q-59 0 -107 23t-82.5 66t-53.5 105.5t-19 140.5q0 123 -15 371q-17 280 -33 366q-1 5 -1.5 9.5t-0.5 8.5q0 14 6 20l165 134q30 24 35 24l1 -1q6 -2 6 -28l-2 -841q0 -142 159 -141h33v-257zM490 -321q1 -4 1.5 -8.5t0.5 -11.5q0 -25 -5 -49t-9 -29
q-140 -36 -351 -129l-1 74q17 9 40.5 21t53.5 28q-12 5 -26 17t-25.5 27.5t-19 32t-7.5 29.5q0 57 69 123q68 65 127 65q15 0 34 -7t35.5 -18.5t28 -24.5t11.5 -25q0 -41 -31 -41q-5 0 -17.5 4t-27.5 9.5t-30 9.5t-25 4q-13 0 -28 -4t-27.5 -11t-20.5 -16t-8 -19
q0 -18 10 -34t25.5 -28.5t34.5 -20t36 -7.5q25 0 62.5 11.5t89.5 27.5z" />
    <glyph glyph-name="afii62759" unicode="&#x626;" horiz-adv-x="1431" arabic-form="final" 
d="M1431 0h-60q-54 0 -161.5 15t-161.5 15q-45 0 -86 -12q-59 -18 -59 -53q0 -21 53 -28q46 -5 137 -16q114 -14 159 -36q58 -28 58 -90q0 -209 -224 -302q-158 -65 -402 -65q-507 0 -507 371q0 101 66 245q63 138 99 138q47 0 47 -42q0 -7 -28 -83t-28 -139
q0 -164 164 -219q101 -34 327 -34q77 0 203 22q152 26 152 61q0 17 -104 25q-140 10 -194 26q-105 30 -105 102q0 110 105 216q138 140 380 140h170v-257zM846 616q1 -4 1.5 -8.5t0.5 -11.5q0 -25 -5 -49t-9 -29q-140 -36 -351 -129l-1 74q17 9 40.5 21t53.5 28
q-12 5 -26 17t-25.5 27.5t-19 32t-7.5 29.5q0 57 69 123q68 65 127 65q15 0 34 -7t35.5 -18.5t28 -24.5t11.5 -25q0 -41 -31 -41q-5 0 -17.5 4t-27.5 9.5t-30 9.5t-25 4q-13 0 -28 -4t-27.5 -11t-20.5 -16t-8 -19q0 -18 10 -34t25.5 -28.5t34.5 -20t36 -7.5q25 0 62.5 11.5
t89.5 27.5z" />
    <glyph glyph-name="afii62757" unicode="&#x626;" horiz-adv-x="395" arabic-form="initial" 
d="M367 391q0 -89 -20.5 -161t-58.5 -123t-93 -79t-125 -28h-140v257h155q144 0 144 54q0 48 -112 170q-7 6 -7 15t7 17l117 163q9 12 17 12q7 0 13 -7q21 -23 40 -57.5t33 -74t22 -81t8 -77.5zM364 980q1 -4 1.5 -8.5t0.5 -11.5q0 -25 -5 -49t-9 -29q-140 -36 -351 -129
l-1 74q17 9 40.5 21t53.5 28q-12 5 -26 17t-25.5 27.5t-19 32t-7.5 29.5q0 57 69 123q68 65 127 65q15 0 34 -7t35.5 -18.5t28 -24.5t11.5 -25q0 -41 -31 -41q-5 0 -17.5 4t-27.5 9.5t-30 9.5t-25 4q-13 0 -28 -4t-27.5 -11t-20.5 -16t-8 -19q0 -18 10 -34t25.5 -28.5
t34.5 -20t36 -7.5q25 0 62.5 11.5t89.5 27.5z" />
    <glyph glyph-name="afii62758" unicode="&#x626;" horiz-adv-x="715" arabic-form="medial" 
d="M524 881q1 -4 1.5 -8.5t0.5 -11.5q0 -25 -5 -49t-9 -29q-140 -36 -351 -129l-1 74q17 9 40.5 21t53.5 28q-12 5 -26 17t-25.5 27.5t-19 32t-7.5 29.5q0 57 69 123q68 65 127 65q15 0 34 -7t35.5 -18.5t28 -24.5t11.5 -25q0 -41 -31 -41q-5 0 -17.5 4t-27.5 9.5t-30 9.5
t-25 4q-13 0 -28 -4t-27.5 -11t-20.5 -16t-8 -19q0 -18 10 -34t25.5 -28.5t34.5 -20t36 -7.5q25 0 62.5 11.5t89.5 27.5zM715 0h-68q-77 0 -148.5 40.5t-110.5 106.5q-39 -66 -109 -106.5t-147 -40.5h-202v257h162q146 0 202 65q29 33 45 121q12 65 49 65q36 0 47 -65
q15 -89 38 -121q45 -65 166 -65h76v-257z" />
    <glyph glyph-name="afii62763" unicode="&#x628;" horiz-adv-x="1693" arabic-form="final" 
d="M1693 0h-48q-91 0 -166 63q-61 51 -82 114q-143 -123 -341 -167q-129 -29 -335 -29q-544 0 -544 369q0 100 48 194q43 85 74 85q38 0 38 -42q0 -12 -12.5 -59.5t-12.5 -75.5q0 -137 154 -186q101 -32 308 -32q386 0 583 146q31 23 86 83q43 47 62 47q35 0 35 -49
q0 -22 -49 -127q31 -77 169 -77h33v-257zM879 -354l-135 -135l-136 135l136 136z" />
    <glyph glyph-name="afii62761" unicode="&#x628;" horiz-adv-x="395" arabic-form="initial" 
d="M318 -330l-135 -135l-136 135l136 136zM367 391q0 -89 -20.5 -161t-58.5 -123t-93 -79t-125 -28h-140v257h155q144 0 144 54q0 48 -112 170q-7 6 -7 15t7 17l117 163q9 12 17 12q7 0 13 -7q21 -23 40 -57.5t33 -74t22 -81t8 -77.5z" />
    <glyph glyph-name="afii62762" unicode="&#x628;" horiz-adv-x="715" arabic-form="medial" 
d="M495 -321l-135 -135l-136 135l136 136zM715 0h-68q-77 0 -148.5 40.5t-110.5 106.5q-39 -66 -109 -106.5t-147 -40.5h-202v257h162q146 0 202 65q29 33 45 121q12 65 49 65q36 0 47 -65q15 -89 38 -121q45 -65 166 -65h76v-257z" />
    <glyph glyph-name="afii62764" unicode="&#x629;" horiz-adv-x="982" arabic-form="final" 
d="M982 0h-98q-161 0 -234 242l-84 -136q-389 0 -389 134q0 36 28 121q13 39 36 89q113 110 310 189q-10 33 -32 96l140 161q17 -39 91 -434q25 -136 69 -178q28 -27 94 -27h69v-257zM634 316q-19 67 -54 199q-212 -87 -244 -144q35 -55 298 -55zM614 1004l-122 -123
l-123 123l123 122zM341 1004l-122 -123l-123 123l123 122z" />
    <glyph glyph-name="afii62767" unicode="&#x62a;" horiz-adv-x="1693" arabic-form="final" 
d="M1693 0h-48q-91 0 -166 63q-61 51 -82 114q-143 -123 -341 -167q-129 -29 -335 -29q-544 0 -544 369q0 100 48 194q43 85 74 85q38 0 38 -42q0 -12 -12.5 -59.5t-12.5 -75.5q0 -137 154 -186q101 -32 308 -32q386 0 583 146q31 23 86 83q43 47 62 47q35 0 35 -49
q0 -22 -49 -127q31 -77 169 -77h33v-257zM1116 842l-122 -123l-123 123l123 122zM843 842l-122 -123l-123 123l123 122z" />
    <glyph glyph-name="afii62765" unicode="&#x62a;" horiz-adv-x="395" arabic-form="initial" 
d="M367 391q0 -89 -20.5 -161t-58.5 -123t-93 -79t-125 -28h-140v257h155q144 0 144 54q0 48 -112 170q-7 6 -7 15t7 17l117 163q9 12 17 12q7 0 13 -7q21 -23 40 -57.5t33 -74t22 -81t8 -77.5zM433 953l-122 -123l-123 123l123 122zM160 953l-122 -123l-123 123l123 122z
" />
    <glyph glyph-name="afii62766" unicode="&#x62a;" horiz-adv-x="715" arabic-form="medial" 
d="M715 0h-68q-77 0 -148.5 40.5t-110.5 106.5q-39 -66 -109 -106.5t-147 -40.5h-202v257h162q146 0 202 65q29 33 45 121q12 65 49 65q36 0 47 -65q15 -89 38 -121q45 -65 166 -65h76v-257zM602 810l-122 -123l-123 123l123 122zM329 810l-122 -123l-123 123l123 122z" />
    <glyph glyph-name="afii62770" unicode="&#x62b;" horiz-adv-x="1693" arabic-form="final" 
d="M1693 0h-48q-91 0 -166 63q-61 51 -82 114q-143 -123 -341 -167q-129 -29 -335 -29q-544 0 -544 369q0 100 48 194q43 85 74 85q38 0 38 -42q0 -12 -12.5 -59.5t-12.5 -75.5q0 -137 154 -186q101 -32 308 -32q386 0 583 146q31 23 86 83q43 47 62 47q35 0 35 -49
q0 -22 -49 -127q31 -77 169 -77h33v-257zM594 841l123 122l122 -122l-122 -123zM867 841l123 122l122 -122l-122 -123zM728 1043l123 123l122 -123l-122 -122z" />
    <glyph glyph-name="afii62768" unicode="&#x62b;" horiz-adv-x="395" arabic-form="initial" 
d="M367 391q0 -89 -20.5 -161t-58.5 -123t-93 -79t-125 -28h-140v257h155q144 0 144 54q0 48 -112 170q-7 6 -7 15t7 17l117 163q9 12 17 12q7 0 13 -7q21 -23 40 -57.5t33 -74t22 -81t8 -77.5zM-94 931l123 122l122 -122l-122 -123zM179 931l123 122l122 -122l-122 -123z
M40 1133l123 123l122 -123l-122 -122z" />
    <glyph glyph-name="afii62769" unicode="&#x62b;" horiz-adv-x="715" arabic-form="medial" 
d="M715 0h-68q-77 0 -148.5 40.5t-110.5 106.5q-39 -66 -109 -106.5t-147 -40.5h-202v257h162q146 0 202 65q29 33 45 121q12 65 49 65q36 0 47 -65q15 -89 38 -121q45 -65 166 -65h76v-257zM93 835l123 122l122 -122l-122 -123zM366 835l123 122l122 -122l-122 -123z
M227 1037l123 123l122 -123l-122 -122z" />
    <glyph glyph-name="afii62773" unicode="&#x62c;" horiz-adv-x="1374" arabic-form="final" 
d="M847 -62l-135 -135l-136 135l136 136zM1374 0h-116q-171 0 -267 79q-104 86 -104 254q0 37 5 78q-159 -34 -288 -123q-195 -134 -195 -337q0 -344 491 -344q211 0 331 36q9 3 14 3q7 0 9 -5q4 -7 -8 -24q-110 -162 -446 -162q-258 0 -420 91q-203 115 -203 353
q0 197 176 354q141 126 361 203q-221 45 -275 45q-62 0 -121 -56.5t-64 -56.5q-45 0 -45 37q0 32 29 91q48 97 76 131q68 81 166 81q33 0 175 -24q190 -32 285 -42q158 -16 291 1q29 4 29 -3q0 -5 -11 -29l-88 -196q-76 0 -166 -10q0 -116 102 -151q49 -17 171 -17h106v-257
z" />
    <glyph glyph-name="afii62771" unicode="&#x62c;" horiz-adv-x="1148" arabic-form="initial" 
d="M1113 467l-129 -185q-129 0 -279 -73q-91 -47 -275 -136q-163 -73 -372 -73h-128v257h155q213 0 345 31q109 26 243 94q-53 20 -159 61q-127 48 -180 48q-59 0 -116.5 -50.5t-68.5 -50.5q-40 0 -40 45q0 30 29 82q110 195 246 195q65 0 309.5 -110.5t373.5 -110.5
q52 0 52 -10q-1 -7 -6 -14zM698 -316l-135 -135l-136 135l136 136z" />
    <glyph glyph-name="afii62772" unicode="&#x62c;" horiz-adv-x="1234" arabic-form="medial" 
d="M1234 0h-173q-328 0 -328 308q-333 -308 -678 -308h-125v257h152q181 0 313 47q91 33 282 144q-233 81 -345 81q-59 0 -116.5 -59.5t-68.5 -59.5q-38 0 -38 35q0 38 17 72q116 234 268 234q68 0 284 -70.5t356 -70.5q79 0 79 -7q-1 -2 -7 -16l-85 -183q-111 0 -184 -30
q0 -77 89 -103q49 -14 154 -14h154v-257zM712 -326l-135 -135l-136 135l136 136z" />
    <glyph glyph-name="afii62776" unicode="&#x62d;" horiz-adv-x="1374" arabic-form="final" 
d="M1374 0h-116q-171 0 -267 79q-104 86 -104 254q0 37 5 78q-159 -34 -288 -123q-195 -134 -195 -337q0 -344 491 -344q211 0 331 36q9 3 14 3q7 0 9 -5q4 -7 -8 -24q-110 -162 -446 -162q-258 0 -420 91q-203 115 -203 353q0 197 176 354q141 126 361 203q-221 45 -275 45
q-62 0 -121 -56.5t-64 -56.5q-45 0 -45 37q0 32 29 91q48 97 76 131q68 81 166 81q33 0 175 -24q190 -32 285 -42q158 -16 291 1q29 4 29 -3q0 -5 -11 -29l-88 -196q-76 0 -166 -10q0 -116 102 -151q49 -17 171 -17h106v-257z" />
    <glyph glyph-name="afii62774" unicode="&#x62d;" horiz-adv-x="1148" arabic-form="initial" 
d="M1113 467l-129 -185q-129 0 -279 -73q-91 -47 -275 -136q-163 -73 -372 -73h-128v257h155q213 0 345 31q109 26 243 94q-53 20 -159 61q-127 48 -180 48q-59 0 -116.5 -50.5t-68.5 -50.5q-40 0 -40 45q0 30 29 82q110 195 246 195q65 0 309.5 -110.5t373.5 -110.5
q52 0 52 -10q-1 -7 -6 -14z" />
    <glyph glyph-name="afii62775" unicode="&#x62d;" horiz-adv-x="1234" arabic-form="medial" 
d="M1234 0h-173q-328 0 -328 308q-333 -308 -678 -308h-125v257h152q181 0 313 47q91 33 282 144q-233 81 -345 81q-59 0 -116.5 -59.5t-68.5 -59.5q-38 0 -38 35q0 38 17 72q116 234 268 234q68 0 284 -70.5t356 -70.5q79 0 79 -7q-1 -2 -7 -16l-85 -183q-111 0 -184 -30
q0 -77 89 -103q49 -14 154 -14h154v-257z" />
    <glyph glyph-name="afii62779" unicode="&#x62e;" horiz-adv-x="1374" arabic-form="final" 
d="M1374 0h-116q-171 0 -267 79q-104 86 -104 254q0 37 5 78q-159 -34 -288 -123q-195 -134 -195 -337q0 -344 491 -344q211 0 331 36q9 3 14 3q7 0 9 -5q4 -7 -8 -24q-110 -162 -446 -162q-258 0 -420 91q-203 115 -203 353q0 197 176 354q141 126 361 203q-221 45 -275 45
q-62 0 -121 -56.5t-64 -56.5q-45 0 -45 37q0 32 29 91q48 97 76 131q68 81 166 81q33 0 175 -24q190 -32 285 -42q158 -16 291 1q29 4 29 -3q0 -5 -11 -29l-88 -196q-76 0 -166 -10q0 -116 102 -151q49 -17 171 -17h106v-257zM900 1026l-135 -135l-136 135l136 136z" />
    <glyph glyph-name="afii62777" unicode="&#x62e;" horiz-adv-x="1148" arabic-form="initial" 
d="M1113 467l-129 -185q-129 0 -279 -73q-91 -47 -275 -136q-163 -73 -372 -73h-128v257h155q213 0 345 31q109 26 243 94q-53 20 -159 61q-127 48 -180 48q-59 0 -116.5 -50.5t-68.5 -50.5q-40 0 -40 45q0 30 29 82q110 195 246 195q65 0 309.5 -110.5t373.5 -110.5
q52 0 52 -10q-1 -7 -6 -14zM752 992l-135 -135l-136 135l136 136z" />
    <glyph glyph-name="afii62778" unicode="&#x62e;" horiz-adv-x="1234" arabic-form="medial" 
d="M1234 0h-173q-328 0 -328 308q-333 -308 -678 -308h-125v257h152q181 0 313 47q91 33 282 144q-233 81 -345 81q-59 0 -116.5 -59.5t-68.5 -59.5q-38 0 -38 35q0 38 17 72q116 234 268 234q68 0 284 -70.5t356 -70.5q79 0 79 -7q-1 -2 -7 -16l-85 -183q-111 0 -184 -30
q0 -77 89 -103q49 -14 154 -14h154v-257zM773 1040l-135 -135l-136 135l136 136z" />
    <glyph glyph-name="afii62780" unicode="&#x62f;" horiz-adv-x="1141" arabic-form="final" 
d="M1141 0h-81q-143 0 -242 184q-83 -104 -135 -134q-86 -50 -252 -50q-251 0 -251 232q0 35 8 77q24 127 81 127q32 0 33 -50q2 -67 19 -92q34 -49 148 -49q278 0 278 106q0 67 -140 364l113 149q13 18 16 18q7 0 17 -27l174 -464q53 -137 143 -134h71v-257z" />
    <glyph glyph-name="afii62781" unicode="&#x630;" horiz-adv-x="1141" arabic-form="final" 
d="M1141 0h-81q-143 0 -242 184q-83 -104 -135 -134q-86 -50 -252 -50q-251 0 -251 232q0 35 8 77q24 127 81 127q32 0 33 -50q2 -67 19 -92q34 -49 148 -49q278 0 278 106q0 67 -140 364l113 149q13 18 16 18q7 0 17 -27l174 -464q53 -137 143 -134h71v-257zM778 1117
l-135 -135l-136 135l136 136z" />
    <glyph glyph-name="afii62782" unicode="&#x631;" horiz-adv-x="928" arabic-form="final" 
d="M928 0h-18q-96 0 -150 26q0 -304 -184 -482q-56 -54 -71 -54q-267 0 -399 51q-14 6 -14 10t12 9q180 67 351 195q190 142 190 246q0 20 -14.5 49t-39.5 63t-58 69t-70 67l105 212q4 9 10 9q4 0 12 -9q150 -204 277 -204h61v-257z" />
    <glyph glyph-name="afii62783" unicode="&#x632;" horiz-adv-x="928" arabic-form="final" 
d="M928 0h-18q-96 0 -150 26q0 -304 -184 -482q-56 -54 -71 -54q-267 0 -399 51q-14 6 -14 10t12 9q180 67 351 195q190 142 190 246q0 20 -14.5 49t-39.5 63t-58 69t-70 67l105 212q4 9 10 9q4 0 12 -9q150 -204 277 -204h61v-257zM615 726l-135 -135l-136 135l136 136z
" />
    <glyph glyph-name="afii62786" unicode="&#x633;" horiz-adv-x="2047" arabic-form="final" 
d="M2047 0h-94q-72 0 -120 37q-38 29 -79 100q-78 -137 -179 -137q-129 0 -174 128q-55 -127 -168 -127q-36 0 -77 14q7 -51 7 -98q0 -243 -183 -359q-152 -97 -410 -97q-231 0 -344 127q-91 102 -91 258q0 79 48 230q56 177 113 177q40 0 40 -56q0 -5 -30.5 -97t-30.5 -146
q0 -142 113 -199q82 -41 243 -41q158 0 287 49q148 56 148 146q0 56 -87 176q-74 102 -133 154l99 202q11 22 26 0q128 -185 247 -185q68 0 96 60q1 2 30 112q16 60 55 60q34 0 46 -60q19 -96 27 -112q29 -60 103 -60q70 0 100 60q4 8 31 112q16 60 54 60q33 0 45 -60
q18 -87 33 -111q37 -60 133 -60h76v-257z" />
    <glyph glyph-name="afii62784" unicode="&#x633;" horiz-adv-x="1224" arabic-form="initial" 
d="M1221 382q0 -139 -56 -247q-70 -135 -202 -135q-124 0 -205 137q-77 -137 -196 -137q-128 0 -206 137q-80 -137 -243 -137h-183v257h208q89 0 127 60q15 23 36 111q15 60 49 60q37 0 51 -60q22 -94 32 -112q33 -60 120 -60q86 0 122 60q11 18 36 112q16 60 54 60
q33 0 46 -61q19 -94 31 -114q35 -61 125 -61q125 0 125 84q0 42 -85 149l91 141q17 27 20 28q6 -3 20 -21q25 -33 50 -96q33 -83 33 -155z" />
    <glyph glyph-name="afii62785" unicode="&#x633;" horiz-adv-x="1458" arabic-form="medial" 
d="M1458 0h-87q-127 0 -207 137q-78 -137 -207 -137q-118 0 -199 137q-77 -137 -196 -137q-128 0 -206 137q-80 -137 -243 -137h-183v257h208q89 0 127 60q15 23 36 111q15 60 49 60q37 0 51 -60q22 -94 32 -112q33 -60 120 -60q86 0 122 60q11 18 36 112q16 60 54 60
q33 0 46 -60q19 -92 31 -112q35 -60 125 -60q77 0 111 60q7 13 36 112q17 60 56 60q33 0 45 -60q17 -86 33 -111q38 -60 133 -60h77v-257z" />
    <glyph glyph-name="afii62789" unicode="&#x634;" horiz-adv-x="2047" arabic-form="final" 
d="M2047 0h-94q-72 0 -120 37q-38 29 -79 100q-78 -137 -179 -137q-129 0 -174 128q-55 -127 -168 -127q-36 0 -77 14q7 -51 7 -98q0 -243 -183 -359q-152 -97 -410 -97q-231 0 -344 127q-91 102 -91 258q0 79 48 230q56 177 113 177q40 0 40 -56q0 -5 -30.5 -97t-30.5 -146
q0 -142 113 -199q82 -41 243 -41q158 0 287 49q148 56 148 146q0 56 -87 176q-74 102 -133 154l99 202q11 22 26 0q128 -185 247 -185q68 0 96 60q1 2 30 112q16 60 55 60q34 0 46 -60q19 -96 27 -112q29 -60 103 -60q70 0 100 60q4 8 31 112q16 60 54 60q33 0 45 -60
q18 -87 33 -111q37 -60 133 -60h76v-257zM1128 803l123 122l122 -122l-122 -123zM1401 803l123 122l122 -122l-122 -123zM1262 1005l123 123l122 -123l-122 -122z" />
    <glyph glyph-name="afii62787" unicode="&#x634;" horiz-adv-x="1224" arabic-form="initial" 
d="M1221 382q0 -139 -56 -247q-70 -135 -202 -135q-124 0 -205 137q-77 -137 -196 -137q-128 0 -206 137q-80 -137 -243 -137h-183v257h208q89 0 127 60q15 23 36 111q15 60 49 60q37 0 51 -60q22 -94 32 -112q33 -60 120 -60q86 0 122 60q11 18 36 112q16 60 54 60
q33 0 46 -61q19 -94 31 -114q35 -61 125 -61q125 0 125 84q0 42 -85 149l91 141q17 27 20 28q6 -3 20 -21q25 -33 50 -96q33 -83 33 -155zM455 844l123 122l122 -122l-122 -123zM728 844l123 122l122 -122l-122 -123zM589 1046l123 123l122 -123l-122 -122z" />
    <glyph glyph-name="afii62788" unicode="&#x634;" horiz-adv-x="1458" arabic-form="medial" 
d="M1458 0h-87q-127 0 -207 137q-78 -137 -207 -137q-118 0 -199 137q-77 -137 -196 -137q-128 0 -206 137q-80 -137 -243 -137h-183v257h208q89 0 127 60q15 23 36 111q15 60 49 60q37 0 51 -60q22 -94 32 -112q33 -60 120 -60q86 0 122 60q11 18 36 112q16 60 54 60
q33 0 46 -60q19 -92 31 -112q35 -60 125 -60q77 0 111 60q7 13 36 112q17 60 56 60q33 0 45 -60q17 -86 33 -111q38 -60 133 -60h77v-257zM495 798l123 122l122 -122l-122 -123zM768 798l123 122l122 -122l-122 -123zM629 1000l123 123l122 -123l-122 -122z" />
    <glyph glyph-name="afii62792" unicode="&#x635;" horiz-adv-x="1982" arabic-form="final" 
d="M1982 0h-98q-144 0 -192 116q-138 -116 -336 -116q-145 0 -241 36q13 -62 13 -121q0 -232 -171 -351q-149 -103 -392 -103q-231 0 -344 127q-91 102 -91 258q0 79 48 230q56 177 113 177q40 0 40 -56q0 -5 -30.5 -97t-30.5 -146q0 -142 113 -199q82 -41 243 -41
q158 0 273 52q135 61 135 167q0 55 -82 167q-69 94 -129 146l93 193q15 30 32 2q60 -98 148 -164q308 401 527 401q102 0 172 -59q74 -62 74 -162q0 -103 -56 -200h169v-257zM1707 346q0 62 -66 97q-53 29 -121 29q-129 0 -320 -218q83 -6 155 -6q174 0 274 37q78 29 78 61z
" />
    <glyph glyph-name="afii62790" unicode="&#x635;" horiz-adv-x="1268" arabic-form="initial" 
d="M1261 457q0 -188 -141 -309q-170 -145 -504 -145q-120 0 -189 22q-94 30 -150 111q-83 -136 -229 -136h-118v257h82q121 0 169 61q25 31 42 112q13 61 44 61q36 0 51 -61q23 -92 35 -112q36 -61 119 -61q116 151 235 259q180 162 309 162q102 0 171 -59q74 -62 74 -162z
M1100 346q0 62 -66 97q-53 29 -121 29q-129 0 -320 -218q82 -6 155 -6q173 0 273 37q79 29 79 61z" />
    <glyph glyph-name="afii62791" unicode="&#x635;" horiz-adv-x="1377" arabic-form="medial" 
d="M1377 0h-101q-139 0 -190 119q-90 -74 -223 -99q-88 -17 -247 -17q-120 0 -189 22q-94 30 -150 111q-83 -136 -229 -136h-118v257h82q121 0 169 61q25 31 42 112q13 61 44 61q36 0 51 -61q23 -92 35 -112q36 -61 119 -61q116 151 235 259q180 162 309 162q102 0 171 -59
q74 -62 74 -162q0 -103 -55 -200h171v-257zM1100 346q0 62 -66 97q-53 29 -121 29q-129 0 -320 -218q82 -6 155 -6q173 0 273 37q79 29 79 61z" />
    <glyph glyph-name="afii62795" unicode="&#x636;" horiz-adv-x="1982" arabic-form="final" 
d="M1982 0h-98q-144 0 -192 116q-138 -116 -336 -116q-145 0 -241 36q13 -62 13 -121q0 -232 -171 -351q-149 -103 -392 -103q-231 0 -344 127q-91 102 -91 258q0 79 48 230q56 177 113 177q40 0 40 -56q0 -5 -30.5 -97t-30.5 -146q0 -142 113 -199q82 -41 243 -41
q158 0 273 52q135 61 135 167q0 55 -82 167q-69 94 -129 146l93 193q15 30 32 2q60 -98 148 -164q308 401 527 401q102 0 172 -59q74 -62 74 -162q0 -103 -56 -200h169v-257zM1707 346q0 62 -66 97q-53 29 -121 29q-129 0 -320 -218q83 -6 155 -6q174 0 274 37q78 29 78 61z
M1296 889l-135 -135l-136 135l136 136z" />
    <glyph glyph-name="afii62793" unicode="&#x636;" horiz-adv-x="1268" arabic-form="initial" 
d="M1261 457q0 -188 -141 -309q-170 -145 -504 -145q-120 0 -189 22q-94 30 -150 111q-83 -136 -229 -136h-118v257h82q121 0 169 61q25 31 42 112q13 61 44 61q36 0 51 -61q23 -92 35 -112q36 -61 119 -61q116 151 235 259q180 162 309 162q102 0 171 -59q74 -62 74 -162z
M1100 346q0 62 -66 97q-53 29 -121 29q-129 0 -320 -218q82 -6 155 -6q173 0 273 37q79 29 79 61zM572 917l-135 -135l-136 135l136 136z" />
    <glyph glyph-name="afii62794" unicode="&#x636;" horiz-adv-x="1377" arabic-form="medial" 
d="M1377 0h-101q-139 0 -190 119q-90 -74 -223 -99q-88 -17 -247 -17q-120 0 -189 22q-94 30 -150 111q-83 -136 -229 -136h-118v257h82q121 0 169 61q25 31 42 112q13 61 44 61q36 0 51 -61q23 -92 35 -112q36 -61 119 -61q116 151 235 259q180 162 309 162q102 0 171 -59
q74 -62 74 -162q0 -103 -55 -200h171v-257zM1100 346q0 62 -66 97q-53 29 -121 29q-129 0 -320 -218q82 -6 155 -6q173 0 273 37q79 29 79 61zM635 890l-135 -135l-136 135l136 136z" />
    <glyph glyph-name="afii62798" unicode="&#x637;" horiz-adv-x="1442" arabic-form="final" 
d="M1442 0h-73q-137 0 -206 116q-128 -82 -307 -105q-84 -11 -276 -11q-318 0 -406 266q140 -13 340 -9v76q0 396 -91 763l187 171q26 -77 103 -278q6 -12 6 -17q0 -6 -9 -6t-70 16q13 -144 13 -254q0 -152 -29 -356q86 96 204 183q171 126 285 126q74 0 140 -49
q84 -62 84 -173q0 -97 -59 -202h164v-257zM1181 350q0 49 -59 90q-54 37 -105 37q-166 0 -367 -220h184q102 0 196 15q151 24 151 78z" />
    <glyph glyph-name="afii62796" unicode="&#x637;" horiz-adv-x="1017" arabic-form="initial" 
d="M1011 459q0 -239 -212 -361q-172 -98 -431 -98h-438v257h259v76q0 396 -92 763l187 171q27 -78 104 -274q6 -15 6 -19q0 -6 -10 -6q-11 0 -70 14q13 -144 13 -254q0 -152 -29 -356q84 94 205 183q171 126 284 126q74 0 140 -49q84 -62 84 -173zM855 350q0 50 -58 90
q-54 37 -106 37q-166 0 -367 -220h184q102 0 196 15q151 24 151 78z" />
    <glyph glyph-name="afii62797" unicode="&#x637;" horiz-adv-x="1117" arabic-form="medial" 
d="M1117 0h-74q-141 0 -208 113q-95 -74 -251 -98q-98 -15 -286 -15h-368v257h259v76q0 396 -92 763l187 171q27 -78 104 -275q6 -15 6 -21t-8 -6l-72 17q13 -144 13 -254q0 -152 -29 -356q84 94 205 183q171 126 284 126q74 0 140 -49q84 -62 84 -173q0 -97 -59 -202h165
v-257zM855 350q0 50 -58 90q-54 37 -106 37q-166 0 -367 -220h184q102 0 196 15q151 24 151 78z" />
    <glyph glyph-name="afii62801" unicode="&#x638;" horiz-adv-x="1442" arabic-form="final" 
d="M1442 0h-73q-137 0 -206 116q-128 -82 -307 -105q-84 -11 -276 -11q-318 0 -406 266q140 -13 340 -9v76q0 396 -91 763l187 171q26 -77 103 -278q6 -12 6 -17q0 -6 -9 -6t-70 16q13 -144 13 -254q0 -152 -29 -356q86 96 204 183q171 126 285 126q74 0 140 -49
q84 -62 84 -173q0 -97 -59 -202h164v-257zM1181 350q0 49 -59 90q-54 37 -105 37q-166 0 -367 -220h184q102 0 196 15q151 24 151 78zM1178 1026l-135 -135l-136 135l136 136z" />
    <glyph glyph-name="afii62799" unicode="&#x638;" horiz-adv-x="1017" arabic-form="initial" 
d="M830 1061l-135 -135l-136 135l136 136zM1011 459q0 -239 -212 -361q-172 -98 -431 -98h-438v257h259v76q0 396 -92 763l187 171q27 -78 104 -274q6 -15 6 -19q0 -6 -10 -6q-11 0 -70 14q13 -144 13 -254q0 -152 -29 -356q84 94 205 183q171 126 284 126q74 0 140 -49
q84 -62 84 -173zM855 350q0 50 -58 90q-54 37 -106 37q-166 0 -367 -220h184q102 0 196 15q151 24 151 78z" />
    <glyph glyph-name="afii62800" unicode="&#x638;" horiz-adv-x="1117" arabic-form="medial" 
d="M889 1071l-135 -135l-136 135l136 136zM1117 0h-74q-141 0 -208 113q-95 -74 -251 -98q-98 -15 -286 -15h-368v257h259v76q0 396 -92 763l187 171q27 -78 104 -275q6 -15 6 -21t-8 -6l-72 17q13 -144 13 -254q0 -152 -29 -356q84 94 205 183q171 126 284 126
q74 0 140 -49q84 -62 84 -173q0 -97 -59 -202h165v-257zM855 350q0 50 -58 90q-54 37 -106 37q-166 0 -367 -220h184q102 0 196 15q151 24 151 78z" />
    <glyph glyph-name="afii62804" unicode="&#x639;" horiz-adv-x="1225" arabic-form="final" 
d="M1225 0h-30q-261 0 -489 279q-303 -164 -303 -372q0 -158 153 -235q119 -60 293 -60q158 0 305 35q28 7 30 5q-1 -5 -9 -19q-99 -176 -465 -176q-217 0 -360 86q-173 104 -173 307q0 282 452 505q-29 37 -77 82q-62 59 -89.5 59t-27.5 32q0 42 49 96q81 89 246 89
q102 0 182 -41q94 -48 94 -126q0 -94 -174 -196q107 -93 337 -93h56v-257z" />
    <glyph glyph-name="afii62802" unicode="&#x639;" horiz-adv-x="933" arabic-form="initial" 
d="M898 297l-113 -208q-125 -8 -243 -21.5t-232 -33.5q-99 -17 -157.5 -25.5t-77.5 -8.5h-145v257h291q-14 11 -27.5 31t-24 43t-17 46.5t-6.5 41.5q0 112 127 245q135 142 272 142q37 0 74.5 -14.5t72.5 -39.5t64.5 -59.5t50.5 -74.5q18 -35 18 -50q0 -12 -13 -12t-40 10
q-107 37 -228 37q-45 0 -89 -8.5t-78 -23.5t-55 -36t-21 -46q0 -44 62 -106q79 -81 197 -81q103 0 182 3.5t134 10.5q5 1 9 1h7q12 0 12 -4q0 -6 -6 -16z" />
    <glyph glyph-name="afii62803" unicode="&#x639;" horiz-adv-x="766" arabic-form="medial" 
d="M766 0h-29q-143 0 -232 55q-50 31 -119 116q-153 -171 -354 -171h-102v257h144q141 0 211 54q-120 157 -165 157q-28 0 -28 32q0 44 48 97q80 89 247 89q102 0 182 -41q93 -48 93 -126q0 -56 -67 -123q-20 -20 -107 -90q57 -49 223 -49h55v-257z" />
    <glyph glyph-name="afii62807" unicode="&#x63a;" horiz-adv-x="1225" arabic-form="final" 
d="M849 978l-135 -135l-136 135l136 136zM1225 0h-30q-261 0 -489 279q-303 -164 -303 -372q0 -158 153 -235q119 -60 293 -60q158 0 305 35q28 7 30 5q-1 -5 -9 -19q-99 -176 -465 -176q-217 0 -360 86q-173 104 -173 307q0 282 452 505q-29 37 -77 82q-62 59 -89.5 59
t-27.5 32q0 42 49 96q81 89 246 89q102 0 182 -41q94 -48 94 -126q0 -94 -174 -196q107 -93 337 -93h56v-257z" />
    <glyph glyph-name="afii62805" unicode="&#x63a;" horiz-adv-x="933" arabic-form="initial" 
d="M898 297l-113 -208q-125 -8 -243 -21.5t-232 -33.5q-99 -17 -157.5 -25.5t-77.5 -8.5h-145v257h291q-14 11 -27.5 31t-24 43t-17 46.5t-6.5 41.5q0 112 127 245q135 142 272 142q37 0 74.5 -14.5t72.5 -39.5t64.5 -59.5t50.5 -74.5q18 -35 18 -50q0 -12 -13 -12t-40 10
q-107 37 -228 37q-45 0 -89 -8.5t-78 -23.5t-55 -36t-21 -46q0 -44 62 -106q79 -81 197 -81q103 0 182 3.5t134 10.5q5 1 9 1h7q12 0 12 -4q0 -6 -6 -16zM645 1072l-135 -135l-136 135l136 136z" />
    <glyph glyph-name="afii62806" unicode="&#x63a;" horiz-adv-x="766" arabic-form="medial" 
d="M766 0h-29q-143 0 -232 55q-50 31 -119 116q-153 -171 -354 -171h-102v257h144q141 0 211 54q-120 157 -165 157q-28 0 -28 32q0 44 48 97q80 89 247 89q102 0 182 -41q93 -48 93 -126q0 -56 -67 -123q-20 -20 -107 -90q57 -49 223 -49h55v-257zM513 959l-135 -135
l-136 135l136 136z" />
    <glyph glyph-name="afii62810" unicode="&#x641;" horiz-adv-x="1682" arabic-form="final" 
d="M1682 0h-48q-215 0 -371 117q-213 -140 -564 -140q-522 0 -522 373q0 99 52 194q47 85 78 85q38 0 38 -42q0 -10 -15.5 -57t-15.5 -76q0 -155 172 -202q73 -20 250 -20q275 0 353 40q-65 90 -65 155q0 99 78 216q90 136 203 136q97 0 154 -95q49 -81 49 -190
q0 -144 -74 -222q20 -15 151 -15h97v-257zM1402 440q0 40 -42 82.5t-82 42.5q-46 0 -94 -35q-51 -38 -51 -82q0 -32 50.5 -78.5t83.5 -46.5q28 0 77 33q58 39 58 84zM1408 1022l-135 -135l-136 135l136 136z" />
    <glyph glyph-name="afii62808" unicode="&#x641;" horiz-adv-x="666" arabic-form="initial" 
d="M635 418q0 -254 -131 -342q-112 -75 -349 -75h-225v257h251q238 0 319 41q36 18 36 62q0 27 -40 23q-129 -12 -179 -12q-199 0 -199 147q0 121 61 240q74 144 188 144q156 0 225 -204q43 -127 43 -281zM484 568q-28 68 -86 105q-43 27 -78 27q-31 0 -57 -21.5t-26 -52.5
q0 -70 136 -70q50 0 111 12zM478 1157l-135 -135l-136 135l136 136z" />
    <glyph glyph-name="afii62809" unicode="&#x641;" horiz-adv-x="785" arabic-form="medial" 
d="M785 0h-41q-99 0 -211 43q-88 34 -142 74q-200 -117 -347 -117h-114v257h154q94 0 133 15q-65 90 -65 155q0 99 78 216q90 136 203 136q97 0 154 -95q49 -81 49 -190q0 -144 -74 -222q20 -15 151 -15h72v-257zM530 440q0 40 -42 82.5t-82 42.5q-46 0 -94 -35
q-51 -38 -51 -82q0 -32 50.5 -78.5t83.5 -46.5q28 0 77 33q58 39 58 84zM550 1038l-135 -135l-136 135l136 136z" />
    <glyph glyph-name="afii62813" unicode="&#x642;" horiz-adv-x="1467" arabic-form="final" 
d="M1467 0h-214q2 -29 2 -56q0 -451 -641 -451q-231 0 -344 127q-91 102 -91 257q0 79 48 230q56 177 113 177q40 0 40 -55q0 -6 -30.5 -98t-30.5 -145q0 -142 113 -199q81 -41 243 -42q148 -1 289 38q190 53 190 161q0 27 -12 57q-27 0 -80 -1.5t-80 -1.5q-129 0 -188 28
q-80 38 -80 138q0 129 61 261q75 163 188 163q125 0 207 -136q59 -98 68 -195h229v-257zM1087 242q-27 67 -85 104q-44 28 -79 28q-31 0 -57 -21.5t-26 -52.5q0 -70 136 -70q51 0 111 12zM1210 825l-122 -123l-123 123l123 122zM937 825l-122 -123l-123 123l123 122z" />
    <glyph glyph-name="afii62811" unicode="&#x642;" horiz-adv-x="666" arabic-form="initial" 
d="M635 418q0 -254 -131 -342q-112 -75 -349 -75h-225v257h251q238 0 319 41q36 18 36 62q0 27 -40 23q-129 -12 -179 -12q-199 0 -199 147q0 121 61 240q74 144 188 144q156 0 225 -204q43 -127 43 -281zM484 568q-28 68 -86 105q-43 27 -78 27q-31 0 -57 -21.5t-26 -52.5
q0 -70 136 -70q50 0 111 12zM601 1111l-122 -123l-123 123l123 122zM328 1111l-122 -123l-123 123l123 122z" />
    <glyph glyph-name="afii62812" unicode="&#x642;" horiz-adv-x="785" arabic-form="medial" 
d="M785 0h-41q-99 0 -211 43q-88 34 -142 74q-200 -117 -347 -117h-114v257h154q94 0 133 15q-65 90 -65 155q0 99 78 216q90 136 203 136q97 0 154 -95q49 -81 49 -190q0 -144 -74 -222q20 -15 151 -15h72v-257zM530 440q0 40 -42 82.5t-82 42.5q-46 0 -94 -35
q-51 -38 -51 -82q0 -32 50.5 -78.5t83.5 -46.5q28 0 77 33q58 39 58 84zM665 1014l-122 -123l-123 123l123 122zM392 1014l-122 -123l-123 123l123 122z" />
    <glyph glyph-name="afii62816" unicode="&#x643;" horiz-adv-x="1609" arabic-form="final" 
d="M1609 0h-133q-33 0 -64.5 10t-58.5 27t-47.5 40t-30.5 49q-12 -22 -30.5 -42.5t-41 -37t-48 -28.5t-50.5 -16q-7 -2 -15 -3.5t-17 -3.5q-118 -7 -214 -10.5t-174 -3.5q-128 0 -223.5 20.5t-158.5 65t-94.5 114.5t-31.5 169q0 43 13.5 92.5t33.5 90.5t42.5 68.5t40.5 27.5
q38 0 38 -42q0 -3 -5 -19.5t-10.5 -38t-10.5 -42.5t-5 -33q0 -62 20.5 -104.5t64 -68t112.5 -36.5t167 -11q132 0 236.5 4t188.5 12q118 19 118 134q0 261 -11 434t-33 263l196 182q8 7 11 7q5 0 5 -11v-861q0 -141 141 -141h79v-257zM948 745q3 -9 3 -24q0 -26 -5 -47.5
t-9 -26.5q-72 -18 -159 -50t-193 -78v74q17 9 40 21t54 27q-14 6 -28 18.5t-25.5 27.5t-18.5 31t-7 30q0 28 20 61t50 61t64 46.5t62 18.5q15 0 34 -7t35.5 -18t28 -24.5t11.5 -25.5q0 -40 -31 -40q-5 0 -17.5 4t-27.5 9t-30 9t-25 4q-14 0 -28.5 -4t-27 -11t-20.5 -16
t-8 -19q0 -18 10 -34.5t26 -28.5t34.5 -19.5t35.5 -7.5q11 0 33.5 5.5t46.5 12t44.5 13t27.5 8.5z" />
    <glyph glyph-name="afii57410" unicode="&#x643;" horiz-adv-x="777" arabic-form="initial" 
d="M826 1241l-42 -227q-160 -52 -530 -183q124 -124 179 -208q77 -118 77 -236q0 -387 -422 -387h-158v257h121q212 0 285 19q58 15 58 56q0 65 -123 200q-113 124 -209 184l49 258q227 91 715 267z" />
    <glyph glyph-name="afii62815" unicode="&#x643;" horiz-adv-x="1083" arabic-form="medial" 
d="M1083 0h-154q-97 0 -205 91q-63 53 -219 228q-15 -319 -374 -319h-201v257h167q297 0 297 75q0 73 -123 205q-107 115 -209 179l49 258q419 167 760 278l-52 -228q-177 -56 -565 -193q152 -145 332 -335q136 -144 188 -183q74 -56 154 -56h155v-257z" />
    <glyph glyph-name="afii62817" unicode="&#x644;" horiz-adv-x="359" arabic-form="initial" 
d="M352 987q2 -4 3 -8t3 -9q-1 -4 -12 -4q-8 0 -23 2t-36 6q8 -150 12.5 -297t4.5 -295q0 -49 -1.5 -89.5t-8.5 -76t-20 -66t-35 -59.5q-70 -91 -191 -91h-118v257h111q32 0 54.5 4.5t37 15.5t21 29t6.5 46q0 67 -11.5 166.5t-28.5 230.5q-33 261 -54 343l167 165q6 6 11 6
q6 0 11 -11q13 -42 37.5 -107.5t59.5 -157.5z" />
    <glyph glyph-name="afii62818" unicode="&#x644;" horiz-adv-x="616" arabic-form="medial" 
d="M616 0h-133q-33 0 -64.5 10t-58.5 27t-47.5 40t-30.5 49q-14 -26 -36.5 -49t-49 -40t-55.5 -27t-56 -10h-155v257h153q145 0 145 137q0 509 -44 687l196 182q9 7 11 7q5 0 5 -11v-861q0 -141 141 -141h79v-257z" />
    <glyph glyph-name="afii62822" unicode="&#x645;" horiz-adv-x="1154" arabic-form="final" 
d="M1154 0h-55q-96 0 -138 39q0 -303 -174 -303q-110 0 -183 97q-88 116 -88 331h-79q-56 0 -78 -11q-33 -16 -33 -67q0 -6 2 -26q30 -302 16 -426q-3 -23 -40 -85q-16 -26 -49 -79q-13 -22 -20 -22q-9 0 -11 37q-9 165 -29 373l-18 203q0 194 140 277q90 53 219 53l45 135
q231 -179 259 -196q119 -73 256 -73h58v-257zM860 25q0 39 -99 123l-136 106v-36q0 -98 35 -168q44 -90 133 -90q67 0 67 65z" />
    <glyph glyph-name="afii62820" unicode="&#x645;" horiz-adv-x="733" arabic-form="initial" 
d="M705 210q0 -103 -63 -167.5t-165 -64.5q-137 0 -229 145q-64 -123 -188 -123h-130v257h130q86 0 108 15q18 12 14 55q-8 100 61 189q75 96 188 96q140 0 214 -136q60 -111 60 -266zM583 267q0 60 -42 136q-48 86 -102 86q-68 0 -68 -91q0 -68 36 -144q44 -91 104 -91
q72 0 72 104z" />
    <glyph glyph-name="afii62825" unicode="&#x646;" horiz-adv-x="1379" arabic-form="final" 
d="M1379 0h-68q-70 0 -111 24q7 -51 7 -98q0 -245 -181 -364q-153 -101 -412 -101q-231 0 -344 127q-91 102 -91 258q0 79 48 230q56 177 113 177q40 0 40 -56q0 -5 -30.5 -97t-30.5 -146q0 -142 113 -199q82 -41 243 -41q158 0 287 49q148 56 148 146q0 56 -87 176
q-74 102 -133 154l99 202q11 22 26 0q65 -94 103 -128q63 -56 144 -56h117v-257zM804 593l-135 -136l-136 136l136 135z" />
    <glyph glyph-name="afii62823" unicode="&#x646;" horiz-adv-x="395" arabic-form="initial" 
d="M281 948l-135 -135l-136 135l136 136zM367 391q0 -89 -20.5 -161t-58.5 -123t-93 -79t-125 -28h-140v257h155q144 0 144 54q0 48 -112 170q-7 6 -7 15t7 17l117 163q9 12 17 12q7 0 13 -7q21 -23 40 -57.5t33 -74t22 -81t8 -77.5z" />
    <glyph glyph-name="afii62824" unicode="&#x646;" horiz-adv-x="715" arabic-form="medial" 
d="M495 845l-135 -135l-136 135l136 136zM715 0h-68q-77 0 -148.5 40.5t-110.5 106.5q-39 -66 -109 -106.5t-147 -40.5h-202v257h162q146 0 202 65q29 33 45 121q12 65 49 65q36 0 47 -65q15 -89 38 -121q45 -65 166 -65h76v-257z" />
    <glyph glyph-name="afii62828" unicode="&#x647;" horiz-adv-x="982" arabic-form="final" 
d="M982 0h-98q-161 0 -234 242l-84 -136q-389 0 -389 134q0 36 28 121q13 39 36 89q113 110 310 189q-10 33 -32 96l140 161q17 -39 91 -434q25 -136 69 -178q28 -27 94 -27h69v-257zM634 316q-19 67 -54 199q-212 -87 -244 -144q35 -55 298 -55z" />
    <glyph glyph-name="afii62829" unicode="&#x648;" horiz-adv-x="920" arabic-form="final" 
d="M920 0h-147q0 -252 -172 -448q-55 -62 -70 -62q-251 0 -399 51q-15 4 -15 10q0 4 13 9q174 63 347 200q185 146 185 244h-25.5t-41 -0.5t-41 -0.5h-25.5q-138 0 -196 30q-83 42 -83 158q0 106 67 241q81 165 192 165q49 0 92.5 -25t78 -70t58.5 -107.5t35 -137.5h147
v-257zM625 254q-11 28 -30 52.5t-41.5 42.5t-46.5 28t-45 10q-15 0 -30 -6t-27 -16t-19 -23.5t-7 -28.5q0 -70 112 -70q26 0 59 3t75 8z" />
    <glyph glyph-name="afii62830" unicode="&#x649;" horiz-adv-x="1431" arabic-form="final" 
d="M1431 0h-60q-54 0 -161.5 15t-161.5 15q-45 0 -86 -12q-59 -18 -59 -53q0 -21 53 -28q46 -5 137 -16q114 -14 159 -36q58 -28 58 -90q0 -209 -224 -302q-158 -65 -402 -65q-507 0 -507 371q0 101 66 245q63 138 99 138q47 0 47 -42q0 -7 -28 -83t-28 -139
q0 -164 164 -219q101 -34 327 -34q77 0 203 22q152 26 152 61q0 17 -104 25q-140 10 -194 26q-105 30 -105 102q0 110 105 216q138 140 380 140h170v-257z" />
    <glyph glyph-name="afii62833" unicode="&#x64a;" horiz-adv-x="1431" arabic-form="final" 
d="M967 -837l-122 -123l-123 123l123 122zM694 -837l-122 -123l-123 123l123 122zM1431 0h-60q-54 0 -161.5 15t-161.5 15q-45 0 -86 -12q-59 -18 -59 -53q0 -21 53 -28q46 -5 137 -16q114 -14 159 -36q58 -28 58 -90q0 -209 -224 -302q-158 -65 -402 -65q-507 0 -507 371
q0 101 66 245q63 138 99 138q47 0 47 -42q0 -7 -28 -83t-28 -139q0 -164 164 -219q101 -34 327 -34q77 0 203 22q152 26 152 61q0 17 -104 25q-140 10 -194 26q-105 30 -105 102q0 110 105 216q138 140 380 140h170v-257z" />
    <glyph glyph-name="afii62831" unicode="&#x64a;" horiz-adv-x="423" arabic-form="initial" 
d="M367 391q0 -89 -20.5 -161t-58.5 -123t-93 -79t-125 -28h-140v257h155q144 0 144 54q0 48 -112 170q-7 6 -7 15t7 17l117 163q9 12 17 12q7 0 13 -7q21 -23 40 -57.5t33 -74t22 -81t8 -77.5zM450 -312l-122 -123l-123 123l123 122zM177 -312l-122 -123l-123 123l123 122z
" />
    <glyph glyph-name="afii62832" unicode="&#x6cc;" horiz-adv-x="715" arabic-form="medial" 
d="M715 0h-68q-77 0 -148.5 40.5t-110.5 106.5q-39 -66 -109 -106.5t-147 -40.5h-202v257h162q146 0 202 65q29 33 45 121q12 65 49 65q36 0 47 -65q15 -89 38 -121q45 -65 166 -65h76v-257zM634 -308l-122 -123l-123 123l123 122zM361 -308l-122 -123l-123 123l123 122z
" />
    <glyph glyph-name="uniFBA4" unicode="&#x6c0;" horiz-adv-x="788" arabic-form="isolated" 
d="M760 314q0 -144 -82.5 -230.5t-226.5 -86.5q-156 0 -226 88q-48 61 -48 147q0 113 89 275q83 151 156 202q150 -58 225 -126q113 -103 113 -269zM647 316q-98 116 -274 173q-67 -74 -67 -167q0 -45 58 -72q52 -24 121 -24q103 0 156 38q31 22 6 52zM607 1038
q1 -4 1.5 -8.5t0.5 -11.5q0 -25 -5 -49t-9 -29q-140 -36 -351 -129l-1 74q17 9 40.5 21t53.5 28q-12 5 -26 17t-25.5 27.5t-19 32t-7.5 29.5q0 57 69 123q68 65 127 65q15 0 34 -7t35.5 -18.5t28 -24.5t11.5 -25q0 -41 -31 -41q-5 0 -17.5 4t-27.5 9.5t-30 9.5t-25 4
q-13 0 -28 -4t-27.5 -11t-20.5 -16t-8 -19q0 -18 10 -34t25.5 -28.5t34.5 -20t36 -7.5q25 0 62.5 11.5t89.5 27.5z" />
    <glyph glyph-name="uniFBA5" unicode="&#x6c0;" horiz-adv-x="982" arabic-form="final" 
d="M982 0h-98q-161 0 -234 242l-84 -136q-389 0 -389 134q0 36 28 121q13 39 36 89q113 110 310 189q-10 33 -32 96l140 161q17 -39 91 -434q25 -136 69 -178q28 -27 94 -27h69v-257zM634 316q-19 67 -54 199q-212 -87 -244 -144q35 -55 298 -55zM638 1122q1 -4 1.5 -8.5
t0.5 -11.5q0 -25 -5 -49t-9 -29q-140 -36 -351 -129l-1 74q17 9 40.5 21t53.5 28q-12 5 -26 17t-25.5 27.5t-19 32t-7.5 29.5q0 57 69 123q68 65 127 65q15 0 34 -7t35.5 -18.5t28 -24.5t11.5 -25q0 -41 -31 -41q-5 0 -17.5 4t-27.5 9.5t-30 9.5t-25 4q-13 0 -28 -4
t-27.5 -11t-20.5 -16t-8 -19q0 -18 10 -34t25.5 -28.5t34.5 -20t36 -7.5q25 0 62.5 11.5t89.5 27.5z" />
    <glyph glyph-name="uniFBFE" unicode="&#x6cc;" horiz-adv-x="395" arabic-form="initial" 
d="M367 391q0 -89 -20.5 -161t-58.5 -123t-93 -79t-125 -28h-140v257h155q144 0 144 54q0 48 -112 170q-7 6 -7 15t7 17l117 163q9 12 17 12q7 0 13 -7q21 -23 40 -57.5t33 -74t22 -81t8 -77.5zM431 -312l-122 -123l-123 123l123 122zM158 -312l-122 -123l-123 123l123 122z
" />
    <glyph glyph-name="uniFB68" unicode="&#x679;" horiz-adv-x="330" arabic-form="initial" 
 />
    <glyph glyph-name="uniFB69" unicode="&#x679;" horiz-adv-x="522" arabic-form="medial" 
 />
    <glyph glyph-name="uniFBA6" unicode="&#x6c1;" horiz-adv-x="813" arabic-form="isolated" 
d="M760 314q0 -144 -82.5 -230.5t-226.5 -86.5q-156 0 -226 88q-48 61 -48 147q0 113 89 275q83 151 156 202q150 -58 225 -126q113 -103 113 -269zM647 316q-98 116 -274 173q-67 -74 -67 -167q0 -45 58 -72q52 -24 121 -24q103 0 156 38q31 22 6 52z" />
    <glyph glyph-name="uniFB51" unicode="&#x671;" horiz-adv-x="581" arabic-form="final" 
d="M581 0h-91q-59 0 -107 23t-82.5 66t-53.5 105.5t-19 140.5q0 123 -15 371q-17 280 -33 366q-1 5 -1.5 9.5t-0.5 8.5q0 14 6 20l165 134q30 24 35 24l1 -1q6 -2 6 -28l-2 -841q0 -142 159 -141h33v-257zM284 1541q31 24 59 28.5t49 -6.5t34 -36t13 -62l-1 -80h-320v58h54z
M252 1443h128v30q-2 29 -20 37t-48 -14z" />
    <glyph glyph-name="uni0675.fina" unicode="&#x675;" horiz-adv-x="581" 
d="M581 0h-91q-59 0 -107 23t-82.5 66t-53.5 105.5t-19 140.5q0 123 -15 371q-17 280 -33 366q-1 5 -1.5 9.5t-0.5 8.5q0 14 6 20l165 134q30 24 35 24l1 -1q6 -2 6 -28l-2 -841q0 -142 159 -141h33v-257zM432 1499q1 -4 1.5 -8.5t0.5 -11.5q0 -25 -5 -49t-9 -29
q-140 -36 -351 -129l-1 74q17 9 40.5 21t53.5 28q-12 5 -26 17t-25.5 27.5t-19 32t-7.5 29.5q0 57 69 123q68 65 127 65q15 0 34 -7t35.5 -18.5t28 -24.5t11.5 -25q0 -41 -31 -41q-5 0 -17.5 4t-27.5 9.5t-30 9.5t-25 4q-13 0 -28 -4t-27.5 -11t-20.5 -16t-8 -19
q0 -18 10 -34t25.5 -28.5t34.5 -20t36 -7.5q25 0 62.5 11.5t89.5 27.5z" />
    <glyph glyph-name="uni0676.fina" unicode="&#x676;" horiz-adv-x="920" 
d="M920 0h-147q0 -252 -172 -448q-55 -62 -70 -62q-251 0 -399 51q-15 4 -15 10q0 4 13 9q174 63 347 200q185 146 185 244h-25.5t-41 -0.5t-41 -0.5h-25.5q-138 0 -196 30q-83 42 -83 158q0 106 67 241q81 165 192 165q49 0 92.5 -25t78 -70t58.5 -107.5t35 -137.5h147
v-257zM625 254q-11 28 -30 52.5t-41.5 42.5t-46.5 28t-45 10q-15 0 -30 -6t-27 -16t-19 -23.5t-7 -28.5q0 -70 112 -70q26 0 59 3t75 8zM715 953q1 -4 1.5 -8.5t0.5 -11.5q0 -25 -5 -49t-9 -29q-140 -36 -351 -129l-1 74q17 9 40.5 21t53.5 28q-12 5 -26 17t-25.5 27.5
t-19 32t-7.5 29.5q0 57 69 123q68 65 127 65q15 0 34 -7t35.5 -18.5t28 -24.5t11.5 -25q0 -41 -31 -41q-5 0 -17.5 4t-27.5 9.5t-30 9.5t-25 4q-13 0 -28 -4t-27.5 -11t-20.5 -16t-8 -19q0 -18 10 -34t25.5 -28.5t34.5 -20t36 -7.5q25 0 62.5 11.5t89.5 27.5z" />
    <glyph glyph-name="uni0678.fina" unicode="&#x678;" horiz-adv-x="1431" 
d="M1431 0h-60q-54 0 -161.5 15t-161.5 15q-45 0 -86 -12q-59 -18 -59 -53q0 -21 53 -28q46 -5 137 -16q114 -14 159 -36q58 -28 58 -90q0 -209 -224 -302q-158 -65 -402 -65q-507 0 -507 371q0 101 66 245q63 138 99 138q47 0 47 -42q0 -7 -28 -83t-28 -139
q0 -164 164 -219q101 -34 327 -34q77 0 203 22q152 26 152 61q0 17 -104 25q-140 10 -194 26q-105 30 -105 102q0 110 105 216q138 140 380 140h170v-257zM797 597q1 -4 1.5 -8.5t0.5 -11.5q0 -25 -5 -49t-9 -29q-140 -36 -351 -129l-1 74q17 9 40.5 21t53.5 28
q-12 5 -26 17t-25.5 27.5t-19 32t-7.5 29.5q0 57 69 123q68 65 127 65q15 0 34 -7t35.5 -18.5t28 -24.5t11.5 -25q0 -41 -31 -41q-5 0 -17.5 4t-27.5 9.5t-30 9.5t-25 4q-13 0 -28 -4t-27.5 -11t-20.5 -16t-8 -19q0 -18 10 -34t25.5 -28.5t34.5 -20t36 -7.5q25 0 62.5 11.5
t89.5 27.5z" />
    <glyph glyph-name="uniFB54" unicode="&#x67b;" horiz-adv-x="305" arabic-form="initial" 
 />
    <glyph glyph-name="uniFB55" unicode="&#x67b;" horiz-adv-x="515" arabic-form="medial" 
 />
    <glyph glyph-name="afii62760" unicode="&#x627;" horiz-adv-x="581" arabic-form="final" 
d="M581 0h-91q-59 0 -107 23t-82.5 66t-53.5 105.5t-19 140.5q0 123 -15 371q-17 280 -33 366q-1 5 -1.5 9.5t-0.5 8.5q0 14 6 20l165 134q30 24 35 24l1 -1q6 -2 6 -28l-2 -841q0 -142 159 -141h33v-257z" />
    <glyph glyph-name="afii57415" unicode="&#x627;" horiz-adv-x="445" arabic-form="isolated" 
d="M396 227q0 -71 -76 -232q-20 -42 -28 -42q-13 0 -21 93l-95 1056l184 153q18 15 26 15q10 0 10 -21v-1022z" />
    <glyph glyph-name="afii62821" unicode="&#x645;" horiz-adv-x="909" arabic-form="medial" 
d="M909 0h-68q-55 0 -102.5 39.5t-68.5 93.5q-58 -154 -202 -154q-128 0 -220 145q-64 -123 -188 -124h-130v257h130q86 1 108 16q18 12 14 55q-8 100 60 190q74 98 186 98q150 0 225 -167l63 -141q33 -51 101 -51h92v-257zM583 268q0 60 -42 136q-48 86 -102 86
q-68 0 -68 -91q0 -68 36 -144q44 -91 104 -91q72 0 72 104z" />
    <glyph glyph-name="afii62819" unicode="&#x644;" horiz-adv-x="1342" arabic-form="final" 
d="M1342 0h-40q-116 0 -167 73q0 -232 -77 -357q-127 -205 -471 -205q-412 0 -412 369q0 86 43 203q45 126 85 126q37 0 37 -48q0 -8 -6 -31.5t-12.5 -51.5t-12.5 -54.5t-6 -39.5q0 -218 312 -218q206 0 315 67q74 47 74 86q0 153 -6 327.5t-19 373.5q-23 360 -42 466
l190 165q2 2 5.5 4.5t7.5 2.5q6 0 6 -13l9 -803q2 -185 157 -185h30v-257z" />
    <glyph glyph-name="uniFC63" unicode="&#xfc63;" arabic-form="isolated" 
d="M169 290q-2 -22 -5 -54t-11 -75q-29 -84 -105 -84q-29 0 -57 14q-50 -90 -109 -90q-73 0 -73 100q0 39 7.5 65t22.5 42q25 26 39 16q-8 -14 -12 -31t-4 -40q0 -43 33 -43q40 0 61 61l27 96l41 23q0 -105 53 -105q41 0 41 33q0 44 1.5 68.5t4.5 32.5q19 40 51 49zM34 451
l-51 -77q-6 0 -10 21q-15 87 -47 317l87 60q7 4 12 4q6 0 7 -7q0 -95 2 -318z" />
    <glyph glyph-name="uniFC5D" unicode="&#xfc5d;" horiz-adv-x="1360" arabic-form="isolated" 
d="M1374 488q2 -14 3.5 -24t1.5 -17q0 -16 -7 -16q-6 0 -28 11q-52 28 -166 28q-125 0 -217 -86q-71 -68 -71 -109q0 -48 76 -70q35 -11 156 -28q60 -8 98.5 -22t61.5 -38t32 -59t9 -84q0 -233 -170 -354.5t-497 -121.5q-477 0 -477 393q0 78 48 230q55 177 113 177
q40 0 40 -56q0 -2 -8 -26.5t-23 -70.5q-16 -46 -23 -82.5t-7 -63.5q0 -253 380 -253q164 0 310 33q198 45 198 126q0 44 -116 58q-168 19 -216 38q-117 45 -117 165q0 134 118 315q132 203 281 203q97 0 163 -84q44 -56 54 -112zM510 556l-51 -77q-6 0 -10 21
q-15 87 -47 317l87 60q7 4 12 4q6 0 7 -7q0 -95 2 -318z" />
    <glyph glyph-name="uniFBE5" unicode="&#x6d0;" horiz-adv-x="1226" arabic-form="final" 
d="M1431 0h-60q-54 0 -161.5 15t-161.5 15q-45 0 -86 -12q-59 -18 -59 -53q0 -21 53 -28q46 -5 137 -16q114 -14 159 -36q58 -28 58 -90q0 -209 -224 -302q-158 -65 -402 -65q-507 0 -507 371q0 101 66 245q63 138 99 138q47 0 47 -42q0 -7 -28 -83t-28 -139
q0 -164 164 -219q101 -34 327 -34q77 0 203 22q152 26 152 61q0 17 -104 25q-140 10 -194 26q-105 30 -105 102q0 110 105 216q138 140 380 140h170v-257z" />
    <glyph glyph-name="uniFE7B" unicode="&#xfe7b;" horiz-adv-x="935" arabic-form="medial" 
d="M641 -329l-368 -171l23 99l368 170zM972 0h-998v257h998v-257z" />
    <glyph glyph-name="uniFCF2" unicode="&#xfcf2;" horiz-adv-x="935" arabic-form="medial" 
d="M632 843q-2 -22 -5 -54t-11 -75q-29 -84 -105 -84q-29 0 -57 14q-50 -90 -109 -90q-73 0 -73 100q0 39 7.5 65t22.5 42q25 26 39 16q-8 -14 -12 -31t-4 -40q0 -43 33 -43q40 0 61 61l27 96l41 23q0 -105 53 -105q41 0 41 33q0 44 1.5 68.5t4.5 32.5q19 40 51 49z
M654 1034l-368 -171l23 99l368 170zM972 0h-998v257h998v-257z" />
    <glyph glyph-name="uniFCF3" unicode="&#xfcf3;" horiz-adv-x="935" arabic-form="medial" 
d="M617 860q-2 -22 -5 -54t-11 -75q-29 -84 -105 -84q-29 0 -57 14q-50 -90 -109 -90q-73 0 -73 100q0 39 7.5 65t22.5 42q25 26 39 16q-8 -14 -12 -31t-4 -40q0 -43 33 -43q40 0 61 61l27 96l41 23q0 -105 53 -105q41 0 41 33q0 44 1.5 68.5t4.5 32.5q19 40 51 49z
M710 1108q-30 -55 -57 -73l-68 24q-95 -123 -274 -123q-53 0 -68 33q25 2 61.5 11.5t86.5 29.5q51 20 86 38.5t55 35.5q-119 55 -119 125q0 54 66 114q69 60 125 60q78 0 78 -109q0 -45 -10.5 -80t-30.5 -61q41 -25 69 -25zM616 1229q0 70 -45 70q-12 0 -24.5 -3.5
t-24.5 -11.5q-31 -15 -31 -38q0 -46 109 -93q16 24 16 76zM972 0h-998v257h998v-257z" />
    <glyph glyph-name="uniFE71" unicode="&#xfe71;" horiz-adv-x="935" arabic-form="medial" 
d="M644 734l-368 -171l23 99l368 170zM654 895l-368 -171l23 99l368 170zM972 0h-998v257h998v-257z" />
    <glyph glyph-name="uniFE77" unicode="&#xfe77;" horiz-adv-x="935" arabic-form="medial" 
d="M678 762l-368 -171l23 99l368 170zM972 0h-998v257h998v-257z" />
    <glyph glyph-name="uniFE79" unicode="&#xfe79;" horiz-adv-x="935" arabic-form="medial" 
d="M723 763q-30 -55 -57 -73l-68 24q-95 -123 -274 -123q-53 0 -68 33q25 2 61.5 11.5t86.5 29.5q51 20 86 38.5t55 35.5q-119 55 -119 125q0 54 66 114q69 60 125 60q78 0 78 -109q0 -45 -10.5 -80t-30.5 -61q41 -25 69 -25zM629 884q0 70 -45 70q-12 0 -24.5 -3.5
t-24.5 -11.5q-31 -15 -31 -38q0 -46 109 -93q16 24 16 76zM972 0h-998v257h998v-257z" />
    <glyph glyph-name="uniFE7D" unicode="&#xfe7d;" horiz-adv-x="935" arabic-form="medial" 
d="M679 858q-2 -22 -5 -54t-11 -75q-29 -84 -105 -84q-29 0 -57 14q-50 -90 -109 -90q-73 0 -73 100q0 39 7.5 65t22.5 42q25 26 39 16q-8 -14 -12 -31t-4 -40q0 -43 33 -43q40 0 61 61l27 96l41 23q0 -105 53 -105q41 0 41 33q0 44 1.5 68.5t4.5 32.5q19 40 51 49zM972 0
h-998v257h998v-257z" />
    <glyph glyph-name="uniFE7F" unicode="&#xfe7f;" horiz-adv-x="935" arabic-form="medial" 
d="M628 657q0 -38 -14.5 -70.5t-39.5 -57t-57.5 -38.5t-68.5 -14q-119 0 -119 121q0 48 13.5 88t39.5 72q43 69 103 69q28 0 54 -13t46 -35.5t31.5 -54t11.5 -67.5zM577 621q0 47 -39 79q-34 31 -74 31q-17 0 -32 -8t-27 -25q-21 -27 -21 -57q0 -67 86 -67q72 0 107 47z
M972 0h-998v257h998v-257z" />
    <glyph glyph-name="uniFCF4" unicode="&#xfcf4;" horiz-adv-x="935" arabic-form="medial" 
d="M633 996q-2 -22 -5 -54t-11 -75q-29 -84 -105 -84q-29 0 -57 14q-50 -90 -109 -90q-73 0 -73 100q0 39 7.5 65t22.5 42q25 26 39 16q-8 -14 -12 -31t-4 -40q0 -43 33 -43q40 0 61 61l27 96l41 23q0 -105 53 -105q41 0 41 33q0 44 1.5 68.5t4.5 32.5q19 40 51 49zM636 659
l-368 -171l23 99l368 170zM972 0h-998v257h998v-257z" />
    <glyph glyph-name="uni06BA" unicode="&#x6ba;" arabic-form="isolated" 
 />
    <glyph glyph-name="uniFB9F" unicode="&#x6ba;" arabic-form="final" 
 />
    <glyph glyph-name="uniFBA8" unicode="&#x6c1;" arabic-form="initial" 
 />
    <glyph glyph-name="afii62827" unicode="&#x6be;" horiz-adv-x="934" arabic-form="final" 
d="M934 0h-64q-107 0 -144 -9q-71 -17 -71 -74q0 -88 169 -158l-86 -236q-245 71 -389 214q-84 83 -119 167q-2 6 -40 111q-93 -15 -160 -15h-100v257h236q0 264 215 561q76 -90 135 -213q71 -147 71 -255q0 -280 -252 -319q60 -112 209 -191q-8 157 79 281q95 136 246 136
h65v-257zM469 288q0 48 -45 131q-36 66 -66 101q-78 -111 -78 -256q66 0 189 24z" />
    <glyph glyph-name="uniFC09" unicode="&#xfc09;" horiz-adv-x="1647" arabic-form="isolated" 
 />
    <glyph glyph-name="uniFC0F" unicode="&#xfc0f;" horiz-adv-x="1669" arabic-form="isolated" 
 />
    <glyph glyph-name="uniFC31" unicode="&#xfc31;" horiz-adv-x="1838" arabic-form="isolated" 
 />
    <glyph glyph-name="uniFC4F" unicode="&#xfc4f;" horiz-adv-x="1661" arabic-form="isolated" 
 />
    <glyph glyph-name="uniFC59" unicode="&#xfc59;" horiz-adv-x="1823" arabic-form="isolated" 
 />
    <glyph glyph-name="uniFC6E" unicode="&#xfc6e;" horiz-adv-x="1746" arabic-form="final" 
 />
    <glyph glyph-name="uniFC74" unicode="&#xfc74;" horiz-adv-x="1846" arabic-form="final" 
 />
    <glyph glyph-name="uniFC8E" unicode="&#xfc8e;" horiz-adv-x="1809" arabic-form="final" 
 />
    <glyph glyph-name="uniFC95" unicode="&#xfc95;" horiz-adv-x="1805" arabic-form="final" 
 />
    <glyph glyph-name="uniFC9C" unicode="&#xfc9c;" horiz-adv-x="1766" arabic-form="initial" 
 />
    <glyph glyph-name=".notdef" horiz-adv-x="2048" 
 />
    <glyph glyph-name=".null" 
 />
    <glyph glyph-name="nonmarkingreturn" horiz-adv-x="640" 
 />
    <glyph glyph-name="space" unicode=" " horiz-adv-x="440" 
 />
    <glyph glyph-name="quotedbl" unicode="&#x22;" horiz-adv-x="757" 
d="M206 703q-6 29 -9.5 51t-6.5 32q-21 108 -33.5 185.5t-12.5 103.5q0 57 25 90t65 33q19 0 35.5 -9t28.5 -24.5t19 -36.5t7 -46q0 -14 -3 -39.5t-10 -69t-19 -109.5t-30 -161h-56zM506 703q-6 29 -9.5 51t-6.5 32q-21 108 -33.5 185.5t-12.5 103.5q0 57 25 90t65 33
q19 0 35.5 -9t28.5 -24.5t19 -36.5t7 -46q0 -14 -3 -39.5t-10 -69t-19 -109.5t-30 -161h-56z" />
    <glyph glyph-name="quotesingle" unicode="'" horiz-adv-x="385" 
d="M161 703q-6 29 -9.5 51t-6.5 32q-21 108 -33.5 185.5t-12.5 103.5q0 57 25 90t65 33q19 0 35.5 -9t28.5 -24.5t19 -36.5t7 -46q0 -14 -3 -39.5t-10 -69t-19 -109.5t-30 -161h-56z" />
    <glyph glyph-name="asterisk" unicode="*" horiz-adv-x="1126" 
d="M568 347l6 340l-219 -220h-105l277 279h-324l20 93h324l-270 265h93l209 -205l6 300l119 40l-5 -327l206 192h108l-283 -265h335l-22 -93h-314l273 -279h-92l-214 220l-8 -301z" />
    <glyph glyph-name="plus" unicode="+" horiz-adv-x="1121" 
d="M961 402h-342v-338h-123v338h-339v129h339v341h123v-341h342v-129z" />
    <glyph glyph-name="hyphen" unicode="-" horiz-adv-x="1132" 
d="M961 402h-804v129h804v-129z" />
    <glyph glyph-name="period" unicode="." horiz-adv-x="466" 
d="M383 124q0 -53 -35.5 -89t-88.5 -36q-52 0 -87.5 36t-35.5 89q0 51 36 87t87 36q52 0 88 -36t36 -87z" />
    <glyph glyph-name="slash" unicode="/" horiz-adv-x="643" 
d="M518 1228l-282 -1333h-105l282 1333h105z" />
    <glyph glyph-name="less" unicode="&#x3c;" horiz-adv-x="992" 
d="M54 367v146l884 389v-168l-670 -294l670 -294v-167z" />
    <glyph glyph-name="equal" unicode="=" horiz-adv-x="969" 
d="M840 224h-722v102h722v-102zM840 462h-722v102h722v-102z" />
    <glyph glyph-name="greater" unicode="&#x3e;" horiz-adv-x="992" 
d="M54 146l670 294l-670 294v168l884 -389v-146l-884 -388v167z" />
    <glyph glyph-name="bracketleft" unicode="[" horiz-adv-x="568" 
d="M514 -254h-400v1411h400v-56h-108q-36 0 -58.5 -5t-35 -18.5t-17 -36.5t-4.5 -60v-1089q0 -27 4 -44.5t13.5 -27.5t26 -14t42.5 -4h137v-56z" />
    <glyph glyph-name="bracketright" unicode="]" horiz-adv-x="568" 
d="M55 -198h136q27 0 43.5 3.5t25.5 13.5t12.5 27.5t3.5 45.5v1089q0 37 -4 60t-16.5 36.5t-35 18.5t-57.5 5h-108v56h399v-1411h-399v56z" />
    <glyph glyph-name="grave" unicode="`" horiz-adv-x="568" 
d="M345 864l-264 166q-22 17 -35.5 35t-13.5 38q0 25 16 39.5t43 14.5q18 0 33 -8.5t39 -31.5l251 -253h-69z" />
    <glyph glyph-name="braceleft" unicode="{" horiz-adv-x="672" 
d="M220 247q0 45 -8.5 77t-29 54.5t-56 38t-89.5 29.5q54 13 89.5 28.5t56 38t29 54t8.5 76.5v306q0 140 86 192q20 13 44 22.5t56 15.5t74.5 8.5t99.5 3.5v-21q-52 -11 -86 -27t-56 -41t-30.5 -60t-8.5 -84v-291q0 -54 -9 -90.5t-32 -61.5t-61.5 -40.5t-98.5 -28.5
q60 -13 98.5 -29t61.5 -41t32 -62t9 -91v-292q0 -49 9 -83.5t31 -59t56.5 -41t84.5 -25.5v-20q-63 0 -109.5 3.5t-80.5 11t-59 19t-45 28.5q-34 28 -50 71t-16 106v306z" />
    <glyph glyph-name="bar" unicode="|" horiz-adv-x="375" 
d="M113 1179h150v-1211h-150v1211z" />
    <glyph glyph-name="asciitilde" unicode="~" horiz-adv-x="887" 
d="M838 443q-30 -40 -54.5 -67.5t-49.5 -44.5t-50.5 -25t-55.5 -8q-21 0 -41 3t-41 10t-44.5 17.5t-52.5 26.5q-60 31 -103 45.5t-88 14.5q-38 0 -63 -16t-55 -56l-91 78q44 77 93.5 110t118.5 33q21 0 41 -2.5t46 -10.5t60 -22.5t82 -35.5q29 -13 50.5 -21t37 -13.5
t27.5 -7.5t23 -2q30 0 57 17.5t59 58.5z" />
    <glyph glyph-name="agrave" unicode="&#xe0;" horiz-adv-x="1075" 
d="M741 331q-21 -65 -50.5 -118t-64.5 -99q-107 -133 -226 -133q-192 0 -241 233q-26 120 -2 237t95 232q73 118 181 177t251 59q28 0 62 -0.5t69.5 -2.5t70.5 -4t66 -4l-6 -262v1l4 -393q2 -45 4.5 -74.5t3.5 -40.5q3 -25 27 -25q68 0 229 232l4 -167q-145 -198 -293 -198
q-140 0 -172 145q-4 20 -6 56t-2 82zM737 758q-49 17 -90 25.5t-86 8.5q-64 0 -107.5 -42.5t-66.5 -124.5q-25 -103 -30 -200t11 -177q20 -102 69 -102q56 0 152 134q48 72 85 150t65 169zM634 519l-264 166q-22 17 -35.5 35t-13.5 38q0 25 16 39.5t43 14.5q18 0 33 -8.5
t39 -31.5l251 -253h-69z" />
    <glyph glyph-name="ccedilla" unicode="&#xe7;" horiz-adv-x="805" 
 />
    <glyph glyph-name="eacute" unicode="&#xe9;" horiz-adv-x="1078" 
 />
    <glyph glyph-name="egrave" unicode="&#xe8;" horiz-adv-x="1078" 
d="M769 864l-264 166q-22 17 -35.5 35t-13.5 38q0 25 16 39.5t43 14.5q18 0 33 -8.5t39 -31.5l251 -253h-69z" />
    <glyph glyph-name="ecircumflex" unicode="&#xea;" horiz-adv-x="1078" 
 />
    <glyph glyph-name="edieresis" unicode="&#xeb;" horiz-adv-x="1078" 
 />
    <glyph glyph-name="ocircumflex.001" horiz-adv-x="1112" 
d="M416 -19q-115 0 -211 89q-95 90 -120 218q-53 240 85 438q137 202 352 202q121 0 220 -86q95 -89 122 -216q26 -127 5 -237.5t-88 -209.5q-70 -100 -161.5 -149t-203.5 -49zM483 98q53 0 90.5 35t63.5 103q28 74 31.5 157.5t-16.5 180.5q-50 239 -186 239
q-101 0 -153 -143q-29 -75 -32 -159.5t17 -178.5q26 -119 72 -176.5t113 -57.5z" />
    <glyph glyph-name="ugrave" unicode="&#xf9;" horiz-adv-x="1142" 
d="M771 864l-264 166q-22 17 -35.5 35t-13.5 38q0 25 16 39.5t43 14.5q18 0 33 -8.5t39 -31.5l251 -253h-69z" />
    <glyph glyph-name="ucircumflex" unicode="&#xfb;" horiz-adv-x="1142" 
 />
    <glyph glyph-name="udieresis" unicode="&#xfc;" horiz-adv-x="1142" 
 />
    <glyph glyph-name="dagger" unicode="&#x2020;" horiz-adv-x="932" 
d="M347 -231l220 853l-319 -30l49 108l279 -32l31 398l148 27l-134 -425l320 32l-46 -108l-283 30l-116 -835z" />
    <glyph glyph-name="degree" unicode="&#xb0;" horiz-adv-x="409" 
d="M395 844q-51 0 -87.5 36t-36.5 88q0 53 36.5 89t87.5 36q52 0 88 -36t36 -89q0 -52 -36 -88t-88 -36zM395 888q32 0 55.5 24t23.5 56t-23.5 56t-55.5 24t-56 -24t-24 -56t24 -56t56 -24z" />
    <glyph glyph-name="bullet" unicode="&#x2022;" horiz-adv-x="931" 
d="M817 662q0 -145 -103.5 -248t-248.5 -103t-248 103t-103 248t103 248t248 103t248.5 -103t103.5 -248z" />
    <glyph glyph-name="registered" unicode="&#xae;" horiz-adv-x="897" 
d="M580 445q-132 0 -225.5 93.5t-93.5 225.5t93.5 226t225.5 94q134 0 227 -94t93 -226t-93.5 -225.5t-226.5 -93.5zM580 484q115 0 197.5 83t82.5 197t-82.5 197t-197.5 83q-114 0 -196.5 -83t-82.5 -197t82.5 -197t196.5 -83zM529 737l-28 -141h-107l9 43h53l55 276h-53
l8 44h132q153 0 153 -84q0 -75 -101 -125l35 -111h62l-9 -43h-97l-50 141h-62zM538 782h36q123 0 123 84q0 49 -90 49h-43z" />
    <glyph glyph-name="copyright" unicode="&#xa9;" horiz-adv-x="1244" 
d="M725 -27q-230 0 -394.5 164t-164.5 396t164.5 396t394.5 164q233 0 397 -164t164 -396t-164 -396t-397 -164zM725 18q214 0 365 151t151 364t-151 364t-365 151q-212 0 -363 -151t-151 -364t151 -364t363 -151zM890 246q-105 -33 -186 -33q-124 0 -196 66.5t-72 182.5
q0 163 105 272.5t264 109.5q91 0 198 -30l-36 -139l-52 9l8 82q-69 32 -131 32q-104 0 -176 -98t-72 -238q0 -191 178 -191q101 0 180 36z" />
    <glyph glyph-name="trademark" unicode="&#x2122;" horiz-adv-x="1333" 
d="M440 1021h-133l-19 -98h-63l29 143h497l-28 -143h-62l18 98h-133l-90 -452h98l-9 -45h-302l10 45h97zM1011 569l-69 387l-85 -432h-169l9 45h97l90 452h-97l9 45h240l56 -319l173 319h216l-8 -45h-98l-90 -452h98l-10 -45h-195l92 461l-229 -416h-30z" />
    <glyph glyph-name="acute" unicode="&#xb4;" horiz-adv-x="256" 
 />
    <glyph glyph-name="dieresis" unicode="&#xa8;" horiz-adv-x="862" 
 />
    <glyph glyph-name="pi1" horiz-adv-x="1154" 
 />
    <glyph glyph-name="logicalnot" unicode="&#xac;" horiz-adv-x="932" 
d="M177 510l16 80h782l-69 -342h-92l52 262h-689z" />
    <glyph glyph-name="florin" unicode="&#x192;" horiz-adv-x="679" 
d="M158 -231l52 213l76 382h-178l9 45h177l4 18q32 159 165 265.5t298 106.5q57 0 99 -15l-96 -106q-52 51 -121 51q-143 0 -186 -217l-21 -103h187l-9 -45h-187l-114 -577z" />
    <glyph glyph-name="ellipsis" unicode="&#x2026;" horiz-adv-x="1827" 
d="M758 113q0 31 51.5 132.5t66.5 109.5q31 14 88.5 -47.5t61.5 -96.5q0 -45 -48.5 -131.5t-69.5 -86.5q-9 0 -57 33.5t-73 52.5q-20 17 -20 34zM1308 113q0 31 51 132.5t67 109.5q31 14 88.5 -47.5t60.5 -96.5q0 -45 -48 -131.5t-69 -86.5q-9 0 -57 33.5t-73 52.5
q-20 17 -20 34zM211 113q0 31 51 132.5t67 109.5q31 14 88.5 -47.5t60.5 -96.5q0 -45 -48 -131.5t-69 -86.5q-9 0 -57 33.5t-73 52.5q-20 17 -20 34z" />
    <glyph glyph-name="endash" unicode="&#x2013;" horiz-adv-x="434" 
d="M434 154h-434v80h434v-80z" />
    <glyph glyph-name="emdash" unicode="&#x2014;" horiz-adv-x="1862" 
d="M1866 572h-1870v160h1870v-160z" />
    <glyph glyph-name="quotedblleft" unicode="&#x201c;" horiz-adv-x="613" 
d="M340 993q1 65 45 128.5t98 89.5l31 -58q-16 -9 -38 -33t-32 -62q66 -28 63 -83q0 -16 -6.5 -30.5t-17 -25.5t-25.5 -17.5t-31 -6.5q-21 0 -37 8.5t-27 22t-17 31.5t-6 36zM121 993q1 65 45 128.5t99 89.5l31 -58q-16 -9 -38 -33t-32 -62q66 -28 63 -83q0 -16 -6.5 -30.5
t-17.5 -25.5t-26 -17.5t-31 -6.5q-20 0 -36.5 8.5t-27.5 22t-17 31.5t-6 36z" />
    <glyph glyph-name="quotedblright" unicode="&#x201d;" horiz-adv-x="597" 
d="M295 1113q-1 -65 -45 -128.5t-98 -89.5l-31 58q16 9 38 33t32 62q-66 28 -63 83q0 16 6.5 30.5t17 25.5t25 17.5t31.5 6.5q21 0 37 -8.5t27 -22t17 -31.5t6 -36zM514 1113q-1 -65 -45 -128.5t-99 -89.5l-31 58q16 9 38 33t32 62q-66 28 -63 83q0 16 6.5 30.5t17.5 25.5
t25.5 17.5t31.5 6.5q20 0 36 -8.5t27.5 -22t17.5 -31.5t6 -36z" />
    <glyph glyph-name="divide" unicode="&#xf7;" horiz-adv-x="1093" 
d="M624 674h-158v181h158v-181zM933 383h-776v106h776v-106zM624 17h-158v181h158v-181z" />
    <glyph glyph-name="lozenge" unicode="&#x25ca;" horiz-adv-x="1118" 
d="M1003 699l-443 -502l-443 502l443 503zM848 699l-288 337l-289 -337l289 -335z" />
    <glyph glyph-name="fraction" unicode="&#x2044;" horiz-adv-x="742" 
d="M740 1101l-639 -1183h-110l638 1183h111z" />
    <glyph glyph-name="guilsinglleft" unicode="&#x2039;" horiz-adv-x="1117" 
d="M955 58l-805 386v90l805 384v-134l-624 -295l624 -297v-134z" />
    <glyph glyph-name="fi" unicode="&#xf001;" horiz-adv-x="1092" 
 />
    <glyph glyph-name="fl" unicode="&#xf002;" horiz-adv-x="1086" 
 />
    <glyph glyph-name="daggerdbl" unicode="&#x2021;" horiz-adv-x="932" 
d="M349 -231l132 416l-320 -31l50 107l279 -32l77 387l-320 -30l50 107l278 -32l33 405l150 27l-138 -432l320 32l-51 -107l-278 30l-76 -387l320 32l-51 -107l-279 31l-26 -398z" />
    <glyph glyph-name="middot.001" unicode="&#x2219;" horiz-adv-x="620" 
d="M429 516h-239v273h239v-273z" />
    <glyph glyph-name="quotesinglbase" unicode="&#x201a;" horiz-adv-x="418" 
d="M103 128l144 103l106 -141q-8 -146 -90.5 -224.5t-226.5 -78.5l40 45q113 10 135 150z" />
    <glyph glyph-name="quotedblbase" unicode="&#x201e;" horiz-adv-x="684" 
d="M91 92l113 86l88 -114q-22 -277 -261 -277l29 45q106 20 119 152zM401 92l115 86l86 -114q-21 -277 -261 -277l31 45q104 20 118 152z" />
    <glyph glyph-name="perthousand" unicode="&#x2030;" horiz-adv-x="1571" 
d="M385 533q-81 0 -130.5 51.5t-49.5 137.5q0 143 81.5 243.5t196.5 100.5q84 0 134.5 -51.5t50.5 -137.5q0 -144 -82.5 -244t-200.5 -100zM311 715q0 -137 87 -137q65 0 119 93.5t54 209.5q0 141 -88 141q-67 0 -119.5 -94t-52.5 -213zM850 0q-81 0 -130.5 51.5
t-49.5 137.5q0 142 81 243t196 101q84 0 134.5 -51.5t50.5 -137.5q0 -144 -82.5 -244t-199.5 -100zM776 182q0 -138 86 -138q67 0 120 94t53 210q0 142 -87 142q-68 0 -120 -94.5t-52 -213.5zM131 -27l980 1120h95l-981 -1120h-94zM1376 0q-82 0 -131.5 51.5t-49.5 137.5
q0 142 81.5 243t196.5 101q84 0 134.5 -51.5t50.5 -137.5q0 -144 -82.5 -244t-199.5 -100zM1301 183q0 -139 88 -139q64 0 118 94t54 209q0 143 -88 143q-67 0 -119.5 -94.5t-52.5 -212.5z" />
    <glyph glyph-name="dotlessi" unicode="&#xf031;" horiz-adv-x="1156" 
 />
    <glyph glyph-name="circumflex" unicode="&#x2c6;" horiz-adv-x="862" 
 />
    <glyph glyph-name="cedilla" unicode="&#xb8;" horiz-adv-x="862" 
 />
    <glyph glyph-name="multiply" unicode="&#xd7;" horiz-adv-x="977" 
d="M749 137l-242 242l-239 -239l-87 87l239 239l-240 240l91 91l240 -240l241 241l87 -87l-241 -241l242 -242z" />
    <glyph glyph-name="macron" unicode="&#xaf;" horiz-adv-x="1118" 
d="M1134 1259h-1150v130h1150v-130z" />
    <glyph glyph-name="periodcentered" unicode="&#xb7;" horiz-adv-x="724" 
d="M482 832h-239v285h239v-285z" />
    <glyph glyph-name="H22073" unicode="&#x25a1;" horiz-adv-x="1237" 
d="M146 944h944v-944h-944v944zM222 868v-792h792v792h-792z" />
    <glyph glyph-name="H18543" unicode="&#x25aa;" horiz-adv-x="1089" 
d="M886 894v-694h-694v694h694z" />
    <glyph glyph-name="H18551" unicode="&#x25ab;" horiz-adv-x="1089" 
d="M888 930v-695h-695v695h695zM774 816h-467v-467h467v467z" />
    <glyph glyph-name="H18533" unicode="&#x25cf;" horiz-adv-x="1339" 
d="M204 775q0 201 141 342t340 141q200 0 341 -141t141 -342q0 -198 -141 -339t-341 -141q-199 0 -340 141t-141 339z" />
    <glyph glyph-name="openbullet" unicode="&#x25e6;" horiz-adv-x="1089" 
d="M544 1392q156 0 266.5 -110.5t110.5 -266.5t-110.5 -266t-266.5 -110t-266 110t-110 266t109.5 266.5t266.5 110.5zM544 1278q-109 0 -185.5 -77.5t-76.5 -185.5q0 -109 77 -185.5t185 -76.5t185.5 76.5t77.5 185.5q0 108 -76.5 185.5t-186.5 77.5z" />
    <glyph glyph-name="uniFFFC" unicode="&#xfffc;" horiz-adv-x="2048" 
d="M2048 1150h-100v223h-223v100h323v-323zM1473 1373h-323v100h323v-100zM2048 575h-100v323h100v-323zM1782 611q0 -241 -211 -241q-86 0 -138 45l73 79q25 -26 65 -26q95 0 95 138v484h116v-479zM898 1373h-323v100h323v-100zM2048 0h-323v100h223v223h100v-323z
M1423 591q0 -209 -274 -209h-240v708h235q249 0 249 -186q0 -91 -89 -145q119 -46 119 -168zM323 1373h-223v-223h-100v323h323v-100zM1473 0h-323v100h323v-100zM854 735q0 -173 -82 -269t-235 -96t-233.5 96t-80.5 269q0 175 80.5 271t233.5 96t235 -96t82 -271zM100 575
h-100v323h100v-323zM898 0h-323v100h323v-100zM323 0h-323v323h100v-223h223v-100zM1277 893q0 99 -163 99h-89v-194h101q151 0 151 95zM1307 591q0 109 -171 109h-111v-220h124q158 0 158 111zM738 735q0 269 -201 269q-198 0 -198 -269q0 -267 198 -267q201 0 201 267z
" />
    <glyph glyph-name="hookabovecomb" 
 />
    <glyph glyph-name="dotbelowcomb" 
 />
    <glyph glyph-name="gravecomb" unicode="&#x300;" horiz-adv-x="918" 
d="M-262 864l-264 166q-22 17 -35.5 35t-13.5 38q0 25 16 39.5t43 14.5q18 0 33 -8.5t39 -31.5l251 -253h-69z" />
    <glyph glyph-name="acutecomb" unicode="&#x301;" 
 />
    <glyph glyph-name="doublevav" unicode="&#x5f0;" horiz-adv-x="1122" 
 />
    <glyph glyph-name="vavyod" unicode="&#x5f1;" horiz-adv-x="1122" 
 />
    <glyph glyph-name="doubleyod" unicode="&#x5f2;" horiz-adv-x="1122" 
 />
    <glyph glyph-name="geresh" unicode="&#x5f3;" horiz-adv-x="432" 
 />
    <glyph glyph-name="gershayim" unicode="&#x5f4;" horiz-adv-x="822" 
 />
    <glyph glyph-name="altayin" unicode="&#xfb20;" horiz-adv-x="1328" 
 />
    <glyph glyph-name="alefpatah" unicode="&#xfb2e;" horiz-adv-x="1378" 
 />
    <glyph glyph-name="alefqamats" unicode="&#xfb2f;" horiz-adv-x="1378" 
 />
    <glyph glyph-name="alefmapiq" unicode="&#xfb30;" horiz-adv-x="1378" 
 />
    <glyph glyph-name="finalpedagesh" unicode="&#xfb43;" horiz-adv-x="1356" 
 />
    <glyph glyph-name="reshdagesh" unicode="&#xfb48;" horiz-adv-x="1166" 
 />
    <glyph glyph-name="betrafe" unicode="&#xfb4c;" horiz-adv-x="1310" 
 />
    <glyph glyph-name="kafrafe" unicode="&#xfb4d;" horiz-adv-x="1272" 
 />
    <glyph glyph-name="perafe" unicode="&#xfb4e;" horiz-adv-x="1335" 
 />
    <glyph glyph-name="aleflamed" unicode="&#xfb4f;" horiz-adv-x="1398" 
 />
    <glyph glyph-name="zerowidthnonjoiner" unicode="&#x200c;" 
d="M36 1289v-1564h-72v1564h72z" />
    <glyph glyph-name="zerowidthjoiner" unicode="&#x200d;" 
d="M36 -275h-72v1389l-134 -136l-49 49l171 169l-171 168l49 49l170 -171l170 171l49 -49l-171 -168l171 -169l-49 -49l-134 136v-1389z" />
    <glyph glyph-name="lefttorightmark" unicode="&#x200e;" 
d="M430 1198l-217 -214l-49 49l137 130h-266v-1438h-71v1509h337l-137 130l49 49z" />
    <glyph glyph-name="righttoleftmark" unicode="&#x200f;" 
d="M35 -275h-71v1438h-266l137 -130l-49 -49l-217 214l217 215l49 -49l-137 -130h337v-1509z" />
    <glyph glyph-name="afii57388.001" unicode="&#x66c;" horiz-adv-x="353" 
d="M210 654q-10 -27 -25 -51q-5 -6 -11.5 -9.5t-11.5 -3.5t-7.5 3t0.5 10q32 57 47.5 110.5t15.5 86.5q-24 6 -39 16t-24 21.5t-12 21.5t-3 15q0 16 5.5 33t15 30.5t23 22t29.5 8.5q59 0 59 -94q0 -15 -4 -39t-12 -53.5t-19.5 -62t-26.5 -65.5z" />
    <glyph glyph-name="afii57409" unicode="&#x621;" horiz-adv-x="751" 
d="M694 312l-37 -148q-84 -15 -235 -70q-164 -59 -248 -109v93q45 47 134 102q-124 55 -124 134q0 85 102.5 184t188.5 99q50 0 94 -22q54 -27 54 -73q0 -63 -48 -63q-23 0 -67.5 13t-69.5 13q-32 0 -73 -30t-41 -60q0 -27 46 -65q55 -46 123 -46q48 0 201 48z" />
    <glyph glyph-name="afii57440" unicode="&#x640;" horiz-adv-x="935" 
d="M972 0h-998v257h998v-257z" />
    <glyph glyph-name="afii57453" unicode="&#x64d;" 
d="M171 11l-368 -171l23 99l368 170zM181 172l-368 -171l23 99l368 170z" />
    <glyph glyph-name="afii57381" unicode="&#x66a;" horiz-adv-x="1031" 
d="M329 1041q0 -44 -29.5 -73t-73.5 -29q-43 0 -73 29.5t-30 72.5q0 42 30.5 72t72.5 30q43 0 73 -29.5t30 -72.5zM821 1259l-478 -1360l-98 1l481 1361zM918 88q0 -43 -29.5 -73t-72.5 -30q-45 0 -74 29t-29 74q0 43 30 72.5t73 29.5q42 0 72 -30t30 -72z" />
    <glyph glyph-name="afii57461" unicode="&#x66b;" horiz-adv-x="536" 
d="M518 521l-403 -903l-96 30l406 903z" />
    <glyph glyph-name="afii63167" unicode="&#x66d;" horiz-adv-x="1118" 
d="M694 729l363 4v-123l-355 2l269 -260l-88 -88l-267 275l7 -371h-125l4 371l-266 -275l-89 88l275 262l-359 -4v123l357 -4l-250 246l88 90l244 -248l-4 359h125l-7 -363l244 252l88 -90z" />
    <glyph glyph-name="afii57543" horiz-adv-x="715" 
d="M715 0h-68q-77 0 -148.5 40.5t-110.5 106.5q-39 -66 -109 -106.5t-147 -40.5h-202v257h162q146 0 202 65q29 33 45 121q12 65 49 65q36 0 47 -65q15 -89 38 -121q45 -65 166 -65h76v-257z" />
    <glyph glyph-name="afii57534" unicode="&#x6d5;" horiz-adv-x="788" 
d="M760 314q0 -144 -82.5 -230.5t-226.5 -86.5q-156 0 -226 88q-48 61 -48 147q0 113 89 275q83 151 156 202q150 -58 225 -126q113 -103 113 -269zM647 316q-98 116 -274 173q-67 -74 -67 -167q0 -45 58 -72q52 -24 121 -24q103 0 156 38q31 22 6 52z" />
    <glyph glyph-name="afii57494" horiz-adv-x="363" 
 />
    <glyph glyph-name="afii64240" horiz-adv-x="374" 
d="M324 128l-135 -135l-136 135l136 136z" />
    <glyph glyph-name="afii64241" horiz-adv-x="600" 
d="M559 131l-122 -123l-123 123l123 122zM286 131l-122 -123l-123 123l123 122z" />
    <glyph glyph-name="afii63954" horiz-adv-x="611" 
d="M50 128l123 122l122 -122l-122 -123zM323 128l123 122l122 -122l-122 -123zM184 330l123 123l122 -123l-122 -122z" />
    <glyph glyph-name="afii57382" horiz-adv-x="590" 
d="M543 -121l-122 -122l-122 122l122 123zM270 -121l-122 -122l-123 122l123 123zM410 -324l-123 -122l-122 122l122 123z" />
    <glyph glyph-name="afii64242" horiz-adv-x="395" 
d="M367 391q0 -89 -20.5 -161t-58.5 -123t-93 -79t-125 -28h-140v257h155q144 0 144 54q0 48 -112 170q-7 6 -7 15t7 17l117 163q9 12 17 12q7 0 13 -7q21 -23 40 -57.5t33 -74t22 -81t8 -77.5z" />
    <glyph glyph-name="afii62881" unicode="&#xe818;" 
d="M167 472l-368 -171l23 99l368 170zM177 633l-368 -171l23 99l368 170zM169 291q-2 -22 -5 -54t-11 -75q-29 -84 -105 -84q-29 0 -57 14q-50 -90 -109 -90q-73 0 -73 100q0 39 7.5 65t22.5 42q25 26 39 16q-8 -14 -12 -31t-4 -40q0 -43 33 -43q40 0 61 61l27 96l41 23
q0 -105 53 -105q41 0 41 33q0 44 1.5 68.5t4.5 32.5q19 40 51 49z" />
    <glyph glyph-name="afii57373" horiz-adv-x="454" 
d="M388 1334q1 -4 1.5 -8.5t0.5 -11.5q0 -25 -5 -49t-9 -29q-140 -36 -351 -129l-1 74q17 9 40.5 21t53.5 28q-12 5 -26 17t-25.5 27.5t-19 32t-7.5 29.5q0 57 69 123q68 65 127 65q15 0 34 -7t35.5 -18.5t28 -24.5t11.5 -25q0 -41 -31 -41q-5 0 -17.5 4t-27.5 9.5t-30 9.5
t-25 4q-13 0 -28 -4t-27.5 -11t-20.5 -16t-8 -19q0 -18 10 -34t25.5 -28.5t34.5 -20t36 -7.5q25 0 62.5 11.5t89.5 27.5z" />
    <glyph glyph-name="afii57375" unicode="&#x653;" horiz-adv-x="668" 
d="M635 1200q0 -47 -103 -102q-109 -58 -214 -58q-32 0 -85.5 14.5t-73.5 14.5q-18 0 -38.5 -29.5t-34.5 -29.5q-30 0 -30 46q0 30 41 99q44 75 77 75q20 6 110.5 -24t134.5 -30q47 0 117 24t76 24q23 0 23 -24z" />
    <glyph glyph-name="afii57391" unicode="&#xe83a;" horiz-adv-x="1024" 
d="M1024 0h-1094v188h1094v-188z" />
    <glyph glyph-name="afii57471" horiz-adv-x="1693" 
d="M1693 0h-48q-91 0 -166 63q-61 51 -82 114q-143 -123 -341 -167q-129 -29 -335 -29q-544 0 -544 369q0 100 48 194q43 85 74 85q38 0 38 -42q0 -12 -12.5 -59.5t-12.5 -75.5q0 -137 154 -186q101 -32 308 -32q386 0 583 146q31 23 86 83q43 47 62 47q35 0 35 -49
q0 -22 -49 -127q31 -77 169 -77h33v-257z" />
    <glyph glyph-name="afii57506" unicode="&#x67e;" horiz-adv-x="1581" 
d="M1545 402q0 -216 -143 -312q-161 -108 -637 -108q-156 0 -267.5 22t-183 67.5t-104.5 115t-33 164.5q0 100 52 194q46 85 78 85q38 0 38 -42q0 -3 -5 -19.5t-10.5 -38t-10.5 -42.5t-5 -33q0 -158 175 -201q76 -19 329 -19q585 0 585 98q0 18 -51 84q-21 28 -38 48t-30 33
l131 165q8 11 11 13t4 2q6 0 15 -12q100 -121 100 -264zM1068 -333l-122 -122l-122 122l122 123zM795 -333l-122 -122l-123 122l123 123zM935 -536l-123 -122l-122 122l122 123z" />
    <glyph glyph-name="afii57505" unicode="&#x6a4;" horiz-adv-x="1555" 
 />
    <glyph glyph-name="afii62889" horiz-adv-x="1467" 
d="M1467 0h-214q2 -29 2 -56q0 -451 -641 -451q-231 0 -344 127q-91 102 -91 257q0 79 48 230q56 177 113 177q40 0 40 -55q0 -6 -30.5 -98t-30.5 -145q0 -142 113 -199q81 -41 243 -42q148 -1 289 38q190 53 190 161q0 27 -12 57q-27 0 -80 -1.5t-80 -1.5q-129 0 -188 28
q-80 38 -80 138q0 129 61 261q75 163 188 163q125 0 207 -136q59 -98 68 -195h229v-257zM1087 242q-27 67 -85 104q-44 28 -79 28q-31 0 -57 -21.5t-26 -52.5q0 -70 136 -70q51 0 111 12z" />
    <glyph glyph-name="afii62887" horiz-adv-x="1581" 
d="M1545 402q0 -216 -143 -312q-161 -108 -637 -108q-156 0 -267.5 22t-183 67.5t-104.5 115t-33 164.5q0 100 52 194q46 85 78 85q38 0 38 -42q0 -3 -5 -19.5t-10.5 -38t-10.5 -42.5t-5 -33q0 -158 175 -201q76 -19 329 -19q585 0 585 98q0 18 -51 84q-21 28 -38 48t-30 33
l131 165q8 11 11 13t4 2q6 0 15 -12q100 -121 100 -264z" />
    <glyph glyph-name="afii62888" unicode="&#x6a1;" horiz-adv-x="1563" 
d="M1521 418q0 -244 -136 -335q-73 -49 -301 -78q-176 -23 -319 -23q-258 0 -392 59q-196 87 -196 310q0 99 52 194q47 85 78 85q38 0 38 -42q0 -10 -15.5 -57t-15.5 -76q0 -158 175 -201q78 -19 329 -19q380 0 568 73q36 14 36 53q0 27 -40 23q-129 -12 -179 -12
q-199 0 -199 147q0 121 61 240q74 144 188 144q156 0 225 -204q43 -127 43 -281zM1370 568q-28 69 -85 105q-43 27 -79 27q-31 0 -57 -21.5t-26 -52.5q0 -70 136 -70q51 0 111 12z" />
    <glyph glyph-name="afii57507" unicode="&#x686;" horiz-adv-x="1257" 
d="M1246 -382q-110 -162 -446 -162q-146 0 -261.5 29.5t-196 86t-123 139t-42.5 189.5q0 196 176 354q142 127 361 203q-221 45 -275 45q-63 0 -121 -57q-59 -56 -64 -56q-45 0 -45 37q0 21 13.5 55.5t31.5 68.5t35.5 61.5t24.5 36.5q67 81 166 81q9 0 41 -4.5t76.5 -11
t96.5 -14.5t100 -15.5t87.5 -13t58.5 -7.5q38 -4 74 -6t71 -2q75 0 146 9q5 1 8.5 1h6.5q10 0 10 -3q-1 -7 -11 -30l-84 -196q-126 -5 -270 -24q-139 -20 -285 -121q-197 -137 -197 -339q0 -344 491 -344q211 0 331 36q9 3 14 3q10 0 10 -10q0 -7 -9 -19zM1068 44l-122 -122
l-122 122l122 123zM795 44l-122 -122l-123 122l123 123zM935 -159l-123 -122l-122 122l122 123z" />
    <glyph glyph-name="afii57508" unicode="&#x698;" horiz-adv-x="769" 
d="M767 70q0 -161 -65 -302q-47 -100 -125 -181q-58 -61 -72 -61q-269 0 -399 51q-15 4 -15 11q0 4 13 9q186 67 348 192q187 144 187 259q0 48 -68 134q-58 73 -111 113l97 205q5 11 12 11q3 0 12 -7q186 -186 186 -434zM210 751l123 122l122 -122l-122 -123zM483 751
l123 122l122 -122l-122 -123zM344 953l123 123l122 -123l-122 -122z" />
    <glyph glyph-name="afii57567" unicode="&#x6a9;" horiz-adv-x="1744" 
d="M1795 1242l-42 -227q-160 -52 -530 -183q124 -124 179 -208q77 -118 77 -236q0 -219 -143 -326q-51 -38 -251 -61q-164 -19 -320 -19q-280 0 -400 52q-188 80 -188 317q0 99 52 194q47 85 78 85q38 0 38 -42q0 -10 -15.5 -57t-15.5 -76q0 -160 155 -201q72 -19 349 -19
q336 0 455 27q90 20 90 71q0 65 -123 200q-113 124 -209 184l49 258q227 91 715 267z" />
    <glyph glyph-name="afii57509" unicode="&#x6af;" horiz-adv-x="1736" 
d="M1767 1305l-21 -108q-287 -68 -608 -164l34 112q270 84 595 160zM1807 1107l-60 -216q-280 -44 -516 -113q96 -72 167 -174q81 -117 81 -216q0 -219 -143 -326q-51 -38 -251 -61q-164 -19 -320 -19q-280 0 -400 52q-188 80 -188 317q0 99 52 194q47 85 78 85q38 0 38 -42
q0 -10 -15.5 -57t-15.5 -76q0 -160 155 -201q72 -19 349 -19q336 0 455 27q90 20 90 71q0 64 -123 184q-104 102 -208 167l43 228q205 77 732 195z" />
    <glyph glyph-name="afii57555" unicode="&#x6cc;" horiz-adv-x="1381" 
d="M1374 488q2 -14 3.5 -24t1.5 -17q0 -16 -7 -16q-6 0 -28 11q-52 28 -166 28q-125 0 -217 -86q-71 -68 -71 -109q0 -48 76 -70q35 -11 156 -28q60 -8 98.5 -22t61.5 -38t32 -59t9 -84q0 -233 -170 -354.5t-497 -121.5q-477 0 -477 393q0 78 48 230q55 177 113 177
q40 0 40 -56q0 -2 -8 -26.5t-23 -70.5q-16 -46 -23 -82.5t-7 -63.5q0 -253 380 -253q164 0 310 33q198 45 198 126q0 44 -116 58q-168 19 -216 38q-117 45 -117 165q0 134 118 315q132 203 281 203q97 0 163 -84q44 -56 54 -112z" />
    <glyph glyph-name="afii62945" horiz-adv-x="1675" 
d="M1634 335q0 -201 -108 -290q-73 -60 -178 -60q-181 0 -251 152q-47 -153 -203 -153q-134 0 -204 80q-33 38 -70 135q-29 -53 -83 -115q-18 -7 -77 -7q-103 0 -178 22q-100 29 -100 86q0 95 34 141q69 93 171 159q48 31 157 74l-12 103l118 96q33 27 38 27q6 0 11 -40
q38 -324 59 -385q41 -122 162 -122q95 0 95 125q0 13 -2 33q-13 130 -47 384l188 110q42 -422 64 -509q36 -142 135 -142q88 0 88 129q0 79 -81 474l163 130q12 13 19 13q10 0 15 -26q77 -444 77 -624zM595 289l-33 160q-195 -70 -226 -142q9 -24 125 -24q62 0 134 6z" />
    <glyph glyph-name="afii52400" unicode="&#x622;" horiz-adv-x="540" 
d="M588 1505q0 -47 -103 -102q-109 -58 -214 -58q-32 0 -85.5 14.5t-73.5 14.5q-18 0 -38.5 -29.5t-34.5 -29.5q-30 0 -30 46q0 30 41 99q44 75 77 75q20 6 110.5 -24t134.5 -30q47 0 117 24t76 24q23 0 23 -24zM396 227q0 -71 -76 -232q-20 -42 -28 -42q-13 0 -21 93
l-95 1056l184 153q18 15 26 15q10 0 10 -21v-1022z" />
    <glyph glyph-name="afii57411" unicode="&#x623;" horiz-adv-x="445" 
d="M464 1531q1 -4 1.5 -8.5t0.5 -11.5q0 -25 -5 -49t-9 -29q-140 -36 -351 -129l-1 74q17 9 40.5 21t53.5 28q-12 5 -26 17t-25.5 27.5t-19 32t-7.5 29.5q0 57 69 123q68 65 127 65q15 0 34 -7t35.5 -18.5t28 -24.5t11.5 -25q0 -41 -31 -41q-5 0 -17.5 4t-27.5 9.5t-30 9.5
t-25 4q-13 0 -28 -4t-27.5 -11t-20.5 -16t-8 -19q0 -18 10 -34t25.5 -28.5t34.5 -20t36 -7.5q25 0 62.5 11.5t89.5 27.5zM396 227q0 -71 -76 -232q-20 -42 -28 -42q-13 0 -21 93l-95 1056l184 153q18 15 26 15q10 0 10 -21v-1022z" />
    <glyph glyph-name="afii57412" unicode="&#x624;" horiz-adv-x="782" 
d="M780 38q0 -262 -178 -452q-56 -60 -71 -60q-251 0 -399 51q-15 6 -15 10q0 6 13 10q179 65 347 199q185 147 185 245q-9 0 -27.5 -0.5t-38.5 -0.5t-39 -0.5t-28 -0.5q-79 0 -132.5 10.5t-86 33.5t-46.5 58.5t-14 85.5q0 107 67 242q81 164 192 164q138 0 213 -160
q58 -123 58 -279v-156zM625 291q-11 28 -30 52t-41.5 42t-46.5 28t-45 10q-15 0 -30 -6t-27 -16t-19 -23.5t-7 -28.5q0 -70 112 -70q51 0 134 12zM692 960q1 -4 1.5 -8.5t0.5 -11.5q0 -25 -5 -49t-9 -29q-140 -36 -351 -129l-1 74q17 9 40.5 21t53.5 28q-12 5 -26 17
t-25.5 27.5t-19 32t-7.5 29.5q0 57 69 123q68 65 127 65q15 0 34 -7t35.5 -18.5t28 -24.5t11.5 -25q0 -41 -31 -41q-5 0 -17.5 4t-27.5 9.5t-30 9.5t-25 4q-13 0 -28 -4t-27.5 -11t-20.5 -16t-8 -19q0 -18 10 -34t25.5 -28.5t34.5 -20t36 -7.5q25 0 62.5 11.5t89.5 27.5z
" />
    <glyph glyph-name="afii57413" unicode="&#x625;" horiz-adv-x="472" 
d="M396 227q0 -71 -76 -232q-20 -42 -28 -42q-13 0 -21 93l-95 1056l184 153q18 15 26 15q10 0 10 -21v-1022zM478 -356q1 -4 1.5 -8.5t0.5 -11.5q0 -25 -5 -49t-9 -29q-140 -36 -351 -129l-1 74q17 9 40.5 21t53.5 28q-12 5 -26 17t-25.5 27.5t-19 32t-7.5 29.5
q0 57 69 123q68 65 127 65q15 0 34 -7t35.5 -18.5t28 -24.5t11.5 -25q0 -41 -31 -41q-5 0 -17.5 4t-27.5 9.5t-30 9.5t-25 4q-13 0 -28 -4t-27.5 -11t-20.5 -16t-8 -19q0 -18 10 -34t25.5 -28.5t34.5 -20t36 -7.5q25 0 62.5 11.5t89.5 27.5z" />
    <glyph glyph-name="afii57414" unicode="&#x626;" horiz-adv-x="1381" 
d="M1374 488q2 -14 3.5 -24t1.5 -17q0 -16 -7 -16q-6 0 -28 11q-52 28 -166 28q-125 0 -217 -86q-71 -68 -71 -109q0 -48 76 -70q35 -11 156 -28q60 -8 98.5 -22t61.5 -38t32 -59t9 -84q0 -233 -170 -354.5t-497 -121.5q-477 0 -477 393q0 78 48 230q55 177 113 177
q40 0 40 -56q0 -2 -8 -26.5t-23 -70.5q-16 -46 -23 -82.5t-7 -63.5q0 -253 380 -253q164 0 310 33q198 45 198 126q0 44 -116 58q-168 19 -216 38q-117 45 -117 165q0 134 118 315q132 203 281 203q97 0 163 -84q44 -56 54 -112zM746 761q1 -4 1.5 -8.5t0.5 -11.5
q0 -25 -5 -49t-9 -29q-140 -36 -351 -129l-1 74q17 9 40.5 21t53.5 28q-12 5 -26 17t-25.5 27.5t-19 32t-7.5 29.5q0 57 69 123q68 65 127 65q15 0 34 -7t35.5 -18.5t28 -24.5t11.5 -25q0 -41 -31 -41q-5 0 -17.5 4t-27.5 9.5t-30 9.5t-25 4q-13 0 -28 -4t-27.5 -11
t-20.5 -16t-8 -19q0 -18 10 -34t25.5 -28.5t34.5 -20t36 -7.5q25 0 62.5 11.5t89.5 27.5z" />
    <glyph glyph-name="afii57415.001" unicode="&#x627;" horiz-adv-x="445" 
d="M396 227q0 -71 -76 -232q-20 -42 -28 -42q-13 0 -21 93l-95 1056l184 153q18 15 26 15q10 0 10 -21v-1022z" />
    <glyph glyph-name="afii62760.001" horiz-adv-x="581" 
d="M581 0h-91q-59 0 -107 23t-82.5 66t-53.5 105.5t-19 140.5q0 123 -15 371q-17 280 -33 366q-1 5 -1.5 9.5t-0.5 8.5q0 14 6 20l165 134q30 24 35 24l1 -1q6 -2 6 -28l-2 -841q0 -142 159 -141h33v-257z" />
    <glyph glyph-name="afii57416" unicode="&#x628;" horiz-adv-x="1581" 
d="M1545 402q0 -216 -143 -312q-161 -108 -637 -108q-156 0 -267.5 22t-183 67.5t-104.5 115t-33 164.5q0 100 52 194q46 85 78 85q38 0 38 -42q0 -3 -5 -19.5t-10.5 -38t-10.5 -42.5t-5 -33q0 -158 175 -201q76 -19 329 -19q585 0 585 98q0 18 -51 84q-21 28 -38 48t-30 33
l131 165q8 11 11 13t4 2q6 0 15 -12q100 -121 100 -264zM923 -344l-135 -135l-136 135l136 136z" />
    <glyph glyph-name="afii57417" unicode="&#x629;" horiz-adv-x="788" 
d="M760 314q0 -144 -82.5 -230.5t-226.5 -86.5q-156 0 -226 88q-48 61 -48 147q0 113 89 275q83 151 156 202q150 -58 225 -126q113 -103 113 -269zM647 316q-98 116 -274 173q-67 -74 -67 -167q0 -45 58 -72q52 -24 121 -24q103 0 156 38q31 22 6 52zM692 950l-122 -123
l-123 123l123 122zM419 950l-122 -123l-123 123l123 122z" />
    <glyph glyph-name="afii57418" unicode="&#x62a;" horiz-adv-x="1581" 
d="M1545 402q0 -216 -143 -312q-161 -108 -637 -108q-156 0 -267.5 22t-183 67.5t-104.5 115t-33 164.5q0 100 52 194q46 85 78 85q38 0 38 -42q0 -3 -5 -19.5t-10.5 -38t-10.5 -42.5t-5 -33q0 -158 175 -201q76 -19 329 -19q585 0 585 98q0 18 -51 84q-21 28 -38 48t-30 33
l131 165q8 11 11 13t4 2q6 0 15 -12q100 -121 100 -264zM1125 844l-122 -123l-123 123l123 122zM852 844l-122 -123l-123 123l123 122z" />
    <glyph glyph-name="afii57419" unicode="&#x62b;" horiz-adv-x="1581" 
d="M1545 402q0 -216 -143 -312q-161 -108 -637 -108q-156 0 -267.5 22t-183 67.5t-104.5 115t-33 164.5q0 100 52 194q46 85 78 85q38 0 38 -42q0 -3 -5 -19.5t-10.5 -38t-10.5 -42.5t-5 -33q0 -158 175 -201q76 -19 329 -19q585 0 585 98q0 18 -51 84q-21 28 -38 48t-30 33
l131 165q8 11 11 13t4 2q6 0 15 -12q100 -121 100 -264zM606 846l123 122l122 -122l-122 -123zM879 846l123 122l122 -122l-122 -123zM740 1048l123 123l122 -123l-122 -122z" />
    <glyph glyph-name="afii57420" unicode="&#x62c;" horiz-adv-x="1257" 
d="M952 -2l-135 -135l-136 135l136 136zM1246 -382q-110 -162 -446 -162q-146 0 -261.5 29.5t-196 86t-123 139t-42.5 189.5q0 196 176 354q142 127 361 203q-221 45 -275 45q-63 0 -121 -57q-59 -56 -64 -56q-45 0 -45 37q0 21 13.5 55.5t31.5 68.5t35.5 61.5t24.5 36.5
q67 81 166 81q9 0 41 -4.5t76.5 -11t96.5 -14.5t100 -15.5t87.5 -13t58.5 -7.5q38 -4 74 -6t71 -2q75 0 146 9q5 1 8.5 1h6.5q10 0 10 -3q-1 -7 -11 -30l-84 -196q-126 -5 -270 -24q-139 -20 -285 -121q-197 -137 -197 -339q0 -344 491 -344q211 0 331 36q9 3 14 3
q10 0 10 -10q0 -7 -9 -19z" />
    <glyph glyph-name="afii57421" unicode="&#x62d;" horiz-adv-x="1257" 
d="M1246 -382q-110 -162 -446 -162q-146 0 -261.5 29.5t-196 86t-123 139t-42.5 189.5q0 196 176 354q142 127 361 203q-221 45 -275 45q-63 0 -121 -57q-59 -56 -64 -56q-45 0 -45 37q0 21 13.5 55.5t31.5 68.5t35.5 61.5t24.5 36.5q67 81 166 81q9 0 41 -4.5t76.5 -11
t96.5 -14.5t100 -15.5t87.5 -13t58.5 -7.5q38 -4 74 -6t71 -2q75 0 146 9q5 1 8.5 1h6.5q10 0 10 -3q-1 -7 -11 -30l-84 -196q-126 -5 -270 -24q-139 -20 -285 -121q-197 -137 -197 -339q0 -344 491 -344q211 0 331 36q9 3 14 3q10 0 10 -10q0 -7 -9 -19z" />
    <glyph glyph-name="afii57422" unicode="&#x62e;" horiz-adv-x="1257" 
d="M1246 -382q-110 -162 -446 -162q-146 0 -261.5 29.5t-196 86t-123 139t-42.5 189.5q0 196 176 354q142 127 361 203q-221 45 -275 45q-63 0 -121 -57q-59 -56 -64 -56q-45 0 -45 37q0 21 13.5 55.5t31.5 68.5t35.5 61.5t24.5 36.5q67 81 166 81q9 0 41 -4.5t76.5 -11
t96.5 -14.5t100 -15.5t87.5 -13t58.5 -7.5q38 -4 74 -6t71 -2q75 0 146 9q5 1 8.5 1h6.5q10 0 10 -3q-1 -7 -11 -30l-84 -196q-126 -5 -270 -24q-139 -20 -285 -121q-197 -137 -197 -339q0 -344 491 -344q211 0 331 36q9 3 14 3q10 0 10 -10q0 -7 -9 -19zM914 1010
l-135 -135l-136 135l136 136z" />
    <glyph glyph-name="afii57423" unicode="&#x62f;" horiz-adv-x="895" 
d="M891 364q0 -363 -454 -363q-260 0 -260 243q0 23 3 48q16 133 72 133q32 0 36 -46q5 -63 26 -87q40 -46 162 -46q77 0 166 15q131 22 131 66q0 79 -140 196q-126 106 -208 128l60 224q6 23 13 23q6 0 22 -10q145 -92 248 -222q123 -157 123 -302z" />
    <glyph glyph-name="afii57424" unicode="&#x630;" horiz-adv-x="895" 
d="M891 364q0 -363 -454 -363q-260 0 -260 243q0 23 3 48q16 133 72 133q32 0 36 -46q5 -63 26 -87q40 -46 162 -46q77 0 166 15q131 22 131 66q0 79 -140 196q-126 106 -208 128l60 224q6 23 13 23q6 0 22 -10q145 -92 248 -222q123 -157 123 -302zM631 1154l-135 -135
l-136 135l136 136z" />
    <glyph glyph-name="afii57425" unicode="&#x631;" horiz-adv-x="769" 
d="M767 70q0 -161 -65 -302q-47 -100 -125 -181q-58 -61 -72 -61q-269 0 -399 51q-15 4 -15 11q0 4 13 9q186 67 348 192q187 144 187 259q0 48 -68 134q-58 73 -111 113l97 205q5 11 12 11q3 0 12 -7q186 -186 186 -434z" />
    <glyph glyph-name="afii57426" unicode="&#x632;" horiz-adv-x="769" 
d="M767 70q0 -161 -65 -302q-47 -100 -125 -181q-58 -61 -72 -61q-269 0 -399 51q-15 4 -15 11q0 4 13 9q186 67 348 192q187 144 187 259q0 48 -68 134q-58 73 -111 113l97 205q5 11 12 11q3 0 12 -7q186 -186 186 -434zM616 778l-135 -135l-136 135l136 136z" />
    <glyph glyph-name="afii57427" unicode="&#x633;" horiz-adv-x="1876" 
d="M1845 383q0 -139 -57 -247q-71 -135 -202 -135q-115 0 -190 128q-72 -127 -174 -127q-36 0 -76 14q7 -51 7 -98q0 -243 -183 -359q-152 -97 -410 -97q-231 0 -344 127q-91 102 -91 258q0 79 48 230q56 177 113 177q40 0 40 -56q0 -5 -30.5 -97t-30.5 -146
q0 -142 113 -199q82 -41 243 -41q158 0 287 49q148 56 148 146q0 56 -87 176q-74 102 -133 154l99 202q11 22 26 0q127 -184 247 -184q73 0 104 60q7 13 31 111q15 60 50 60q33 0 46 -61q19 -88 35 -114q38 -61 131 -61q112 0 112 84q0 42 -86 149l91 141q17 27 20 28
q6 -3 20 -21q25 -32 50 -96q33 -85 33 -155z" />
    <glyph glyph-name="afii57428" unicode="&#x634;" horiz-adv-x="1876" 
d="M1845 383q0 -139 -57 -247q-71 -135 -202 -135q-115 0 -190 128q-72 -127 -174 -127q-36 0 -76 14q7 -51 7 -98q0 -243 -183 -359q-152 -97 -410 -97q-231 0 -344 127q-91 102 -91 258q0 79 48 230q56 177 113 177q40 0 40 -56q0 -5 -30.5 -97t-30.5 -146
q0 -142 113 -199q82 -41 243 -41q158 0 287 49q148 56 148 146q0 56 -87 176q-74 102 -133 154l99 202q11 22 26 0q127 -184 247 -184q73 0 104 60q7 13 31 111q15 60 50 60q33 0 46 -61q19 -88 35 -114q38 -61 131 -61q112 0 112 84q0 42 -86 149l91 141q17 27 20 28
q6 -3 20 -21q25 -32 50 -96q33 -85 33 -155zM1116 830l123 122l122 -122l-122 -123zM1389 830l123 122l122 -122l-122 -123zM1250 1032l123 123l122 -123l-122 -122z" />
    <glyph glyph-name="afii57429" unicode="&#x635;" horiz-adv-x="1902" 
d="M1875 458q0 -148 -123 -286q-153 -171 -402 -171q-125 0 -229 36q13 -62 13 -121q0 -232 -171 -351q-149 -103 -392 -103q-231 0 -344 127q-91 102 -91 258q0 79 48 230q56 177 113 177q40 0 40 -56q0 -5 -30.5 -97t-30.5 -146q0 -142 113 -199q82 -41 243 -41
q158 0 273 52q135 61 135 167q0 55 -82 167q-69 94 -129 146l93 193q15 30 32 2q60 -98 148 -164q308 401 527 401q102 0 172 -59q74 -62 74 -162zM1713 347q0 62 -66 97q-53 29 -121 29q-129 0 -320 -218q83 -6 155 -6q174 0 274 37q78 29 78 61z" />
    <glyph glyph-name="afii57430" unicode="&#x636;" horiz-adv-x="1902" 
d="M1875 458q0 -148 -123 -286q-153 -171 -402 -171q-125 0 -229 36q13 -62 13 -121q0 -232 -171 -351q-149 -103 -392 -103q-231 0 -344 127q-91 102 -91 258q0 79 48 230q56 177 113 177q40 0 40 -56q0 -5 -30.5 -97t-30.5 -146q0 -142 113 -199q82 -41 243 -41
q158 0 273 52q135 61 135 167q0 55 -82 167q-69 94 -129 146l93 193q15 30 32 2q60 -98 148 -164q308 401 527 401q102 0 172 -59q74 -62 74 -162zM1713 347q0 62 -66 97q-53 29 -121 29q-129 0 -320 -218q83 -6 155 -6q174 0 274 37q78 29 78 61zM1289 890l-135 -135
l-136 135l136 136z" />
    <glyph glyph-name="afii57431" unicode="&#x637;" horiz-adv-x="1375" 
d="M1335 460q0 -257 -243 -373q-180 -86 -470 -86q-195 0 -289 50q-109 58 -161 216q140 -13 340 -9v76q0 396 -91 763l187 171q37 -107 104 -279q3 -6 5 -15q0 -6 -9 -6q-11 0 -70 15q13 -144 13 -254q0 -152 -29 -356q86 96 204 183q171 126 285 126q74 0 140 -49
q84 -62 84 -173zM1179 351q0 49 -59 90q-54 37 -105 37q-166 0 -367 -220h184q102 0 196 15q151 24 151 78z" />
    <glyph glyph-name="afii57432" unicode="&#x638;" horiz-adv-x="1375" 
d="M1335 460q0 -257 -243 -373q-180 -86 -470 -86q-195 0 -289 50q-109 58 -161 216q140 -13 340 -9v76q0 396 -91 763l187 171q37 -107 104 -279q3 -6 5 -15q0 -6 -9 -6q-11 0 -70 15q13 -144 13 -254q0 -152 -29 -356q86 96 204 183q171 126 285 126q74 0 140 -49
q84 -62 84 -173zM1179 351q0 49 -59 90q-54 37 -105 37q-166 0 -367 -220h184q102 0 196 15q151 24 151 78zM1168 1027l-135 -135l-136 135l136 136z" />
    <glyph glyph-name="afii57433" unicode="&#x639;" horiz-adv-x="1187" 
d="M1175 -366q-99 -176 -465 -176q-217 0 -360 86q-173 104 -173 307q0 148 123 267q104 101 252 146q-67 20 -119 69q-67 63 -67 143q0 113 116 241q125 137 262 137q52 0 117 -38q79 -46 114 -117q17 -34 17 -49q0 -13 -13 -13q-6 0 -39 10q-86 26 -173 26q-82 0 -166 -30
q-91 -32 -91 -74q0 -44 56 -96q77 -71 214 -71q103 0 290 47q26 7 29 4t-6 -23l-84 -192q-606 -49 -606 -330q0 -158 153 -235q119 -60 293 -60q158 0 305 35q28 7 30 5q-1 -5 -9 -19z" />
    <glyph glyph-name="afii57434" unicode="&#x63a;" horiz-adv-x="1187" 
d="M1175 -366q-99 -176 -465 -176q-217 0 -360 86q-173 104 -173 307q0 148 123 267q104 101 252 146q-67 20 -119 69q-67 63 -67 143q0 113 116 241q125 137 262 137q52 0 117 -38q79 -46 114 -117q17 -34 17 -49q0 -13 -13 -13q-6 0 -39 10q-86 26 -173 26q-82 0 -166 -30
q-91 -32 -91 -74q0 -44 56 -96q77 -71 214 -71q103 0 290 47q26 7 29 4t-6 -23l-84 -192q-606 -49 -606 -330q0 -158 153 -235q119 -60 293 -60q158 0 305 35q28 7 30 5q-1 -5 -9 -19zM836 1088l-135 -135l-136 135l136 136z" />
    <glyph glyph-name="afii57441" unicode="&#x641;" horiz-adv-x="1563" 
d="M1521 418q0 -244 -136 -335q-73 -49 -301 -78q-176 -23 -319 -23q-258 0 -392 59q-196 87 -196 310q0 99 52 194q47 85 78 85q38 0 38 -42q0 -10 -15.5 -57t-15.5 -76q0 -158 175 -201q78 -19 329 -19q380 0 568 73q36 14 36 53q0 27 -40 23q-129 -12 -179 -12
q-199 0 -199 147q0 121 61 240q74 144 188 144q156 0 225 -204q43 -127 43 -281zM1370 568q-28 69 -85 105q-43 27 -79 27q-31 0 -57 -21.5t-26 -52.5q0 -70 136 -70q51 0 111 12zM1348 1161l-135 -135l-136 135l136 136z" />
    <glyph glyph-name="afii57442" unicode="&#x642;" horiz-adv-x="1251" 
d="M1225 -34q0 -472 -641 -472q-231 0 -344 127q-91 102 -91 257q0 79 48 230q56 177 113 177q40 0 40 -55q0 -6 -30.5 -98t-30.5 -145q0 -142 113 -199q81 -41 243 -42q148 -1 289 38q190 53 190 161q0 27 -12 57q-27 0 -80 -1.5t-80 -1.5q-129 0 -188 28q-80 38 -80 138
q0 129 61 261q75 163 188 163q134 0 218 -149q74 -131 74 -296v-178zM1057 243q-27 67 -85 104q-44 28 -79 28q-31 0 -57 -21.5t-26 -52.5q0 -70 136 -70q51 0 111 12zM1174 808l-122 -123l-123 123l123 122zM901 808l-122 -123l-123 123l123 122z" />
    <glyph glyph-name="afii57443" unicode="&#x643;" horiz-adv-x="1460" 
d="M1443 988q2 -4 3 -8t3 -9q-1 -4 -12 -4q-8 0 -23 2t-36 6q5 -88 8 -231t3 -344v-12q0 -219 -143 -326q-53 -39 -251 -61q-82 -10 -117 -14.5t-113 -4.5q-281 0 -400 52q-188 80 -188 317q0 43 13.5 92.5t33.5 90.5t42.5 68.5t40.5 27.5q38 0 38 -42q0 -3 -5 -19.5
t-10.5 -38t-10.5 -42.5t-5 -33q0 -160 155 -201q70 -19 312 -19q60 0 164 4.5t168.5 15.5t93.5 30t29 48v3q0 4 -1 7v3q0 6 -2 30t-4.5 51.5t-4.5 51.5t-3 31q-17 182 -38 326.5t-44 256.5l184 165q7 6 12 6t17.5 -30t28 -73t32 -90.5t30.5 -82.5zM938 746q3 -9 3 -24
q0 -26 -5 -47.5t-9 -26.5q-71 -18 -158.5 -50t-193.5 -78v74q17 9 40 21t54 27q-14 6 -28 18.5t-25 27.5t-18.5 31t-7.5 30q0 28 20 61t50 61t64 46.5t62 18.5q15 0 34 -7t35.5 -18t28 -24.5t11.5 -25.5q0 -40 -31 -40q-5 0 -17.5 4t-27.5 9t-30 9t-25 4q-14 0 -28.5 -4
t-27 -11t-20.5 -16t-8 -19q0 -18 10 -34.5t26 -28.5t34.5 -19.5t35.5 -7.5q11 0 33.5 5.5t46.5 12.5t44.5 13t27.5 8z" />
    <glyph glyph-name="afii57444" unicode="&#x644;" horiz-adv-x="1211" 
d="M1198 988q2 -4 3 -8t3 -9q-1 -4 -12 -4q-8 0 -23 2t-36 6q5 -94 8 -249t3 -375v-149t-1 -162q-3 -528 -556 -528q-412 0 -412 369q0 86 43 203q45 126 85 126q37 0 37 -48q0 -8 -6 -31.5t-12.5 -51.5t-12.5 -54.5t-6 -39.5q0 -218 312 -218q209 0 318 67q76 46 76 87
q0 241 -33 589q-17 182 -38 326.5t-44 256.5l184 165q7 6 12 6q7 0 10 -11q19 -54 43 -120t55 -145z" />
    <glyph glyph-name="afii57445" unicode="&#x645;" horiz-adv-x="1003" 
d="M966 346q0 -80 -45 -170q-62 -124 -173 -124q-60 0 -178.5 23.5t-178.5 23.5q-69 0 -69 -43q0 -7 1 -17q32 -306 21 -404q-3 -23 -40 -85q-16 -26 -49 -79q-13 -22 -20 -22q-9 0 -11 37q-8 148 -29 377q-18 197 -18 233q0 101 67 160t169 59q-1 13 -5.5 42t-4.5 45
q0 67 69 156q76 99 160 99q99 0 219 -118q115 -113 115 -193zM812 288q-43 54 -106 98q-76 54 -132 54q-51 0 -51 -51l-1 -69q1 -16 19 -20q71 -15 250 -49q33 -6 33 12q0 10 -12 25z" />
    <glyph glyph-name="afii57446" unicode="&#x646;" horiz-adv-x="1281" 
d="M1242 -37q0 -288 -177 -405q-145 -96 -451 -96q-231 0 -344 127q-91 102 -91 258q0 79 48 230q56 177 113 177q40 0 40 -56q0 -5 -30.5 -97t-30.5 -146q0 -142 113 -199q82 -41 243 -41q150 0 271 32q186 49 186 158q0 57 -77 177q-70 109 -123 156l105 215q10 21 25 0
q180 -259 180 -490zM831 588l-136 -136l-136 136l136 135z" />
    <glyph glyph-name="afii57447" unicode="&#x647;" horiz-adv-x="788" 
d="M760 314q0 -144 -82.5 -230.5t-226.5 -86.5q-156 0 -226 88q-48 61 -48 147q0 113 89 275q83 151 156 202q150 -58 225 -126q113 -103 113 -269zM647 316q-98 116 -274 173q-67 -74 -67 -167q0 -45 58 -72q52 -24 121 -24q103 0 156 38q31 22 6 52z" />
    <glyph glyph-name="afii57448" unicode="&#x648;" horiz-adv-x="782" 
d="M780 38q0 -262 -178 -452q-56 -60 -71 -60q-251 0 -399 51q-15 6 -15 10q0 6 13 10q179 65 347 199q185 147 185 245q-9 0 -27.5 -0.5t-38.5 -0.5t-39 -0.5t-28 -0.5q-79 0 -132.5 10.5t-86 33.5t-46.5 58.5t-14 85.5q0 107 67 242q81 164 192 164q138 0 213 -160
q58 -123 58 -279v-156zM625 291q-11 28 -30 52t-41.5 42t-46.5 28t-45 10q-15 0 -30 -6t-27 -16t-19 -23.5t-7 -28.5q0 -70 112 -70q51 0 134 12z" />
    <glyph glyph-name="afii57449" unicode="&#x649;" horiz-adv-x="1381" 
d="M1374 488q2 -14 3.5 -24t1.5 -17q0 -16 -7 -16q-6 0 -28 11q-52 28 -166 28q-125 0 -217 -86q-71 -68 -71 -109q0 -48 76 -70q35 -11 156 -28q60 -8 98.5 -22t61.5 -38t32 -59t9 -84q0 -233 -170 -354.5t-497 -121.5q-477 0 -477 393q0 78 48 230q55 177 113 177
q40 0 40 -56q0 -2 -8 -26.5t-23 -70.5q-16 -46 -23 -82.5t-7 -63.5q0 -253 380 -253q164 0 310 33q198 45 198 126q0 44 -116 58q-168 19 -216 38q-117 45 -117 165q0 134 118 315q132 203 281 203q97 0 163 -84q44 -56 54 -112z" />
    <glyph glyph-name="afii57450" unicode="&#x64a;" horiz-adv-x="1381" 
d="M1374 488q2 -14 3.5 -24t1.5 -17q0 -16 -7 -16q-6 0 -28 11q-52 28 -166 28q-125 0 -217 -86q-71 -68 -71 -109q0 -48 76 -70q35 -11 156 -28q60 -8 98.5 -22t61.5 -38t32 -59t9 -84q0 -233 -170 -354.5t-497 -121.5q-477 0 -477 393q0 78 48 230q55 177 113 177
q40 0 40 -56q0 -2 -8 -26.5t-23 -70.5q-16 -46 -23 -82.5t-7 -63.5q0 -253 380 -253q164 0 310 33q198 45 198 126q0 44 -116 58q-168 19 -216 38q-117 45 -117 165q0 134 118 315q132 203 281 203q97 0 163 -84q44 -56 54 -112zM951 -768l-122 -123l-123 123l123 122z
M678 -768l-122 -123l-123 123l123 122z" />
    <glyph glyph-name="uni06C0" unicode="&#x6c0;" horiz-adv-x="813" 
d="M760 314q0 -144 -82.5 -230.5t-226.5 -86.5q-156 0 -226 88q-48 61 -48 147q0 113 89 275q83 151 156 202q150 -58 225 -126q113 -103 113 -269zM647 316q-98 116 -274 173q-67 -74 -67 -167q0 -45 58 -72q52 -24 121 -24q103 0 156 38q31 22 6 52zM639 1048
q1 -4 1.5 -8.5t0.5 -11.5q0 -25 -5 -49t-9 -29q-140 -36 -351 -129l-1 74q17 9 40.5 21t53.5 28q-12 5 -26 17t-25.5 27.5t-19 32t-7.5 29.5q0 57 69 123q68 65 127 65q15 0 34 -7t35.5 -18.5t28 -24.5t11.5 -25q0 -41 -31 -41q-5 0 -17.5 4t-27.5 9.5t-30 9.5t-25 4
q-13 0 -28 -4t-27.5 -11t-20.5 -16t-8 -19q0 -18 10 -34t25.5 -28.5t34.5 -20t36 -7.5q25 0 62.5 11.5t89.5 27.5z" />
    <glyph glyph-name="uni040d" unicode="&#x400;" horiz-adv-x="1149" 
 />
    <glyph glyph-name="uni0450" unicode="&#x45d;" horiz-adv-x="1154" 
 />
    <glyph glyph-name="uni045D" unicode="&#x40d;" horiz-adv-x="1372" 
d="M882 1237l-264 166q-22 17 -35.5 35t-13.5 38q0 25 16 39.5t43 14.5q18 0 33 -8.5t39 -31.5l251 -253h-69z" />
    <glyph glyph-name="afii59759" unicode="&#xe4f;" horiz-adv-x="1233" 
d="M616 983q207 0 353.5 -146.5t146.5 -353.5q0 -206 -146.5 -352.5t-353.5 -146.5q-206 0 -352.5 146.5t-146.5 352.5q0 207 146.5 353.5t352.5 146.5zM616 147q142 0 233 95t91 241t-91 241t-233 95q-141 0 -232 -95t-91 -241t91 -241t232 -95zM616 598q48 0 81.5 -33
t33.5 -80t-33.5 -80.5t-81.5 -33.5q-47 0 -80.5 33.5t-33.5 80.5t33.5 80t80.5 33z" />
    <glyph glyph-name="afii59760" unicode="&#xe50;" horiz-adv-x="1233" 
d="M616 924q218 0 359 -129.5t141 -341.5q0 -211 -141 -340t-359 -129q-217 0 -358 129t-141 340q0 212 141 341.5t358 129.5zM616 150q149 0 236.5 81t87.5 222t-88 224t-236 83q-147 0 -235 -83t-88 -224q0 -143 88.5 -223t234.5 -80z" />
    <glyph glyph-name="glyph279" 
d="M36 1831v-968h-72v968h72zM36 543v-966h-72v966h72z" />
    <glyph glyph-name="glyph280" 
d="M-234 -423v71h198v2112h-198v71h468v-71h-198v-2112h198v-71h-468z" />
    <glyph glyph-name="glyph281" 
d="M224 1646l-188 -142v-1927h-72v2254z" />
    <glyph glyph-name="glyph282" 
d="M36 1831v-2254h-72v1927l-188 142z" />
    <glyph glyph-name="glyph283" 
d="M36 1831v-2183h198v-71h-270v2254h72z" />
    <glyph glyph-name="glyph284" 
d="M224 1646l-188 -142v-1927h-72v1927l-188 137l224 190z" />
    <glyph glyph-name="uni0679" unicode="&#x679;" horiz-adv-x="1912" 
 />
    <glyph glyph-name="uni0688" unicode="&#x688;" horiz-adv-x="590" 
 />
    <glyph glyph-name="uni0691" unicode="&#x691;" horiz-adv-x="643" 
 />
    <glyph glyph-name="uni06C1" unicode="&#x6c1;" horiz-adv-x="1066" 
 />
    <glyph glyph-name="uni06C2" unicode="&#x6c2;" horiz-adv-x="1066" 
 />
    <glyph glyph-name="uni06C3" unicode="&#x6c3;" horiz-adv-x="1066" 
 />
    <glyph glyph-name="uni06D2" unicode="&#x6d2;" horiz-adv-x="1872" 
 />
    <glyph glyph-name="uni06D3" unicode="&#x6d3;" horiz-adv-x="1872" 
 />
    <glyph glyph-name="uni06D4" unicode="&#x6d4;" horiz-adv-x="524" 
 />
    <glyph glyph-name="uni0670" unicode="&#x670;" 
d="M20 60l-51 -77q-6 0 -10 21q-15 87 -47 317l87 60q7 4 12 4q6 0 7 -7q0 -95 2 -318z" />
    <glyph glyph-name="glyph298" horiz-adv-x="458" 
d="M235 1433q31 24 59 28.5t49 -6.5t34 -36t13 -62l-1 -80h-320v58h54zM203 1335h128v30q-2 29 -20 37t-48 -14z" />
    <glyph glyph-name="glyph299" horiz-adv-x="1267" 
d="M1225 -34q0 -472 -641 -472q-231 0 -344 127q-91 102 -91 257q0 79 48 230q56 177 113 177q40 0 40 -55q0 -6 -30.5 -98t-30.5 -145q0 -142 113 -199q81 -41 243 -42q148 -1 289 38q190 53 190 161q0 27 -12 57q-27 0 -80 -1.5t-80 -1.5q-129 0 -188 28q-80 38 -80 138
q0 129 61 261q75 163 188 163q134 0 218 -149q74 -131 74 -296v-178zM1057 243q-27 67 -85 104q-44 28 -79 28q-31 0 -57 -21.5t-26 -52.5q0 -70 136 -70q51 0 111 12z" />
    <glyph glyph-name="glyph300" horiz-adv-x="267" 
 />
    <glyph glyph-name="uni0654" unicode="&#x654;" 
d="M90 1134q1 -4 1.5 -8.5t0.5 -11.5q0 -25 -5 -49t-9 -29q-140 -36 -351 -129l-1 74q17 9 40.5 21t53.5 28q-12 5 -26 17t-25.5 27.5t-19 32t-7.5 29.5q0 57 69 123q68 65 127 65q15 0 34 -7t35.5 -18.5t28 -24.5t11.5 -25q0 -41 -31 -41q-5 0 -17.5 4t-27.5 9.5t-30 9.5
t-25 4q-13 0 -28 -4t-27.5 -11t-20.5 -16t-8 -19q0 -18 10 -34t25.5 -28.5t34.5 -20t36 -7.5q25 0 62.5 11.5t89.5 27.5z" />
    <glyph glyph-name="uni0655" unicode="&#x655;" 
d="M88 1133q1 -4 1.5 -8.5t0.5 -11.5q0 -25 -5 -49t-9 -29q-140 -36 -351 -129l-1 74q17 9 40.5 21t53.5 28q-12 5 -26 17t-25.5 27.5t-19 32t-7.5 29.5q0 57 69 123q68 65 127 65q15 0 34 -7t35.5 -18.5t28 -24.5t11.5 -25q0 -41 -31 -41q-5 0 -17.5 4t-27.5 9.5t-30 9.5
t-25 4q-13 0 -28 -4t-27.5 -11t-20.5 -16t-8 -19q0 -18 10 -34t25.5 -28.5t34.5 -20t36 -7.5q25 0 62.5 11.5t89.5 27.5z" />
    <glyph glyph-name="uni0671" unicode="&#x671;" horiz-adv-x="445" 
d="M396 227q0 -71 -76 -232q-20 -42 -28 -42q-13 0 -21 93l-95 1056l184 153q18 15 26 15q10 0 10 -21v-1022zM290 1491q31 24 59 28.5t49 -6.5t34 -36t13 -62l-1 -80h-320v58h54zM258 1393h128v30q-2 29 -20 37t-48 -14z" />
    <glyph glyph-name="uni0672" unicode="&#x672;" horiz-adv-x="445" 
d="M396 227q0 -71 -76 -232q-20 -42 -28 -42q-13 0 -21 93l-95 1056l184 153q18 15 26 15q10 0 10 -21v-1022zM459 1519q1 -4 1.5 -8.5t0.5 -11.5q0 -25 -5 -49t-9 -29q-140 -36 -351 -129l-1 74q17 9 40.5 21t53.5 28q-12 5 -26 17t-25.5 27.5t-19 32t-7.5 29.5
q0 57 69 123q68 65 127 65q15 0 34 -7t35.5 -18.5t28 -24.5t11.5 -25q0 -41 -31 -41q-5 0 -17.5 4t-27.5 9.5t-30 9.5t-25 4q-13 0 -28 -4t-27.5 -11t-20.5 -16t-8 -19q0 -18 10 -34t25.5 -28.5t34.5 -20t36 -7.5q25 0 62.5 11.5t89.5 27.5z" />
    <glyph glyph-name="uni0672.fina" horiz-adv-x="581" 
d="M581 0h-91q-59 0 -107 23t-82.5 66t-53.5 105.5t-19 140.5q0 123 -15 371q-17 280 -33 366q-1 5 -1.5 9.5t-0.5 8.5q0 14 6 20l165 134q30 24 35 24l1 -1q6 -2 6 -28l-2 -841q0 -142 159 -141h33v-257zM302 1529q31 24 59 28.5t49 -6.5t34 -36t13 -62l-1 -80h-320v58h54z
M270 1431h128v30q-2 29 -20 37t-48 -14z" />
    <glyph glyph-name="uni0673" unicode="&#x673;" horiz-adv-x="445" 
d="M396 227q0 -71 -76 -232q-20 -42 -28 -42q-13 0 -21 93l-95 1056l184 153q18 15 26 15q10 0 10 -21v-1022zM474 -361q1 -4 1.5 -8.5t0.5 -11.5q0 -25 -5 -49t-9 -29q-140 -36 -351 -129l-1 74q17 9 40.5 21t53.5 28q-12 5 -26 17t-25.5 27.5t-19 32t-7.5 29.5
q0 57 69 123q68 65 127 65q15 0 34 -7t35.5 -18.5t28 -24.5t11.5 -25q0 -41 -31 -41q-5 0 -17.5 4t-27.5 9.5t-30 9.5t-25 4q-13 0 -28 -4t-27.5 -11t-20.5 -16t-8 -19q0 -18 10 -34t25.5 -28.5t34.5 -20t36 -7.5q25 0 62.5 11.5t89.5 27.5z" />
    <glyph glyph-name="uni0673.fina" horiz-adv-x="581" 
d="M581 0h-91q-59 0 -107 23t-82.5 66t-53.5 105.5t-19 140.5q0 123 -15 371q-17 280 -33 366q-1 5 -1.5 9.5t-0.5 8.5q0 14 6 20l165 134q30 24 35 24l1 -1q6 -2 6 -28l-2 -841q0 -142 159 -141h33v-257zM493 -317q1 -4 1.5 -8.5t0.5 -11.5q0 -25 -5 -49t-9 -29
q-140 -36 -351 -129l-1 74q17 9 40.5 21t53.5 28q-12 5 -26 17t-25.5 27.5t-19 32t-7.5 29.5q0 57 69 123q68 65 127 65q15 0 34 -7t35.5 -18.5t28 -24.5t11.5 -25q0 -41 -31 -41q-5 0 -17.5 4t-27.5 9.5t-30 9.5t-25 4q-13 0 -28 -4t-27.5 -11t-20.5 -16t-8 -19
q0 -18 10 -34t25.5 -28.5t34.5 -20t36 -7.5q25 0 62.5 11.5t89.5 27.5z" />
    <glyph glyph-name="uni0675" unicode="&#x675;" horiz-adv-x="445" 
d="M396 227q0 -71 -76 -232q-20 -42 -28 -42q-13 0 -21 93l-95 1056l184 153q18 15 26 15q10 0 10 -21v-1022zM456 1514q1 -4 1.5 -8.5t0.5 -11.5q0 -25 -5 -49t-9 -29q-140 -36 -351 -129l-1 74q17 9 40.5 21t53.5 28q-12 5 -26 17t-25.5 27.5t-19 32t-7.5 29.5
q0 57 69 123q68 65 127 65q15 0 34 -7t35.5 -18.5t28 -24.5t11.5 -25q0 -41 -31 -41q-5 0 -17.5 4t-27.5 9.5t-30 9.5t-25 4q-13 0 -28 -4t-27.5 -11t-20.5 -16t-8 -19q0 -18 10 -34t25.5 -28.5t34.5 -20t36 -7.5q25 0 62.5 11.5t89.5 27.5z" />
    <glyph glyph-name="uni0676" unicode="&#x676;" horiz-adv-x="782" 
d="M780 38q0 -262 -178 -452q-56 -60 -71 -60q-251 0 -399 51q-15 6 -15 10q0 6 13 10q179 65 347 199q185 147 185 245q-9 0 -27.5 -0.5t-38.5 -0.5t-39 -0.5t-28 -0.5q-79 0 -132.5 10.5t-86 33.5t-46.5 58.5t-14 85.5q0 107 67 242q81 164 192 164q138 0 213 -160
q58 -123 58 -279v-156zM625 291q-11 28 -30 52t-41.5 42t-46.5 28t-45 10q-15 0 -30 -6t-27 -16t-19 -23.5t-7 -28.5q0 -70 112 -70q51 0 134 12zM682 945q1 -4 1.5 -8.5t0.5 -11.5q0 -25 -5 -49t-9 -29q-140 -36 -351 -129l-1 74q17 9 40.5 21t53.5 28q-12 5 -26 17
t-25.5 27.5t-19 32t-7.5 29.5q0 57 69 123q68 65 127 65q15 0 34 -7t35.5 -18.5t28 -24.5t11.5 -25q0 -41 -31 -41q-5 0 -17.5 4t-27.5 9.5t-30 9.5t-25 4q-13 0 -28 -4t-27.5 -11t-20.5 -16t-8 -19q0 -18 10 -34t25.5 -28.5t34.5 -20t36 -7.5q25 0 62.5 11.5t89.5 27.5z
" />
    <glyph glyph-name="uni0677" unicode="&#x677;" horiz-adv-x="588" 
 />
    <glyph glyph-name="uni0678" unicode="&#x678;" horiz-adv-x="1381" 
d="M1374 488q2 -14 3.5 -24t1.5 -17q0 -16 -7 -16q-6 0 -28 11q-52 28 -166 28q-125 0 -217 -86q-71 -68 -71 -109q0 -48 76 -70q35 -11 156 -28q60 -8 98.5 -22t61.5 -38t32 -59t9 -84q0 -233 -170 -354.5t-497 -121.5q-477 0 -477 393q0 78 48 230q55 177 113 177
q40 0 40 -56q0 -2 -8 -26.5t-23 -70.5q-16 -46 -23 -82.5t-7 -63.5q0 -253 380 -253q164 0 310 33q198 45 198 126q0 44 -116 58q-168 19 -216 38q-117 45 -117 165q0 134 118 315q132 203 281 203q97 0 163 -84q44 -56 54 -112zM801 776q1 -4 1.5 -8.5t0.5 -11.5
q0 -25 -5 -49t-9 -29q-140 -36 -351 -129l-1 74q17 9 40.5 21t53.5 28q-12 5 -26 17t-25.5 27.5t-19 32t-7.5 29.5q0 57 69 123q68 65 127 65q15 0 34 -7t35.5 -18.5t28 -24.5t11.5 -25q0 -41 -31 -41q-5 0 -17.5 4t-27.5 9.5t-30 9.5t-25 4q-13 0 -28 -4t-27.5 -11
t-20.5 -16t-8 -19q0 -18 10 -34t25.5 -28.5t34.5 -20t36 -7.5q25 0 62.5 11.5t89.5 27.5z" />
    <glyph glyph-name="uni067A" unicode="&#x67a;" horiz-adv-x="1912" 
 />
    <glyph glyph-name="uni067B" unicode="&#x67b;" horiz-adv-x="1912" 
 />
    <glyph glyph-name="uni067C" unicode="&#x67c;" horiz-adv-x="1912" 
 />
    <glyph glyph-name="uni067D" unicode="&#x67d;" horiz-adv-x="1912" 
 />
    <glyph glyph-name="uni067F" unicode="&#x67f;" horiz-adv-x="1912" 
 />
    <glyph glyph-name="uni0680" unicode="&#x680;" horiz-adv-x="1912" 
 />
    <glyph glyph-name="uni0681" unicode="&#x681;" horiz-adv-x="1098" 
 />
    <glyph glyph-name="uni0682" unicode="&#x682;" horiz-adv-x="1098" 
 />
    <glyph glyph-name="uni0683" unicode="&#x683;" horiz-adv-x="1098" 
 />
    <glyph glyph-name="uni0684" unicode="&#x684;" horiz-adv-x="1098" 
 />
    <glyph glyph-name="uni0685" unicode="&#x685;" horiz-adv-x="1098" 
 />
    <glyph glyph-name="uni0687" unicode="&#x687;" horiz-adv-x="1098" 
 />
    <glyph glyph-name="uni0689" unicode="&#x689;" horiz-adv-x="520" 
 />
    <glyph glyph-name="uni068b" unicode="&#x68b;" horiz-adv-x="612" 
 />
    <glyph glyph-name="uni068c" unicode="&#x68c;" horiz-adv-x="520" 
 />
    <glyph glyph-name="uni068d" unicode="&#x68d;" horiz-adv-x="520" 
 />
    <glyph glyph-name="uni068e" unicode="&#x68e;" horiz-adv-x="520" 
 />
    <glyph glyph-name="uni068F" unicode="&#x68f;" horiz-adv-x="520" 
 />
    <glyph glyph-name="uni0690" unicode="&#x690;" horiz-adv-x="520" 
 />
    <glyph glyph-name="uni0692" unicode="&#x692;" horiz-adv-x="643" 
 />
    <glyph glyph-name="uni0693" unicode="&#x693;" horiz-adv-x="643" 
 />
    <glyph glyph-name="uni0694" unicode="&#x694;" horiz-adv-x="453" 
 />
    <glyph glyph-name="uni0695" unicode="&#x695;" horiz-adv-x="446" 
 />
    <glyph glyph-name="uni0696" unicode="&#x696;" horiz-adv-x="450" 
 />
    <glyph glyph-name="uni0697" unicode="&#x697;" horiz-adv-x="468" 
 />
    <glyph glyph-name="uni0699" unicode="&#x699;" horiz-adv-x="465" 
 />
    <glyph glyph-name="uni069A" unicode="&#x69a;" horiz-adv-x="1088" 
 />
    <glyph glyph-name="uni069B" unicode="&#x69b;" horiz-adv-x="1090" 
 />
    <glyph glyph-name="uni069C" unicode="&#x69c;" horiz-adv-x="1102" 
 />
    <glyph glyph-name="uni069D" unicode="&#x69d;" horiz-adv-x="1259" 
 />
    <glyph glyph-name="uni069E" unicode="&#x69e;" horiz-adv-x="1262" 
 />
    <glyph glyph-name="uni069F" unicode="&#x69f;" horiz-adv-x="645" 
 />
    <glyph glyph-name="uni06A0" unicode="&#x6a0;" horiz-adv-x="818" 
 />
    <glyph glyph-name="uni06A2" unicode="&#x6a2;" horiz-adv-x="1421" 
 />
    <glyph glyph-name="uni06A3" unicode="&#x6a3;" horiz-adv-x="1420" 
 />
    <glyph glyph-name="uni06A5" unicode="&#x6a5;" horiz-adv-x="1470" 
 />
    <glyph glyph-name="uni06A6" unicode="&#x6a6;" horiz-adv-x="2145" 
 />
    <glyph glyph-name="uni06A7" unicode="&#x6a7;" horiz-adv-x="1522" 
 />
    <glyph glyph-name="uni06A8" unicode="&#x6a8;" horiz-adv-x="939" 
 />
    <glyph glyph-name="uni06AA" unicode="&#x6aa;" horiz-adv-x="2222" 
 />
    <glyph glyph-name="uni06AB.001" unicode="&#x6ab;" horiz-adv-x="852" 
 />
    <glyph glyph-name="uni06AB" unicode="&#x6ac;" horiz-adv-x="845" 
 />
    <glyph glyph-name="uni06AD" unicode="&#x6ad;" horiz-adv-x="1275" 
 />
    <glyph glyph-name="uni06AE" unicode="&#x6ae;" horiz-adv-x="806" 
 />
    <glyph glyph-name="uni06B0" unicode="&#x6b0;" horiz-adv-x="896" 
 />
    <glyph glyph-name="uni06B1" unicode="&#x6b1;" horiz-adv-x="1158" 
 />
    <glyph glyph-name="uni06B2" unicode="&#x6b2;" horiz-adv-x="815" 
 />
    <glyph glyph-name="uni06B3" unicode="&#x6b3;" horiz-adv-x="1158" 
 />
    <glyph glyph-name="uni06B4" unicode="&#x6b4;" horiz-adv-x="1158" 
 />
    <glyph glyph-name="uni06B5" unicode="&#x6b5;" horiz-adv-x="887" 
 />
    <glyph glyph-name="uni06B6" unicode="&#x6b6;" horiz-adv-x="1365" 
 />
    <glyph glyph-name="uni06B7" unicode="&#x6b7;" horiz-adv-x="1365" 
 />
    <glyph glyph-name="uni06B8" unicode="&#x6b8;" horiz-adv-x="1365" 
 />
    <glyph glyph-name="uni06BB" unicode="&#x6bb;" horiz-adv-x="925" 
 />
    <glyph glyph-name="uni06BC" unicode="&#x6bc;" horiz-adv-x="1309" 
 />
    <glyph glyph-name="uni06BD" unicode="&#x6bd;" horiz-adv-x="936" 
 />
    <glyph glyph-name="uni06BF" unicode="&#x6bf;" horiz-adv-x="1247" 
 />
    <glyph glyph-name="uni06C4" unicode="&#x6c4;" horiz-adv-x="448" 
 />
    <glyph glyph-name="uni06C5" unicode="&#x6c5;" horiz-adv-x="854" 
 />
    <glyph glyph-name="uni06C6" unicode="&#x6c6;" horiz-adv-x="388" 
 />
    <glyph glyph-name="uni06C7" unicode="&#x6c7;" horiz-adv-x="854" 
 />
    <glyph glyph-name="uni06C8" unicode="&#x6c8;" horiz-adv-x="588" 
 />
    <glyph glyph-name="uni06C9" unicode="&#x6c9;" horiz-adv-x="588" 
 />
    <glyph glyph-name="uni06CA" unicode="&#x6ca;" horiz-adv-x="401" 
 />
    <glyph glyph-name="uni06CB" unicode="&#x6cb;" horiz-adv-x="773" 
 />
    <glyph glyph-name="uni06CD" unicode="&#x6cd;" horiz-adv-x="1892" 
 />
    <glyph glyph-name="uni06CE" unicode="&#x6ce;" horiz-adv-x="934" 
 />
    <glyph glyph-name="uni06CF" unicode="&#x6cf;" horiz-adv-x="570" 
 />
    <glyph glyph-name="uni06D0" unicode="&#x6d0;" horiz-adv-x="1272" 
 />
    <glyph glyph-name="uni06D1" unicode="&#x6d1;" horiz-adv-x="985" 
 />
    <glyph glyph-name="uni06DD" unicode="&#x6dd;" horiz-adv-x="2300" 
d="M2250 715q0 -246 -104 -466q-100 -214 -279 -368q3 -14 3 -29q0 -55 -39 -93.5t-94 -38.5q-40 0 -73 22q-240 -127 -515 -127q-273 0 -513 127q-33 -22 -73 -22q-55 0 -94 38.5t-39 93.5q0 15 3 29q-179 154 -279 368q-104 220 -104 466t104 466q100 213 279 367
q-3 14 -3 29q0 55 39 93.5t94 38.5q40 0 73 -22q240 127 515 127q273 0 513 -127q33 22 73 22q55 0 94 -38.5t39 -93.5q0 -15 -3 -29q179 -154 279 -367q104 -220 104 -466zM1816 1576q0 33 -23 56t-55 23t-55.5 -23.5t-23.5 -55.5t23 -55t56 -23q32 0 55 23t23 55z
M1602 1595q-212 109 -451 109q-241 0 -453 -109h904zM641 1576q0 32 -23.5 55.5t-55.5 23.5t-55 -23t-23 -56q0 -32 23 -55t55 -23q33 0 56 23t23 55zM2140 714q0 219 -92 417q-88 190 -247 329q-29 -16 -64 -16q-56 0 -95 41h-984q-39 -41 -95 -41q-35 0 -64 16
q-159 -139 -247 -329q-92 -198 -92 -417q0 -449 339 -745q29 16 64 16q56 0 95 -41h984q39 41 95 41q35 0 64 -16q339 296 339 745zM1816 -147q0 32 -23 55t-55 23q-33 0 -56 -23t-23 -55t23.5 -55.5t55.5 -23.5t55 23t23 56zM1602 -166h-904q212 -109 453 -109
q239 0 451 109zM641 -147q0 32 -23 55t-56 23q-32 0 -55 -23t-23 -55q0 -33 23 -56t55 -23t55.5 23.5t23.5 55.5z" />
    <glyph glyph-name="uni06DE" unicode="&#x6de;" horiz-adv-x="2221" 
d="M2171 750l-310 -311v-439h-440l-310 -311l-311 311h-439v439l-311 311l311 311v439h439l311 311l310 -311h440v-439zM436 364v-289h289zM725 1425h-289v-289zM1786 1136v289h-290zM1786 75v289l-290 -289h290zM906 0l205 -205l204 205h-409zM361 955l-205 -205l205 -205
v410zM1315 1500l-204 205l-205 -205h409zM1786 1030l-396 395h-559l-395 -395v-560l395 -395h559l396 395v560zM2065 750l-204 205v-410zM1328 750q0 -90 -63.5 -154t-153.5 -64t-154 64t-64 154t64 153.5t154 63.5t153.5 -63.5t63.5 -153.5zM1253 750q0 59 -42 100.5
t-101 41.5t-101 -41.5t-42 -100.5t42 -101t101 -42t101 42t42 101z" />
    <glyph glyph-name="uni06DF" unicode="&#x6df;" 
d="M75 1429q0 -31 -22 -53t-53 -22t-53 22t-22 53t22 53t53 22t53 -22t22 -53z" />
    <glyph glyph-name="uni06E9" unicode="&#x6e9;" horiz-adv-x="1229" 
d="M1179 0h-1129l228 261v588l-228 259l564 568l565 -568l-228 -259v-588zM1101 1108l-487 490l-486 -490l210 -237v-632l-160 -183h873l-160 183v632zM995 1108l-150 -171v-806h-461v806l-150 171l380 381zM922 1108l-308 308l-307 -308l126 -140v-782h363v782zM833 1108
l-88 -97v-744h-261v744l-88 97l218 223zM780 1108l-166 170l-165 -170l74 -81v-718h182v718z" />
    <glyph glyph-name="uni06EA" unicode="&#x6ea;" 
d="M168 -176l-169 -168l-167 167l169 168zM104 -176l-104 104l-104 -105l104 -104z" />
    <glyph glyph-name="uni06EB" unicode="&#x6eb;" 
d="M168 1522l-169 -168l-167 167l169 168zM104 1522l-104 104l-104 -105l104 -104z" />
    <glyph glyph-name="uni06FA" unicode="&#x6fa;" horiz-adv-x="1647" 
 />
    <glyph glyph-name="uni06FB" unicode="&#x6fb;" horiz-adv-x="1774" 
 />
    <glyph glyph-name="uni06FC" unicode="&#x6fc;" horiz-adv-x="1413" 
 />
    <glyph glyph-name="uni06FD" unicode="&#x6fd;" horiz-adv-x="782" 
 />
    <glyph glyph-name="uni068A" unicode="&#x68a;" horiz-adv-x="520" 
 />
    <glyph glyph-name="uni0343" unicode="&#x343;" 
 />
    <glyph glyph-name="comma" unicode="," horiz-adv-x="515" 
d="M152 -270q97 68 141.5 123t44.5 105q0 14 -9 24.5t-21 10.5h-13l-21 -3h-13q-8 0 -18.5 2.5t-21 6.5t-20.5 9.5t-17 11.5q-22 16 -33 42.5t-11 59.5q0 65 39 103.5t102 38.5q38 0 70 -14.5t55 -40.5t35.5 -62t12.5 -80q0 -55 -17 -104.5t-51 -95t-87.5 -89t-127.5 -86.5z
" />
    <glyph glyph-name="afii57407" unicode="&#x61f;" horiz-adv-x="764" 
d="M670 960q0 -64 -35 -118q-39 -61 -100 -61q-38 0 -67 26t-29 63q0 115 102 115q32 0 68 -18q9 49 -37 101q-55 62 -148 62q-75 0 -121 -50.5t-46 -126.5q0 -87 99 -251t99 -268q0 -26 -3 -50l-15 -121l-50 3l7 102q5 71 -70 144l-145 141q-79 100 -79 231
q0 125 89.5 220.5t213.5 95.5q104 0 184 -67q83 -70 83 -173zM492 90q0 -37 -26.5 -63t-63.5 -26t-63 26t-26 63t26 63t63 26t63.5 -26t26.5 -63z" />
    <glyph glyph-name="afii57392" unicode="&#x6f0;" horiz-adv-x="734" 
d="M610 479q-54 -49 -127 -120q-37 -36 -112 -127q-55 67 -117 134q-32 34 -131 110q64 54 125 114q34 33 115 136q55 -65 107 -122q38 -41 140 -125z" />
    <glyph glyph-name="afii57393" unicode="&#x6f1;" horiz-adv-x="705" 
d="M556 364q0 -169 -30 -302q-33 -147 -84 -147q-32 0 -40 66q-3 24 -3 118q0 514 -259 884q29 48 158 245q59 -40 140 -233q118 -280 118 -631z" />
    <glyph glyph-name="afii57394" unicode="&#x6f2;" horiz-adv-x="995" 
d="M885 1175q0 -169 -90 -282q-97 -122 -261 -122q-18 0 -35 2q63 -239 63 -523q0 -331 -97 -331q-33 0 -38 54l-12 174q-12 147 -56 311q-64 241 -251 533l145 247q32 -39 98 -114q79 -84 205 -84q101 0 162 51q35 29 69 93q27 51 48 51q50 0 50 -60z" />
    <glyph glyph-name="afii57395" unicode="&#x6f3;" horiz-adv-x="1152" 
d="M1039 1145q0 -115 -48 -223q-61 -138 -166 -138q-57 0 -84 12.5t-62 55.5q-66 -99 -183 -104q67 -199 67 -485q0 -129 -20 -223q-26 -122 -74 -122q-38 0 -42 51l-12 174q-13 149 -62 330q-82 302 -252 509l147 259q23 -19 62 -84q40 -68 65 -92q46 -45 104 -45
q77 0 110 55q14 23 31 101q12 55 42 55q40 0 50 -50q17 -87 19 -91q24 -50 97 -50q57 0 87 51q11 19 34 93q16 51 39 51q51 0 51 -90z" />
    <glyph glyph-name="afii62843" unicode="&#x6f4;" horiz-adv-x="1033" 
d="M923 903q0 -95 -97 -193q-111 -113 -265 -113q-34 0 -69 6q38 -214 38 -267q0 -131 -13 -240q-23 -196 -80 -196q-49 0 -57 135q-16 250 -36 353q-63 316 -237 542q46 87 148 261q54 -44 137 -178q104 200 282 200q75 0 139 -60q53 -50 53 -77q0 -41 -26 -41
q-20 0 -76 17t-92 17q-83 0 -129 -53q-36 -42 -36 -93q0 -12 4 -23q34 -93 170 -93q92 0 164 60q63 53 68 53q10 0 10 -17z" />
    <glyph glyph-name="afii62844" unicode="&#x6f5;" horiz-adv-x="1101" 
d="M991 286q0 -143 -59 -238q-71 -113 -205 -113q-109 0 -165 106q-79 -122 -205 -122q-113 0 -177 81q-59 75 -59 191q0 127 114 391q89 205 175 347l-39 45l104 241q9 22 18 22q7 0 21 -18q236 -298 343 -493q134 -245 134 -440zM859 277q0 85 -147 296q-123 177 -226 281
q-59 -107 -128 -287q-76 -198 -76 -265q0 -119 110 -119q72 0 101 45q10 15 29 84q12 45 44 45q40 0 52 -43q20 -73 25 -80q28 -43 107 -43q109 0 109 86z" />
    <glyph glyph-name="afii62845" unicode="&#x6f6;" horiz-adv-x="1008" 
d="M894 846q-6 -39 -33 -143q-31 -117 -43 -127q-14 -5 -35 -12t-48 -18q-87 -33 -181 -116.5t-199 -216.5q-42 -53 -80.5 -108.5t-75.5 -115.5q-38 -60 -63 -60q-24 0 -24 52q0 66 28.5 151.5t78.5 183.5q43 84 160 228q-222 54 -222 257q0 100 116 237q163 190 283 190
q36 0 74 -17.5t69.5 -44.5t52 -60.5t20.5 -65.5q0 -38 -20 -38q-6 0 -33.5 7.5t-61.5 16.5t-67 16.5t-51 7.5q-44 0 -84.5 -14t-71.5 -37t-49 -52t-18 -58q0 -32 20 -60t52 -48.5t73 -32.5t83 -12q50 0 184 78q135 78 155 78q13 0 13 -24q0 -5 -0.5 -10t-1.5 -12z" />
    <glyph glyph-name="afii57399" unicode="&#x6f7;" horiz-adv-x="1128" 
d="M1019 941q-184 -230 -281 -493q-36 -99 -91 -346q-37 -168 -71 -168q-41 0 -70 124q-56 238 -106 375q-107 294 -290 498l92 281q9 28 16 28q6 0 23 -19q109 -122 207 -372q83 -212 124 -415q33 196 105 396q92 257 207 393q14 17 21 17q6 0 16 -28z" />
    <glyph glyph-name="afii57400" unicode="&#x6f8;" horiz-adv-x="1163" 
d="M144 231q186 231 281 492q35 95 91 347q37 168 71 168q41 0 70 -125q54 -232 106 -374q109 -297 290 -499l-92 -281q-9 -28 -16 -28q-6 0 -24 20q-110 123 -207 372q-82 209 -123 414q-33 -192 -106 -395q-92 -256 -207 -393q-14 -17 -20 -17q-7 0 -17 27z" />
    <glyph glyph-name="afii57401" unicode="&#x6f9;" horiz-adv-x="995" 
d="M882 196l-82 -281q-169 125 -219 344q-22 97 -21 291q-83 -8 -134 -8q-309 0 -309 206q0 104 66 264q91 221 238 221q293 0 293 -475q0 -273 57 -409q29 -69 111 -153zM532 816q-1 62 -48 107.5t-110 45.5q-53 0 -84 -34q-23 -26 -23 -54q0 -76 120 -76q119 0 145 11z
" />
    <glyph glyph-name="afii57392.001" unicode="&#x660;" horiz-adv-x="734" 
d="M610 479q-54 -49 -127 -120q-37 -36 -112 -127q-55 67 -117 134q-32 34 -131 110q64 54 125 114q34 33 115 136q55 -65 107 -122q38 -41 140 -125z" />
    <glyph glyph-name="afii57393.001" unicode="&#x661;" horiz-adv-x="705" 
d="M556 364q0 -169 -30 -302q-33 -147 -84 -147q-32 0 -40 66q-3 24 -3 118q0 514 -259 884q29 48 158 245q59 -40 140 -233q118 -280 118 -631z" />
    <glyph glyph-name="afii57394.001" unicode="&#x662;" horiz-adv-x="995" 
d="M885 1175q0 -169 -90 -282q-97 -122 -261 -122q-18 0 -35 2q63 -239 63 -523q0 -331 -97 -331q-33 0 -38 54l-12 174q-12 147 -56 311q-64 241 -251 533l145 247q32 -39 98 -114q79 -84 205 -84q101 0 162 51q35 29 69 93q27 51 48 51q50 0 50 -60z" />
    <glyph glyph-name="afii57395.001" unicode="&#x663;" horiz-adv-x="1152" 
d="M1039 1145q0 -115 -48 -223q-61 -138 -166 -138q-57 0 -84 12.5t-62 55.5q-66 -99 -183 -104q67 -199 67 -485q0 -129 -20 -223q-26 -122 -74 -122q-38 0 -42 51l-12 174q-13 149 -62 330q-82 302 -252 509l147 259q23 -19 62 -84q40 -68 65 -92q46 -45 104 -45
q77 0 110 55q14 23 31 101q12 55 42 55q40 0 50 -50q17 -87 19 -91q24 -50 97 -50q57 0 87 51q11 19 34 93q16 51 39 51q51 0 51 -90z" />
    <glyph glyph-name="afii57396" unicode="&#x664;" horiz-adv-x="1033" 
d="M923 903q0 -95 -97 -193q-111 -113 -265 -113q-34 0 -69 6q38 -214 38 -267q0 -131 -13 -240q-23 -196 -80 -196q-49 0 -57 135q-16 250 -36 353q-63 316 -237 542q46 87 148 261q54 -44 137 -178q104 200 282 200q75 0 139 -60q53 -50 53 -77q0 -41 -26 -41
q-20 0 -76 17t-92 17q-83 0 -129 -53q-36 -42 -36 -93q0 -12 4 -23q34 -93 170 -93q92 0 164 60q63 53 68 53q10 0 10 -17z" />
    <glyph glyph-name="afii57397" unicode="&#x665;" horiz-adv-x="1101" 
d="M991 286q0 -143 -59 -238q-71 -113 -205 -113q-109 0 -165 106q-79 -122 -205 -122q-113 0 -177 81q-59 75 -59 191q0 127 114 391q89 205 175 347l-39 45l104 241q9 22 18 22q7 0 21 -18q236 -298 343 -493q134 -245 134 -440zM859 277q0 85 -147 296q-123 177 -226 281
q-59 -107 -128 -287q-76 -198 -76 -265q0 -119 110 -119q72 0 101 45q10 15 29 84q12 45 44 45q40 0 52 -43q20 -73 25 -80q28 -43 107 -43q109 0 109 86z" />
    <glyph glyph-name="afii57398" unicode="&#x666;" horiz-adv-x="1008" 
d="M894 846q-6 -39 -33 -143q-31 -117 -43 -127q-14 -5 -35 -12t-48 -18q-87 -33 -181 -116.5t-199 -216.5q-42 -53 -80.5 -108.5t-75.5 -115.5q-38 -60 -63 -60q-24 0 -24 52q0 66 28.5 151.5t78.5 183.5q43 84 160 228q-222 54 -222 257q0 100 116 237q163 190 283 190
q36 0 74 -17.5t69.5 -44.5t52 -60.5t20.5 -65.5q0 -38 -20 -38q-6 0 -33.5 7.5t-61.5 16.5t-67 16.5t-51 7.5q-44 0 -84.5 -14t-71.5 -37t-49 -52t-18 -58q0 -32 20 -60t52 -48.5t73 -32.5t83 -12q50 0 184 78q135 78 155 78q13 0 13 -24q0 -5 -0.5 -10t-1.5 -12z" />
    <glyph glyph-name="afii57399.001" unicode="&#x667;" horiz-adv-x="1128" 
d="M1019 941q-184 -230 -281 -493q-36 -99 -91 -346q-37 -168 -71 -168q-41 0 -70 124q-56 238 -106 375q-107 294 -290 498l92 281q9 28 16 28q6 0 23 -19q109 -122 207 -372q83 -212 124 -415q33 196 105 396q92 257 207 393q14 17 21 17q6 0 16 -28z" />
    <glyph glyph-name="afii57400.001" unicode="&#x668;" horiz-adv-x="1163" 
d="M144 231q186 231 281 492q35 95 91 347q37 168 71 168q41 0 70 -125q54 -232 106 -374q109 -297 290 -499l-92 -281q-9 -28 -16 -28q-6 0 -24 20q-110 123 -207 372q-82 209 -123 414q-33 -192 -106 -395q-92 -256 -207 -393q-14 -17 -20 -17q-7 0 -17 27z" />
    <glyph glyph-name="afii57401.001" unicode="&#x669;" horiz-adv-x="995" 
d="M882 196l-82 -281q-169 125 -219 344q-22 97 -21 291q-83 -8 -134 -8q-309 0 -309 206q0 104 66 264q91 221 238 221q293 0 293 -475q0 -273 57 -409q29 -69 111 -153zM532 816q-1 62 -48 107.5t-110 45.5q-53 0 -84 -34q-23 -26 -23 -54q0 -76 120 -76q119 0 145 11z
" />
    <glyph glyph-name="guillemotleft" unicode="&#xab;" horiz-adv-x="836" 
d="M442 616q-55 -109 -55 -223q0 -138 131 -311v1q20 -23 29.5 -39t12.5 -24q0 -25 -26 -25q-6 0 -21 6q-136 70 -219 167v-1q-92 109 -92 229q1 52 20.5 104t57.5 103q27 37 64.5 73.5t81.5 68.5q73 54 102 54q35 0 35 -24q0 -10 -8 -18q-27 -27 -46 -49t-32 -39.5
t-21.5 -30.5t-14.5 -23zM721 616q-55 -109 -55 -223q0 -138 131 -311v1q20 -23 29.5 -39t12.5 -24q0 -25 -26 -25q-7 0 -20 6q-68 35 -123 76t-97 91v-1q-92 109 -92 229q1 52 20.5 104t57.5 103q27 37 64.5 73.5t81.5 68.5q73 54 102 54q35 0 35 -24q0 -10 -8 -18
q-27 -27 -46 -49t-32 -39.5t-21.5 -30.5t-14.5 -23z" />
    <glyph glyph-name="guillemotright" unicode="&#xbb;" horiz-adv-x="836" 
d="M573 622q-12 19 -35.5 52.5t-77.5 87.5q-8 8 -8 18q0 24 35 24q27 0 101 -53q43 -32 80 -68t64 -73q37 -51 56.5 -102t20.5 -102q0 -119 -91 -227v1q-82 -97 -217 -165q-14 -6 -20 -6q-26 0 -26 25q3 8 12.5 23.5t29.5 38.5v-1q129 171 129 308q0 112 -54 220zM297 622
q-12 19 -35.5 52.5t-77.5 87.5q-8 8 -8 18q0 24 35 24q27 0 101 -53q43 -32 80 -68t64 -73q37 -51 56.5 -102t20.5 -102q0 -119 -91 -227v1q-82 -97 -217 -165q-14 -6 -20 -6q-26 0 -26 25q3 8 12.5 23.5t29.5 38.5v-1q129 171 129 308q0 112 -54 220z" />
    <glyph glyph-name="quoteleft" unicode="&#x2018;" horiz-adv-x="425" 
d="M121 993q1 65 45 128.5t99 89.5l31 -58q-16 -9 -38 -33t-32 -62q66 -28 63 -83q0 -16 -6.5 -30.5t-17.5 -25.5t-26 -17.5t-31 -6.5q-20 0 -36.5 8.5t-27.5 22t-17 31.5t-6 36z" />
    <glyph glyph-name="quoteright" unicode="&#x2019;" horiz-adv-x="372" 
d="M311 1113q-1 -65 -45 -128.5t-99 -89.5l-31 58q16 9 38 33t32 62q-66 28 -63 83q0 16 6.5 30.5t17.5 25.5t25.5 17.5t31.5 6.5q20 0 36 -8.5t27.5 -22t17.5 -31.5t6 -36z" />
    <glyph glyph-name="afii57451" unicode="&#x64b;" 
d="M168 161l-368 -171l23 99l368 170zM178 322l-368 -171l23 99l368 170z" />
    <glyph glyph-name="afii57454" unicode="&#x64e;" 
d="M181 172l-368 -171l23 99l368 170z" />
    <glyph glyph-name="afii57455" unicode="&#x64f;" 
d="M166 174q-30 -55 -57 -73l-68 24q-95 -123 -274 -123q-53 0 -68 33q25 2 61.5 11.5t86.5 29.5q51 20 86 38.5t55 35.5q-119 55 -119 125q0 54 66 114q69 60 125 60q78 0 78 -109q0 -45 -10.5 -80t-30.5 -61q41 -25 69 -25zM72 295q0 70 -45 70q-12 0 -24.5 -3.5
t-24.5 -11.5q-31 -15 -31 -38q0 -46 109 -93q16 24 16 76z" />
    <glyph glyph-name="afii57452" unicode="&#x64c;" 
d="M215 148l-66 12q-42 -69 -121 -107.5t-194 -48.5q14 32 21 66t7 71q0 60 -61 60q-20 0 -44 -8t-50 -25q9 129 133 129q76 0 76 -92q0 -38 -5 -66t-16 -45q29 -6 94 17q77 27 111 67q-119 40 -119 115q0 58 56 117q57 61 114 61q16 0 29.5 -9.5t23.5 -25t15.5 -35
t5.5 -40.5q0 -60 -25 -123q11 -5 26.5 -7.5t35.5 -2.5zM174 309q0 78 -51 78q-15 0 -28 -5t-23.5 -12.5t-16.5 -17t-6 -18.5q0 -41 108 -82q17 29 17 57z" />
    <glyph glyph-name="afii57456" unicode="&#x650;" 
d="M181 172l-368 -171l23 99l368 170z" />
    <glyph glyph-name="afii57457" unicode="&#x651;" 
d="M169 290q-2 -22 -5 -54t-11 -75q-29 -84 -105 -84q-29 0 -57 14q-50 -90 -109 -90q-73 0 -73 100q0 39 7.5 65t22.5 42q25 26 39 16q-8 -14 -12 -31t-4 -40q0 -43 33 -43q40 0 61 61l27 96l41 23q0 -105 53 -105q41 0 41 33q0 44 1.5 68.5t4.5 32.5q19 40 51 49z" />
    <glyph glyph-name="afii57458" unicode="&#x652;" 
d="M157 187q0 -38 -14.5 -70.5t-39.5 -57t-57.5 -38.5t-68.5 -14q-119 0 -119 121q0 48 13.5 88t39.5 72q43 69 103 69q28 0 54 -13t46 -35.5t31.5 -54t11.5 -67.5zM106 151q0 47 -39 79q-34 31 -74 31q-17 0 -32 -8t-27 -25q-21 -27 -21 -57q0 -67 86 -67q72 0 107 47z" />
    <glyph glyph-name="parenleft" unicode="(" horiz-adv-x="637" 
d="M502 932q-203 -289 -203 -524q0 -194 103 -382q16 -30 57 -90.5t109 -151.5q6 -8 6 -17q0 -23 -31 -23q-74 0 -163 88q-110 107 -178 233q-92 170 -92 338q0 192 110 371q101 164 318 281q9 6 16 6q19 0 19 -25q-10 -17 -71 -104z" />
    <glyph glyph-name="parenright" unicode=")" horiz-adv-x="631" 
d="M182 932q-61 87 -71 104q0 25 19 25q7 0 16 -6q217 -117 318 -281q110 -179 110 -371q0 -168 -92 -338q-68 -126 -178 -233q-89 -88 -163 -88q-31 0 -31 23q0 9 6 17q68 91 109 151.5t57 90.5q103 188 103 382q0 235 -203 524z" />
    <glyph glyph-name="exclam" unicode="!" horiz-adv-x="399" 
d="M317 974q0 -70 -23 -216q-27 -169 -32 -251l-15 -230h-62q-2 25 -17 228q-6 83 -34 256q-24 150 -24 215q0 241 103 241q104 0 104 -243zM319 102q0 -43 -29.5 -72t-72.5 -29t-71.5 29t-28.5 72q0 42 29 71t71 29q41 0 71.5 -29.5t30.5 -70.5z" />
    <glyph glyph-name="afii64060" unicode="&#xfd3e;" horiz-adv-x="576" 
d="M502 932q-203 -289 -203 -524q0 -194 103 -382q16 -30 57 -90.5t109 -151.5q6 -8 6 -17q0 -23 -31 -23q-74 0 -163 88q-110 107 -178 233q-92 170 -92 338q0 192 110 371q101 164 318 281q9 6 16 6q19 0 19 -25q-10 -17 -71 -104z" />
    <glyph glyph-name="afii64061" unicode="&#xfd3f;" horiz-adv-x="576" 
d="M182 932q-61 87 -71 104q0 25 19 25q7 0 16 -6q217 -117 318 -281q110 -179 110 -371q0 -168 -92 -338q-68 -126 -178 -233q-89 -88 -163 -88q-31 0 -31 23q0 9 6 17q68 91 109 151.5t57 90.5q103 188 103 382q0 235 -203 524z" />
    <glyph glyph-name="uni25CC" unicode="&#x25cc;" horiz-adv-x="911" 
d="M771 629q0 -37 -37 -37q-39 0 -39 37t39 37q37 0 37 -37zM658 703q0 -37 -37 -37q-39 0 -39 37q0 39 39 39q37 0 37 -39zM847 516q0 -39 -39 -39q-37 0 -37 39q0 37 39 37q37 0 37 -37zM873 384q0 -37 -37 -37q-39 0 -39 37t39 37q37 0 37 -37zM525 731q0 -39 -37 -39
t-37 39q0 37 37 37t37 -37zM847 251q0 -37 -39 -37q-37 0 -37 37q0 39 37 39q39 0 39 -39zM394 703q0 -37 -38 -37q-37 0 -37 37q0 39 37 39q38 0 38 -39zM282 629q0 -37 -39 -37q-37 0 -37 35q0 39 37 39q39 0 39 -37zM771 138q0 -37 -37 -37t-37 37q0 39 37 39t37 -39z
M658 64q0 -37 -37 -37t-37 37q0 39 37 39t37 -39zM206 516q0 -39 -35 -39q-39 0 -39 39q0 37 37 37t37 -37zM180 384q0 -37 -37 -37q-39 0 -39 37t39 37q37 0 37 -37zM525 38q0 -39 -37 -39t-37 39q0 37 37 37t37 -37zM394 66q0 -39 -38 -39q-37 0 -37 37q0 39 37 39
q38 0 38 -37zM206 251q0 -37 -37 -37t-37 37q0 39 37 39t37 -39zM282 138q0 -37 -37 -37q-39 0 -39 37q0 39 37 39q39 0 39 -39z" />
    <glyph glyph-name="braceright" unicode="}" horiz-adv-x="672" 
d="M273 224q0 53 9 90t32 62.5t62 41.5t98 29q-60 13 -99 29t-61.5 41t-31.5 61.5t-9 90.5v291q0 48 -9 83t-30.5 60t-56.5 40.5t-85 26.5v21q58 -1 100.5 -3.5t74.5 -8.5t55.5 -15.5t44.5 -22.5q86 -53 86 -190v-306q0 -45 7.5 -76.5t28.5 -54t56 -38t90 -29.5
q-55 -14 -90 -29t-56 -37.5t-28.5 -54.5t-7.5 -77v-306q0 -139 -86 -192q-21 -14 -45 -23t-56 -14.5t-74.5 -8.5t-99.5 -3v20q51 10 86 26.5t56 41.5t30 59.5t9 83.5v291z" />
    <glyph glyph-name="afii59729" unicode="&#xe30;" 
 />
    <glyph glyph-name="afii59728" unicode="&#xe31;" 
 />
    <glyph glyph-name="uni0400" unicode="&#x450;" horiz-adv-x="1149" 
 />
    <glyph glyph-name="uni06B9" unicode="&#x6b9;" 
 />
    <glyph glyph-name="uniF054" unicode="&#xf054;" horiz-adv-x="2587" 
 />
    <glyph glyph-name="uni0656" unicode="&#x656;" 
d="M20 60l-51 -77q-6 0 -10 21q-15 87 -47 317l87 60q7 4 12 4q6 0 7 -7q0 -95 2 -318z" />
    <glyph glyph-name="Ocircumflex" unicode="&#xf0d4;" horiz-adv-x="571" 
 />
    <glyph glyph-name="E000" horiz-adv-x="1958" 
 />
    <glyph glyph-name="E001" horiz-adv-x="1365" 
 />
    <glyph glyph-name="E002" horiz-adv-x="975" 
 />
    <glyph glyph-name="E003" 
 />
    <glyph glyph-name="E004" 
 />
    <glyph glyph-name="E005" horiz-adv-x="476" 
d="M-43 0v207h624v-207h-624z" />
    <glyph glyph-name="uni06D6" unicode="&#x6d6;" 
 />
    <glyph glyph-name="uni06D7" unicode="&#x6d7;" 
 />
    <glyph glyph-name="uni06D8" unicode="&#x6d8;" 
 />
    <glyph glyph-name="uni06D9" unicode="&#x6d9;" 
 />
    <glyph glyph-name="uni06DA" unicode="&#x6da;" 
 />
    <glyph glyph-name="uni06DB" unicode="&#x6db;" 
 />
    <glyph glyph-name="uni06DC" unicode="&#x6dc;" 
 />
    <glyph glyph-name="uni06E8" unicode="&#x6e8;" 
 />
    <glyph glyph-name="uni06EC" unicode="&#x6ed;" 
 />
    <glyph glyph-name="afii57470" unicode="&#x6be;" horiz-adv-x="893" 
d="M678 41q-41 0 -152 51q-63 29 -92 42q-8 -16 -128 -62q-187 -72 -246 -72h-130v257h125q86 0 110 21q-50 42 -50 117q0 79 58 151q52 65 130 100q-41 34 -90 51l97 204q258 -135 381 -233q200 -159 200 -315q0 -116 -76 -218q-70 -94 -137 -94zM777 298q0 45 -77 105
q-10 8 -97 70q4 -22 4 -40q0 -79 -68 -141q93 -62 180 -62q58 0 58 68zM504 461q0 33 -27 70q-30 39 -61 39q-39 0 -93 -39q-57 -40 -57 -77q0 -36 56 -72q49 -32 78 -32q26 0 61 28q43 35 43 83z" />
    <glyph glyph-name="uni06E0" unicode="&#x6e0;" 
 />
    <glyph glyph-name="uni06E1" unicode="&#x6e1;" 
 />
    <glyph glyph-name="uni06E2" unicode="&#x6e2;" 
 />
    <glyph glyph-name="uni06E3" unicode="&#x6e3;" 
 />
    <glyph glyph-name="uni06E4" unicode="&#x6e4;" 
 />
    <glyph glyph-name="uni06E5" unicode="&#x6e5;" 
 />
    <glyph glyph-name="uni06E6" unicode="&#x6e6;" 
 />
    <glyph glyph-name="uni06E7" unicode="&#x6e7;" 
 />
    <glyph glyph-name="at" unicode="@" horiz-adv-x="1587" 
d="M1034 863h120l-112 -444q-1 -5 -2 -13.5t-1 -16.5q0 -81 64 -81q43 0 82.5 29t70 77.5t48.5 111.5t18 131q0 92 -39.5 174.5t-107 145t-157 99t-189.5 36.5q-106 0 -195.5 -41.5t-154.5 -115.5t-101.5 -176.5t-36.5 -223.5q0 -112 37.5 -205t105.5 -160.5t162 -105.5
t206 -38q42 0 81 4.5t79 14t83.5 26t95.5 39.5l22 -60q-62 -30 -111.5 -49.5t-94.5 -31.5t-87 -16.5t-90 -4.5q-136 0 -253.5 46t-205 126t-137.5 189t-50 234q0 129 50 241t137.5 195.5t204.5 131.5t251 48q122 0 227 -39.5t182.5 -109t121.5 -163t44 -202.5
q0 -85 -26 -161.5t-70 -134t-102.5 -91.5t-123.5 -34t-108.5 35t-52.5 92q-45 -58 -102 -91.5t-112 -33.5q-35 0 -64 14.5t-51 41t-34 62.5t-12 77q0 48 9.5 96t28.5 94t45.5 88t59.5 78q41 42 94 65.5t110 23.5q23 0 40.5 -4t31 -14.5t26.5 -28t26 -44.5zM913 804
q-33 3 -72.5 -21t-76.5 -67q-44 -49 -66.5 -111.5t-22.5 -132.5q0 -67 27 -107t74 -40q38 0 75 30.5t65 85.5q14 26 26 58t21 65.5t14.5 66t7.5 61.5q2 50 -16 80t-56 32z" />
    <glyph glyph-name="A" unicode="A" horiz-adv-x="1232" 
d="M1175 0h-552v42q18 3 33 4t21 1q45 3 63.5 16.5t18.5 40.5q0 14 -4 33.5t-13.5 47t-24.5 64.5t-37 87h-383l-26 -67q-13 -34 -22.5 -60t-15.5 -44.5t-9 -30.5t-3 -21q0 -34 32 -50t109 -21v-42h-347v42q30 6 51 16t38.5 31t35.5 57t42 96l380 935h47l381 -897
q31 -75 53.5 -122t42 -72.5t39 -34.5t44.5 -9h6v-42zM655 403l-172 414l-161 -414h333z" />
    <glyph glyph-name="B" unicode="B" horiz-adv-x="1138" 
d="M555 1152q213 0 328 -70t115 -202q0 -49 -15 -86.5t-47 -68.5t-83.5 -55.5t-126.5 -46.5q45 -10 79.5 -20t62 -22t50.5 -27t45 -34q46 -40 69.5 -91t23.5 -109q0 -72 -34 -131t-97.5 -101t-152 -65t-196.5 -23h-549v42q47 6 76 13.5t46 20.5t22.5 34t5.5 54v826
q0 32 -6.5 54t-24 36t-46 20.5t-73.5 9.5v42h528zM451 158q0 -56 23.5 -79.5t80.5 -23.5q207 0 207 251q0 279 -260 279h-51v-427zM451 636q78 2 129.5 13.5t81.5 37.5t42 70t12 111q0 122 -41.5 178t-132.5 56q-50 0 -70.5 -18.5t-20.5 -64.5v-383z" />
    <glyph glyph-name="C" unicode="C" horiz-adv-x="1232" 
d="M1172 217q-28 -33 -50.5 -56t-42.5 -41t-38 -32.5t-38 -27.5q-71 -47 -147.5 -69.5t-168.5 -22.5q-132 0 -243 44.5t-191.5 124t-125 189.5t-44.5 242q0 131 45 242.5t124.5 193.5t188.5 128.5t236 46.5q62 0 125 -14t139 -46q29 -13 48 -18t31 -5q25 0 41 16t35 62h45
v-400h-42q-23 48 -42.5 84.5t-39 66t-41.5 53.5t-50 49q-56 49 -111 72.5t-115 23.5q-155 0 -234.5 -137.5t-79.5 -404.5q0 -128 17.5 -221.5t55.5 -161.5q18 -33 46.5 -60.5t64 -47t76 -30.5t82.5 -11q36 0 76.5 8t77.5 23q31 12 58 27t54.5 35.5t58 48.5t68.5 68z" />
    <glyph glyph-name="D" unicode="D" horiz-adv-x="1232" 
d="M166 997q0 29 -7 48.5t-23 33t-43 20.5t-69 11v42h520q148 0 265 -38.5t199 -111.5t125.5 -177.5t43.5 -235.5q0 -132 -44 -241t-125 -186t-193.5 -119.5t-251.5 -42.5h-539v42q74 3 108 30t34 83v842zM441 158q0 -29 5 -48t16 -30t30.5 -15.5t48.5 -4.5q165 0 250 117
q20 29 37 70t28.5 91t17.5 107.5t6 117.5q0 108 -17.5 199t-52.5 159q-44 89 -109.5 132t-158.5 43q-101 0 -101 -60v-878z" />
    <glyph glyph-name="E" unicode="E" horiz-adv-x="1138" 
d="M1011 810h-42q-16 86 -42 140.5t-72 87t-116.5 45.5t-174.5 13q-33 0 -54.5 -3.5t-33.5 -12.5t-17 -24.5t-5 -40.5v-396q68 -1 116.5 11.5t81 42.5t50.5 79t28 122h44v-577h-44q-8 74 -26 124.5t-50.5 81.5t-81.5 45t-118 14v-414q0 -27 6.5 -45.5t23 -29.5t44 -15.5
t68.5 -4.5q97 0 169.5 21.5t131.5 68.5q23 19 41.5 38t36 43.5t34.5 56t37 74.5h48l-69 -355h-998v42q47 6 76.5 13t46 20t22 34t5.5 55v826q0 32 -6.5 54t-24 36t-46 20.5t-73.5 9.5v42h984v-342z" />
    <glyph glyph-name="F" unicode="F" horiz-adv-x="1042" 
d="M995 810h-41q-9 41 -17.5 70.5t-18 52t-20 40t-24.5 33.5q-41 46 -117 68t-194 22q-33 0 -54 -4t-33 -13t-17 -24.5t-5 -39.5v-396q63 0 108 12.5t74.5 42t48 78.5t29.5 122h44v-577h-44q-8 74 -25.5 124t-47.5 81t-76 44.5t-111 15.5v-398q0 -36 7 -58.5t28 -35.5
t57 -19t95 -9v-42h-614v42q47 6 76.5 13t46 20t22 34t5.5 55v826q0 33 -6.5 55t-24 36t-46 20t-73.5 9v42h968v-342z" />
    <glyph glyph-name="G" unicode="G" horiz-adv-x="1327" 
d="M1288 447q-48 -5 -77 -13t-44.5 -24.5t-20.5 -45t-5 -74.5v-217q-41 -24 -94.5 -43.5t-115.5 -33.5t-128.5 -21t-132.5 -7q-134 0 -245.5 44t-191.5 123t-124.5 188.5t-44.5 240.5q0 133 45 245t124.5 194.5t187.5 129t236 46.5q61 0 124.5 -14t139.5 -46
q29 -13 48.5 -18t30.5 -5q24 0 40.5 16t33.5 62h47v-400h-43q-23 48 -42 85t-38.5 66.5t-42 53.5t-49.5 48q-57 49 -112.5 72.5t-114.5 23.5q-156 0 -235 -138.5t-79 -408.5q0 -306 110 -446q43 -56 99 -81t137 -25q87 0 125.5 29.5t38.5 94.5v179q0 35 -6.5 57t-25 34.5
t-52 19t-88.5 9.5v43h585v-43z" />
    <glyph glyph-name="H" unicode="H" horiz-adv-x="1327" 
d="M458 557v-393q0 -32 6 -52.5t23.5 -34t46.5 -21.5t77 -14v-42h-575v42q44 6 72.5 14t44.5 21.5t21.5 34t5.5 52.5v826q0 31 -6 52.5t-23 35.5t-45 21t-70 11v42h575v-42q-46 -3 -75 -10t-47 -21.5t-24.5 -36t-6.5 -52.5v-354h410v354q0 31 -7 52.5t-25 36t-47.5 21.5
t-74.5 10v42h581v-42q-44 -3 -72.5 -10t-46 -21.5t-24.5 -36t-7 -52.5v-826q0 -32 6 -52.5t23 -34t46 -21.5t75 -14v-42h-581v42q47 6 77 14t47.5 21.5t23.5 34t6 52.5v393h-410z" />
    <glyph glyph-name="I" unicode="I" horiz-adv-x="663" 
d="M192 990q0 32 -7.5 53.5t-25.5 36t-48.5 21t-76.5 9.5v42h597v-42q-47 -2 -78.5 -8t-50 -20.5t-26 -36.5t-7.5 -55v-826q0 -34 7 -56t25.5 -35.5t49.5 -20.5t80 -10v-42h-597v42q48 5 79 12.5t48.5 21t24 34.5t6.5 54v826z" />
    <glyph glyph-name="J" unicode="J" horiz-adv-x="853" 
d="M665 210q0 -185 -92.5 -279.5t-272.5 -94.5q-51 0 -99 11t-81 28q-26 14 -46.5 35.5t-36 46t-24 51.5t-8.5 54q0 24 9.5 46t26.5 39t38.5 27t44.5 10q25 0 48 -10t39.5 -28t27 -41t10.5 -48q0 -20 -5 -33t-21 -33q-11 -16 -15.5 -24.5t-4.5 -19.5q0 -24 21.5 -39.5
t55.5 -15.5q58 0 83.5 35t25.5 114v949q0 34 -7.5 56.5t-27 36t-52.5 19.5t-85 8v42h600v-42q-48 -3 -77.5 -10.5t-46 -25t-22.5 -46t-6 -74.5v-744z" />
    <glyph glyph-name="K" unicode="K" horiz-adv-x="1327" 
d="M1312 0h-573v42q18 2 33 2h21q43 2 62 10t19 24q0 14 -8.5 29t-33.5 46l-310 388l-47 -43v-334q0 -32 6.5 -52.5t23 -34t46 -21.5t75.5 -14v-42h-575v42q46 6 75.5 13.5t45.5 20.5t22 34t6 54v826q0 33 -6.5 55t-23.5 36t-46 20t-73 9v42h577v-42q-47 -3 -77 -10.5
t-47 -25.5t-23 -46.5t-6 -73.5v-365l372 371q19 20 31 33t19 23.5t8.5 19t1.5 18.5q0 26 -18 37.5t-65 13.5q-7 2 -23.5 2.5t-38.5 2.5v42h493v-42q-41 -4 -75 -10.5t-68 -22t-71.5 -42t-85 -68t-107.5 -101.5t-140 -143l521 -645q17 -19 34 -26.5t49 -9.5v-42z" />
    <glyph glyph-name="L" unicode="L" horiz-adv-x="1138" 
d="M1019 0h-987v42q47 6 75.5 13.5t45 20.5t21.5 34t5 54v826q0 32 -6.5 54t-23.5 36t-45.5 20.5t-71.5 9.5v42h596v-42q-56 -3 -89.5 -9.5t-52.5 -23.5t-24.5 -46t-5.5 -77v-806q0 -27 6.5 -45.5t22.5 -29.5t42 -15.5t65 -4.5q99 0 171.5 23t125.5 71q22 21 40.5 42.5
t36 48.5t35 63t38.5 86h50z" />
    <glyph glyph-name="M" unicode="M" horiz-adv-x="1610" 
d="M726 0h-46l-429 1013v-801q0 -47 7.5 -78t26.5 -50t52 -28.5t86 -13.5v-42h-399v42q50 6 80.5 13.5t47.5 22t22 39t5 62.5v811q0 33 -6 54.5t-23 35t-46.5 20t-76.5 10.5v42h432l342 -804l340 804h430v-42q-47 -3 -76 -10.5t-45.5 -25t-22.5 -46t-6 -74.5v-754
q0 -46 5 -73.5t20 -44t45 -25t80 -15.5v-42h-567v42q49 5 78.5 12t46.5 21t22.5 36.5t5.5 59.5v868z" />
    <glyph glyph-name="N" unicode="N" horiz-adv-x="1232" 
d="M988 421v520q0 46 -7 76.5t-25 49.5t-49 28.5t-78 14.5v42h368v-42q-42 -6 -68 -14.5t-40.5 -23.5t-20 -38.5t-5.5 -59.5v-1004h-48l-762 927v-685q0 -45 7 -75t25 -49t49.5 -29.5t80.5 -16.5v-42h-388v42q47 6 76 14.5t46 23.5t22.5 38.5t5.5 60.5v809q-30 36 -51.5 60
t-38 38t-29.5 19t-26 5v42h360z" />
    <glyph glyph-name="O" unicode="O" horiz-adv-x="1327" 
d="M670 1179q129 0 238.5 -45.5t189.5 -126.5t125 -192t45 -242q0 -132 -44.5 -243t-125 -191.5t-191.5 -125.5t-244 -45q-132 0 -242.5 44.5t-191 125t-125 191t-44.5 242.5q0 134 45 245t126.5 192t193 126t245.5 45zM669 1123q-150 0 -228.5 -145.5t-78.5 -420.5
q0 -259 77 -396t224 -137q148 0 225 137t77 401q0 133 -20 237.5t-57.5 176.5t-92.5 109.5t-126 37.5z" />
    <glyph glyph-name="P" unicode="P" horiz-adv-x="1042" 
d="M447 200q0 -47 4.5 -75t20 -44t45.5 -24t80 -15v-42h-570v42q14 3 26 5t16 2q29 4 48.5 13.5t31.5 26.5t17 44t5 67v754q0 45 -5.5 73t-21.5 46t-43.5 25.5t-73.5 11.5v42h549q107 0 190.5 -20.5t140.5 -60t87 -97t30 -131.5q0 -99 -55 -173.5t-159 -114.5
q-28 -12 -55.5 -19t-67 -11t-97 -5.5t-143.5 -2.5v-317zM447 576q45 0 79.5 2.5t60 8.5t44.5 15t34 21q34 30 49.5 80t15.5 131q0 70 -10.5 119t-34.5 80t-62 46t-91 15q-85 0 -85 -60v-458z" />
    <glyph glyph-name="Q" unicode="Q" horiz-adv-x="1327" 
d="M1255 -241q-48 -17 -86.5 -28t-74.5 -18t-70 -10t-73 -3q-113 0 -215.5 39t-173.5 111q-15 15 -27 29t-22.5 30.5t-22 38t-25.5 49.5q-49 18 -84.5 34t-64.5 34t-53.5 40t-50.5 52q-75 82 -113.5 186.5t-38.5 220.5q0 134 45.5 246.5t126 194.5t191 128t240.5 46
q133 0 243.5 -45.5t191 -126.5t125.5 -192.5t45 -245.5q0 -125 -41 -232t-120 -190q-27 -29 -53.5 -51.5t-57.5 -40t-69.5 -33t-90.5 -32.5q12 -23 21 -41t18.5 -31.5t19.5 -25.5t21 -23q44 -44 99.5 -66.5t115.5 -22.5q24 0 48.5 4.5t66.5 15.5zM665 1123
q-73 0 -129.5 -36.5t-95 -108t-58.5 -175.5t-20 -239q0 -267 76 -403.5t225 -136.5q148 0 225 137t77 402q0 134 -20 238t-58 175.5t-94 109t-128 37.5z" />
    <glyph glyph-name="R" unicode="R" horiz-adv-x="1232" 
d="M1219 0h-350l-352 534h-47v-334q0 -46 5 -73.5t21 -44t45 -25t79 -15.5v-42h-576v42q50 6 80 14t45 24t20 44.5t5 75.5v754q0 46 -6 74.5t-22 46t-45.5 25t-76.5 10.5v42h550q235 0 357.5 -77t122.5 -225q0 -58 -19.5 -107.5t-56.5 -83.5q-18 -17 -35.5 -29.5
t-39.5 -23.5t-50 -22t-65 -22l342 -488q26 -32 69 -32v-42zM470 589q49 1 85.5 3.5t63.5 8t47 12.5t37 18q41 28 60.5 78.5t19.5 133.5q0 134 -51.5 193.5t-168.5 59.5q-65 0 -80 -27q-5 -8 -9 -22.5t-4 -22.5v-435z" />
    <glyph glyph-name="S" unicode="S" horiz-adv-x="949" 
d="M778 810q-13 42 -25 73t-26 56t-30.5 46.5t-37.5 44.5q-94 96 -210 96q-88 0 -138 -45.5t-50 -125.5q0 -30 7.5 -54.5t28 -46.5t54 -44t85.5 -48l251 -124q41 -21 75.5 -53.5t59.5 -74t39 -88.5t14 -95q0 -80 -30.5 -146t-86 -113.5t-133.5 -73.5t-172 -26q-55 0 -107 9
t-116 31q-28 10 -43.5 13.5t-25.5 3.5q-21 0 -32.5 -13t-19.5 -44h-49v421h49q11 -45 21.5 -79t22 -62t25 -51.5t30.5 -46.5q99 -126 250 -126q49 0 88.5 14t67.5 39.5t43 61t15 80.5q0 33 -8.5 59t-30 49.5t-59 46.5t-93.5 49l-114 54q-77 37 -132 75.5t-90.5 82t-53 92.5
t-17.5 105q0 80 26 144.5t74.5 109.5t118 69t156.5 24q24 0 47 -2t46.5 -6.5t49.5 -12t56 -17.5q28 -10 44.5 -14t26.5 -4q23 0 34.5 12t20.5 45h51v-370h-47z" />
    <glyph glyph-name="T" unicode="T" horiz-adv-x="1138" 
d="M431 1099q-79 -3 -136.5 -20t-96 -51t-61.5 -87.5t-34 -130.5h-50l5 342h1023l5 -342h-50q-11 77 -34 130.5t-62 87.5t-96 51t-136 20v-899q0 -49 5 -78.5t22.5 -45.5t50.5 -23t89 -11v-42h-609v42q55 5 88 12.5t50 24t22 45.5t5 76v899z" />
    <glyph glyph-name="U" unicode="U" horiz-adv-x="1232" 
d="M1063 421q0 -119 -31.5 -211t-90.5 -141q-55 -48 -139 -74.5t-179 -26.5t-174.5 22.5t-140.5 67.5q-39 28 -66 59t-43.5 69t-23.5 86.5t-7 111.5v570q0 46 -5 74t-20.5 45.5t-42.5 24.5t-73 12v42h577v-42q-31 -1 -52 -3t-35.5 -5t-24.5 -7.5t-18 -11.5
q-19 -18 -27.5 -48t-8.5 -81v-570q0 -174 60 -253.5t191 -79.5q152 0 225.5 90.5t73.5 279.5v520q0 47 -7.5 78t-26.5 50t-51.5 28t-82.5 13v42h377v-42q-42 -6 -68 -15t-40.5 -25.5t-20 -41t-5.5 -63.5v-544z" />
    <glyph glyph-name="V" unicode="V" horiz-adv-x="1232" 
d="M1197 1110q-34 -5 -56.5 -12t-39.5 -22.5t-30.5 -41t-28.5 -64.5l-389 -1000h-45l-437 1021q-16 35 -28.5 56.5t-27.5 34.5t-35 18t-53 10v42h574v-42q-20 -2 -35 -2.5t-22 -0.5q-49 -3 -69.5 -17t-20.5 -44q0 -10 1.5 -19.5t5.5 -23t12 -32.5t20 -48l235 -570l218 561
q10 28 17 46.5t10.5 31.5t5 23t1.5 21q0 20 -6 33.5t-22.5 21.5t-45.5 12t-74 7v42h365v-42z" />
    <glyph glyph-name="W" unicode="W" horiz-adv-x="1706" 
d="M1674 1110q-85 -8 -118 -108l-342 -1027h-45l-292 813l-317 -813h-48l-362 1027q-11 31 -20.5 50.5t-22.5 31.5t-30.5 17t-44.5 9v42h502v-42q-33 -3 -54 -7t-33.5 -12t-17.5 -21t-5 -31q0 -11 3 -23.5t9 -32.5l205 -621l202 525l-60 165q-14 30 -42 43t-80 15v42h532
v-42q-8 -2 -14 -2h-9q-56 -4 -78.5 -17t-22.5 -44q0 -11 5.5 -32t19.5 -62l184 -574l191 584q7 19 9.5 37.5t2.5 35.5q0 19 -5.5 33t-18.5 22.5t-36.5 12.5t-57.5 6v42h311v-42z" />
    <glyph glyph-name="X" unicode="X" horiz-adv-x="1232" 
d="M1174 1110q-48 -5 -83 -15t-69 -36.5t-74 -73.5t-95 -124l-137 -189l311 -483q30 -46 52 -74.5t40 -44t35 -21.5t39 -7v-42h-581v42q17 2 30 3t19 1q88 4 88 48q0 14 -10 40.5t-26 51.5l-172 277l-66 -88q-47 -63 -77.5 -107.5t-49 -73.5t-25.5 -48.5t-7 -32.5
q0 -17 6.5 -28.5t23 -19.5t43 -13.5t65.5 -9.5v-42h-427v42q33 4 57 10.5t44.5 17.5t38.5 28t38 40l298 376l-337 497q-20 30 -35 48t-30 29t-31.5 15.5t-40.5 6.5v42h590v-42q-17 -2 -32 -2.5t-21 -0.5q-47 -3 -64 -14t-17 -39q0 -7 1 -13t3.5 -13t7.5 -15.5t13 -21.5
l165 -255q33 44 59 81t37 49q31 41 50 69t29.5 48.5t14.5 35t4 28.5q0 31 -18.5 44t-69.5 16q-4 1 -13 1t-21 2v42h427v-42z" />
    <glyph glyph-name="Y" unicode="Y" horiz-adv-x="1232" 
d="M1193 1110q-44 -6 -70.5 -21.5t-46.5 -44.5l-325 -530v-314q0 -47 4.5 -76t21 -45t48 -23.5t82.5 -13.5v-42h-591v42q52 6 83.5 13.5t48.5 24t21.5 45t4.5 75.5v251l-311 566q-26 43 -59.5 67t-78.5 26v42h572v-42l-42 -2q-53 0 -74.5 -11t-21.5 -40q0 -13 6 -30.5
t25 -48.5q2 -5 4 -9l3.5 -7l2.5 -5l205 -395l189 315q31 53 48.5 95t17.5 67q0 18 -6 30.5t-22.5 21t-44.5 12.5t-70 7v42h376v-42z" />
    <glyph glyph-name="Z" unicode="Z" horiz-adv-x="1138" 
d="M1037 0h-990v27l653 1067q-48 -2 -87.5 -2.5t-54.5 -2.5q-94 1 -158.5 -10.5t-110 -43t-78.5 -88t-63 -144.5h-47l35 349h894v-26l-646 -1066h126q61 0 117 4.5t103 13t83.5 21t58.5 27.5q31 21 54 46t42 58t35 77t34 105h44z" />
    <glyph glyph-name="a" unicode="a" horiz-adv-x="853" 
d="M832 73q-48 -52 -92 -75t-99 -23q-63 0 -94.5 27t-44.5 94q-71 -65 -134 -93t-136 -28q-41 0 -75.5 14t-60 38t-40 57.5t-14.5 72.5q0 56 27 100t83 83q23 16 52 30.5t70 30.5t96 35t132 41v126q0 78 -34.5 114t-109.5 36q-45 0 -76 -19t-31 -45q0 -8 4.5 -16t15.5 -21
q15 -21 23 -38t8 -36q0 -44 -32.5 -71.5t-83.5 -27.5q-53 0 -82.5 30t-29.5 83q0 48 24 87.5t66 68t101 44.5t132 16q78 0 141 -17t107 -47.5t67.5 -73.5t23.5 -97v-445q0 -43 35 -43q13 0 19 7l18 17zM500 418q-103 -27 -156 -79.5t-53 -126.5q0 -52 24.5 -83.5t63.5 -31.5
q31 0 58.5 16.5t62.5 57.5v247z" />
    <glyph glyph-name="b" unicode="b" horiz-adv-x="949" 
d="M360 711q48 50 97.5 73.5t110.5 23.5q71 0 130.5 -29.5t101.5 -82.5t65.5 -126.5t23.5 -161.5q0 -96 -28.5 -175.5t-79.5 -136.5t-122 -89t-156 -32q-32 0 -59.5 5.5t-54.5 17.5t-54 30.5t-57 44.5l-135 -96h-21v1036q0 26 -3 42t-13.5 27t-28.5 17.5t-48 12.5v40h331
v-441zM360 166q0 -62 31.5 -99t85.5 -37q84 0 122.5 84.5t38.5 262.5q0 337 -159 337q-42 0 -70 -23t-49 -78v-447z" />
    <glyph glyph-name="c" unicode="c" horiz-adv-x="758" 
d="M734 155q-37 -47 -74.5 -81t-77 -56t-82.5 -32.5t-92 -10.5q-80 0 -146.5 30.5t-115.5 84t-76.5 128t-27.5 162.5q0 92 30.5 170.5t84.5 135.5t128 89.5t161 32.5q56 0 104.5 -15t83.5 -40.5t55.5 -59.5t20.5 -74q0 -50 -31 -78.5t-85 -28.5q-93 0 -96 123v41t-1 23.5
t-2.5 12t-4.5 9.5q-8 15 -25.5 24t-38.5 9q-33 0 -59.5 -20t-45 -56t-28.5 -89t-10 -119q0 -87 17.5 -157t48.5 -119t75.5 -76t100.5 -27q27 0 49 4.5t43 15.5t41.5 29.5t44.5 45.5z" />
    <glyph glyph-name="d" unicode="d" horiz-adv-x="949" 
d="M578 88q-30 -32 -56.5 -53.5t-53 -35t-55 -19t-61.5 -5.5q-68 0 -124.5 30t-98 84t-64.5 127.5t-23 160.5q0 92 25 171t68.5 137t103.5 90.5t130 32.5q30 0 55.5 -5.5t49.5 -18.5t48 -33t51 -49v311q0 30 -4.5 48t-18 28.5t-39 15t-68.5 7.5v40h367v-980q0 -26 4.5 -44
t16.5 -30t31.5 -17.5t48.5 -7.5v-39l-105 -13q-41 -5 -70 -9t-54 -9t-49.5 -11t-54.5 -15v111zM573 606q-18 49 -54 77t-79 28q-74 0 -109.5 -77t-35.5 -243q0 -164 33 -241.5t100 -77.5q56 0 108 58q16 17 26.5 35t10.5 26v415z" />
    <glyph glyph-name="e" unicode="e" horiz-adv-x="758" 
d="M726 189q-41 -60 -78.5 -100.5t-77 -65.5t-82 -36.5t-94.5 -11.5q-79 0 -144 29.5t-111.5 84t-71.5 131t-25 169.5t26 170t73 132.5t112.5 86t145.5 30.5q143 0 229 -101q21 -25 35.5 -53t26 -62.5t18 -77t10.5 -96.5h-430q3 -44 7 -77.5t10 -60.5t14.5 -48.5t20.5 -42.5
q27 -44 64 -67t87 -23q27 0 51.5 6.5t47.5 20t47 35t49 53.5zM508 481v26q-2 65 -5 103.5t-10 63.5q-21 80 -94 80q-32 0 -53.5 -14t-35.5 -46t-21 -84t-9 -129h228z" />
    <glyph glyph-name="f" unicode="f" horiz-adv-x="568" 
d="M24 711v75h97q0 55 2 96.5t8 74.5t16 58.5t24 47.5q34 56 98 86t150 30q54 0 99 -13t77.5 -35.5t50 -53.5t17.5 -70q0 -47 -29 -75.5t-76 -28.5q-44 0 -73 26.5t-29 67.5q0 23 21 60q16 25 16 37q0 14 -13.5 23t-36.5 9q-44 0 -64.5 -30.5t-20.5 -100.5v-209h149v-75
h-149v-536q0 -41 5 -67t20.5 -40.5t43 -20t71.5 -6.5v-41h-474v41q30 3 48.5 9t29.5 17.5t15 30t4 45.5v568h-97z" />
    <glyph glyph-name="g" unicode="g" horiz-adv-x="853" 
d="M684 679q36 -36 52.5 -76t16.5 -91q0 -138 -117 -204q-22 -13 -41.5 -22t-40.5 -13.5t-44.5 -7t-53.5 -2.5l-77 1q-52 0 -84 -25t-32 -64q0 -17 7 -29t26.5 -18t52.5 -9t84 -3h111q131 0 205.5 -55.5t74.5 -154.5q0 -127 -109.5 -192.5t-323.5 -65.5q-81 0 -145 11
t-108 31t-67.5 49.5t-23.5 66.5q0 52 41.5 84.5t123.5 42.5q-41 15 -68 28.5t-43.5 30t-22.5 36t-6 45.5q0 68 50.5 116.5t151.5 83.5q-30 13 -51.5 24t-38.5 22t-31 23.5t-29 26.5q-60 76 -60 163q0 61 25.5 112t71.5 87t109 56.5t140 20.5q25 0 47.5 -2t44.5 -7t46 -12.5
t53 -17.5h221v-90h-138zM258 -88q-18 -15 -29.5 -26.5t-18.5 -22.5t-9.5 -22t-2.5 -23q0 -57 58 -86t170 -29q129 0 196 32t67 91q0 86 -136 86h-295zM410 754q-31 0 -52 -12.5t-34.5 -39.5t-20 -69.5t-6.5 -102.5t6 -101.5t19.5 -68t34.5 -38t53 -11.5q30 0 51 11.5t35 38
t20 68t6 101.5q0 120 -26 172t-86 52z" />
    <glyph glyph-name="h" unicode="h" horiz-adv-x="949" 
d="M355 674q33 37 62 62.5t58 41.5t58.5 23t63.5 7q53 0 95 -17.5t72.5 -49t46.5 -76t16 -99.5v-423q0 -54 19 -76t65 -26v-41h-401v41q44 5 62.5 27t18.5 70v414q0 140 -89 140q-30 0 -59.5 -15t-58.5 -44q-14 -12 -21.5 -23t-7.5 -16v-456q0 -48 18 -69.5t65 -27.5v-41
h-411v41q29 6 46.5 12.5t27.5 17.5t13.5 28.5t3.5 43.5v870q0 27 -3 43t-13 27t-27.5 17t-47.5 12v40h328v-478z" />
    <glyph glyph-name="i" unicode="i" horiz-adv-x="474" 
d="M355 138q0 -49 17.5 -70t62.5 -27v-41h-408v41q30 7 47.5 14t27.5 18t13 27.5t3 42.5v502q0 26 -3.5 43t-13.5 27.5t-27.5 17.5t-46.5 13v40h328v-648zM236 1179q28 0 51.5 -10.5t41 -28.5t28 -42.5t10.5 -51.5q0 -29 -10.5 -53t-28 -41.5t-42 -27.5t-52.5 -10t-52 10
t-42 27.5t-27.5 42t-9.5 53.5q0 27 10 51t28.5 42t43 28.5t51.5 10.5z" />
    <glyph glyph-name="j" unicode="j" horiz-adv-x="568" 
d="M443 3q0 -76 -10.5 -127t-35.5 -93q-35 -62 -101 -96t-155 -34q-52 0 -96 13t-75.5 35.5t-49 53.5t-17.5 70q0 47 29 75t76 28q20 0 39 -7t32.5 -19.5t21.5 -29.5t8 -36q0 -12 -5 -27.5t-19 -34.5q-15 -26 -15 -38q0 -13 15 -21t39 -8q43 0 63 31t20 98v809
q0 27 -4.5 45.5t-17 30t-33.5 17t-53 8.5v40h344v-783zM316 1179q27 0 51.5 -10.5t42.5 -28.5t28.5 -42.5t10.5 -51.5q0 -28 -10.5 -52t-28.5 -41.5t-42.5 -28t-51.5 -10.5q-29 0 -53 10t-41.5 27.5t-27.5 42t-10 53.5q0 27 10.5 51t28 42t41.5 28.5t52 10.5z" />
    <glyph glyph-name="k" unicode="k" horiz-adv-x="949" 
d="M875 747q-40 -5 -71.5 -15.5t-65.5 -34t-78 -65t-107 -108.5l331 -457q11 -16 19.5 -21t22.5 -5v-41h-399v41q72 2 72 32q0 10 -9.5 28t-31.5 49l-162 229l-39 -41v-195q0 -29 2.5 -47.5t11.5 -29t27 -16t48 -9.5v-41h-409v41q43 4 63 28t20 74v870q0 49 -19.5 72
t-63.5 27v40h320v-734l217 218q15 14 26 34t11 32q0 32 -59 39q-5 1 -16.5 2.5t-25.5 3.5v39h365v-39z" />
    <glyph glyph-name="l" unicode="l" horiz-adv-x="474" 
d="M352 143q0 -101 83 -102v-41h-408v41q87 7 87 102v870q0 92 -87 99v40h325v-1009z" />
    <glyph glyph-name="m" unicode="m" horiz-adv-x="1421" 
d="M353 659q50 76 110 112.5t141 36.5q40 0 72.5 -8.5t58 -26t47 -46t40.5 -68.5q34 41 63.5 69.5t59 46t60.5 25.5t68 8q53 0 95 -17.5t72.5 -49t46.5 -76t16 -99.5v-428q0 -55 18 -75t68 -22v-41h-406v41q23 2 39.5 7.5t26 16t13.5 29t4 44.5v414q0 75 -20.5 107.5
t-70.5 32.5q-21 0 -44 -9.5t-51 -30.5q-9 -6 -17.5 -15t-16 -17t-12 -15.5t-4.5 -10.5v-456q0 -49 18 -70.5t63 -26.5v-41h-399v41q47 4 64.5 24.5t17.5 72.5v414q0 76 -21 108t-71 32q-23 0 -45.5 -9.5t-48.5 -29.5q-8 -6 -17 -15t-16.5 -17.5t-12 -15.5t-4.5 -11v-456
q0 -49 17 -70t61 -27v-41h-409v41q29 5 47 12t28.5 18t14.5 28.5t4 43.5v502q0 26 -4 44t-14.5 29t-28.5 17.5t-47 10.5v40h326v-127z" />
    <glyph glyph-name="n" unicode="n" horiz-adv-x="949" 
d="M362 659q47 75 106.5 112t137.5 37q53 0 95 -17.5t72.5 -49t46.5 -76t16 -99.5v-428q0 -26 3.5 -44.5t13 -29t25.5 -16t41 -7.5v-41h-400v41q44 5 62 27t18 70v414q0 140 -89 140q-61 0 -118 -59q-13 -12 -20.5 -23t-7.5 -16v-456q0 -48 18 -69.5t65 -27.5v-41h-411v41
q29 6 46.5 12.5t27.5 17.5t13 28.5t3 43.5v502q0 26 -3 44t-13.5 29t-28 17t-45.5 11v40h326v-127z" />
    <glyph glyph-name="o" unicode="o" horiz-adv-x="853" 
d="M428 808q83 0 153 -31.5t121.5 -87.5t80.5 -132.5t29 -165.5t-29 -165t-80.5 -132t-121.5 -87.5t-153 -31.5q-84 0 -154.5 31.5t-122 87.5t-80.5 133.5t-29 168.5q0 87 30 162t82 130.5t122.5 87.5t151.5 32zM430 754q-40 0 -66 -19t-42 -63.5t-22.5 -119.5t-6.5 -187
q0 -94 7 -158t23 -103.5t41.5 -57t63.5 -17.5q37 0 62.5 18t41.5 59t23 108t7 166q0 105 -6.5 176.5t-22.5 115t-41 63t-62 19.5z" />
    <glyph glyph-name="p" unicode="p" horiz-adv-x="949" 
d="M362 669q39 75 89 107t125 32q72 0 130 -29t100 -82t65 -126.5t23 -162.5q0 -95 -24.5 -174t-67.5 -136t-103.5 -89t-132.5 -32q-28 0 -51.5 5t-46.5 17t-48 31.5t-55 49.5v-241q0 -43 6 -71.5t21.5 -46t41 -25.5t64.5 -10v-36h-466v41q31 5 50 11.5t29.5 17t13.5 27.5
t3 43v855q0 26 -3.5 44t-14 29t-28.5 17t-46 11v40h326v-117zM365 175q19 -49 54 -76t78 -27q73 0 108.5 76t35.5 236q0 169 -31 247.5t-98 78.5q-58 0 -111 -58q-16 -17 -26 -34.5t-10 -26.5v-416z" />
    <glyph glyph-name="q" unicode="q" horiz-adv-x="949" 
d="M583 72q-52 -52 -100.5 -74.5t-108.5 -22.5q-70 0 -128 29.5t-100 82.5t-65 126t-23 161q0 95 28 175t78 137.5t119.5 89.5t152.5 32q32 0 59 -5t53 -17t53.5 -30.5t60.5 -45.5l133 96h25v-1016q0 -25 3.5 -42t14 -27.5t29 -17t47.5 -12.5v-41h-455v42q41 8 66 16.5
t37.5 23t16.5 38.5t4 64v238zM583 615q0 62 -31.5 100t-82.5 38q-81 0 -121 -88.5t-40 -261.5q0 -334 157 -334q45 0 75 25.5t43 73.5v447z" />
    <glyph glyph-name="r" unicode="r" horiz-adv-x="758" 
d="M371 647q61 85 114.5 123t117.5 38q29 0 54.5 -10.5t44 -28t29 -42t10.5 -53.5q0 -50 -30 -82t-78 -32q-33 0 -55 13t-48 47q-27 41 -47 41q-21 0 -40 -13t-33 -35t-22.5 -52t-8.5 -63v-323q0 -40 5 -65t18.5 -39.5t37.5 -21t63 -8.5v-41h-454v41q28 5 46 12t28 18
t14 28.5t4 43.5v502q0 25 -4 43t-14 29.5t-28.5 18t-45.5 10.5v40h322v-139z" />
    <glyph glyph-name="s" unicode="s" horiz-adv-x="663" 
d="M537 557q-10 27 -18 47.5t-17.5 37t-20.5 29.5t-23 26q-59 54 -129 54q-50 0 -81 -28.5t-31 -70.5q0 -43 38 -78t125 -72q63 -27 108 -55t73 -59.5t41 -69t13 -82.5q0 -58 -19 -106t-53.5 -82t-83 -53.5t-106.5 -19.5q-18 0 -42.5 3.5t-50.5 9t-50 12.5t-40 15
q-14 6 -24 8t-16 2q-12 0 -21.5 -10t-23.5 -38h-43v282h49q54 -225 233 -225q58 0 93.5 30.5t35.5 80.5q0 41 -39 75.5t-126 72.5q-65 27 -111 56t-75 61.5t-42.5 68.5t-13.5 79q0 54 20 100t55.5 79t84.5 52t108 19q28 0 59.5 -6t73.5 -21q41 -12 55 -12q15 0 23.5 7.5
t16.5 27.5h38v-247h-43z" />
    <glyph glyph-name="t" unicode="t" horiz-adv-x="568" 
d="M520 711h-160v-513q0 -51 15.5 -74t50.5 -23q28 0 50.5 19.5t47.5 68.5l42 -18q-26 -53 -52.5 -89.5t-57 -59t-65 -33t-77.5 -10.5q-89 0 -140.5 47.5t-51.5 131.5v553h-88v47q41 35 76 68t68.5 70t66.5 80t73 98h42v-288h160v-75z" />
    <glyph glyph-name="u" unicode="u" horiz-adv-x="949" 
d="M585 88q-37 -32 -68 -53.5t-59.5 -35t-57.5 -19t-62 -5.5q-106 0 -166.5 63.5t-60.5 176.5v430q0 26 -3.5 43.5t-12.5 28.5t-25 17.5t-43 11.5v40h321v-578q0 -66 21.5 -94t73.5 -28q18 0 34.5 4t32.5 13t34.5 23.5t38.5 36.5v482q0 27 -4.5 45.5t-16 30t-32 17
t-53.5 8.5v40h343v-614q0 -27 4.5 -45.5t15.5 -30t29.5 -17t46.5 -6.5v-39l-106 -11q-41 -5 -71 -9t-55 -9t-48.5 -11.5t-50.5 -16.5v111z" />
    <glyph glyph-name="v" unicode="v" horiz-adv-x="853" 
d="M827 746q-19 -2 -33 -6.5t-24.5 -15t-20 -28t-21.5 -44.5l-272 -677h-44l-205 506q-11 27 -29 67.5t-36 78.5t-31.5 65.5t-14.5 26.5q-8 13 -19.5 18t-40.5 9v40h427v-40q-11 -2 -20 -3t-12 -1q-31 -2 -45.5 -12t-14.5 -28q0 -8 3.5 -19t12.5 -35l135 -346l123 310
q18 49 18 77q0 30 -19.5 42t-74.5 15v40h258v-40z" />
    <glyph glyph-name="w" unicode="w" horiz-adv-x="1232" 
d="M1206 746q-16 -3 -28 -8t-21 -14.5t-17.5 -24.5t-18.5 -38l-264 -686h-40l-174 530l-213 -530h-41l-253 638q-16 43 -27.5 68t-21.5 38t-20.5 18.5t-27.5 8.5v40h379v-40q-37 -5 -51 -17t-14 -31q0 -17 15 -62t51 -134q7 -19 16 -42t21 -50l41 -110l115 292l-9 32
q-13 42 -21 65.5t-17.5 35t-24 15t-38.5 6.5v40h399v-40q-25 -2 -40.5 -5t-25 -7.5t-13 -12t-3.5 -16.5q0 -12 10 -52.5t35 -128.5q14 -48 22.5 -78t14 -52t10.5 -41t12 -45q8 21 15 39.5t13.5 36.5t14 38t17.5 45q39 101 56.5 152t17.5 67q0 28 -17 41.5t-65 18.5v40h231
v-40z" />
    <glyph glyph-name="x" unicode="x" horiz-adv-x="853" 
d="M825 0h-410v41q40 2 58 10.5t18 22.5q0 17 -13 42.5t-43 67.5q-8 12 -27.5 41t-43.5 66q-9 -11 -17 -20t-11 -13q-24 -30 -44.5 -57.5t-35 -51t-22.5 -41t-8 -27.5q0 -18 20 -28t67 -12v-41h-289v41q24 1 43 8.5t40.5 25t47 48t62.5 77.5q11 18 42 57t68 86l-218 336
q-13 19 -22.5 31t-18.5 19t-20 10.5t-27 6.5v40h426v-40q-42 -2 -61 -9.5t-19 -23.5q0 -8 7.5 -25.5t21.5 -40t31.5 -49t37.5 -52.5q4 -5 9.5 -12.5t13.5 -16.5q20 27 36.5 49t24.5 30q36 41 50 65t14 44q0 19 -11 27.5t-40 9.5q-4 0 -14 1t-21 3v40h286v-40
q-40 -7 -67.5 -22t-50.5 -45l-173 -215l252 -390q9 -13 20 -20t31 -13v-41z" />
    <glyph glyph-name="y" unicode="y" horiz-adv-x="853" 
d="M819 746q-19 -2 -33.5 -7t-25 -15.5t-20.5 -28t-21 -43.5l-254 -677q-22 -61 -40 -104.5t-33.5 -75t-29 -52.5t-26.5 -36q-27 -27 -63.5 -42t-80.5 -15q-36 0 -66 10.5t-52 28t-34.5 42.5t-12.5 54q0 49 31 79t78 30q44 0 72 -23t28 -60q0 -6 -1 -12t-3 -13q-2 -5 -2 -9
q0 -12 9 -21t20 -9q29 0 60 38t52 102l32 90l-205 504q-11 27 -29 67.5t-35.5 78.5t-31.5 65t-16 27q-8 13 -18.5 18t-40.5 9v40h427v-40l-28 -2q-31 -2 -46.5 -14t-15.5 -28q0 -6 0.5 -10t3 -14t9.5 -27.5t20 -49.5l123 -316l116 327q12 32 15.5 47.5t3.5 29.5
q0 30 -19.5 42t-73.5 15v40h257v-40z" />
    <glyph glyph-name="z" unicode="z" horiz-adv-x="758" 
d="M689 0h-653v42l399 690q-89 1 -145.5 -5.5t-91 -27t-54.5 -57.5t-35 -98h-44l11 242h634v-44l-394 -687h49q51 0 88.5 4.5t66 15.5t50.5 29.5t42 47.5q21 26 33 53t24 68h47z" />
    <glyph glyph-name="two" unicode="2" horiz-adv-x="853" 
d="M739 0h-710v39q63 67 110 118.5t84 92.5t65 74.5t51 63.5t43.5 59t41.5 63q41 63 64.5 129.5t23.5 122.5q0 31 -9.5 63.5t-25.5 60.5q-28 46 -69.5 70t-98.5 24q-70 0 -119.5 -37.5t-88.5 -117.5h-48q18 48 34 84.5t33 65.5t36.5 53.5t45.5 49.5q44 47 103 71.5t123 24.5
q69 0 127 -23t100 -64.5t65.5 -99t23.5 -126.5q0 -97 -47 -186.5t-148 -184.5l-276 -264h257q66 0 105 3.5t63.5 17.5t41 40.5t34.5 72.5h41z" />
    <glyph glyph-name="three" unicode="3" horiz-adv-x="853" 
d="M64 913q70 133 166 197t224 64q131 0 204.5 -61.5t73.5 -172.5q0 -37 -7 -66.5t-23 -54.5t-43 -48t-68 -48q25 -12 44 -22t34 -20.5t28 -22t26 -27.5q37 -45 56 -99t19 -113q0 -93 -40 -174t-108.5 -141t-161.5 -94.5t-200 -34.5q-59 0 -107 11.5t-82 31.5t-53 48.5
t-19 63.5q0 43 31 70.5t80 27.5q38 0 79 -21.5t91 -71.5q42 -41 70 -57t58 -16q78 0 123 54.5t45 146.5q0 61 -21.5 115.5t-62.5 91.5q-23 22 -46.5 39.5t-53 33t-68 31t-91.5 34.5v28q60 19 103 40.5t69.5 48t38 59.5t11.5 75q0 82 -46.5 129.5t-127.5 47.5q-34 0 -61.5 -8
t-52.5 -25t-48.5 -44.5t-47.5 -66.5z" />
    <glyph glyph-name="four" unicode="4" horiz-adv-x="853" 
d="M810 435v-189h-107v-246h-247v246h-424v192q39 61 81 123t93 133t114 156t145 192l101 132h137v-739h107zM459 941l-356 -506h356v506z" />
    <glyph glyph-name="five" unicode="5" horiz-adv-x="853" 
d="M217 798q52 -3 90 -6t67 -7t52.5 -9t47.5 -12q70 -19 125 -54.5t92.5 -82.5t57.5 -105t20 -125q0 -90 -35.5 -165.5t-99.5 -130t-152 -85t-194 -30.5q-57 0 -103.5 11t-79 30.5t-50.5 47t-18 61.5q0 46 29.5 74.5t76.5 28.5q33 0 73.5 -17.5t96.5 -58.5q51 -40 87 -56
t65 -16q37 0 67.5 13.5t54 36t36.5 53.5t13 67q0 86 -63.5 153.5t-178.5 104.5q-28 9 -56.5 15.5t-64 11.5t-81 9.5t-106.5 8.5l167 588h550l-75 -216h-474z" />
    <glyph glyph-name="six" unicode="6" horiz-adv-x="853" 
d="M803 1130q-94 -20 -167.5 -55.5t-129.5 -90t-95.5 -128t-62.5 -167.5q38 17 70 23t73 6q73 0 132 -24t100.5 -68t64 -106.5t22.5 -140.5q0 -87 -27 -160.5t-76.5 -127.5t-117 -84t-146.5 -30q-89 0 -162 35t-125 98.5t-80.5 154t-28.5 200.5q0 171 74 311t219 239
q48 34 94.5 58t99.5 42.5t118 32t151 26.5v-44zM397 641q-17 0 -33.5 -4.5t-27.5 -12.5q-5 -3 -9 -21.5t-6.5 -47.5t-4.5 -65.5t-2 -75.5q0 -121 11.5 -209t34.5 -132q26 -49 87 -49q31 0 51 11t32 39.5t17 77.5t5 124q0 101 -8 171t-26.5 113t-48 62t-72.5 19z" />
    <glyph glyph-name="seven" unicode="7" horiz-adv-x="853" 
d="M414 0h-163l341 919h-353q-35 0 -61 -7t-45.5 -24t-34.5 -45t-26 -69h-43l75 378h709z" />
    <glyph glyph-name="eight" unicode="8" horiz-adv-x="853" 
d="M304 553q-64 37 -108.5 74t-73.5 76t-42 81.5t-13 90.5q0 68 27.5 123t77 94t120.5 60.5t157 21.5q76 0 137.5 -17t104.5 -49.5t66.5 -78.5t23.5 -103q0 -81 -54.5 -137.5t-177.5 -99.5q68 -43 117 -85.5t80 -87.5t45.5 -93t14.5 -104q0 -77 -28.5 -140t-80.5 -108
t-125 -69.5t-162 -24.5q-82 0 -149 21.5t-114.5 59.5t-73.5 91.5t-26 119.5q0 113 75 187q17 15 34 28t38 24t47.5 22t62.5 23zM508 719q21 29 35 51.5t21.5 44.5t10.5 45.5t3 53.5q0 100 -38.5 155t-111.5 55q-30 0 -56 -11t-45 -30t-30 -44.5t-11 -55.5q0 -73 57 -140.5
t165 -123.5zM341 522q-25 -38 -42 -68t-27 -58.5t-14 -57t-4 -64.5q0 -114 43.5 -178t121.5 -64q70 0 109.5 49t39.5 136q0 47 -9 83t-34 70t-69.5 69.5t-114.5 82.5z" />
    <glyph glyph-name="nine" unicode="9" horiz-adv-x="853" 
d="M53 23q92 18 164.5 53t128.5 89.5t96 128.5t68 171q-35 -18 -70.5 -25t-84.5 -7q-70 0 -127 24.5t-98 69t-63.5 107t-22.5 137.5q0 87 27.5 161t76.5 127.5t116 84t148 30.5q89 0 162 -35t125 -98.5t80.5 -153.5t28.5 -201q0 -164 -68 -298t-199 -233q-50 -37 -99 -65
t-106 -48.5t-125.5 -36t-157.5 -28.5v46zM532 604q4 57 6.5 100t2.5 77q0 45 -3 89t-9 82.5t-13.5 69t-17.5 47.5q-14 30 -36 44.5t-54 14.5t-52 -11.5t-31.5 -39t-16 -76t-4.5 -122.5q0 -101 7.5 -171t25 -114t45 -64t67.5 -20q19 0 40 4.5t30 10.5q4 3 5 10.5t3 24.5z" />
    <glyph glyph-name="numbersign" unicode="#" horiz-adv-x="853" 
d="M797 358h-167l-50 -358h-133l50 358h-193l-50 -358h-133l50 358h-164v125h182l31 228h-163v125h180l51 359h131l-50 -359h194l50 359h133l-49 -359h150v-125h-168l-31 -228h149v-125zM353 711l-31 -228h192l32 228h-193z" />
    <glyph glyph-name="dollar" unicode="$" horiz-adv-x="853" 
d="M695 820q-19 64 -41 111t-50.5 80t-64 52.5t-80.5 30.5v-368q61 -32 104 -55.5t73.5 -44t53.5 -41.5t46 -46q33 -37 51.5 -90t18.5 -115q0 -143 -87 -226q-20 -20 -43.5 -35.5t-54 -29t-70 -23.5t-92.5 -20v-170h-94v170q-41 2 -70.5 5.5t-60 11t-67 21t-89.5 35.5v267
l36 -4q20 -69 44 -118.5t54 -84t67.5 -54t84.5 -28.5v428q-86 43 -146 84.5t-97.5 85.5t-54.5 92.5t-17 105.5q0 80 38.5 145t109.5 107q20 10 37.5 18t36.5 13.5t41.5 9.5t52.5 7v133h94v-130q50 -8 87 -16.5t68 -19t58.5 -23t57.5 -30.5v-241h-35zM459 51q81 16 119.5 59
t38.5 118q0 35 -5 59.5t-22.5 46t-48.5 43t-82 49.5v-375zM364 1099q-82 -21 -117 -56.5t-35 -96.5q0 -118 152 -172v325z" />
    <glyph glyph-name="percent" unicode="%" horiz-adv-x="1706" 
d="M1298 635q46 0 82 -14t62 -39.5t40 -62t14 -81.5q0 -50 -10.5 -100.5t-30 -99t-47 -92t-61.5 -79.5q-42 -43 -96.5 -67.5t-110.5 -24.5q-52 0 -94 17.5t-71 48.5t-45.5 75t-16.5 98q0 78 33 154t87.5 135.5t123.5 95.5t141 36zM1351 547q-33 0 -63 -20.5t-61 -67.5
q-22 -32 -42.5 -74t-36.5 -85.5t-26 -83.5t-10 -66q0 -95 85 -95q47 0 91 36t82 107q36 65 53.5 120t17.5 106q0 53 -25.5 88t-64.5 35zM569 -14h-94l594 1058q-109 -46 -195 -46q-18 0 -36 2t-45 6q-1 -56 -6.5 -103.5t-17.5 -90t-31 -81.5t-46 -78q-51 -74 -117 -112.5
t-144 -38.5q-49 0 -89 17t-69 47.5t-45 73t-16 94.5q0 82 32 158.5t85.5 135.5t123 94t144.5 35q32 0 62.5 -11t64.5 -36q21 -13 38 -22.5t35.5 -15t39 -7.5t47.5 -2q39 0 80 8t78 21.5t66 31.5t43 38q13 18 26 18h65zM633 1076q-21 3 -49.5 -21t-56.5 -64q-22 -34 -43 -76
t-38 -85.5t-27.5 -84t-12.5 -70.5q-2 -41 20.5 -68t61.5 -27q41 0 77 25t73 79q23 33 41.5 70.5t31 74.5t19.5 73.5t7 67.5q0 29 -11.5 46.5t-38.5 29.5q-8 3 -12 5.5t-14 11.5q-12 8 -17.5 9.5t-10.5 3.5z" />
    <glyph glyph-name="ampersand" unicode="&#x26;" horiz-adv-x="1421" 
d="M1336 714v-40q-28 -3 -46.5 -7t-32 -11.5t-24 -19.5t-22.5 -30l-46 -76q-17 -27 -31 -48t-30.5 -45t-39 -56t-58.5 -81q37 -46 64 -76t50 -47.5t44 -24.5t45 -7q32 0 55 15t44 50l35 -21l-28 -44q-16 -26 -28.5 -45.5t-23.5 -33t-20.5 -23.5t-19.5 -18q-31 -22 -75 -37
t-84 -15q-34 0 -63.5 7t-59 25t-61 46.5t-70.5 70.5q-52 -38 -100.5 -66t-94.5 -46t-91.5 -26.5t-92.5 -8.5q-71 0 -131 22t-103 61.5t-67 95t-24 120.5q0 60 18 111.5t58 98t103.5 90t154.5 88.5q-25 45 -42.5 78t-27.5 61.5t-14 54t-4 53.5q0 62 23 112t66 85t105 54
t138 19q65 0 117.5 -14.5t90 -42t57.5 -66.5t20 -86q0 -80 -61.5 -139.5t-197.5 -109.5l257 -364q37 46 62 80.5t40 63t21.5 53t6.5 50.5q0 18 -3.5 30t-15 19.5t-33.5 11.5t-60 9v40h351zM469 611q-70 -41 -98 -77t-28 -83q0 -34 9 -70t25 -72.5t38.5 -70t49.5 -63.5
q32 -33 73 -52t79 -19q35 0 69.5 15t84.5 52q-20 26 -39.5 52.5t-43.5 61t-56 83t-80 120.5zM677 771q65 23 92.5 54.5t27.5 83.5q0 44 -13 82.5t-34.5 68t-50 46.5t-59.5 17q-41 0 -64.5 -25.5t-23.5 -70.5q0 -52 29 -111.5t96 -144.5z" />
    <glyph glyph-name="zero" unicode="0" horiz-adv-x="853" 
d="M426 1174q83 0 154 -45.5t122.5 -126t80.5 -190t29 -238.5q0 -128 -29 -237.5t-80.5 -189t-121.5 -125t-153 -45.5q-85 0 -156 45t-122.5 125t-80 190.5t-28.5 242.5q0 53 7 108.5t18.5 107.5t29 98t37.5 81q27 46 60 83t71.5 63t79.5 39.5t82 13.5zM542 769
q0 188 -27.5 272.5t-90.5 84.5q-30 0 -51.5 -19.5t-35.5 -62t-20 -110.5t-6 -165v-390q0 -95 6 -162t20.5 -109.5t36.5 -62.5t54 -20q58 0 86 74q5 18 10.5 49t9 70.5t6 81t2.5 79.5v390z" />
    <glyph glyph-name="one" unicode="1" horiz-adv-x="853" 
d="M569 1174v-972q0 -50 7 -81t27 -48t56.5 -24t94.5 -8v-41h-640v41q63 0 103 7.5t62.5 26t30.5 51.5t8 86v656q0 61 -15.5 89.5t-46.5 28.5q-17 0 -47 -8t-64 -21q-4 -2 -13.5 -5.5t-20.5 -7.5v44l430 186h28z" />
    <glyph glyph-name="OE" unicode="&#x152;" horiz-adv-x="3414" 
 />
    <glyph glyph-name="colon" unicode=":" horiz-adv-x="576" 
d="M501 124q0 -53 -35.5 -89t-88.5 -36q-52 0 -87.5 36t-35.5 89q0 51 36 87t87 36q52 0 88 -36t36 -87zM501 614q0 -53 -35.5 -89t-88.5 -36q-52 0 -87.5 36t-35.5 89q0 51 36 87t87 36q52 0 88 -36t36 -87z" />
    <glyph glyph-name="semicolon" unicode=";" horiz-adv-x="568" 
d="M152 -270q97 68 141.5 123t44.5 105q0 14 -9 24.5t-21 10.5h-13l-21 -3h-13q-8 0 -18.5 2.5t-21 6.5t-20.5 9.5t-17 11.5q-22 16 -33 42.5t-11 59.5q0 65 39 103.5t102 38.5q38 0 70 -14.5t55 -40.5t35.5 -62t12.5 -80q0 -55 -17 -104.5t-51 -95t-87.5 -89t-127.5 -86.5z
M283 806q31 0 57.5 -11.5t46 -31t30.5 -46t11 -56.5t-11 -56.5t-30.5 -45.5t-46 -30.5t-57.5 -11.5q-30 0 -56.5 11.5t-45.5 31t-30 46t-11 57.5q0 30 11.5 55.5t31 45t45.5 31t55 11.5z" />
    <glyph glyph-name="question" unicode="?" horiz-adv-x="853" 
d="M380 394q-1 20 -1.5 31.5t-1 20t-0.5 14v12.5q0 18 3 35t9.5 36.5t16.5 42.5t25 52q22 39 36 71.5t22.5 62t12 58t3.5 62.5q0 106 -37.5 163.5t-105.5 57.5q-47 0 -75.5 -18t-28.5 -49q0 -13 5 -23t20 -26q22 -26 29.5 -44t7.5 -44q0 -49 -28.5 -78.5t-77.5 -29.5
q-26 0 -47 9.5t-36.5 27t-24.5 41t-9 51.5q0 54 23.5 99t66 77.5t102 50.5t129.5 18q77 0 139.5 -20t107.5 -57.5t69.5 -89.5t24.5 -116q0 -44 -10.5 -80.5t-34.5 -69.5t-63.5 -65t-97.5 -68q-40 -26 -64 -44.5t-37 -41t-17 -52.5t-4 -77h-51zM408 266q29 0 55 -11.5
t46 -31.5t31.5 -46.5t11.5 -55.5q0 -30 -11.5 -56.5t-31 -45.5t-45.5 -30.5t-56 -11.5q-32 0 -58.5 11.5t-45.5 31t-30 46t-11 56.5t11.5 56t31 45.5t46 31t56.5 11.5z" />
    <glyph glyph-name="asciicircum" unicode="^" horiz-adv-x="991" 
d="M124 530l304 622h136l304 -622h-152l-219 465l-221 -465h-152z" />
    <glyph glyph-name="underscore" unicode="_" horiz-adv-x="853" 
d="M0 -214v86h853v-86h-853z" />
    <glyph glyph-name="afii57388" unicode="&#x60c;" horiz-adv-x="481" 
d="M399 127q0 -55 -39.5 -92t-94.5 -37q-67 0 -116 51.5t-49 119.5q0 144 158 272h103q-130 -112 -130 -207q25 9 50 9q51 0 84.5 -32.5t33.5 -83.5z" />
    <glyph glyph-name="cent" unicode="&#xa2;" horiz-adv-x="1707" 
d="M918 -306h-130v1519h130v-1519z" />
    <glyph glyph-name="sterling" unicode="&#xa3;" horiz-adv-x="1707" 
d="M1141 1213h-576v122h576v-122z" />
    <glyph glyph-name="currency" unicode="&#xa4;" horiz-adv-x="1707" 
 />
    <glyph glyph-name="yen" unicode="&#xa5;" horiz-adv-x="1707" 
d="M1268 1486h-829v120h829v-120zM1268 1171h-829v120h829v-120z" />
    <glyph glyph-name="brokenbar" unicode="&#xa6;" horiz-adv-x="1707" 
 />
    <glyph glyph-name="section" unicode="&#xa7;" horiz-adv-x="1707" 
 />
    <glyph glyph-name="afii57403" unicode="&#x61b;" horiz-adv-x="484" 
d="M372 115q0 -49 -33 -82.5t-82 -33.5t-82 33.5t-33 82.5q0 48 33.5 81.5t81.5 33.5t81.5 -33.5t33.5 -81.5zM399 567q0 -56 -39 -92t-95 -36q-68 0 -116.5 51.5t-48.5 119.5q0 144 158 272h103q-130 -112 -130 -207q25 8 50 8q52 0 85 -32t33 -84z" />
    <glyph glyph-name="guilsinglright" unicode="&#x203a;" horiz-adv-x="1117" 
d="M966 444l-806 -386v134l626 297l-626 295v134l806 -384v-90z" />
    <glyph glyph-name="oe" unicode="&#x153;" horiz-adv-x="3414" 
d="M428 808q83 0 153 -31.5t121.5 -87.5t80.5 -132.5t29 -165.5t-29 -165t-80.5 -132t-121.5 -87.5t-153 -31.5q-84 0 -154.5 31.5t-122 87.5t-80.5 133.5t-29 168.5q0 87 30 162t82 130.5t122.5 87.5t151.5 32zM430 754q-40 0 -66 -19t-42 -63.5t-22.5 -119.5t-6.5 -187
q0 -94 7 -158t23 -103.5t41.5 -57t63.5 -17.5q37 0 62.5 18t41.5 59t23 108t7 166q0 105 -6.5 176.5t-22.5 115t-41 63t-62 19.5zM2433 189q-41 -60 -78.5 -100.5t-77 -65.5t-82 -36.5t-94.5 -11.5q-79 0 -144 29.5t-111.5 84t-71.5 131t-25 169.5t26 170t73 132.5t112.5 86
t145.5 30.5q143 0 229 -101q21 -25 35.5 -53t26 -62.5t18 -77t10.5 -96.5h-430q3 -44 7 -77.5t10 -60.5t14.5 -48.5t20.5 -42.5q27 -44 64 -67t87 -23q27 0 51.5 6.5t47.5 20t47 35t49 53.5zM2215 481v26q-2 65 -5 103.5t-10 63.5q-21 80 -94 80q-32 0 -53.5 -14t-35.5 -46
t-21 -84t-9 -129h228z" />
    <glyph glyph-name="plusminus" unicode="&#xb1;" horiz-adv-x="1707" 
 />
    <glyph glyph-name="twosuperior" unicode="&#xb2;" horiz-adv-x="1707" 
d="M739 0h-710v39q63 67 110 118.5t84 92.5t65 74.5t51 63.5t43.5 59t41.5 63q41 63 64.5 129.5t23.5 122.5q0 31 -9.5 63.5t-25.5 60.5q-28 46 -69.5 70t-98.5 24q-70 0 -119.5 -37.5t-88.5 -117.5h-48q18 48 34 84.5t33 65.5t36.5 53.5t45.5 49.5q44 47 103 71.5t123 24.5
q69 0 127 -23t100 -64.5t65.5 -99t23.5 -126.5q0 -97 -47 -186.5t-148 -184.5l-276 -264h257q66 0 105 3.5t63.5 17.5t41 40.5t34.5 72.5h41z" />
    <glyph glyph-name="threesuperior" unicode="&#xb3;" horiz-adv-x="1707" 
d="M64 913q70 133 166 197t224 64q131 0 204.5 -61.5t73.5 -172.5q0 -37 -7 -66.5t-23 -54.5t-43 -48t-68 -48q25 -12 44 -22t34 -20.5t28 -22t26 -27.5q37 -45 56 -99t19 -113q0 -93 -40 -174t-108.5 -141t-161.5 -94.5t-200 -34.5q-59 0 -107 11.5t-82 31.5t-53 48.5
t-19 63.5q0 43 31 70.5t80 27.5q38 0 79 -21.5t91 -71.5q42 -41 70 -57t58 -16q78 0 123 54.5t45 146.5q0 61 -21.5 115.5t-62.5 91.5q-23 22 -46.5 39.5t-53 33t-68 31t-91.5 34.5v28q60 19 103 40.5t69.5 48t38 59.5t11.5 75q0 82 -46.5 129.5t-127.5 47.5q-34 0 -61.5 -8
t-52.5 -25t-48.5 -44.5t-47.5 -66.5z" />
    <glyph glyph-name="mu1" unicode="&#xb5;" horiz-adv-x="1707" 
 />
    <glyph glyph-name="paragraph" unicode="&#xb6;" horiz-adv-x="1707" 
 />
    <glyph glyph-name="onesuperior" unicode="&#xb9;" horiz-adv-x="1707" 
d="M641 1174v-972q0 -50 7 -81t27 -48t56.5 -24t94.5 -8v-41h-640v41q63 0 103 7.5t62.5 26t30.5 51.5t8 86v656q0 61 -15.5 89.5t-46.5 28.5q-17 0 -47 -8t-64 -21q-4 -2 -13.5 -5.5t-20.5 -7.5v44l430 186h28z" />
    <glyph glyph-name="backslash" unicode="\" horiz-adv-x="643" 
d="M236 1228l281 -1333h-104l-283 1333h106z" />
    <glyph glyph-name="acircumflex" unicode="&#xe2;" horiz-adv-x="1707" 
d="M832 73q-48 -52 -92 -75t-99 -23q-63 0 -94.5 27t-44.5 94q-71 -65 -134 -93t-136 -28q-41 0 -75.5 14t-60 38t-40 57.5t-14.5 72.5q0 56 27 100t83 83q23 16 52 30.5t70 30.5t96 35t132 41v126q0 78 -34.5 114t-109.5 36q-45 0 -76 -19t-31 -45q0 -8 4.5 -16t15.5 -21
q15 -21 23 -38t8 -36q0 -44 -32.5 -71.5t-83.5 -27.5q-53 0 -82.5 30t-29.5 83q0 48 24 87.5t66 68t101 44.5t132 16q78 0 141 -17t107 -47.5t67.5 -73.5t23.5 -97v-445q0 -43 35 -43q13 0 19 7l18 17zM500 418q-103 -27 -156 -79.5t-53 -126.5q0 -52 24.5 -83.5t63.5 -31.5
q31 0 58.5 16.5t62.5 57.5v247z" />
    <glyph glyph-name="ocircumflex" unicode="&#xf4;" horiz-adv-x="1707" 
d="M428 808q83 0 153 -31.5t121.5 -87.5t80.5 -132.5t29 -165.5t-29 -165t-80.5 -132t-121.5 -87.5t-153 -31.5q-84 0 -154.5 31.5t-122 87.5t-80.5 133.5t-29 168.5q0 87 30 162t82 130.5t122.5 87.5t151.5 32zM430 754q-40 0 -66 -19t-42 -63.5t-22.5 -119.5t-6.5 -187
q0 -94 7 -158t23 -103.5t41.5 -57t63.5 -17.5q37 0 62.5 18t41.5 59t23 108t7 166q0 105 -6.5 176.5t-22.5 115t-41 63t-62 19.5z" />
    <glyph glyph-name="Euro" unicode="&#x20ac;" horiz-adv-x="1707" 
d="M1268 586h-829v120h829v-120zM1268 271h-829v120h829v-120z" />
    <glyph glyph-name="uni06BA.001" unicode="&#x6ba;" horiz-adv-x="1707" 
 />
    <glyph glyph-name="onequarter" unicode="&#xbc;" horiz-adv-x="2944" 
 />
    <glyph glyph-name="onehalf" unicode="&#xbd;" horiz-adv-x="2944" 
 />
    <glyph glyph-name="threequarters" unicode="&#xbe;" horiz-adv-x="2944" 
 />
    <glyph glyph-name="E006" horiz-adv-x="921" 
d="M639 -280l-135 -135l-136 135l136 136z" />
    <glyph glyph-name="uniE065.001" 
 />
    <glyph glyph-name="E0A7" horiz-adv-x="1260" 
 />
    <glyph glyph-name="E0A8" horiz-adv-x="1260" 
 />
    <glyph glyph-name="icircumflex" unicode="&#xee;" horiz-adv-x="1156" 
 />
    <glyph glyph-name="idieresis" unicode="&#xef;" horiz-adv-x="1156" 
 />
    <glyph glyph-name="E008" horiz-adv-x="1334" 
 />
    </font>
</defs>
</svg>
