<?xml version="1.0" encoding="utf-8"?>
<!-- Generator: Adobe Illustrator 18.0.0, SVG Export Plug-In . SVG Version: 6.00 Build 0)  -->
<!DOCTYPE svg PUBLIC "-//W3C//DTD SVG 1.1//EN" "http://www.w3.org/Graphics/SVG/1.1/DTD/svg11.dtd">
<svg version="1.1" id="Layer_1" xmlns="http://www.w3.org/2000/svg" xmlns:xlink="http://www.w3.org/1999/xlink" x="0px" y="0px"
	 viewBox="0 0 574.8 531.8" enable-background="new 0 0 574.8 531.8" xml:space="preserve">
<g>
	<g>
		<path fill="none" stroke="#F2F2F2" stroke-miterlimit="10" d="M162.7,83.4c0-39.1,31.7-70.9,70.9-70.9c39.1,0,70.9,31.7,70.9,70.9
			c0,39.1-31.7,70.9-70.9,70.9C194.4,154.2,162.7,122.5,162.7,83.4L162.7,83.4z M267.6,202.5c0.7-15.4,6-29.7,14.6-41.5
			c-6-1.2-12.2-1.9-18.6-1.9h-60.1c-6.3,0-12.5,0.7-18.5,1.9c9.1,12.6,14.5,28,14.6,44.7c11.1-6.1,23.7-9.5,37.2-9.5
			C247.8,196.2,258.2,198.4,267.6,202.5L267.6,202.5z M279.6,208.9c20.6,12.9,35,34.7,37.6,60.1c8.4,3.9,17.7,6.2,27.6,6.2
			c36.1,0,65.3-29.3,65.3-65.3s-29.2-65.3-65.3-65.3C309.1,144.6,280.2,173.3,279.6,208.9L279.6,208.9z M236.8,342.6
			c36.1,0,65.3-29.2,65.3-65.3c0-36.1-29.2-65.3-65.3-65.3c-36.1,0-65.3,29.2-65.3,65.3C171.5,313.4,200.8,342.6,236.8,342.6
			L236.8,342.6z M264.5,347h-55.4c-46.1,0-83.6,37.5-83.6,83.6v67.8l0.2,1l4.7,1.5c44,13.7,82.2,18.3,113.7,18.3
			c61.4,0,97.1-17.5,99.3-18.6l4.4-2.2h0.5v-67.8C348.1,384.6,310.6,347,264.5,347L264.5,347z M372.6,279.6h-55
			c-0.6,22-10,41.8-24.8,56.1c41,12.2,70.9,50.2,70.9,95.1v20.9c54.3-2,85.6-17.4,87.6-18.4l4.4-2.2h0.5v-67.8
			C456.2,317.1,418.7,279.6,372.6,279.6L372.6,279.6z M387.3,143.2c20.6,12.9,35,34.7,37.6,60.1c8.4,3.9,17.7,6.2,27.6,6.2
			c36.1,0,65.3-29.2,65.3-65.3c0-36.1-29.2-65.3-65.3-65.3C416.8,78.9,387.8,107.6,387.3,143.2L387.3,143.2z M480.2,213.9h-55
			c-0.6,22-10,41.8-24.8,56.1c41,12.2,70.9,50.2,70.9,95.1v20.9c54.3-2,85.6-17.4,87.6-18.4l4.4-2.2h0.5v-67.8
			C563.8,251.4,526.3,213.9,480.2,213.9L480.2,213.9z M122.3,275.2c12.8,0,24.7-3.7,34.7-10.1c3.2-20.9,14.4-39.1,30.4-51.5
			c0.1-1.2,0.2-2.4,0.2-3.7c0-36.1-29.2-65.3-65.3-65.3S57,173.8,57,209.9C57,246,86.2,275.2,122.3,275.2L122.3,275.2z M180.9,335.7
			c-14.8-14.2-24.1-33.9-24.8-55.8c-2-0.1-4.1-0.3-6.2-0.3H94.6c-46.1,0-83.6,37.5-83.6,83.6V431l0.2,1.1l4.7,1.5
			c35.3,11,66.8,16.1,94.2,17.7v-20.5C110,385.9,139.9,347.9,180.9,335.7L180.9,335.7z M180.9,335.7"/>
	</g>
</g>
</svg>
