<?xml version="1.0" encoding="utf-8"?>
<!-- Generator: Adobe Illustrator 18.0.0, SVG Export Plug-In . SVG Version: 6.00 Build 0)  -->
<!DOCTYPE svg PUBLIC "-//W3C//DTD SVG 1.1//EN" "http://www.w3.org/Graphics/SVG/1.1/DTD/svg11.dtd">
<svg version="1.1" id="Layer_1" xmlns="http://www.w3.org/2000/svg" xmlns:xlink="http://www.w3.org/1999/xlink" x="0px" y="0px"
	 viewBox="0 0 1920 1600" enable-background="new 0 0 1920 1600" xml:space="preserve">
<g>
	<circle fill="#6CC2D9" cx="960" cy="801.6" r="787.2"/>
</g>
<g>
	<g>
		<polygon fill="#FFFFFF" points="755.2,636.8 739.2,636.8 739.2,620.8 724.8,620.8 724.8,636.8 710.4,636.8 710.4,651.2 
			724.8,651.2 724.8,665.6 739.2,665.6 739.2,651.2 755.2,651.2 		"/>
		<polygon fill="#FFFFFF" points="1161.6,660.8 1145.6,660.8 1145.6,644.8 1131.2,644.8 1131.2,660.8 1116.8,660.8 1116.8,673.6 
			1131.2,673.6 1131.2,689.6 1145.6,689.6 1145.6,673.6 1161.6,673.6 		"/>
		<polygon fill="#FFFFFF" points="1251.2,577.6 1224,577.6 1224,550.4 1200,550.4 1200,577.6 1171.2,577.6 1171.2,603.2 1200,603.2 
			1200,630.4 1224,630.4 1224,603.2 1251.2,603.2 		"/>
		<polygon fill="#FFFFFF" points="1286.4,728 1249.6,728 1249.6,692.8 1219.2,692.8 1219.2,728 1182.4,728 1182.4,760 1219.2,760 
			1219.2,795.2 1249.6,795.2 1249.6,760 1286.4,760 		"/>
		<polygon fill="#FFFFFF" points="756.8,542.4 734.4,542.4 734.4,520 715.2,520 715.2,542.4 692.8,542.4 692.8,563.2 715.2,563.2 
			715.2,585.6 734.4,585.6 734.4,563.2 756.8,563.2 		"/>
		<polygon fill="#FFFFFF" points="672,640 632,640 632,600 596.8,600 596.8,640 558.4,640 558.4,673.6 596.8,673.6 596.8,713.6 
			632,713.6 632,673.6 672,673.6 		"/>
		<path fill="#231F20" d="M1305.6,867.2v17.6c0,16-46.4,28.8-102.4,28.8s-102.4-12.8-102.4-28.8v-19.2c0-4.8,4.8-9.6,12.8-14.4
			c-4.8,4.8-8,9.6-8,14.4c0,16,43.2,27.2,97.6,27.2s97.6-12.8,97.6-27.2c0-4.8-3.2-11.2-9.6-16c9.6,4.8,14.4,9.6,14.4,16V867.2
			L1305.6,867.2z M1302.4,899.2v-1.6c0-6.4-4.8-11.2-14.4-16c6.4,4.8,9.6,9.6,9.6,16c0,16-43.2,27.2-97.6,27.2s-97.6-12.8-97.6-27.2
			c0-4.8,3.2-9.6,8-14.4c-8,4.8-12.8,9.6-12.8,14.4v19.2c0,16,46.4,28.8,102.4,28.8s102.4-12.8,102.4-28.8V899.2L1302.4,899.2z
			 M1284.8,931.2v-1.6c0-6.4-4.8-11.2-14.4-16c6.4,4.8,9.6,9.6,9.6,16c0,16-43.2,27.2-97.6,27.2s-97.6-12.8-97.6-27.2
			c0-4.8,3.2-9.6,8-14.4c-8,4.8-12.8,9.6-12.8,14.4v19.2c0,16,46.4,28.8,102.4,28.8s102.4-12.8,102.4-28.8V931.2L1284.8,931.2z
			 M1302.4,838.4v16c0,16-46.4,28.8-102.4,28.8s-102.4-12.8-102.4-28.8v-19.2c0-16,46.4-28.8,102.4-28.8s102.4,12.8,102.4,28.8
			C1302.4,836.8,1302.4,836.8,1302.4,838.4L1302.4,838.4z M1297.6,836.8c0-16-43.2-27.2-97.6-27.2s-97.6,12.8-97.6,27.2
			c0,16,43.2,27.2,97.6,27.2C1252.8,864,1297.6,851.2,1297.6,836.8z M1179.2,825.6c0,12.8,28.8,12.8,28.8,20.8c0,3.2-3.2,4.8-8,4.8
			s-8-1.6-8-4.8v-3.2h-14.4v3.2c0,6.4,4.8,9.6,16,9.6v3.2h11.2V856c9.6-1.6,16-4.8,16-9.6c0-12.8-28.8-12.8-28.8-20.8
			c0-3.2,3.2-4.8,8-4.8s8,1.6,8,4.8v1.6h14.4v-1.6c0-6.4-4.8-9.6-16-9.6v-3.2h-11.2v3.2C1184,817.6,1179.2,820.8,1179.2,825.6z"/>
		<path fill="#231F20" d="M1070.4,574.4H859.2V363.2h8v203.2h203.2V574.4z M1054.4,433.6l-6.4-52.8l-41.6,32l17.6,8l-19.2,44.8
			L976,435.2L948.8,488l-27.2-27.2l-32,70.4l14.4,6.4l22.4-51.2L952,512l27.2-49.6l27.2,32l28.8-68.8L1054.4,433.6z"/>
		<path fill="#231F20" d="M633.6,784c0-14.4,11.2-27.2,27.2-27.2c14.4,0,27.2,11.2,27.2,27.2c0,14.4-11.2,27.2-27.2,27.2
			C644.8,809.6,633.6,798.4,633.6,784z M596.8,771.2h-16V832h16V771.2z M736,771.2h-16V832h16V771.2z M532.8,832h16v-24h-16V832z
			 M745.6,832h16v-41.6h-16V832z M571.2,790.4h-16V832h16V790.4z M768,808v24h16v-24H768z M662.4,812.8H656c-3.2,0-4.8,0-8,1.6
			c-1.6,0-3.2,0-3.2,0c-4.8,1.6-9.6,3.2-14.4,4.8c-8,4.8-12.8,11.2-17.6,17.6c-3.2,3.2-4.8,8-8,9.6c-8,6.4-20.8,3.2-28.8-1.6
			c-4.8-3.2-9.6-1.6-12.8,3.2s-1.6,9.6,3.2,12.8c8,4.8,17.6,8,27.2,8c8,0,16-3.2,24-9.6c4.8-4.8,8-8,11.2-12.8
			c3.2-3.2,4.8-6.4,8-9.6c0,8-1.6,27.2-1.6,48v1.6l-6.4,97.6c-1.6,19.2,17.6,20.8,20.8,0l6.4-72c1.6,0,1.6,0,3.2,0s1.6,0,3.2,0
			l6.4,73.6c3.2,17.6,24,20.8,22.4,0l-6.4-91.2c0-14.4-1.6-36.8-3.2-49.6c1.6,1.6,3.2,3.2,3.2,4.8c3.2,4.8,6.4,9.6,11.2,12.8
			c6.4,6.4,16,9.6,24,9.6c9.6,0,19.2-3.2,27.2-8c4.8-3.2,6.4-8,3.2-12.8s-8-6.4-12.8-3.2c-8,4.8-20.8,8-28.8,1.6
			c-3.2-3.2-4.8-6.4-8-9.6c-6.4-9.6-14.4-19.2-25.6-22.4C670.4,814.4,665.6,812.8,662.4,812.8"/>
		<g>
			<g>
				<path fill="#FFFFFF" d="M774.4,1203.2c-3.2-1.6-4.8-1.6-8-3.2l1.6-4.8c1.6,1.6,4.8,1.6,8,3.2L774.4,1203.2z"/>
			</g>
			<g>
				<path fill="#FFFFFF" d="M752,1193.6c-4.8-1.6-9.6-4.8-14.4-8l3.2-4.8c4.8,3.2,9.6,4.8,14.4,8L752,1193.6z M1139.2,1193.6
					l-3.2-4.8c4.8-1.6,9.6-4.8,14.4-8l3.2,4.8C1147.2,1188.8,1144,1190.4,1139.2,1193.6z M724.8,1177.6c-4.8-3.2-9.6-4.8-14.4-8
					l3.2-4.8c4.8,3.2,9.6,4.8,12.8,8L724.8,1177.6z M1166.4,1177.6l-3.2-4.8c4.8-3.2,9.6-4.8,12.8-8l3.2,4.8
					C1176,1172.8,1171.2,1176,1166.4,1177.6z M697.6,1161.6c-4.8-3.2-8-6.4-12.8-9.6l3.2-4.8c4.8,3.2,8,6.4,12.8,9.6L697.6,1161.6z
					 M1193.6,1160l-3.2-4.8c4.8-3.2,8-6.4,12.8-9.6l3.2,4.8C1203.2,1155.2,1198.4,1158.4,1193.6,1160z M672,1142.4
					c-4.8-3.2-8-6.4-12.8-9.6l3.2-4.8c4.8,3.2,8,6.4,12.8,9.6L672,1142.4z M1219.2,1140.8l-3.2-3.2c4.8-3.2,8-6.4,12.8-9.6l3.2,4.8
					C1227.2,1134.4,1224,1137.6,1219.2,1140.8z M646.4,1121.6c-3.2-3.2-8-8-11.2-11.2l3.2-3.2c3.2,3.2,8,8,11.2,11.2L646.4,1121.6z
					 M1243.2,1120l-3.2-3.2c3.2-3.2,8-8,11.2-11.2l3.2,3.2C1251.2,1113.6,1248,1116.8,1243.2,1120z M624,1097.6
					c-3.2-3.2-8-8-11.2-11.2l4.8-3.2c3.2,4.8,6.4,8,11.2,11.2L624,1097.6z M1267.2,1097.6l-3.2-3.2c3.2-3.2,6.4-8,11.2-11.2l3.2,3.2
					C1273.6,1089.6,1270.4,1094.4,1267.2,1097.6z M603.2,1073.6c-3.2-4.8-6.4-8-9.6-12.8l4.8-3.2c3.2,4.8,6.4,8,9.6,12.8
					L603.2,1073.6z M1288,1073.6l-4.8-3.2c3.2-4.8,6.4-8,9.6-12.8l4.8,3.2C1294.4,1065.6,1291.2,1068.8,1288,1073.6z M584,1048
					c-3.2-4.8-6.4-9.6-9.6-12.8l4.8-3.2c3.2,4.8,6.4,9.6,8,12.8L584,1048z M1307.2,1048l-4.8-3.2c3.2-4.8,6.4-8,8-12.8l4.8,3.2
					C1313.6,1038.4,1310.4,1043.2,1307.2,1048z M566.4,1020.8c-3.2-4.8-4.8-9.6-8-14.4l4.8-3.2c3.2,4.8,4.8,9.6,8,14.4L566.4,1020.8
					z M1324.8,1020.8l-4.8-3.2c3.2-4.8,4.8-9.6,8-14.4l4.8,3.2C1329.6,1011.2,1326.4,1016,1324.8,1020.8z M552,993.6
					c-1.6-4.8-4.8-9.6-6.4-14.4l4.8-1.6c1.6,4.8,4.8,9.6,6.4,14.4L552,993.6z M1339.2,992l-4.8-1.6c1.6-4.8,4.8-9.6,6.4-14.4
					l4.8,1.6C1344,982.4,1342.4,987.2,1339.2,992z M539.2,963.2c-1.6-4.8-3.2-9.6-6.4-14.4l4.8-1.6c1.6,4.8,3.2,9.6,6.4,14.4
					L539.2,963.2z M1352,963.2l-4.8-1.6c1.6-4.8,3.2-9.6,6.4-14.4l4.8,1.6C1356.8,953.6,1355.2,958.4,1352,963.2z M528,932.8
					c-1.6-4.8-3.2-9.6-4.8-16l4.8-1.6c1.6,4.8,3.2,9.6,4.8,14.4L528,932.8z M1363.2,932.8l-4.8-1.6c1.6-4.8,3.2-9.6,4.8-14.4
					l4.8,1.6C1366.4,923.2,1364.8,928,1363.2,932.8z M518.4,902.4c-1.6-4.8-3.2-9.6-3.2-16l4.8-1.6c1.6,4.8,1.6,9.6,3.2,16
					L518.4,902.4z M1372.8,902.4l-4.8-1.6c1.6-4.8,1.6-9.6,3.2-16l4.8,1.6C1374.4,891.2,1372.8,897.6,1372.8,902.4z M512,872
					c-1.6-4.8-1.6-11.2-1.6-16h4.8c0,4.8,1.6,11.2,1.6,16H512z M1379.2,870.4l-4.8-1.6c1.6-4.8,1.6-11.2,1.6-16h4.8
					C1380.8,860.8,1379.2,865.6,1379.2,870.4z M508.8,840c0-4.8-1.6-11.2-1.6-16h4.8c0,4.8,0,11.2,1.6,16H508.8z M1382.4,838.4h-4.8
					c0-4.8,1.6-11.2,1.6-16h4.8C1384,828.8,1382.4,833.6,1382.4,838.4z M507.2,808c0-3.2,0-6.4,0-8c0-3.2,0-4.8,0-8h4.8
					c0,3.2,0,4.8,0,8s0,6.4,0,8H507.2z M1384,806.4h-4.8c0-3.2,0-4.8,0-8s0-4.8,0-8h4.8c0,3.2,0,4.8,0,8
					C1384,801.6,1384,804.8,1384,806.4z M512,776h-4.8c0-4.8,0-11.2,1.6-16h4.8C513.6,764.8,512,769.6,512,776z M1379.2,774.4
					c0-4.8,0-11.2-1.6-16h4.8c0,4.8,1.6,11.2,1.6,16H1379.2z M515.2,744h-4.8c0-4.8,1.6-11.2,1.6-16l4.8,1.6
					C516.8,732.8,515.2,739.2,515.2,744z M1376,744c0-4.8-1.6-11.2-1.6-16l4.8-1.6c1.6,4.8,1.6,11.2,1.6,16L1376,744z M520,712
					l-4.8-1.6c1.6-4.8,1.6-11.2,3.2-16l4.8,1.6C521.6,702.4,521.6,707.2,520,712z M1371.2,712c-1.6-4.8-1.6-9.6-3.2-16l4.8-1.6
					c1.6,4.8,3.2,11.2,3.2,16L1371.2,712z M528,681.6l-4.8-1.6c1.6-4.8,3.2-9.6,4.8-16l4.8,1.6C531.2,672,529.6,676.8,528,681.6z
					 M1363.2,681.6c-1.6-4.8-3.2-9.6-4.8-14.4l4.8-1.6c1.6,4.8,3.2,9.6,4.8,16H1363.2z M537.6,651.2l-4.8-1.6
					c1.6-4.8,3.2-9.6,6.4-14.4l4.8,1.6C540.8,641.6,539.2,646.4,537.6,651.2z M1353.6,651.2c-1.6-4.8-3.2-9.6-6.4-14.4l4.8-1.6
					c1.6,4.8,3.2,9.6,6.4,14.4L1353.6,651.2z M548.8,622.4l-4.8-3.2c1.6-4.8,4.8-9.6,6.4-14.4l4.8,1.6
					C553.6,612.8,552,617.6,548.8,622.4z M1340.8,622.4c-1.6-4.8-4.8-9.6-6.4-14.4l4.8-1.6c1.6,4.8,4.8,9.6,6.4,14.4L1340.8,622.4z
					 M563.2,593.6l-4.8-3.2c3.2-4.8,4.8-9.6,8-14.4l4.8,3.2C568,584,564.8,588.8,563.2,593.6z M1328,593.6c-3.2-4.8-4.8-9.6-8-14.4
					l4.8-3.2c3.2,4.8,4.8,9.6,8,14.4L1328,593.6z M579.2,566.4l-4.8-3.2c3.2-4.8,6.4-9.6,9.6-12.8l4.8,3.2
					C585.6,556.8,582.4,561.6,579.2,566.4z M1312,566.4c-3.2-4.8-6.4-9.6-8-12.8l4.8-3.2c3.2,4.8,6.4,9.6,9.6,12.8L1312,566.4z
					 M596.8,540.8l-4.8-3.2c3.2-4.8,6.4-8,9.6-12.8l4.8,3.2C603.2,531.2,600,536,596.8,540.8z M1292.8,539.2
					c-3.2-4.8-6.4-8-9.6-12.8l4.8-3.2c3.2,4.8,6.4,8,9.6,12.8L1292.8,539.2z M617.6,515.2l-4.8-3.2c3.2-4.8,6.4-8,11.2-11.2l3.2,3.2
					C624,507.2,620.8,512,617.6,515.2z M1273.6,515.2c-3.2-3.2-6.4-8-11.2-11.2l3.2-3.2c3.2,3.2,8,8,11.2,11.2L1273.6,515.2z
					 M1252.8,492.8c-3.2-3.2-8-8-11.2-11.2l3.2-3.2c3.2,3.2,8,8,11.2,11.2L1252.8,492.8z M638.4,491.2l-4.8-3.2l0,0
					c3.2-3.2,8-8,11.2-11.2l3.2,3.2C646.4,484.8,641.6,488,638.4,491.2z M662.4,470.4l-3.2-4.8c4.8-3.2,8-6.4,12.8-9.6l3.2,4.8
					C670.4,464,665.6,467.2,662.4,470.4z M1228.8,470.4c-3.2-3.2-8-6.4-12.8-9.6l3.2-4.8c4.8,3.2,8,6.4,12.8,9.6L1228.8,470.4z
					 M686.4,451.2l-3.2-4.8c4.8-3.2,8-6.4,12.8-9.6l3.2,4.8C694.4,444.8,691.2,448,686.4,451.2z M1204.8,451.2
					c-4.8-3.2-8-6.4-12.8-9.6l3.2-4.8c4.8,3.2,8,6.4,12.8,9.6L1204.8,451.2z M712,432l-3.2-4.8c4.8-3.2,9.6-6.4,14.4-8l3.2,4.8
					C721.6,427.2,716.8,430.4,712,432z M1177.6,432c-4.8-3.2-9.6-6.4-12.8-8l3.2-4.8c4.8,3.2,9.6,4.8,14.4,8L1177.6,432z M739.2,416
					l-3.2-4.8c4.8-3.2,9.6-4.8,14.4-8l1.6,4.8C748.8,411.2,744,414.4,739.2,416z M1150.4,416c-4.8-3.2-9.6-4.8-14.4-8l1.6-4.8
					c4.8,1.6,9.6,4.8,14.4,8L1150.4,416z M768,403.2l-1.6-4.8c3.2-1.6,6.4-3.2,8-3.2c1.6-1.6,4.8-1.6,6.4-3.2l1.6,4.8
					c-1.6,1.6-4.8,1.6-6.4,3.2C774.4,400,771.2,401.6,768,403.2z M1121.6,403.2c-3.2-1.6-4.8-1.6-8-3.2c-1.6-1.6-4.8-1.6-6.4-3.2
					l1.6-4.8c1.6,1.6,4.8,1.6,6.4,3.2c3.2,1.6,4.8,1.6,8,3.2L1121.6,403.2z M798.4,390.4l-1.6-4.8c4.8-1.6,9.6-3.2,14.4-4.8l1.6,4.8
					C808,387.2,803.2,388.8,798.4,390.4z M1092.8,390.4c-4.8-1.6-9.6-3.2-14.4-4.8l1.6-4.8c4.8,1.6,9.6,3.2,16,4.8L1092.8,390.4z
					 M827.2,380.8l-1.6-4.8c4.8-1.6,9.6-3.2,16-4.8l1.6,4.8C838.4,377.6,833.6,379.2,827.2,380.8z M1062.4,380.8
					c-4.8-1.6-9.6-3.2-16-4.8l1.6-4.8c4.8,1.6,11.2,3.2,16,4.8L1062.4,380.8z M859.2,372.8l-1.6-4.8c4.8-1.6,11.2-1.6,16-3.2
					l1.6,4.8C868.8,371.2,864,372.8,859.2,372.8z M1032,372.8c-4.8-1.6-9.6-1.6-16-3.2l1.6-4.8c4.8,1.6,11.2,1.6,16,3.2L1032,372.8z
					 M889.6,368v-4.8c4.8,0,11.2-1.6,16-1.6v4.8C900.8,366.4,894.4,368,889.6,368z M1000,368c-4.8,0-11.2-1.6-16-1.6v-4.8
					c4.8,0,11.2,1.6,16,1.6V368z M921.6,364.8V360c4.8,0,11.2,0,16,0v4.8C931.2,364.8,926.4,364.8,921.6,364.8z M969.6,364.8
					c-4.8,0-11.2,0-16,0V360c4.8,0,11.2,0,16,0V364.8z"/>
			</g>
			<g>
				<path fill="#FFFFFF" d="M1116.8,1203.2l-1.6-4.8c3.2-1.6,4.8-1.6,8-3.2l1.6,4.8C1121.6,1201.6,1118.4,1201.6,1116.8,1203.2z"/>
			</g>
		</g>
		<g>
			<g>
				<path fill="#113A52" d="M1134.4,545.6c0-4.8-4.8-9.6-9.6-9.6H769.6c-4.8,0-9.6,4.8-9.6,9.6v467.2c0,4.8,4.8,9.6,9.6,9.6h297.6
					l67.2-56L1134.4,545.6L1134.4,545.6z"/>
				<path fill="#A7A9AC" d="M1134.4,968l-60.8-3.2c-4.8,0-9.6,4.8-9.6,9.6l3.2,49.6L1134.4,968z"/>
				<path fill="#FFFFFF" d="M1132.8,966.4h-57.6c-4.8,0-9.6,4.8-9.6,9.6v46.4L1132.8,966.4z"/>
				<path fill="#FFFFFF" d="M1134.4,968h-57.6c-4.8,0-9.6,4.8-9.6,9.6v46.4L1134.4,968z"/>
			</g>
			<rect x="790.4" y="614.4" fill="#FFF7EB" width="150.4" height="94.4"/>
			<g>
				<rect x="777.6" y="763.2" fill="#FFF7EB" width="294.4" height="6.4"/>
				<rect x="777.6" y="774.4" fill="#FFF7EB" width="48" height="6.4"/>
				<rect x="830.4" y="774.4" fill="#FFF7EB" width="9.6" height="6.4"/>
				<rect x="848" y="776" fill="#FFF7EB" width="9.6" height="6.4"/>
				<rect x="865.6" y="776" fill="#FFF7EB" width="46.4" height="6.4"/>
				<rect x="777.6" y="787.2" fill="#FFF7EB" width="108.8" height="6.4"/>
				<rect x="891.2" y="787.2" fill="#FFF7EB" width="94.4" height="6.4"/>
				<rect x="992" y="787.2" fill="#FFF7EB" width="12.8" height="6.4"/>
				<rect x="934.4" y="800" fill="#FFF7EB" width="14.4" height="6.4"/>
				<rect x="956.8" y="800" fill="#FFF7EB" width="14.4" height="6.4"/>
				<rect x="977.6" y="800" fill="#FFF7EB" width="14.4" height="6.4"/>
				<rect x="998.4" y="800" fill="#FFF7EB" width="52.8" height="6.4"/>
				<rect x="777.6" y="800" fill="#FFF7EB" width="152" height="6.4"/>
				<rect x="777.6" y="812.8" fill="#FFF7EB" width="44.8" height="6.4"/>
				<rect x="827.2" y="812.8" fill="#FFF7EB" width="43.2" height="6.4"/>
				<rect x="876.8" y="812.8" fill="#FFF7EB" width="121.6" height="6.4"/>
				<rect x="777.6" y="825.6" fill="#FFF7EB" width="129.6" height="6.4"/>
				<rect x="910.4" y="825.6" fill="#FFF7EB" width="17.6" height="6.4"/>
				<rect x="777.6" y="838.4" fill="#FFF7EB" width="201.6" height="6.4"/>
				<rect x="777.6" y="851.2" fill="#FFF7EB" width="48" height="6.4"/>
				<rect x="828.8" y="851.2" fill="#FFF7EB" width="48" height="6.4"/>
				<rect x="878.4" y="851.2" fill="#FFF7EB" width="19.2" height="6.4"/>
				<rect x="902.4" y="851.2" fill="#FFF7EB" width="144" height="6.4"/>
				<rect x="1052.8" y="851.2" fill="#FFF7EB" width="19.2" height="6.4"/>
				<rect x="777.6" y="864" fill="#FFF7EB" width="156.8" height="6.4"/>
			</g>
			<g>
				<rect x="776" y="878.4" fill="#F9C82E" width="348.8" height="3.2"/>
				<rect x="776" y="886.4" fill="#F9C82E" width="57.6" height="3.2"/>
				<rect x="840" y="886.4" fill="#F9C82E" width="11.2" height="3.2"/>
				<rect x="859.2" y="886.4" fill="#F9C82E" width="11.2" height="3.2"/>
				<rect x="881.6" y="886.4" fill="#F9C82E" width="56" height="3.2"/>
				<rect x="776" y="894.4" fill="#F9C82E" width="128" height="3.2"/>
				<rect x="912" y="894.4" fill="#F9C82E" width="112" height="3.2"/>
				<rect x="1030.4" y="894.4" fill="#F9C82E" width="14.4" height="3.2"/>
				<rect x="963.2" y="902.4" fill="#F9C82E" width="17.6" height="3.2"/>
				<rect x="988.8" y="902.4" fill="#F9C82E" width="17.6" height="3.2"/>
				<rect x="1014.4" y="902.4" fill="#F9C82E" width="17.6" height="3.2"/>
				<rect x="1038.4" y="902.4" fill="#F9C82E" width="64" height="3.2"/>
				<rect x="776" y="902.4" fill="#F9C82E" width="180.8" height="3.2"/>
				<rect x="776" y="910.4" fill="#F9C82E" width="52.8" height="3.2"/>
				<rect x="836.8" y="910.4" fill="#F9C82E" width="52.8" height="3.2"/>
				<rect x="894.4" y="910.4" fill="#F9C82E" width="144" height="3.2"/>
				<rect x="776" y="916.8" fill="#F9C82E" width="153.6" height="3.2"/>
				<rect x="934.4" y="916.8" fill="#F9C82E" width="20.8" height="3.2"/>
				<rect x="776" y="924.8" fill="#F9C82E" width="240" height="3.2"/>
				<rect x="776" y="932.8" fill="#F9C82E" width="57.6" height="3.2"/>
				<rect x="836.8" y="932.8" fill="#F9C82E" width="57.6" height="3.2"/>
				<rect x="897.6" y="932.8" fill="#F9C82E" width="22.4" height="3.2"/>
				<rect x="923.2" y="932.8" fill="#F9C82E" width="169.6" height="3.2"/>
				<rect x="1102.4" y="932.8" fill="#F9C82E" width="22.4" height="3.2"/>
				<rect x="776" y="940.8" fill="#F9C82E" width="187.2" height="3.2"/>
			</g>
			<circle fill="#FFFCF5" cx="1057.6" cy="560" r="6.4"/>
			<circle fill="#FFFCF5" cx="1084.8" cy="560" r="6.4"/>
			<circle fill="#FFFCF5" cx="1110.4" cy="560" r="6.4"/>
		</g>
		<g>
			<polygon fill="#D1D3D4" points="1110.4,1264 924.8,1372.8 1035.2,1166.4 			"/>
			<polygon fill="#FFFFFF" points="1110.4,1260.8 924.8,1369.6 1035.2,1163.2 			"/>
			<path fill="#BCBEC0" d="M657.6,1176l59.2,33.6c0,0-4.8,19.2,4.8,27.2s30.4,20.8,30.4,20.8l163.2,131.2l11.2,9.6l4.8,8
				c0,0,11.2,4.8,27.2-1.6c0,0,17.6-12.8,6.4-30.4l-8-16l-1.6-4.8c0,0-1.6-4.8,1.6-6.4c3.2-1.6,1.6,0,6.4,1.6l12.8,20.8
				c0,0,17.6,19.2,33.6,9.6c0,0,16-14.4,4.8-33.6l-11.2-17.6c0,0-1.6-6.4,1.6-8c3.2-1.6,8,1.6,8,1.6l11.2,22.4
				c0,0,20.8,22.4,35.2,12.8c11.2-6.4,12.8-19.2,1.6-38.4l-11.2-20.8c0,0-3.2-9.6,0-9.6c1.6-1.6,9.6,4.8,9.6,4.8l22.4,38.4
				c0,0,16,11.2,28.8,4.8c0,0,16-14.4,4.8-33.6s-20.8-35.2-20.8-35.2s-33.6-41.6-56-59.2l-113.6-96l9.6-22.4c-8-1.6-80-8-89.6-9.6
				c-22.4-1.6-30.4,11.2-43.2,14.4c-4.8,1.6-3.2,3.2-9.6,1.6c-9.6-3.2-56-32-56-32L657.6,1176z"/>
			<path fill="#FBDE82" d="M657.6,1174.4l59.2,33.6c0,0-4.8,19.2,4.8,27.2S752,1256,752,1256l163.2,131.2l11.2,9.6l4.8,8
				c0,0,11.2,4.8,27.2-1.6c0,0,17.6-12.8,6.4-30.4l-8-16l-1.6-4.8c0,0-1.6-4.8,1.6-6.4c3.2-1.6,1.6,0,6.4,1.6L976,1368
				c0,0,17.6,19.2,33.6,9.6c0,0,16-14.4,4.8-33.6l-11.2-17.6c0,0-1.6-6.4,1.6-8c3.2-1.6,8,1.6,8,1.6l12.8,22.4
				c0,0,20.8,22.4,35.2,12.8c11.2-6.4,12.8-19.2,1.6-38.4l-12.8-20.8c0,0-3.2-9.6,0-9.6c1.6-1.6,9.6,4.8,9.6,4.8l22.4,38.4
				c0,0,16,11.2,28.8,4.8c0,0,16-14.4,4.8-33.6c-9.6-20.8-20.8-36.8-20.8-36.8s-33.6-41.6-56-59.2l-113.6-96l9.6-22.4
				c-8-1.6-80-8-89.6-9.6c-22.4-1.6-30.4,11.2-41.6,14.4c-4.8,1.6-3.2,3.2-9.6,1.6c-9.6-3.2-56-32-56-32L657.6,1174.4z"/>
			<path fill="#BCBEC0" d="M801.6,1292.8c-9.6,8-24,6.4-33.6-3.2l0,0c-9.6-9.6-9.6-25.6,0-33.6l57.6-52.8c9.6-8,24-6.4,33.6,3.2l0,0
				c9.6,9.6,9.6,25.6,0,33.6L801.6,1292.8z"/>
			<path fill="#BCBEC0" d="M844.8,1334.4c-9.6,8-24,6.4-33.6-3.2l0,0c-9.6-9.6-9.6-25.6,0-33.6l56-51.2c9.6-8,24-6.4,33.6,3.2l0,0
				c9.6,9.6,9.6,25.6,0,33.6L844.8,1334.4z"/>
			<path fill="#BCBEC0" d="M884.8,1369.6c-8,8-22.4,6.4-30.4-3.2l0,0c-8-9.6-8-22.4,0-30.4l49.6-46.4c8-8,22.4-6.4,30.4,3.2l0,0
				c8,9.6,8,22.4,0,30.4L884.8,1369.6z"/>
			<path fill="#BCBEC0" d="M916.8,1404.8c-6.4,6.4-17.6,3.2-25.6-4.8l0,0c-8-8-9.6-20.8-3.2-25.6l38.4-35.2
				c6.4-6.4,17.6-3.2,25.6,4.8l0,0c8,8,9.6,20.8,3.2,25.6L916.8,1404.8z"/>
			<path fill="#FFFFFF" d="M800,1291.2c-9.6,8-24,6.4-33.6-3.2l0,0c-9.6-9.6-9.6-25.6,0-33.6l57.6-52.8c9.6-8,24-6.4,33.6,3.2l0,0
				c9.6,9.6,9.6,25.6,0,33.6L800,1291.2z"/>
			<path fill="#FFFFFF" d="M843.2,1332.8c-9.6,8-24,6.4-33.6-3.2l0,0c-9.6-9.6-9.6-25.6,0-33.6l56-51.2c9.6-8,24-6.4,33.6,3.2l0,0
				c9.6,9.6,9.6,25.6,0,33.6L843.2,1332.8z"/>
			<path fill="#FFFFFF" d="M881.6,1368c-8,8-22.4,6.4-30.4-3.2l0,0c-8-9.6-8-22.4,0-30.4l49.6-46.4c8-8,22.4-6.4,30.4,3.2l0,0
				c8,9.6,8,22.4,0,30.4L881.6,1368z"/>
			<path fill="#FFFFFF" d="M915.2,1403.2c-6.4,6.4-17.6,3.2-25.6-4.8l0,0c-8-8-9.6-20.8-3.2-25.6l38.4-35.2
				c6.4-6.4,17.6-3.2,25.6,4.8l0,0c8,8,9.6,20.8,3.2,25.6L915.2,1403.2z"/>
			<path fill="#BCBEC0" d="M1193.6,1187.2l-52.8-102.4c0,0-28.8,14.4-35.2,12.8c-28.8-6.4-105.6-22.4-128-19.2c-8,1.6-24,1.6-41.6,8
				c-56,22.4-129.6,68.8-129.6,68.8s32,33.6,68.8,12.8l72-40l97.6,83.2l49.6,51.2c0,0,14.4,3.2,20.8,0c14.4-8,28.8-41.6,28.8-41.6
				L1193.6,1187.2z"/>
			<path fill="#FFFFFF" d="M1192,1185.6l-52.8-102.4c0,0-28.8,14.4-35.2,12.8c-28.8-6.4-105.6-22.4-128-19.2c-8,1.6-24,1.6-41.6,8
				c-56,22.4-129.6,68.8-129.6,68.8s32,33.6,68.8,12.8l72-40l97.6,83.2l49.6,51.2c0,0,14.4,3.2,20.8,0c14.4-8,28.8-41.6,28.8-41.6
				L1192,1185.6z"/>
			
				<rect x="659.6" y="1030.9" transform="matrix(-0.8419 -0.5397 0.5397 -0.8419 678.2133 2444.45)" fill="#BCBEC0" width="75.2" height="184"/>
			
				<rect x="555" y="984" transform="matrix(-0.8418 -0.5398 0.5398 -0.8418 598.5717 2340.155)" fill="#BCBEC0" width="174.4" height="196.8"/>
			
				<rect x="660.8" y="1029.2" transform="matrix(-0.8419 -0.5397 0.5397 -0.8419 681.3297 2441.9673)" fill="#FFFFFF" width="75.2" height="184"/>
			
				<rect x="557" y="980.9" transform="matrix(-0.8418 -0.5398 0.5398 -0.8418 603.8752 2335.5916)" fill="#F56462" width="174.4" height="196.8"/>
			
				<rect x="529.8" y="1073.7" transform="matrix(-0.8418 -0.5398 0.5398 -0.8418 530.9272 2399.0056)" fill="#B84B4A" width="174.4" height="96"/>
			
				<rect x="1129.4" y="1035.8" transform="matrix(0.8855 -0.4646 0.4646 0.8855 -390.4079 671.2971)" fill="#D1D3D4" width="75.2" height="184"/>
			<path fill="#D1D3D4" d="M1102.4,1052.8l180.8-91.2L1376,1136l-180.8,91.2L1102.4,1052.8z"/>
			
				<rect x="1128.2" y="1034.3" transform="matrix(0.8855 -0.4646 0.4646 0.8855 -389.8004 670.5895)" fill="#113A52" width="75.2" height="184"/>
			<path fill="#EDEDED" d="M1100.8,1051.2l182.4-91.2l91.2,174.4l-180.8,91.2L1100.8,1051.2z"/>
			<path fill="#C4C4C4" d="M1140.8,1126.4l180.8-91.2l51.2,99.2l-180.8,91.2L1140.8,1126.4z"/>
		</g>
		<g>
			<g>
				<path fill="#BCBEC0" d="M572.8,792l-12.8-3.2l-3.2-12.8l9.6-9.6l0,0c-1.6-4.8-4.8-9.6-8-12.8l0,0l-12.8,4.8l-9.6-8l1.6-12.8l0,0
					c-4.8-3.2-9.6-4.8-14.4-6.4l0,0l-8,11.2l-12.8-1.6l-6.4-11.2l0,0c-3.2,0-4.8,1.6-8,1.6s-4.8,1.6-6.4,1.6l0,0v12.8l-11.2,6.4
					l-11.2-6.4l0,0c-3.2,3.2-6.4,8-9.6,11.2l0,0l8,11.2l-4.8,12.8L440,784l0,0c-1.6,4.8-1.6,9.6-1.6,16l0,0l12.8,3.2l3.2,12.8
					l-9.6,9.6l0,0c1.6,4.8,4.8,9.6,8,12.8l0,0l12.8-4.8l9.6,8l-1.6,12.8l0,0c4.8,3.2,9.6,4.8,14.4,6.4l0,0l8-12.8h12.8l6.4,11.2l0,0
					c3.2,0,4.8-1.6,8-1.6c3.2,0,4.8-1.6,8-1.6l0,0v-12.8l11.2-6.4l11.2,6.4l0,0c3.2-3.2,6.4-8,9.6-11.2l0,0l-8-9.6l4.8-12.8
					l12.8-1.6l0,0C572.8,801.6,572.8,796.8,572.8,792L572.8,792z M515.2,801.6c-3.2,4.8-9.6,6.4-14.4,3.2s-6.4-9.6-3.2-14.4
					c3.2-4.8,9.6-6.4,14.4-3.2C516.8,790.4,518.4,796.8,515.2,801.6z"/>
				<path fill="#BCBEC0" d="M609.6,729.6l-6.4-4.8v-8l6.4-3.2l0,0c0-3.2-1.6-6.4-1.6-8l0,0h-8l-4.8-6.4l3.2-6.4l0,0
					c-1.6-1.6-4.8-4.8-6.4-6.4l0,0l-6.4,4.8l-6.4-3.2l-1.6-8l0,0c-3.2,0-6.4,0-9.6,0l0,0v8l-8,1.6l-4.8-6.4l0,0
					c-1.6,0-3.2,1.6-4.8,1.6c-1.6,1.6-3.2,1.6-3.2,3.2l0,0l3.2,8l-6.4,6.4l-8-1.6l0,0c-1.6,3.2-3.2,6.4-3.2,8l0,0l6.4,4.8v8
					l-6.4,3.2l0,0c0,3.2,1.6,6.4,1.6,9.6l0,0h8l4.8,6.4l-3.2,6.4l0,0c1.6,1.6,4.8,4.8,6.4,6.4l0,0l6.4-4.8l8,3.2l1.6,8l0,0
					c3.2,0,6.4,0,9.6,0l0,0v-8l8-1.6l4.8,6.4l0,0c1.6,0,3.2-1.6,4.8-1.6c1.6-1.6,3.2-1.6,3.2-3.2l0,0l-3.2-8l4.8-6.4l8,1.6l0,0
					C608,734.4,609.6,732.8,609.6,729.6L609.6,729.6z M577.6,721.6c-1.6,3.2-4.8,4.8-8,4.8c-3.2-1.6-4.8-4.8-4.8-8
					c1.6-3.2,4.8-4.8,8-4.8C577.6,713.6,579.2,718.4,577.6,721.6z"/>
				<path fill="#BCBEC0" d="M462.4,723.2L464,736l0,0c4.8,1.6,11.2,1.6,16,1.6l0,0l3.2-12.8l12.8-3.2l9.6,9.6l0,0
					c1.6-1.6,4.8-3.2,6.4-3.2c1.6-1.6,4.8-3.2,6.4-4.8l0,0l-4.8-12.8l8-11.2l12.8,1.6l0,0c3.2-4.8,4.8-9.6,6.4-14.4l0,0l-11.2-8
					v-12.8l12.8-6.4l0,0c0-4.8-1.6-9.6-3.2-14.4l0,0h-12.8l-8-11.2l6.4-12.8l0,0c-3.2-3.2-8-8-12.8-9.6l0,0l-11.2,8l-12.8-4.8
					l-1.6-12.8l0,0c-4.8-1.6-11.2-1.6-16-1.6l0,0l-3.2,12.8l-12.8,3.2l-9.6-9.6l0,0c-3.2,1.6-4.8,3.2-6.4,4.8s-4.8,3.2-6.4,4.8l0,0
					l4.8,12.8l-8,11.2l-12.8-1.6l0,0c-3.2,4.8-4.8,9.6-6.4,14.4l0,0l11.2,8v12.8L408,680l0,0c0,4.8,1.6,9.6,4.8,16l0,0h12.8l8,11.2
					l-6.4,12.8l0,0c3.2,3.2,8,6.4,12.8,9.6l0,0l11.2-8L462.4,723.2z M478.4,659.2c6.4,1.6,9.6,8,6.4,14.4c-1.6,6.4-8,9.6-14.4,6.4
					c-6.4-1.6-9.6-8-6.4-14.4C467.2,660.8,473.6,657.6,478.4,659.2z"/>
			</g>
			<path fill="#043D5D" d="M534.4,857.6L534.4,857.6l-1.6-12.8l11.2-6.4l11.2,6.4l0,0c3.2-3.2,6.4-8,9.6-11.2l0,0l-8-9.6l4.8-12.8
				l12.8-1.6l0,0c1.6-4.8,1.6-9.6,1.6-14.4l0,0l-12.8-3.2l-3.2-16l9.6-9.6l0,0c-1.6-4.8-4.8-9.6-8-12.8l0,0l-12.8,4.8l-9.6-8
				l1.6-12.8l0,0c-4.8-3.2-9.6-4.8-14.4-6.4l0,0l-8,11.2l-12.8-1.6l-6.4-11.2l0,0c-3.2,0-4.8,1.6-8,1.6s-4.8,1.6-6.4,1.6l0,0v12.8
				l-11.2,6.4l-11.2-6.4l0,0c-3.2,3.2-6.4,8-9.6,11.2l0,0l8,11.2l-4.8,12.8l-12.8,3.2l0,0c-1.6,4.8-1.6,9.6-1.6,16l0,0l12.8,3.2
				l3.2,12.8l-9.6,9.6l0,0c1.6,4.8,4.8,9.6,8,12.8l0,0l12.8-4.8l9.6,8l-1.6,12.8l0,0c4.8,3.2,9.6,4.8,14.4,6.4l0,0l8-11.2H512
				l6.4,11.2l0,0c3.2,0,4.8-1.6,8-1.6S531.2,857.6,534.4,857.6z M472,804.8c-4.8-20.8,6.4-43.2,28.8-48c20.8-4.8,43.2,6.4,48,28.8
				c4.8,20.8-6.4,43.2-28.8,48C499.2,838.4,476.8,825.6,472,804.8z"/>
			<path fill="#ECF0F1" d="M532.8,761.6c-17.6-12.8-43.2-9.6-57.6,9.6c-12.8,17.6-9.6,43.2,9.6,57.6c17.6,12.8,43.2,9.6,57.6-9.6
				C555.2,800,552,774.4,532.8,761.6z M502.4,803.2c-4.8-3.2-6.4-9.6-3.2-14.4c3.2-4.8,9.6-6.4,14.4-3.2s6.4,9.6,3.2,14.4
				C515.2,806.4,507.2,808,502.4,803.2z"/>
			<path fill="#003E57" d="M529.6,768c-16-11.2-36.8-8-48,8s-8,36.8,8,48s36.8,8,48-8C548.8,800,545.6,777.6,529.6,768z
				 M502.4,803.2c-4.8-3.2-6.4-9.6-3.2-14.4c3.2-4.8,9.6-6.4,14.4-3.2s6.4,9.6,3.2,14.4C515.2,806.4,507.2,808,502.4,803.2z"/>
			<path fill="#F24141" d="M600,750.4L600,750.4l-3.2-8l4.8-6.4l8,1.6l0,0c1.6-3.2,3.2-6.4,3.2-8l0,0l-6.4-4.8v-8l6.4-3.2l0,0
				c0-3.2-1.6-6.4-1.6-8l0,0h-8l-4.8-6.4l3.2-6.4l0,0c-1.6-1.6-4.8-4.8-6.4-6.4l0,0l-6.4,4.8l-6.4-3.2l-1.6-8l0,0
				c-3.2,0-6.4,0-9.6,0l0,0l-1.6,8l-8,1.6l-4.8-6.4l0,0c-1.6,0-3.2,1.6-4.8,1.6c-1.6,1.6-3.2,1.6-3.2,3.2l0,0l3.2,8l-4.8,6.4l-8-1.6
				l0,0c-1.6,3.2-3.2,6.4-3.2,8l0,0l6.4,4.8v8l-6.4,3.2l0,0c0,3.2,1.6,6.4,1.6,9.6l0,0h8l4.8,6.4l-3.2,6.4l0,0
				c1.6,1.6,4.8,4.8,6.4,6.4l0,0l6.4-4.8l8,3.2l1.6,8l0,0c3.2,0,6.4,0,9.6,0l0,0l1.6-8l8-1.6l4.8,6.4l0,0c1.6,0,3.2-1.6,4.8-1.6
				C598.4,752,598.4,750.4,600,750.4z M555.2,731.2c-6.4-11.2-3.2-25.6,6.4-32c11.2-6.4,25.6-4.8,32,6.4c6.4,11.2,4.8,25.6-6.4,32
				C577.6,745.6,561.6,742.4,555.2,731.2z"/>
			<path fill="#EBEFF0" d="M582.4,696c-12.8-4.8-27.2,3.2-30.4,16c-4.8,12.8,3.2,27.2,16,30.4c12.8,4.8,27.2-3.2,30.4-16
				C601.6,713.6,595.2,699.2,582.4,696z M572.8,724.8c-3.2-1.6-4.8-4.8-4.8-8c1.6-3.2,4.8-4.8,8-4.8c3.2,1.6,4.8,4.8,4.8,8
				C579.2,724.8,576,726.4,572.8,724.8z"/>
			<path fill="#F24141" d="M580.8,699.2c-11.2-3.2-22.4,3.2-25.6,12.8c-3.2,11.2,3.2,22.4,12.8,25.6c11.2,3.2,22.4-3.2,25.6-12.8
				C598.4,713.6,592,702.4,580.8,699.2z M572.8,724.8c-3.2-1.6-4.8-4.8-4.8-8c1.6-3.2,4.8-4.8,8-4.8c3.2,1.6,4.8,4.8,4.8,8
				C579.2,724.8,576,726.4,572.8,724.8z"/>
			<path fill="#ECF0F1" d="M521.6,723.2L521.6,723.2l-4.8-12.8l8-11.2l12.8,1.6l0,0c3.2-4.8,4.8-9.6,6.4-14.4l0,0l-11.2-8v-12.8
				l12.8-6.4l0,0c0-4.8-1.6-9.6-3.2-14.4l0,0h-12.8l-8-11.2l6.4-12.8l0,0c-3.2-3.2-8-6.4-12.8-9.6l0,0l-11.2,8l-12.8-4.8l-1.6-12.8
				l0,0c-4.8-1.6-11.2-1.6-16-1.6l0,0l-3.2,12.8l-12.8,3.2l-9.6-6.4l0,0c-3.2,1.6-4.8,3.2-6.4,4.8s-4.8,3.2-6.4,4.8l0,0L440,632
				l-8,8l-12.8-1.6l0,0c-3.2,4.8-4.8,9.6-6.4,14.4l0,0l11.2,8v12.8l-12.8,6.4l0,0c0,4.8,1.6,9.6,4.8,16l0,0h12.8l8,11.2l-6.4,12.8
				l0,0c3.2,3.2,8,6.4,12.8,9.6l0,0l11.2-8l12.8,4.8l1.6,12.8l0,0c4.8,1.6,11.2,1.6,16,1.6l0,0L488,728l12.8-3.2l9.6,9.6l0,0
				c1.6-1.6,4.8-3.2,6.4-3.2C518.4,726.4,520,724.8,521.6,723.2z M444.8,692.8c-12.8-19.2-6.4-43.2,11.2-56
				c19.2-12.8,43.2-6.4,56,11.2c12.8,19.2,6.4,43.2-11.2,56C481.6,716.8,457.6,710.4,444.8,692.8z"/>
			<path fill="#043D5D" d="M491.2,630.4c-22.4-6.4-44.8,4.8-52.8,27.2c-6.4,22.4,4.8,44.8,27.2,52.8c22.4,6.4,44.8-4.8,52.8-27.2
				C524.8,660.8,513.6,636.8,491.2,630.4z M475.2,680c-6.4-1.6-9.6-8-6.4-14.4c1.6-6.4,8-9.6,14.4-6.4c6.4,1.6,9.6,8,6.4,14.4
				C488,678.4,481.6,681.6,475.2,680z"/>
			<path fill="#FFFCF5" d="M489.6,636.8c-19.2-6.4-38.4,4.8-43.2,22.4c-6.4,19.2,4.8,38.4,22.4,43.2c19.2,6.4,38.4-4.8,43.2-22.4
				C518.4,662.4,507.2,643.2,489.6,636.8z M475.2,680c-6.4-1.6-9.6-8-6.4-14.4c1.6-6.4,8-9.6,14.4-6.4c6.4,1.6,9.6,8,6.4,14.4
				C488,678.4,481.6,681.6,475.2,680z"/>
			<g>
				<g>
					<path fill="#939598" d="M473.6,683.2c-6.4-1.6-11.2-9.6-9.6-16s9.6-11.2,16-9.6c6.4,1.6,11.2,9.6,9.6,16
						C488,681.6,480,686.4,473.6,683.2z M480,660.8c-4.8-1.6-11.2,1.6-12.8,6.4c-1.6,4.8,1.6,11.2,6.4,12.8s11.2-1.6,12.8-6.4
						C488,668.8,484.8,662.4,480,660.8z"/>
				</g>
				<g>
					<path fill="#939598" d="M569.6,729.6c-4.8-1.6-8-6.4-6.4-11.2s6.4-8,11.2-6.4c4.8,1.6,8,6.4,6.4,11.2
						C580.8,728,576,729.6,569.6,729.6z M574.4,715.2c-3.2-1.6-6.4,0-6.4,3.2c-1.6,3.2,1.6,6.4,3.2,6.4c3.2,1.6,6.4-1.6,6.4-3.2
						C579.2,718.4,577.6,715.2,574.4,715.2z"/>
				</g>
				<g>
					<path fill="#939598" d="M504,809.6c-8-1.6-12.8-9.6-9.6-17.6c1.6-8,9.6-12.8,17.6-9.6c8,1.6,12.8,9.6,9.6,17.6
						C520,808,512,811.2,504,809.6z M512,785.6c-6.4-1.6-11.2,1.6-12.8,8c-1.6,6.4,1.6,11.2,8,12.8c6.4,1.6,11.2-1.6,12.8-8
						C520,793.6,516.8,787.2,512,785.6z"/>
				</g>
				<g>
					
						<rect x="416.2" y="735" transform="matrix(-0.2318 -0.9728 0.9728 -0.2318 -124.0805 1375.1995)" fill="#939598" width="129.6" height="3.2"/>
				</g>
				<g>
					
						<rect x="440" y="725.7" transform="matrix(-0.2426 -0.9701 0.9701 -0.2426 -80.2253 1391.9153)" fill="#939598" width="126.4" height="3.2"/>
				</g>
				<g>
					
						<rect x="533" y="700.6" transform="matrix(-0.7285 -0.685 0.685 -0.7285 410.6207 1661.6116)" fill="#939598" width="3.2" height="97.6"/>
				</g>
				<g>
					
						<rect x="546.2" y="710.2" transform="matrix(-0.7913 -0.6114 0.6114 -0.7913 514.7728 1701.7178)" fill="#939598" width="3.2" height="105.6"/>
				</g>
			</g>
		</g>
		<g>
			<g>
				<path fill="#A7A9AC" d="M1468.8,676.8v-9.6h-51.2l0,0l-65.6-57.6l0,0c0-3.2-1.6-4.8-4.8-4.8c-3.2,0-4.8,1.6-4.8,4.8
					c0,0,0,0,0,1.6l-65.6,57.6H1232v9.6h8V776v3.2v14.4h-8v9.6h236.8v-9.6h-8V678.4h8V676.8z M1345.6,612.8c1.6,1.6,1.6,1.6,3.2,1.6
					s3.2,0,3.2-1.6l62.4,54.4h-132.8L1345.6,612.8z"/>
				<g>
					<g>
						<polygon fill="#FFFCF5" points="1280,667.2 1280,665.6 1350.4,604.8 1419.2,665.6 1417.6,667.2 1350.4,608 						"/>
					</g>
					<circle fill="#231F20" cx="1348.8" cy="608" r="4.8"/>
					<circle fill="#FFFCF5" cx="1348.8" cy="608" r="1.6"/>
					<g>
						<polygon fill="#FFFCF5" points="1280,667.2 1280,665.6 1350.4,604.8 1419.2,665.6 1417.6,667.2 1350.4,608 						"/>
					</g>
					<circle fill="#231F20" cx="1348.8" cy="608" r="4.8"/>
					<circle fill="#FFFCF5" cx="1348.8" cy="608" r="1.6"/>
					<g>
						<rect x="1241.6" y="673.6" fill="#FFF7EB" width="219.2" height="118.4"/>
						<rect x="1233.6" y="665.6" fill="#003E57" width="236.8" height="9.6"/>
						<rect x="1233.6" y="790.4" fill="#003E57" width="236.8" height="9.6"/>
					</g>
				</g>
				<g>
					<g>
						<polygon fill="#808285" points="1241.6,776 1241.6,771.2 1297.6,731.2 1316.8,763.2 1366.4,718.4 1388.8,750.4 1504,662.4 
							1505.6,665.6 1387.2,755.2 1364.8,723.2 1316.8,769.6 1296,736 						"/>
					</g>
					<polygon fill="#808285" points="1512,657.6 1508.8,667.2 1505.6,675.2 1499.2,667.2 1494.4,660.8 1502.4,659.2 					"/>
				</g>
				<g>
					<g>
						<polygon fill="#E84C3D" points="1241.6,776 1241.6,771.2 1297.6,731.2 1316.8,763.2 1364.8,718.4 1388.8,748.8 1502.4,660.8 
							1505.6,662.4 1387.2,753.6 1364.8,723.2 1316.8,768 1296,736 						"/>
					</g>
					<polygon fill="#E84C3D" points="1510.4,656 1507.2,664 1504,672 1499.2,665.6 1492.8,657.6 1502.4,657.6 					"/>
				</g>
			</g>
			<g>
				<g>
					<path fill="#A7A9AC" d="M1470.4,806.4l-35.2-35.2c-1.6-1.6-3.2,0-4.8,1.6l-3.2-3.2c11.2-17.6,9.6-40-4.8-56
						c-17.6-17.6-44.8-17.6-60.8,0l0,0l0,0c-17.6,17.6-17.6,44.8,0,62.4c1.6,1.6,1.6,1.6,3.2,3.2c0,0,0,0,1.6,1.6l1.6,1.6
						c0,0,1.6,0,1.6,1.6l1.6,1.6c0,0,1.6,0,1.6,1.6c0,0,1.6,0,1.6,1.6h1.6h1.6h1.6h1.6h1.6h1.6c0,0,1.6,0,3.2,0l0,0
						c3.2,0,6.4,0,11.2,0l0,0c1.6,0,1.6,0,3.2,0l0,0c1.6,0,1.6,0,3.2-1.6l0,0c3.2-3.2,3.2-3.2,4.8-3.2l0,0c1.6,0,1.6-1.6,3.2-1.6
						l0,0c1.6,0,1.6-1.6,3.2-1.6l0,0l3.2,3.2c-1.6,1.6-1.6,3.2-1.6,4.8l0,0l0,0l0,0l35.2,35.2c1.6,1.6,3.2,0,4.8-1.6l6.4-6.4l0,0
						l4.8-4.8C1472,809.6,1472,808,1470.4,806.4z M1368,720c12.8-12.8,33.6-12.8,46.4,0s12.8,33.6,0,46.4
						c-12.8,12.8-33.6,12.8-46.4,0C1355.2,755.2,1355.2,734.4,1368,720z"/>
					<path fill="#A7A9AC" d="M1371.2,761.6c1.6-1.6,1.6-3.2,1.6-4.8c-4.8-9.6-3.2-22.4,4.8-30.4c1.6-1.6,1.6-3.2,0-4.8
						s-3.2-1.6-4.8,0c-9.6,9.6-11.2,25.6-6.4,36.8C1368,761.6,1369.6,763.2,1371.2,761.6z"/>
				</g>
				<path fill="#043D5D" d="M1363.2,712c-17.6,17.6-17.6,44.8,0,62.4c17.6,17.6,44.8,17.6,62.4,0s17.6-44.8,0-62.4
					C1408,694.4,1379.2,694.4,1363.2,712z M1417.6,766.4c-12.8,12.8-33.6,12.8-46.4,0s-12.8-33.6,0-46.4c12.8-12.8,33.6-12.8,46.4,0
					S1430.4,753.6,1417.6,766.4z"/>
				
					<rect x="1417.8" y="772.6" transform="matrix(-0.7068 0.7074 -0.7074 -0.7068 2981.7915 314.2598)" fill="#023346" width="16" height="4.8"/>
				<path fill="#FFF7EB" d="M1472,804.8c1.6,1.6,0,3.2-1.6,4.8l-11.2,11.2c-1.6,1.6-4.8,1.6-4.8,1.6l-35.2-35.2
					c-1.6-1.6,0-3.2,1.6-4.8l11.2-11.2c1.6-1.6,4.8-1.6,4.8-1.6L1472,804.8z"/>
				<path fill="#FFFCF5" d="M1374.4,755.2c1.6,1.6,0,4.8-1.6,4.8l0,0c-1.6,1.6-4.8,0-4.8-1.6c-6.4-12.8-3.2-27.2,6.4-36.8
					c1.6-1.6,4.8-1.6,4.8,0l0,0c1.6,1.6,1.6,3.2,0,4.8C1372.8,734.4,1369.6,745.6,1374.4,755.2z"/>
				<path fill="#D1D3D4" d="M1416,766.4C1416,766.4,1414.4,766.4,1416,766.4c-12.8,12.8-33.6,12.8-46.4,0s-12.8-33.6,0-46.4l0,0
					l-8-8l0,0c-17.6,17.6-17.6,44.8,0,62.4c14.4,16,38.4,17.6,56,4.8l3.2,3.2c-1.6,1.6-1.6,3.2-1.6,4.8l35.2,35.2
					c1.6,1.6,3.2,0,4.8-1.6l6.4-6.4L1416,766.4z"/>
			</g>
		</g>
		<g>
			<path fill="#A7A9AC" d="M1004.8,376c0-17.6-14.4-32-32-32h-22.4l-6.4-9.6c1.6-1.6,1.6-1.6,3.2-3.2c1.6-3.2,3.2-4.8,4.8-8
				c3.2-4.8,4.8-9.6,8-14.4c1.6-1.6,1.6-4.8,3.2-6.4c0-1.6,1.6-4.8,1.6-6.4s1.6-3.2,1.6-6.4c0-1.6,0-3.2,1.6-4.8
				c0-3.2,0-4.8,1.6-6.4c0-1.6,0-3.2,0-3.2s0,0,0,1.6v-1.6l0,0c0,0,1.6-59.2-48-59.2c-4.8,0-3.2-3.2-3.2-3.2s-6.4,3.2-8,3.2
				c-20.8,0-43.2,0-48,38.4l0,0v1.6c0,1.6,0,3.2-1.6,6.4c0,1.6,0,3.2,0,4.8c0,1.6,0,3.2,0,6.4c0,4.8,0,8,1.6,14.4
				c0,1.6,1.6,4.8,1.6,6.4l0,0l0,0c0,3.2,1.6,6.4,3.2,9.6c1.6,4.8,4.8,11.2,8,16c1.6,3.2,3.2,4.8,4.8,8s4.8,4.8,6.4,8
				c1.6,1.6,3.2,1.6,3.2,3.2c-3.2-3.2-4.8-3.2-4.8-3.2l-4.8,8h-19.2c-17.6,0-32,14.4-32,32c0,0-22.4,57.6-11.2,72
				c35.2,41.6,166.4,38.4,198.4,0c0,0,0,0-1.6,1.6l1.6-1.6l0,0C1027.2,432,1004.8,376,1004.8,376z M916.8,350.4L916.8,350.4
				L916.8,350.4L916.8,350.4z M937.6,340.8l1.6-1.6c1.6-1.6,3.2-3.2,3.2-3.2C942.4,337.6,940.8,339.2,937.6,340.8z M862.4,254.4
				L862.4,254.4C860.8,254.4,860.8,254.4,862.4,254.4C860.8,254.4,860.8,254.4,862.4,254.4L862.4,254.4z M860.8,257.6
				c0,1.6,0,1.6,0,3.2C860.8,259.2,860.8,257.6,860.8,257.6z"/>
			
				<linearGradient id="SVGID_1_" gradientUnits="userSpaceOnUse" x1="53.8651" y1="1572.0752" x2="54.002" y2="1572.193" gradientTransform="matrix(16 0 0 -16 160 25600)">
				<stop  offset="0" style="stop-color:#FFFFFF"/>
				<stop  offset="0.1417" style="stop-color:#F8F8F9"/>
				<stop  offset="0.3438" style="stop-color:#E5E6E6"/>
				<stop  offset="0.5822" style="stop-color:#C7C8C9"/>
				<stop  offset="0.8461" style="stop-color:#9C9EA0"/>
				<stop  offset="1" style="stop-color:#808285"/>
			</linearGradient>
			<path fill="url(#SVGID_1_)" d="M1022.4,446.4L1022.4,446.4L1022.4,446.4L1022.4,446.4C1024,444.8,1024,444.8,1022.4,446.4z"/>
			<path fill="#113A52" d="M1022.4,446.4c11.2-14.4-11.2-72-11.2-72c0-17.6-14.4-32-32-32h-22.4c-1.6,1.6-1.6,1.6-3.2,3.2
				c-1.6,1.6-4.8,4.8-6.4,6.4c-4.8,4.8-11.2,8-17.6,9.6c-6.4,1.6-14.4,1.6-20.8-1.6c-6.4-1.6-12.8-6.4-17.6-11.2
				c-3.2-1.6-4.8-4.8-6.4-8l0,0h-19.2c-17.6,0-32,14.4-32,32c0,0-22.4,57.6-11.2,72C859.2,488,990.4,483.2,1022.4,446.4z"/>
			<path fill="#FFFCF5" d="M950.4,332.8c-4.8,8-30.4,16-30.4,16c-27.2-9.6-28.8-14.4-28.8-14.4l-4.8,8l35.2,38.4l35.2-38.4
				L950.4,332.8z"/>
			
				<linearGradient id="SVGID_2_" gradientUnits="userSpaceOnUse" x1="44.2215" y1="1583.8895" x2="44.4401" y2="1584.0775" gradientTransform="matrix(16 0 0 -16 160 25600)">
				<stop  offset="0.3917" style="stop-color:#FFFFFF"/>
				<stop  offset="0.5643" style="stop-color:#FAFBFB"/>
				<stop  offset="0.7553" style="stop-color:#EDEEEE"/>
				<stop  offset="0.9545" style="stop-color:#D7D9DA"/>
				<stop  offset="1" style="stop-color:#D1D3D4"/>
			</linearGradient>
			<path fill="url(#SVGID_2_)" d="M868.8,259.2c0-1.6,0-4.8,1.6-6.4l0,0v1.6C868.8,256,868.8,257.6,868.8,259.2z"/>
			<path fill="#FFFFFF" d="M974.4,278.4c0-4.8,0-9.6-1.6-12.8L899.2,232l-25.6,14.4c0,0-3.2,3.2-3.2,14.4c0-1.6,0-3.2,0-3.2
				c0-1.6,0-3.2,0-3.2s0,1.6,0,3.2c0,1.6,0,3.2,0,6.4c0,1.6,0,3.2,0,4.8c0,1.6,0,3.2,0,6.4c0,4.8,0,8,1.6,14.4
				c0,1.6,1.6,4.8,1.6,6.4l0,0l0,0c0,3.2,1.6,6.4,3.2,9.6c1.6,4.8,4.8,11.2,8,16c1.6,3.2,3.2,4.8,4.8,8s4.8,4.8,6.4,8
				c1.6,1.6,3.2,3.2,6.4,4.8l0,0l0,0c3.2,3.2,6.4,4.8,11.2,6.4c6.4,3.2,14.4,3.2,20.8,1.6c6.4-1.6,12.8-6.4,17.6-9.6
				c3.2-1.6,4.8-4.8,6.4-6.4c1.6-3.2,3.2-4.8,4.8-8c3.2-4.8,4.8-9.6,8-14.4c1.6-1.6,1.6-4.8,3.2-6.4c0-1.6,1.6-4.8,1.6-6.4
				s1.6-3.2,1.6-6.4c0-1.6,0-3.2,1.6-4.8C974.4,281.6,974.4,280,974.4,278.4s0-1.6,0-1.6S974.4,276.8,974.4,278.4z"/>
			<g opacity="0.7">
				<g>
					<path fill="#FFFFFF" fill-opacity="0" d="M966.4,310.4c1.6,0,0,6.4-4.8,16c0,1.6-1.6,3.2-1.6,3.2l-1.6,1.6v1.6c0,0,0,0,0,1.6
						c-1.6,3.2-4.8,4.8-6.4,8c-8,4.8-16,9.6-24,11.2c-6.4,1.6-12.8,0-17.6-1.6s-9.6-4.8-12.8-8l0,0c-8-6.4-11.2-12.8-14.4-16
						c-3.2-4.8-3.2-8-3.2-8s3.2,1.6,6.4,4.8c1.6,1.6,1.6,1.6,3.2,3.2c1.6,1.6,1.6,1.6,3.2,3.2c1.6,1.6,3.2,1.6,3.2,3.2l1.6,1.6
						l1.6,1.6l0,0l0,0l0,0c0,0,0,1.6-1.6,1.6l1.6-1.6c3.2,1.6,6.4,4.8,11.2,4.8c4.8,1.6,9.6,1.6,14.4,0c6.4-1.6,12.8-4.8,17.6-9.6
						c3.2-1.6,4.8-4.8,6.4-6.4c1.6-1.6,1.6-1.6,3.2-3.2c1.6-1.6,1.6-1.6,3.2-3.2C961.6,315.2,964.8,308.8,966.4,310.4z"/>
					<path opacity="2.439100e-002" fill="#F9F9F9" enable-background="new    " d="M966.4,310.4c1.6,0,0,6.4-6.4,16
						c0,1.6-1.6,3.2-1.6,3.2s0,1.6-1.6,1.6v1.6c0,0,0,1.6-1.6,1.6c-1.6,3.2-4.8,4.8-6.4,8c-4.8,4.8-12.8,9.6-20.8,11.2
						c-6.4,1.6-12.8,0-17.6-1.6s-9.6-4.8-12.8-8l0,0c-8-6.4-11.2-11.2-12.8-16s-3.2-6.4-3.2-8c0,0,3.2,1.6,6.4,4.8
						c1.6,1.6,3.2,3.2,6.4,6.4c1.6,1.6,1.6,1.6,3.2,3.2l1.6,1.6l1.6,1.6l0,0l0,0l0,0c0,0,0,1.6-1.6,1.6l1.6-1.6
						c3.2,1.6,6.4,4.8,11.2,4.8c4.8,1.6,9.6,1.6,14.4,0c6.4-1.6,12.8-4.8,17.6-9.6c3.2-1.6,4.8-4.8,6.4-6.4l0,0v-1.6l1.6-1.6
						c1.6-1.6,1.6-1.6,3.2-3.2C961.6,316.8,964.8,310.4,966.4,310.4z"/>
					<path opacity="4.878100e-002" fill="#F3F3F3" enable-background="new    " d="M964.8,312c1.6,0,0,6.4-6.4,16
						c0,1.6-1.6,1.6-1.6,3.2c0,0,0,1.6-1.6,1.6l0,0l0,0v1.6c-1.6,1.6-4.8,4.8-6.4,8c-4.8,4.8-12.8,9.6-20.8,11.2
						c-6.4,1.6-12.8,0-17.6-1.6s-9.6-4.8-12.8-8l0,0c-1.6,0-1.6-1.6-1.6-1.6l-1.6-1.6l-1.6-1.6c-1.6-1.6-3.2-3.2-3.2-3.2
						c-1.6-3.2-3.2-4.8-4.8-6.4c-1.6-4.8-3.2-6.4-1.6-6.4c0,0,3.2,1.6,4.8,4.8c1.6,1.6,3.2,3.2,4.8,4.8c1.6,1.6,1.6,1.6,3.2,3.2
						l1.6,1.6h1.6l0,0l0,0l0,0c0,0,0,1.6-1.6,1.6l1.6-1.6c3.2,1.6,6.4,4.8,11.2,6.4s9.6,1.6,14.4,0c6.4-1.6,12.8-4.8,17.6-8
						c3.2-1.6,4.8-3.2,6.4-6.4l0,0l0,0l0,0l1.6-1.6c1.6-1.6,1.6-1.6,3.2-3.2C961.6,316.8,964.8,312,964.8,312z"/>
					<path opacity="7.317100e-002" fill="#ECECEC" enable-background="new    " d="M964.8,313.6c1.6,0,0,6.4-6.4,16
						c-3.2,4.8-6.4,9.6-11.2,14.4s-12.8,9.6-20.8,9.6c-6.4,1.6-12.8,0-17.6-1.6s-9.6-4.8-12.8-8l0,0c-1.6,0-1.6-1.6-1.6-1.6
						l-1.6-1.6l-1.6-1.6c-1.6-1.6-1.6-3.2-3.2-3.2c-1.6-3.2-3.2-4.8-4.8-6.4c-1.6-4.8-3.2-6.4-3.2-6.4s3.2,1.6,4.8,4.8
						c1.6,1.6,3.2,3.2,4.8,4.8c1.6,1.6,1.6,1.6,3.2,3.2l1.6,1.6h1.6l0,0l0,0l0,0l0,0v1.6l1.6-1.6c3.2,1.6,6.4,4.8,11.2,4.8
						c4.8,1.6,9.6,1.6,14.4,0c6.4-1.6,12.8-4.8,17.6-8c3.2-1.6,4.8-3.2,6.4-6.4l1.6-1.6l1.6-1.6c1.6-1.6,1.6-1.6,3.2-3.2
						C961.6,318.4,963.2,312,964.8,313.6z"/>
					<path opacity="9.756100e-002" fill="#E6E6E6" enable-background="new    " d="M964.8,313.6c1.6,0,0,6.4-6.4,14.4
						c0,1.6-1.6,1.6-1.6,3.2v1.6c0,0,0,0,0,1.6l-1.6,1.6c-1.6,1.6-4.8,4.8-6.4,6.4c-6.4,4.8-12.8,9.6-20.8,9.6
						c-6.4,1.6-12.8,0-17.6-1.6s-9.6-4.8-12.8-8l0,0c-1.6,0-1.6,0-1.6-1.6l-1.6-1.6l-1.6-1.6c-1.6-1.6-1.6-1.6-3.2-3.2
						c-1.6-1.6-3.2-4.8-4.8-6.4c-1.6-3.2-3.2-6.4-1.6-6.4c0,0,1.6,1.6,4.8,4.8c1.6,1.6,3.2,3.2,4.8,4.8c1.6,3.2,3.2,4.8,3.2,4.8
						l1.6,1.6h1.6l0,0l0,0l0,0l0,0v1.6l1.6-1.6c3.2,1.6,6.4,4.8,11.2,6.4s9.6,1.6,14.4,0c6.4-1.6,12.8-4.8,17.6-8
						c3.2-1.6,4.8-3.2,6.4-6.4l1.6-1.6l0,0l0,0c1.6-1.6,1.6-1.6,3.2-3.2C960,318.4,963.2,313.6,964.8,313.6z"/>
					<path opacity="0.122" fill="#E0E0E0" enable-background="new    " d="M963.2,315.2c1.6,0,0,6.4-6.4,14.4c0,1.6-1.6,1.6-1.6,3.2
						c-1.6,1.6-1.6,1.6-3.2,3.2c-1.6,1.6-4.8,4.8-6.4,6.4c-3.2,4.8-9.6,9.6-17.6,9.6c-6.4,1.6-12.8,0-17.6-1.6s-9.6-4.8-12.8-8l0,0
						c-1.6,0-1.6,0-1.6-1.6l-1.6-1.6l-1.6-1.6c-1.6-1.6-1.6-1.6-3.2-3.2c-1.6-1.6-3.2-4.8-4.8-6.4c-1.6-3.2-3.2-6.4-1.6-6.4
						c0,0,1.6,1.6,4.8,3.2c1.6,1.6,3.2,3.2,4.8,4.8c1.6,4.8,3.2,6.4,3.2,6.4l1.6,1.6h1.6l0,0l0,0l0,0l0,0l0,0l1.6-1.6
						c3.2,1.6,6.4,4.8,11.2,4.8c4.8,1.6,9.6,1.6,14.4,0c6.4-1.6,12.8-4.8,16-8c1.6-1.6,4.8-3.2,6.4-4.8c1.6-1.6,1.6-1.6,3.2-3.2
						c1.6-1.6,1.6-1.6,3.2-3.2C960,320,963.2,315.2,963.2,315.2z"/>
					<path opacity="0.1463" fill="#DADADA" enable-background="new    " d="M963.2,316.8c0,0,0,6.4-6.4,14.4c0,1.6-1.6,1.6-1.6,3.2
						s-1.6,1.6-3.2,3.2c-1.6,1.6-4.8,4.8-6.4,6.4c-4.8,4.8-11.2,8-19.2,9.6c-6.4,1.6-12.8,0-17.6-1.6s-9.6-4.8-12.8-8l0,0
						c-1.6,0-1.6,0-1.6-1.6l-1.6-1.6l-1.6-1.6c-1.6-1.6-1.6-1.6-3.2-3.2c-1.6-1.6-3.2-3.2-4.8-4.8c0-1.6-1.6-1.6-1.6-1.6s0,0,0-1.6
						l0,0c0-1.6,0-1.6,0-1.6s0,0,1.6,0l0,0l0,0l1.6,1.6c1.6,1.6,3.2,3.2,4.8,4.8c1.6,1.6,1.6,1.6,3.2,3.2l1.6,1.6h1.6l0,0l0,0l0,0
						l0,0l0,0l1.6-1.6c3.2,1.6,6.4,4.8,11.2,4.8c4.8,1.6,9.6,1.6,14.4,0c6.4-1.6,11.2-4.8,16-8c1.6-1.6,4.8-3.2,6.4-4.8
						c1.6-1.6,1.6-1.6,3.2-3.2c0,0,1.6-1.6,1.6-3.2C960,321.6,963.2,315.2,963.2,316.8z"/>
					<path opacity="0.1707" fill="#D3D3D3" enable-background="new    " d="M963.2,316.8c0,0,0,6.4-6.4,14.4c0,0,0,1.6-1.6,1.6
						c0,0,0,0,0,1.6l0,0c0,1.6-1.6,1.6-3.2,3.2c-1.6,1.6-4.8,4.8-6.4,6.4c-4.8,3.2-11.2,8-19.2,9.6c-6.4,1.6-12.8,0-17.6-1.6
						s-9.6-4.8-12.8-8l0,0l0,0l0,0h-1.6l-1.6-1.6c-1.6-1.6-1.6-1.6-3.2-3.2c-1.6-1.6-3.2-3.2-3.2-4.8c-1.6-3.2-3.2-4.8-1.6-4.8
						c0,0,1.6,1.6,4.8,3.2c1.6,1.6,3.2,3.2,4.8,4.8c1.6,0,1.6,1.6,3.2,1.6c0,0,1.6,0,1.6,1.6h1.6l0,0l0,0l0,0l0,0l0,0l1.6-1.6
						c3.2,1.6,6.4,4.8,11.2,6.4s9.6,1.6,14.4,0c6.4-1.6,11.2-3.2,16-8c1.6-1.6,4.8-3.2,6.4-4.8c1.6-1.6,1.6-1.6,3.2-3.2l0,0l0,0
						c0,0,0-1.6,1.6-1.6C958.4,321.6,961.6,316.8,963.2,316.8z"/>
					<path opacity="0.1951" fill="#CDCDCD" enable-background="new    " d="M961.6,318.4c0,0-1.6,6.4-6.4,12.8
						c-1.6,1.6-3.2,3.2-4.8,6.4c-1.6,1.6-3.2,4.8-6.4,6.4c-4.8,3.2-11.2,8-17.6,8c-6.4,1.6-12.8,0-17.6-1.6s-9.6-4.8-12.8-8l0,0
						c-9.6-8-12.8-14.4-11.2-16c0,0,1.6,0,4.8,3.2c1.6,1.6,3.2,1.6,4.8,3.2c1.6,0,1.6,1.6,3.2,1.6c0,0,1.6,0,1.6,1.6l0,0l0,0l0,0
						l0,0l0,0l0,0l1.6-1.6c3.2,1.6,6.4,4.8,11.2,4.8c4.8,1.6,9.6,1.6,14.4,0c11.2-1.6,20.8-11.2,27.2-17.6
						C958.4,323.2,961.6,318.4,961.6,318.4z"/>
					<path opacity="0.2195" fill="#C7C7C7" enable-background="new    " d="M961.6,320c0,0-1.6,6.4-6.4,12.8
						c-3.2,3.2-6.4,8-11.2,11.2s-11.2,6.4-17.6,8c-6.4,1.6-12.8,0-17.6-1.6s-9.6-4.8-12.8-8l0,0c-9.6-8-11.2-14.4-11.2-14.4
						s1.6,0,4.8,3.2c1.6,1.6,3.2,1.6,4.8,3.2c1.6,0,1.6,1.6,3.2,1.6c0,0,1.6,0,1.6,1.6l0,0l0,0l0,0l0,0l0,0l0,0l0,0l0,0
						c3.2,1.6,6.4,4.8,11.2,4.8c4.8,1.6,9.6,1.6,14.4,0c11.2-1.6,20.8-9.6,25.6-16C958.4,323.2,961.6,320,961.6,320z"/>
					<path opacity="0.2439" fill="#C1C1C1" enable-background="new    " d="M961.6,320c0,0-1.6,4.8-6.4,12.8
						c-3.2,3.2-6.4,8-11.2,11.2s-11.2,6.4-17.6,8c-6.4,1.6-12.8,0-17.6-1.6s-9.6-4.8-12.8-8l0,0c-8-6.4-11.2-12.8-9.6-12.8
						c0,0,1.6,0,3.2,3.2c1.6,1.6,1.6,1.6,3.2,3.2c0,0,1.6,1.6,3.2,1.6c0,0,1.6,0,1.6,1.6l0,0l0,0l0,0c0,0,0,0,0,1.6l0,0
						c3.2,1.6,6.4,4.8,11.2,4.8c4.8,1.6,9.6,1.6,14.4,0c11.2-1.6,20.8-9.6,25.6-16C956.8,324.8,960,320,961.6,320z"/>
					<path opacity="0.2683" fill="#BBBBBB" enable-background="new    " d="M960,321.6c0,0-1.6,4.8-6.4,12.8
						c-3.2,3.2-6.4,6.4-9.6,11.2c-4.8,3.2-9.6,6.4-17.6,8c-6.4,1.6-12.8,0-17.6-1.6s-9.6-4.8-12.8-8l0,0c-8-6.4-9.6-11.2-9.6-12.8
						c0,0,1.6,0,3.2,1.6c1.6,0,1.6,1.6,3.2,3.2l1.6,1.6c0,0,1.6,0,1.6,1.6l0,0l0,0l0,0l0,0l0,0c3.2,1.6,6.4,4.8,11.2,4.8
						c4.8,1.6,9.6,1.6,14.4,0c11.2-1.6,19.2-9.6,25.6-14.4C956.8,324.8,960,321.6,960,321.6z"/>
					<path opacity="0.2927" fill="#B4B4B4" enable-background="new    " d="M960,323.2c0,0-1.6,4.8-6.4,11.2
						c-3.2,3.2-6.4,6.4-9.6,9.6c-4.8,3.2-9.6,6.4-16,8s-12.8,0-17.6-1.6s-9.6-4.8-12.8-8l0,0c-3.2-3.2-6.4-6.4-8-8s-1.6-3.2-1.6-3.2
						s1.6,0,3.2,1.6c1.6,0,1.6,1.6,3.2,3.2l1.6,1.6c0,0,0,0,1.6,1.6l0,0l0,0l0,0l0,0l0,0c3.2,1.6,6.4,4.8,11.2,4.8
						c4.8,1.6,9.6,1.6,14.4,1.6c11.2-1.6,19.2-9.6,24-14.4C956.8,326.4,958.4,321.6,960,323.2z"/>
					<path opacity="0.3171" fill="#AEAEAE" enable-background="new    " d="M960,323.2c0,0-1.6,4.8-6.4,11.2
						c-3.2,3.2-6.4,6.4-9.6,9.6c-4.8,3.2-9.6,6.4-16,6.4c-6.4,1.6-12.8,0-17.6-1.6s-9.6-4.8-12.8-8l0,0c-3.2-3.2-4.8-4.8-6.4-6.4
						c-1.6-1.6-1.6-3.2-1.6-3.2s1.6,0,3.2,1.6c1.6,0,1.6,1.6,3.2,1.6l1.6,1.6c0,0,0,0,1.6,0l0,0l0,0l0,0l0,0l0,0
						c3.2,1.6,6.4,4.8,11.2,4.8c4.8,1.6,9.6,1.6,14.4,1.6c11.2-1.6,19.2-9.6,24-14.4C955.2,328,958.4,323.2,960,323.2z"/>
					<path opacity="0.3415" fill="#A8A8A8" enable-background="new    " d="M958.4,324.8c0,0-1.6,4.8-6.4,11.2
						c-3.2,3.2-6.4,6.4-9.6,9.6c-4.8,3.2-9.6,6.4-16,6.4c-6.4,1.6-12.8,0-17.6-1.6s-9.6-4.8-12.8-8l0,0c-1.6-1.6-3.2-3.2-3.2-3.2
						c-1.6-1.6-1.6-1.6-1.6-3.2c-1.6-1.6-1.6-3.2-1.6-3.2s1.6,0,3.2,1.6c1.6,0,1.6,1.6,3.2,1.6c0,0,1.6,0,1.6,1.6c0,0,0,0,1.6,0l0,0
						l0,0l0,0l0,0l0,0l0,0l0,0c3.2,1.6,6.4,4.8,11.2,4.8c4.8,1.6,9.6,1.6,14.4,1.6c9.6-1.6,17.6-8,24-12.8
						C955.2,328,958.4,324.8,958.4,324.8z"/>
					<path opacity="0.3659" fill="#A2A2A2" enable-background="new    " d="M958.4,326.4c0,0,0,1.6-1.6,3.2c0,1.6-1.6,1.6-1.6,3.2
						c-1.6,1.6-1.6,3.2-3.2,4.8c-3.2,3.2-4.8,6.4-9.6,9.6s-9.6,4.8-14.4,6.4c-6.4,1.6-12.8,0-17.6-1.6s-9.6-4.8-11.2-8l0,0
						c-4.8-4.8-6.4-8-6.4-8s1.6,0,3.2,1.6c0,0,1.6,1.6,3.2,1.6c0,0,1.6,0,1.6,1.6h1.6l0,0l0,0l0,0l0,0l0,0l0,0
						c3.2,1.6,6.4,4.8,11.2,4.8c4.8,1.6,9.6,1.6,16,1.6c9.6-1.6,17.6-8,22.4-12.8c1.6-1.6,1.6-1.6,3.2-3.2c1.6-1.6,1.6-1.6,3.2-3.2
						C956.8,326.4,958.4,326.4,958.4,326.4z"/>
					<path opacity="0.3902" fill="#9B9B9B" enable-background="new    " d="M956.8,326.4c0,0,0,1.6-1.6,3.2c0,1.6-1.6,1.6-1.6,3.2
						c-1.6,1.6-1.6,3.2-3.2,3.2c-3.2,3.2-4.8,6.4-9.6,8c-4.8,3.2-9.6,4.8-14.4,6.4c-6.4,1.6-12.8,0-17.6-1.6s-9.6-4.8-11.2-8l0,0
						c-4.8-4.8-6.4-6.4-6.4-6.4s1.6,0,1.6,1.6l1.6,1.6c0,0,1.6,0,1.6,1.6l0,0l0,0l0,0l0,0c3.2,1.6,6.4,4.8,11.2,4.8
						c4.8,1.6,9.6,1.6,16,1.6c9.6-1.6,17.6-8,22.4-12.8c1.6-1.6,1.6-1.6,3.2-3.2c1.6,0,1.6-1.6,3.2-3.2
						C956.8,328,956.8,326.4,956.8,326.4z"/>
					<path opacity="0.4146" fill="#959595" enable-background="new    " d="M956.8,328c0,0-1.6,4.8-6.4,9.6
						c-4.8,4.8-12.8,11.2-24,14.4c-6.4,1.6-12.8,0-17.6-1.6s-9.6-4.8-11.2-6.4l0,0c-3.2-3.2-4.8-6.4-4.8-6.4s3.2,1.6,6.4,3.2l0,0
						c3.2,1.6,6.4,3.2,11.2,4.8c4.8,1.6,9.6,1.6,16,1.6c9.6-1.6,17.6-8,22.4-11.2C953.6,331.2,955.2,328,956.8,328z"/>
					<path opacity="0.439" fill="#8F8F8F" enable-background="new    " d="M955.2,329.6c0,0,0,1.6-1.6,3.2s-3.2,3.2-4.8,6.4
						C944,344,936,350.4,926.4,352c-6.4,1.6-12.8,0-17.6-1.6s-8-4.8-11.2-6.4l0,0c-3.2-3.2-4.8-4.8-4.8-4.8s3.2,1.6,4.8,3.2l0,0
						c3.2,1.6,6.4,3.2,11.2,4.8c4.8,1.6,9.6,1.6,16,1.6c9.6-1.6,16-6.4,20.8-11.2C952,331.2,955.2,328,955.2,329.6z"/>
					<path opacity="0.4634" fill="#898989" enable-background="new    " d="M955.2,329.6c0,0-1.6,4.8-6.4,9.6
						c-4.8,4.8-11.2,11.2-22.4,12.8c-6.4,1.6-12.8,0-17.6-1.6s-8-4.8-11.2-6.4l0,0c-3.2-3.2-3.2-3.2-3.2-4.8c0,0,1.6,0,4.8,1.6l0,0
						c3.2,1.6,6.4,3.2,11.2,4.8c4.8,1.6,9.6,1.6,16,1.6c9.6-1.6,16-6.4,20.8-11.2C952,332.8,955.2,329.6,955.2,329.6z"/>
					<path opacity="0.4878" fill="#838383" enable-background="new    " d="M953.6,331.2c0,0-1.6,3.2-6.4,8
						c-4.8,4.8-11.2,9.6-20.8,12.8c-6.4,1.6-12.8,0-19.2-1.6c-4.8-1.6-8-4.8-11.2-6.4l0,0c0-3.2,0-4.8,0-4.8s1.6,0,3.2,1.6l0,0
						c3.2,1.6,6.4,3.2,11.2,4.8c4.8,1.6,11.2,1.6,16,1.6c8-1.6,16-6.4,20.8-9.6C952,332.8,953.6,331.2,953.6,331.2z"/>
					<path opacity="0.5122" fill="#7C7C7C" enable-background="new    " d="M953.6,331.2c0,0-1.6,3.2-6.4,8
						c-4.8,4.8-11.2,9.6-20.8,11.2c-6.4,1.6-14.4,0-19.2-1.6s-8-4.8-9.6-6.4l0,0c-1.6-1.6-1.6-1.6-1.6-1.6s1.6,0,3.2,1.6l0,0
						c1.6,1.6,6.4,3.2,9.6,4.8c4.8,1.6,11.2,1.6,16,1.6c8-1.6,14.4-6.4,19.2-9.6C950.4,334.4,953.6,331.2,953.6,331.2z"/>
					<path opacity="0.5366" fill="#767676" enable-background="new    " d="M953.6,332.8c0,0-1.6,3.2-4.8,8
						c-4.8,4.8-11.2,9.6-20.8,11.2c-8,1.6-14.4,0-19.2-1.6s-8-4.8-9.6-6.4l0,0c-1.6-1.6-1.6-1.6-1.6-1.6s0,0,1.6,0l0,0
						c1.6,0,4.8,3.2,9.6,4.8c4.8,1.6,11.2,3.2,17.6,1.6c8-1.6,14.4-6.4,19.2-9.6C950.4,334.4,952,332.8,953.6,332.8z"/>
					<path opacity="0.561" fill="#707070" enable-background="new    " d="M952,334.4c0,0-1.6,3.2-4.8,8c-4.8,3.2-11.2,8-19.2,9.6
						s-16,0-20.8-3.2s-8-4.8-8-6.4l0,0l0,0l0,0l0,0c1.6,0,4.8,1.6,9.6,3.2s11.2,3.2,19.2,1.6s14.4-4.8,17.6-8
						C948.8,336,952,332.8,952,334.4z"/>
					<path opacity="0.5854" fill="#6A6A6A" enable-background="new    " d="M950.4,334.4c0,0-1.6,3.2-4.8,6.4
						c-3.2,3.2-9.6,8-19.2,9.6c-8,1.6-16,0-20.8-3.2s-6.4-4.8-6.4-4.8s3.2,1.6,8,3.2s11.2,3.2,19.2,1.6s12.8-4.8,17.6-8
						S950.4,334.4,950.4,334.4z"/>
					<path opacity="0.6098" fill="#646464" enable-background="new    " d="M950.4,336c0,0-1.6,3.2-4.8,6.4c-3.2,3.2-9.6,8-17.6,9.6
						s-16,0-20.8-3.2s-6.4-4.8-6.4-4.8s3.2,1.6,8,3.2s11.2,3.2,17.6,1.6c6.4-1.6,12.8-4.8,17.6-8C947.2,337.6,950.4,334.4,950.4,336
						z"/>
					<path opacity="0.6341" fill="#5D5D5D" enable-background="new    " d="M948.8,336c0,0-1.6,3.2-4.8,6.4c-3.2,3.2-9.6,6.4-17.6,8
						s-14.4,0-19.2-3.2c-4.8-1.6-6.4-4.8-6.4-4.8s3.2,1.6,8,3.2s11.2,3.2,17.6,1.6c6.4-1.6,12.8-4.8,16-6.4
						C947.2,337.6,948.8,336,948.8,336z"/>
					<path opacity="0.6585" fill="#575757" enable-background="new    " d="M948.8,337.6c0,0-1.6,3.2-4.8,6.4c-3.2,3.2-9.6,6.4-16,8
						c-8,1.6-14.4,0-17.6-1.6c-4.8-1.6-6.4-4.8-6.4-4.8s3.2,1.6,6.4,1.6c4.8,1.6,9.6,1.6,17.6,1.6c6.4-1.6,12.8-4.8,16-6.4
						C945.6,339.2,948.8,336,948.8,337.6z"/>
					<path opacity="0.6829" fill="#515151" enable-background="new    " d="M947.2,337.6c0,0-1.6,3.2-4.8,4.8c-3.2,3.2-9.6,6.4-16,8
						s-12.8,0-17.6-1.6s-6.4-3.2-6.4-3.2s3.2,0,6.4,1.6c4.8,1.6,9.6,1.6,16,1.6c6.4-1.6,11.2-3.2,14.4-6.4
						C945.6,339.2,947.2,337.6,947.2,337.6z"/>
					<path opacity="0.7073" fill="#4B4B4B" enable-background="new    " d="M947.2,339.2c0,0-1.6,1.6-4.8,4.8
						c-3.2,3.2-8,6.4-14.4,6.4c-6.4,1.6-12.8,0-16-1.6c-4.8-1.6-6.4-3.2-6.4-3.2s3.2,0,6.4,1.6s9.6,1.6,16,0
						C939.2,345.6,945.6,337.6,947.2,339.2z"/>
					<path opacity="0.7317" fill="#444444" enable-background="new    " d="M945.6,339.2c0,0-1.6,1.6-4.8,4.8
						c-3.2,1.6-8,4.8-14.4,6.4s-11.2,0-16-1.6c-3.2-1.6-6.4-3.2-6.4-3.2s9.6,3.2,20.8,1.6C937.6,345.6,945.6,339.2,945.6,339.2z"/>
					<path opacity="0.7561" fill="#3E3E3E" enable-background="new    " d="M945.6,340.8c0,0-1.6,1.6-4.8,4.8
						c-3.2,1.6-8,4.8-12.8,6.4c-6.4,1.6-11.2,0-14.4-1.6s-4.8-3.2-4.8-3.2s9.6,3.2,19.2,1.6C937.6,345.6,944,339.2,945.6,340.8z"/>
					<path opacity="0.7805" fill="#383838" enable-background="new    " d="M944,340.8c0,0-1.6,1.6-4.8,3.2s-8,4.8-12.8,4.8
						c-4.8,1.6-11.2,0-14.4,0c-3.2-1.6-4.8-1.6-4.8-3.2c0,0,8,3.2,19.2,1.6C936,345.6,944,340.8,944,340.8z"/>
					<path opacity="0.8049" fill="#323232" enable-background="new    " d="M942.4,342.4c0,0-6.4,6.4-16,8c-4.8,1.6-9.6,0-12.8,0
						c-3.2-1.6-4.8-1.6-4.8-1.6s8,1.6,17.6,0C936,345.6,942.4,340.8,942.4,342.4z"/>
					<path opacity="0.8293" fill="#2C2C2C" enable-background="new    " d="M942.4,342.4c0,0-4.8,6.4-14.4,8
						c-9.6,1.6-17.6-1.6-16-1.6c0,0,8,1.6,16,0C936,347.2,942.4,342.4,942.4,342.4z"/>
					<path opacity="0.8537" fill="#252525" enable-background="new    " d="M940.8,344c0,0-4.8,4.8-14.4,6.4c-9.6,1.6-16-1.6-16-1.6
						s6.4,1.6,16,0C934.4,347.2,940.8,342.4,940.8,344z"/>
					<path opacity="0.878" fill="#1F1F1F" enable-background="new    " d="M940.8,344c0,0-4.8,4.8-12.8,6.4c-9.6,1.6-16-1.6-16-1.6
						s6.4,1.6,14.4,0C934.4,347.2,939.2,344,940.8,344z"/>
					<path opacity="0.9024" fill="#191919" enable-background="new    " d="M939.2,344c0,0-4.8,4.8-12.8,4.8c-8,1.6-12.8,0-12.8-1.6
						c0,0,6.4,1.6,12.8,0C934.4,347.2,939.2,344,939.2,344z"/>
					<path opacity="0.9268" fill="#131313" enable-background="new    " d="M937.6,345.6c0,0-4.8,3.2-11.2,4.8
						c-6.4,1.6-12.8,0-11.2,0c0,0,4.8,0,11.2,0C932.8,347.2,937.6,344,937.6,345.6z"/>
					<path opacity="0.9512" fill="#0C0C0C" enable-background="new    " d="M937.6,345.6c0,0-4.8,3.2-9.6,4.8
						c-6.4,1.6-11.2,0-11.2,0s4.8,0,11.2,0C932.8,347.2,936,345.6,937.6,345.6z"/>
					<path opacity="0.9756" fill="#060606" enable-background="new    " d="M936,345.6c0,0-3.2,3.2-9.6,3.2c-4.8,1.6-9.6,0-9.6,0
						s4.8,0,9.6,0C931.2,347.2,936,345.6,936,345.6z"/>
					<path d="M934.4,347.2c0,0,0,0-1.6,1.6c-1.6,0-3.2,1.6-6.4,1.6c-4.8,1.6-8,0-8,0s3.2,0,8-1.6
						C931.2,348.8,934.4,347.2,934.4,347.2z"/>
				</g>
			</g>
			<path fill="#113A52" d="M974.4,275.2c0,0,1.6-59.2-48-59.2c-4.8,0-3.2-3.2-3.2-3.2s-6.4,3.2-8,3.2c-20.8,0-43.2,0-48,38.4
				l20.8-11.2c0,0,9.6,6.4,22.4,14.4c3.2,1.6,9.6,9.6,9.6,9.6s-1.6-6.4,14.4,3.2C950.4,276.8,966.4,280,974.4,275.2z"/>
		</g>
	</g>
</g>
<g>
	<path fill="#F15A24" d="M1188.9,1186.3l46.3-26.6c0.9-0.5,1.4-1.3,1.4-2.2v-17.2l-46.3,26.8c-0.9,0.5-1.4,1.3-1.4,2.2
		L1188.9,1186.3z"/>
	<g>
		<polygon fill="#0071BC" points="1205.5,1177.9 1189.6,1186.9 1211,1199.3 1211,1181.2 		"/>
		<path fill="#0071BC" d="M1212,1181.8v0.5l0.3-0.5l-0.2,18.1l-0.1,0v0l23.1-13c0.9-0.5,1.9-1.3,1.9-2.2V1168L1212,1181.8z"/>
	</g>
</g>
</svg>
